<svg width="100" height="100" viewBox="0 0 100 100" fill="none" xmlns="http://www.w3.org/2000/svg">
<circle cx="50" cy="50" r="48.5" fill="white" stroke="url(#paint0_linear_176_1979)" stroke-width="3"/>
<path fill-rule="evenodd" clip-rule="evenodd" d="M37.0441 23.1744C36.8782 23.2651 34.3253 25.7485 31.3712 28.6932L26 34.0469V54.7338V75.4207L26.275 75.6903L26.5498 75.9599L47.0959 75.9918C62.4424 76.0157 67.7085 75.9892 67.9054 75.8873C68.2337 75.7171 68.4746 75.1713 68.3676 74.8403C68.3231 74.7031 68.1721 74.4862 68.032 74.3582C67.781 74.1288 67.4961 74.1255 47.824 74.1255H27.8709V54.7167V35.308H32.7536C36.0749 35.308 37.7303 35.266 37.9304 35.1766C38.0922 35.1043 38.2848 34.9154 38.3586 34.7569C38.4497 34.5606 38.4925 32.9375 38.4925 29.681V24.8935H52.4938H66.4951V31.5854V38.2774L66.7915 38.5678C67.1834 38.9522 67.7381 38.9522 68.13 38.5678L68.4263 38.2774V30.9292V23.581L68.13 23.2905L67.8338 23L52.5898 23.0047C39.7887 23.0088 37.2975 23.0359 37.0441 23.1744ZM32.8196 29.8693L29.1382 33.4123L32.8498 33.4134L36.5613 33.4145V29.8641C36.5613 27.9114 36.5478 26.3165 36.5311 26.32C36.5145 26.3234 34.8444 27.9206 32.8196 29.8693ZM59.783 40.5744C55.5937 41.2981 51.9501 44.0713 50.3737 47.7359C49.6021 49.5299 49.4178 50.5163 49.4233 52.8232C49.4278 54.7389 49.4531 54.9736 49.7597 55.9507C51.1139 60.2668 54.5868 63.5146 59.0883 64.6747C60.0009 64.9099 60.4335 64.9489 62.0292 64.9398C63.6349 64.9306 64.0486 64.8876 64.9484 64.6365L65.9966 64.344L68.5694 69.146C71.4202 74.467 71.7407 74.9151 73.194 75.6124C73.8486 75.9265 74.0346 75.9599 75.1278 75.9599C76.253 75.9599 76.3939 75.9325 77.1489 75.5681C78.181 75.0699 79.0385 74.2515 79.5401 73.2858C79.8637 72.6629 79.9436 72.3544 79.9886 71.5547C80.0503 70.4613 79.8656 69.7247 79.3142 68.8647C79.1346 68.5846 77.509 66.7548 75.7018 64.7983C73.8946 62.8419 72.25 61.0559 72.0472 60.8296L71.6786 60.4179L72.2299 59.6448C72.9859 58.5844 73.6934 57.0593 74.0654 55.6879C74.3337 54.6987 74.3781 54.2844 74.3855 52.7049C74.3952 50.6095 74.1799 49.5409 73.3821 47.7231C72.197 45.0231 69.8202 42.6364 67.1213 41.4367C65.1165 40.5454 62.0422 40.1841 59.783 40.5744ZM60.1777 42.4064C56.6219 43.0404 53.561 45.339 52.1722 48.4179C51.4906 49.9291 51.1728 52.1502 51.3993 53.8194C52.0287 58.4561 55.1488 61.8634 59.6617 62.8421C60.7313 63.0741 63.0546 63.1023 64.0208 62.8949C69.4925 61.7209 73.3044 56.2517 72.3582 50.9326C71.6396 46.8932 68.6592 43.739 64.5036 42.62C63.5419 42.3611 61.1062 42.2408 60.1777 42.4064ZM33.108 43.1593C32.8732 43.3573 32.7794 43.5484 32.7794 43.8289C32.7794 44.1094 32.8732 44.3005 33.108 44.4985L33.4366 44.7757H37.4677C40.2065 44.7757 41.5947 44.7328 41.7979 44.6419C41.9626 44.5684 42.1618 44.3554 42.2408 44.1686C42.4251 43.7323 42.2228 43.2056 41.7979 43.0159C41.5947 42.925 40.2065 42.8821 37.4677 42.8821H33.4366L33.108 43.1593ZM57.3478 52.0316C55.4451 53.9071 55.1493 54.2481 55.1493 54.5656C55.1493 54.8299 55.2531 55.0181 55.5206 55.2388C56.1823 55.7847 56.0696 55.8522 58.7529 53.3039C59.374 52.7141 59.918 52.2315 59.9616 52.2315C60.0053 52.2315 60.7708 52.9485 61.6629 53.825C63.3801 55.5121 63.6856 55.6938 64.2835 55.3831C64.684 55.1752 68.3387 51.5815 68.5341 51.2038C68.7315 50.8219 68.6979 50.5259 68.4175 50.1764C68.2286 49.9409 68.0592 49.8646 67.7251 49.8646C67.3171 49.8646 67.1491 49.9953 65.5631 51.5476L63.8436 53.2305L62.1122 51.5476C60.5556 50.0341 60.339 49.8646 59.9636 49.8646C59.5828 49.8646 59.3536 50.0545 57.3478 52.0316ZM33.108 50.7334C32.8732 50.9314 32.7794 51.1226 32.7794 51.403C32.7794 51.6835 32.8732 51.8747 33.108 52.0727L33.4366 52.3498H37.4677C40.2065 52.3498 41.5947 52.307 41.7979 52.2161C42.2228 52.0264 42.4251 51.4996 42.2408 51.0634C42.1618 50.8765 41.9626 50.6635 41.7979 50.59C41.5947 50.4991 40.2065 50.4563 37.4677 50.4563H33.4366L33.108 50.7334ZM33.108 58.3076C32.8732 58.5056 32.7794 58.6967 32.7794 58.9772C32.7794 59.2577 32.8732 59.4488 33.108 59.6468L33.4366 59.924H37.4677C40.2065 59.924 41.5947 59.8811 41.7979 59.7902C42.2228 59.6005 42.4251 59.0738 42.2408 58.6375C42.1618 58.4507 41.9626 58.2377 41.7979 58.1642C41.5947 58.0733 40.2065 58.0304 37.4677 58.0304H33.4366L33.108 58.3076ZM69.9351 62.1276C69.736 62.2944 69.1928 62.674 68.7281 62.9713C68.2634 63.2684 67.8646 63.5259 67.8418 63.5435C67.754 63.6108 72.8223 72.9008 73.1204 73.2192C73.9101 74.0623 75.4277 74.3254 76.4644 73.7987C77.5908 73.2265 78.241 71.9159 77.9709 70.762C77.8934 70.4313 77.7647 70.0475 77.6847 69.9091C77.5717 69.7134 73.8368 65.622 70.6526 62.2056L70.2972 61.8244L69.9351 62.1276ZM33.108 65.8817C32.8732 66.0797 32.7794 66.2709 32.7794 66.5513C32.7794 66.8318 32.8732 67.023 33.108 67.2209L33.4366 67.4981H37.4677C40.2065 67.4981 41.5947 67.4553 41.7979 67.3644C41.9626 67.2909 42.1618 67.0779 42.2408 66.891C42.4251 66.4548 42.2228 65.928 41.7979 65.7383C41.5947 65.6474 40.2065 65.6046 37.4677 65.6046H33.4366L33.108 65.8817Z" fill="url(#paint1_linear_176_1979)"/>
<defs>
<linearGradient id="paint0_linear_176_1979" x1="30.5071" y1="13.7879" x2="71.4742" y2="13.819" gradientUnits="userSpaceOnUse">
<stop stop-color="#3887DB"/>
<stop offset="1" stop-color="#1E4875"/>
</linearGradient>
<linearGradient id="paint1_linear_176_1979" x1="42.4739" y1="30.3076" x2="64.5961" y2="30.3247" gradientUnits="userSpaceOnUse">
<stop stop-color="#3887DB"/>
<stop offset="1" stop-color="#1E4875"/>
</linearGradient>
</defs>
</svg>
