<svg width="100" height="100" viewBox="0 0 100 100" fill="none" xmlns="http://www.w3.org/2000/svg">
<circle cx="50" cy="50" r="48.5" fill="white" stroke="url(#paint0_linear_64_245)" stroke-width="3"/>
<path fill-rule="evenodd" clip-rule="evenodd" d="M48.2563 15.5V18H49.507H50.7577V15.5V13H49.507H48.2563V15.5ZM34.3772 18.0428L33.563 18.8669L35.3601 20.6578L37.1572 22.4489L38.0536 21.5531L38.9499 20.6572L37.235 18.938C36.2918 17.9923 35.4462 17.2188 35.3559 17.2188C35.2655 17.2188 34.8251 17.5895 34.3772 18.0428ZM61.7789 18.938L60.064 20.6572L60.9603 21.5531L61.8568 22.4489L63.6538 20.6578L65.4509 18.8669L64.6367 18.0428C64.1888 17.5895 63.7484 17.2188 63.6581 17.2188C63.5677 17.2188 62.7221 17.9923 61.7789 18.938ZM41.6586 23.3017C38.5314 24.3009 36.8192 26.917 37.0496 30.3438C37.226 32.9661 38.3269 35.2822 40.8378 38.313C43.1289 41.0784 48.4665 45.5 49.5138 45.5C50.5577 45.5 55.8708 41.0952 58.1608 38.3314C60.6348 35.3453 61.7783 32.9667 61.9629 30.4219C62.2221 26.847 60.3403 24.0872 57.0611 23.2336C54.7675 22.6366 52.0435 23.295 50.2388 24.8828L49.507 25.5266L48.7752 24.8828C46.9077 23.2398 43.9254 22.5772 41.6586 23.3017ZM42.162 25.8059C40.6003 26.3445 39.5014 27.9694 39.5014 29.7394C39.5014 31.4906 40.4681 33.7606 42.1266 35.9041C43.4205 37.5761 45.9653 40.0366 48.0129 41.5952L49.507 42.7323L51.0011 41.5952C58.3429 36.0067 61.3734 29.8183 58.2821 26.7262C56.1957 24.6392 52.6046 25.3064 50.8058 28.115C49.9527 29.4472 49.0592 29.4442 48.2031 28.1066C47.45 26.9302 46.5006 26.1747 45.315 25.8088C44.0747 25.4258 43.2657 25.4252 42.162 25.8059ZM28.2452 31.75V33H30.7466H33.248V31.75V30.5H30.7466H28.2452V31.75ZM65.7659 31.75V33H68.2673H70.7687V31.75V30.5H68.2673H65.7659V31.75ZM27.3855 50.8403C26.9589 51.1756 26.954 51.1989 27.0521 52.4419C27.2529 54.9883 28.3997 59.0863 29.7661 62.1406C30.8254 64.5084 31.8697 66.1895 35.8527 71.938L39.5014 77.2039V82.602V88H40.7521H42.0028V82.2494V76.4987L41.5613 75.8041C41.3185 75.422 39.609 72.9297 37.7625 70.2656C35.916 67.6016 34.141 64.9845 33.818 64.4498C32.9101 62.9469 31.4618 59.7994 30.9223 58.1562C30.5138 56.9125 29.6585 53.5152 29.6536 53.1172C29.6511 52.9039 32.3143 52.9803 32.3736 53.1953C33.3705 56.8166 34.7311 59.732 37.0266 63.1653C40.1008 67.7633 40.7506 68.4678 42.4207 69.0138C43.08 69.2292 44.0755 69.2569 49.7455 69.2175C56.2144 69.1725 56.3189 69.1667 57.1037 68.8117C58.4049 68.223 59.5314 66.872 62.4707 62.3761C64.1103 59.8681 65.1298 57.7795 65.9889 55.1686L66.6768 53.0781L68.0166 53.033L69.3562 52.988L69.2612 53.5017C68.9404 55.235 68.0278 58.3484 67.3584 59.9936C66.177 62.8973 65.2544 64.4319 60.9586 70.6394L57.0111 76.3433V82.1717V88H58.2618H59.5125L59.5148 82.5703L59.517 77.1406L63.0423 72.0625C64.9811 69.2695 66.9067 66.4219 67.3216 65.7344C69.4916 62.1381 70.9988 58.0973 71.7131 53.9611C72.1113 51.6553 72.1037 51.3512 71.6356 50.8836C71.2552 50.5033 71.2262 50.5 68.2917 50.5C65.7033 50.5 65.2899 50.5344 64.9993 50.7734C64.7774 50.9561 64.3869 51.9122 63.8236 53.652C62.5737 57.512 61.5234 59.4761 58.2201 64.1302C57.0927 65.7186 56.6767 66.1833 56.1567 66.4348C55.7984 66.6081 55.4235 66.75 55.3236 66.75C55.2237 66.75 55.4227 66.3158 55.7659 65.785C58.5424 61.4917 56.2745 55.7847 51.2747 54.4831C48.2189 53.6877 44.8355 55.0559 43.0961 57.7906C41.5571 60.2106 41.6664 63.8558 43.3439 66.0522C43.9267 66.8155 43.8244 66.8958 42.8392 66.4487C42.3047 66.2061 41.9215 65.7758 40.6629 64.0039C37.6335 59.7398 36.335 57.3786 35.4278 54.4844C34.6275 51.9319 34.1738 50.817 33.8688 50.6539C33.7099 50.5689 32.2918 50.5 30.6998 50.5C27.9766 50.5 27.7946 50.5188 27.3855 50.8403ZM48.3344 56.8861C46.9007 57.2609 45.5171 58.3973 44.9232 59.6881C44.4456 60.7256 44.4456 62.7744 44.9232 63.8119C45.357 64.7544 46.4027 65.7958 47.3964 66.275C48.5047 66.8092 50.338 66.8191 51.5034 66.2967C53.2031 65.5352 54.4159 63.6417 54.4159 61.75C54.4159 59.8488 53.192 57.9442 51.5034 57.2183C50.6262 56.8411 49.1133 56.6825 48.3344 56.8861Z" fill="url(#paint1_linear_64_245)"/>
<defs>
<linearGradient id="paint0_linear_64_245" x1="30.5071" y1="13.7879" x2="71.4742" y2="13.819" gradientUnits="userSpaceOnUse">
<stop stop-color="#3887DB"/>
<stop offset="1" stop-color="#1E4875"/>
</linearGradient>
<linearGradient id="paint1_linear_64_245" x1="40.7282" y1="23.3409" x2="59.1634" y2="23.3493" gradientUnits="userSpaceOnUse">
<stop stop-color="#3887DB"/>
<stop offset="1" stop-color="#1E4875"/>
</linearGradient>
</defs>
</svg>
