<svg width="100" height="100" viewBox="0 0 100 100" fill="none" xmlns="http://www.w3.org/2000/svg">
<circle cx="50" cy="50" r="48.5" fill="white" stroke="url(#paint0_linear_176_1972)" stroke-width="3"/>
<path fill-rule="evenodd" clip-rule="evenodd" d="M69.078 17.0784C64.4829 17.8793 61.2842 21.7691 61.5315 26.2552C61.6584 28.5588 62.4964 30.4222 64.1276 32.0282C66.6084 34.4705 70.2319 35.2825 73.5937 34.1492C74.8964 33.71 75.8001 33.1374 76.9508 32.0219C78.7057 30.3206 79.5778 28.2648 79.5778 25.8288C79.5778 23.3621 78.712 21.346 76.8896 19.5694C75.1825 17.9054 73.3572 17.1228 70.9219 17.0111C70.2871 16.9819 69.4573 17.0122 69.078 17.0784ZM68.9984 18.7178C67.0047 19.0833 64.7485 20.7891 63.8692 22.5956C63.0811 24.2149 62.8827 25.6613 63.2283 27.2676C63.5328 28.6825 64.2115 29.8766 65.332 30.9692C66.9294 32.5267 68.6424 33.1718 70.8578 33.0502C74.2426 32.8644 77.0264 30.6185 77.793 27.4553C78.0399 26.4367 77.9806 24.6754 77.6668 23.7019C76.8873 21.2843 74.7584 19.3402 72.2616 18.7661C71.3502 18.5565 69.988 18.5364 68.9984 18.7178ZM70.0185 20.3808C69.8372 20.5577 69.7024 20.8361 69.7006 21.0376C69.698 21.3353 69.6041 21.4273 69.0698 21.6563C68.631 21.8442 68.3326 22.0866 68.0789 22.4609C67.7601 22.9316 67.716 23.1126 67.716 23.9527C67.716 24.7861 67.7613 24.9757 68.0681 25.4279C68.4886 26.0479 68.8246 26.2319 70.1325 26.5587C71.4887 26.8978 71.7554 27.0852 71.7554 27.6992C71.7554 28.3201 71.3083 28.7064 70.59 28.7064C69.8211 28.7064 69.4655 28.486 69.2956 27.9038C69.1054 27.2522 68.8452 26.9548 68.4655 26.9548C68.0838 26.9548 67.6516 27.3705 67.6527 27.7368C67.655 28.6766 68.2882 29.623 69.1757 30.0135C69.6111 30.205 69.6988 30.31 69.7707 30.7251C69.9529 31.7777 71.3707 31.6932 71.3707 30.6296C71.3707 30.3205 71.4441 30.2322 71.8071 30.104C72.9039 29.7172 73.4227 28.9178 73.422 27.6167C73.4216 26.9777 73.3556 26.6616 73.1555 26.3414C72.6812 25.5822 72.4842 25.482 70.3159 24.896C69.5051 24.6769 69.2798 24.4235 69.3433 23.8024C69.3976 23.272 69.9064 22.9193 70.6037 22.9287C71.2602 22.9374 71.6949 23.2855 71.8124 23.8962C71.916 24.4351 72.1914 24.7028 72.6423 24.7028C73.1411 24.7028 73.4225 24.3478 73.4225 23.7183C73.4225 22.7741 72.7098 21.8276 71.7229 21.4615C71.4565 21.3628 71.3702 21.2463 71.3688 20.9838C71.3664 20.5667 71.2689 20.4078 70.8983 20.2175C70.498 20.0119 70.3727 20.0351 70.0185 20.3808ZM49.6547 21.8038C49.3777 22.1023 49.384 22.6105 49.6675 22.861C49.7957 22.9741 50.442 23.146 51.168 23.26C51.8694 23.3701 52.4619 23.4782 52.4844 23.5003C52.5339 23.5486 37.1799 34.5766 36.9362 34.6678C36.8426 34.7028 36.1439 34.3611 35.3833 33.9085C34.613 33.4499 33.8524 33.0854 33.6662 33.0854C33.4245 33.0854 31.966 34.1113 28.4033 36.7871C25.6925 38.823 23.4243 40.5929 23.3626 40.7201C23.0981 41.266 23.7087 41.959 24.2746 41.7552C24.3989 41.7104 26.4677 40.1979 28.872 38.394C31.2764 36.5903 33.3631 35.0416 33.5091 34.9525C33.7466 34.8079 33.9277 34.8801 35.2243 35.6373C36.2519 36.2373 36.7688 36.4697 36.9991 36.4349C37.1778 36.408 40.9507 33.7814 45.3831 30.598C49.8157 27.4146 53.4645 24.8318 53.4917 24.8584C53.519 24.885 53.4568 25.4098 53.3535 26.0246C53.2503 26.6394 53.1647 27.241 53.1634 27.3614C53.1604 27.673 53.6203 28.0808 53.9749 28.0808C54.5595 28.0808 54.6952 27.7355 55.088 25.2477C55.578 22.1441 55.7374 22.3781 52.827 21.9284C50.1888 21.5209 49.9266 21.5107 49.6547 21.8038ZM54.5719 37.0149C49.67 38.2645 45.5398 39.3279 45.3935 39.3779C45.2472 39.428 44.9685 39.631 44.7741 39.8289C44.2486 40.3642 44.2181 40.96 44.6329 42.5912C45.0298 44.1521 45.3358 44.5975 46.1813 44.8446C46.6575 44.9838 47.2381 44.854 55.9835 42.6526C61.0964 41.3657 65.4437 40.2208 65.6444 40.1084C66.0621 39.8744 66.4978 39.1294 66.4978 38.6493C66.4978 38.0769 65.8497 35.8044 65.5816 35.4372C65.2295 34.9547 64.694 34.7088 64.0356 34.7275C63.7324 34.736 59.4737 35.7654 54.5719 37.0149ZM54.9635 38.5173C49.995 39.7738 45.9138 40.8531 45.8941 40.9159C45.8745 40.9787 45.9905 41.5366 46.1518 42.1558C46.3449 42.8973 46.5111 43.2941 46.6388 43.3181C46.8645 43.3605 64.7197 38.8738 64.8566 38.7402C64.9071 38.6909 64.831 38.2029 64.6873 37.6557C64.4144 36.6163 64.2433 36.2064 64.0889 36.2231C64.0385 36.2284 59.932 37.2609 54.9635 38.5173ZM69.319 36.5502C68.8279 36.7214 68.806 36.9061 68.806 40.8663V44.7209H67.206C65.6281 44.7209 65.6031 44.7252 65.3894 45.0433C65.2303 45.2804 65.204 45.445 65.2903 45.6646C65.3869 45.9102 71.3001 52.8103 72.4492 54.0184C72.7071 54.2895 72.8786 54.3612 73.1964 54.3312C73.5644 54.2963 74.0078 53.8342 77.2987 50.0558C81.1545 45.6289 81.2986 45.4166 80.7869 44.9174C80.6263 44.7608 80.2753 44.7209 79.0558 44.7209H77.526V40.8993V37.0776L77.2112 36.7706L76.8965 36.4634L73.2038 36.4733C71.173 36.4787 69.4247 36.5133 69.319 36.5502ZM70.3448 41.9531C70.3448 45.3882 70.3214 45.8352 70.1335 45.988C70.0091 46.0891 69.4827 46.1854 68.8536 46.2222L67.7849 46.2848L68.8405 47.49C69.421 48.153 70.6167 49.5177 71.4975 50.523L73.0992 52.3506L73.4416 52.0076C73.6298 51.819 74.8328 50.4542 76.1149 48.9747L78.4459 46.2848L77.3769 46.2512C75.7655 46.2008 75.859 46.4693 75.859 41.8919V38.0899H73.1019H70.3448V41.9531ZM42.392 45.941C42.1466 46.0612 41.8147 46.351 41.6547 46.5848C41.3933 46.9665 41.3636 47.1599 41.3636 48.4789V49.9477L40.9277 50.0275C40.688 50.0714 40.3406 50.2233 40.1557 50.3653C39.547 50.8325 39.44 51.2085 39.4406 52.8782C39.4409 54.193 39.4781 54.4765 39.6959 54.8249C39.9884 55.293 40.6534 55.7297 41.0751 55.7303C41.3578 55.7308 41.3636 55.7601 41.3641 57.2009C41.3646 58.8554 41.5181 59.2747 42.2921 59.735C42.6994 59.9774 42.9573 59.9838 52.458 59.9841C61.7223 59.9846 62.228 59.9731 62.6527 59.7516C63.4517 59.3347 63.6126 58.891 63.6116 57.107C63.6104 55.0654 63.352 54.5714 62.1224 54.2606L61.6889 54.151V52.8583V51.5658L62.29 51.3948C63.3904 51.0817 63.7389 50.2809 63.6489 48.2733C63.6031 47.2557 63.5373 46.9226 63.3118 46.5663C62.752 45.6829 63.2502 45.7218 52.5007 45.722C43.5576 45.7221 42.8051 45.7384 42.392 45.941ZM43.0421 47.3974C42.9451 47.5114 42.9055 47.9852 42.9295 48.7431L42.9665 49.913H52.456H61.9454V48.5994V47.2857L52.5686 47.2536C44.6405 47.2265 43.1685 47.2486 43.0421 47.3974ZM41.1335 51.6263C40.9586 51.797 40.9186 53.8179 41.0851 54.0739C41.166 54.1982 43.1557 54.2243 50.6046 54.199L60.0219 54.1669V52.8532V51.5395L50.655 51.5075C43.4763 51.4828 41.2521 51.5106 41.1335 51.6263ZM43.0571 55.8802C42.8821 56.0508 42.8421 58.0718 43.0086 58.3278C43.0895 58.452 45.0792 58.4782 52.5282 58.4529L61.9454 58.4207V57.107V55.7934L52.5786 55.7613C45.3998 55.7367 43.1757 55.7645 43.0571 55.8802ZM22.2122 57.8363C22.0187 58.0449 22 58.885 22 67.3378V76.6105L22.2851 76.8052C22.5299 76.9726 23.207 77 27.0939 77C31.4467 77 31.6274 76.9905 31.8741 76.7498C32.0166 76.6108 32.1306 76.3328 32.1306 76.1242C32.1306 75.7982 32.1769 75.7489 32.4833 75.749C32.6773 75.7491 36.18 75.9197 40.2673 76.1281C48.0422 76.5243 48.3581 76.5212 49.5508 76.0359C50.2359 75.7571 66.6096 66.5278 67.1389 66.1221C67.8696 65.5619 68.3115 64.7489 68.3876 63.8245C68.5598 61.7305 67.0818 60.1718 64.9418 60.1909C63.98 60.1995 64.2311 60.0867 56.8166 63.8436L53.8677 65.3378L53.447 64.8582C53.2156 64.5944 52.7247 64.2415 52.3565 64.074C51.988 63.9064 48.714 62.8059 45.081 61.6286L38.4755 59.4879L35.303 59.4035L32.1306 59.3192V58.6703C32.1306 57.5601 32.3573 57.6075 27.043 57.6075C22.7315 57.6075 22.4104 57.6228 22.2122 57.8363ZM23.5388 67.2412V75.3735H27.0653H30.5918V67.2412V59.1088H27.0653H23.5388V67.2412ZM32.2063 60.9535C32.1646 60.994 32.1306 63.9696 32.1306 67.5659V74.1044L32.8039 74.1738C33.7443 74.2708 46.2417 74.8755 47.2783 74.8742C47.7456 74.8736 48.3644 74.7916 48.6535 74.6922C48.9426 74.5926 50.8685 73.5594 52.9334 72.396C54.9984 71.2327 58.7652 69.1119 61.3042 67.6831C63.8433 66.2543 66.078 64.9419 66.2704 64.7663C67.5533 63.5961 66.5502 61.5568 64.7965 61.7701C64.4287 61.8149 62.6621 62.6425 59.3166 64.3373L54.3795 66.8385L54.3022 67.5222C54.1384 68.9708 52.6655 70.3026 51.0629 70.451C50.4705 70.5059 49.8759 70.337 45.1553 68.7727C39.5975 66.9309 39.4456 66.8596 39.6215 66.1754C39.8096 65.4442 39.9211 65.4646 45.3729 67.2283C48.1599 68.13 50.64 68.8677 50.8842 68.8677C51.7162 68.8677 52.7766 67.8679 52.7766 67.0833C52.7766 66.5413 52.3021 65.806 51.7676 65.52C51.5114 65.3829 48.33 64.3113 44.6977 63.1387L38.0936 61.0067L35.1878 60.9433C33.5894 60.9082 32.2478 60.9128 32.2063 60.9535Z" fill="url(#paint1_linear_176_1972)"/>
<defs>
<linearGradient id="paint0_linear_176_1972" x1="30.5071" y1="13.7879" x2="71.4742" y2="13.819" gradientUnits="userSpaceOnUse">
<stop stop-color="#3887DB"/>
<stop offset="1" stop-color="#1E4875"/>
</linearGradient>
<linearGradient id="paint1_linear_176_1972" x1="39.9992" y1="25.2727" x2="64.1698" y2="25.2908" gradientUnits="userSpaceOnUse">
<stop stop-color="#3887DB"/>
<stop offset="1" stop-color="#1E4875"/>
</linearGradient>
</defs>
</svg>
