<svg width="199" height="149" viewBox="0 0 199 149" fill="none" xmlns="http://www.w3.org/2000/svg">
<path fill-rule="evenodd" clip-rule="evenodd" d="M130.084 125.693H116.596C116.074 125.693 115.651 126.117 115.651 126.639V147.69C115.651 148.212 116.074 148.635 116.596 148.635H130.084C130.606 148.635 131.03 148.212 131.03 147.69V126.639C131.03 126.117 130.606 125.693 130.084 125.693ZM129.138 127.584V146.744H117.541V127.584H129.138Z" fill="#0C0C0C"/>
<path fill-rule="evenodd" clip-rule="evenodd" d="M151.261 116.838H137.773C137.251 116.838 136.828 117.261 136.828 117.784V147.69C136.828 148.212 137.251 148.635 137.773 148.635H151.261C151.783 148.635 152.206 148.212 152.206 147.69V117.784C152.206 117.261 151.783 116.838 151.261 116.838ZM150.315 118.729V146.745H138.718V118.729H150.315Z" fill="#0C0C0C"/>
<path fill-rule="evenodd" clip-rule="evenodd" d="M172.407 102.846H158.919C158.397 102.846 157.974 103.269 157.974 103.792V147.69C157.974 148.212 158.397 148.635 158.919 148.635H172.407C172.929 148.635 173.352 148.212 173.352 147.69V103.792C173.352 103.269 172.929 102.846 172.407 102.846ZM171.461 104.737V146.745H159.864V104.737H171.461Z" fill="#0C0C0C"/>
<rect x="180.064" y="91.6903" width="13.4878" height="55.9997" fill="#0D5EFB"/>
<path fill-rule="evenodd" clip-rule="evenodd" d="M198.122 62.9499C197.901 62.7608 197.618 62.6978 197.365 62.7293L188.542 64.1474C188.037 64.2419 187.659 64.7147 187.754 65.2189C187.848 65.7231 188.321 66.0697 188.825 66.0067L194.592 65.0928L177.386 85.0724L170.358 78.3285C170.169 78.1395 169.917 78.0449 169.665 78.0764C169.413 78.0764 169.161 78.2025 169.003 78.3916L145.935 105.178L139.254 100.167C138.876 99.8839 138.372 99.9154 138.025 100.23L117.321 120.084C116.943 120.431 116.943 121.029 117.289 121.408C117.478 121.597 117.731 121.691 117.983 121.691C118.203 121.691 118.455 121.597 118.644 121.439L138.782 102.121L145.557 107.195C145.967 107.479 146.502 107.447 146.849 107.069L169.823 80.3769L176.85 87.1208C177.039 87.3099 177.291 87.4045 177.543 87.3729C177.796 87.3729 178.048 87.2469 178.205 87.0578L196.578 65.7231L196.452 73.1918C196.452 73.7275 196.861 74.1372 197.397 74.1372C197.901 74.1372 198.342 73.7275 198.342 73.1918L198.5 63.6432C198.468 63.4226 198.342 63.139 198.122 62.9499Z" fill="#0D5EFB"/>
<path fill-rule="evenodd" clip-rule="evenodd" d="M62.0779 124.969C62.6001 124.969 63.0233 125.392 63.0233 125.914C63.0233 126.418 62.6298 126.829 62.1335 126.858L62.0779 126.86H4.09287C3.57073 126.86 3.14746 126.436 3.14746 125.914C3.14746 125.411 3.54104 124.999 4.03732 124.97L4.09287 124.969H62.0779Z" fill="#0C0C0C"/>
<path fill-rule="evenodd" clip-rule="evenodd" d="M33.0852 143.688C33.6073 143.688 34.0306 144.111 34.0306 144.633C34.0306 145.137 33.637 145.548 33.1407 145.577L33.0852 145.579H2.83213C2.30999 145.579 1.88672 145.155 1.88672 144.633C1.88672 144.13 2.2803 143.718 2.77658 143.689L2.83213 143.688H33.0852Z" fill="#0C0C0C"/>
<path fill-rule="evenodd" clip-rule="evenodd" d="M31.604 106.628L38.2849 112.931V100.231L31.604 106.628Z" fill="#0D5EFB"/>
<path fill-rule="evenodd" clip-rule="evenodd" d="M21.9922 113.246L28.8622 106.659L21.9922 100.199V113.246Z" fill="#0D5EFB"/>
<path fill-rule="evenodd" clip-rule="evenodd" d="M56.0589 97.9932H40.6172L48.4011 105.336L56.0589 97.9932Z" fill="#0D5EFB"/>
<path fill-rule="evenodd" clip-rule="evenodd" d="M30.2172 107.951L22.4019 115.483H38.2217L30.2172 107.951Z" fill="#0D5EFB"/>
<path fill-rule="evenodd" clip-rule="evenodd" d="M40.1758 113.246L47.0457 106.659L40.1758 100.199V113.246Z" fill="#0D5EFB"/>
<path fill-rule="evenodd" clip-rule="evenodd" d="M2.83203 99.3167V114.16L10.6474 106.659L2.83203 99.3167Z" fill="#0D5EFB"/>
<path fill-rule="evenodd" clip-rule="evenodd" d="M12.0341 107.951L4.21875 115.483H20.0386L12.0341 107.951Z" fill="#0D5EFB"/>
<path fill-rule="evenodd" clip-rule="evenodd" d="M19.6604 97.9932H4.21875L12.0341 105.336L19.6604 97.9932Z" fill="#0D5EFB"/>
<path fill-rule="evenodd" clip-rule="evenodd" d="M56.468 112.931V100.231L49.7871 106.628L56.468 112.931Z" fill="#0D5EFB"/>
<path fill-rule="evenodd" clip-rule="evenodd" d="M13.4204 106.628L20.1013 112.931V100.231L13.4204 106.628Z" fill="#0D5EFB"/>
<path fill-rule="evenodd" clip-rule="evenodd" d="M48.4326 107.951L40.6172 115.483H56.437L48.4326 107.951Z" fill="#0D5EFB"/>
<path fill-rule="evenodd" clip-rule="evenodd" d="M37.8435 97.9932H22.4019L30.2172 105.336L37.8435 97.9932Z" fill="#0D5EFB"/>
<path fill-rule="evenodd" clip-rule="evenodd" d="M56.4054 115.483C56.4369 115.515 56.4369 115.515 56.4684 115.515V115.483H56.4054Z" fill="#0D5EFB"/>
<path fill-rule="evenodd" clip-rule="evenodd" d="M184.823 28.1274H175.054C174.532 28.1274 174.108 28.5507 174.108 29.0728V38.8421C174.108 39.3642 174.532 39.7875 175.054 39.7875H184.823C185.345 39.7875 185.768 39.3642 185.768 38.8421V29.0728C185.768 28.5507 185.345 28.1274 184.823 28.1274ZM183.878 30.018V37.8964H175.999V30.018H183.878Z" fill="#0C0C0C"/>
<path fill-rule="evenodd" clip-rule="evenodd" d="M186.746 10.4167H149.402C148.88 10.4167 148.457 10.84 148.457 11.3622V22.6125C148.457 23.1347 148.88 23.5579 149.402 23.5579H186.746C187.268 23.5579 187.691 23.1347 187.691 22.6125V11.3622C187.691 10.84 187.268 10.4167 186.746 10.4167ZM185.8 12.3076V21.6671H150.347V12.3076H185.8Z" fill="#0C0C0C"/>
<path fill-rule="evenodd" clip-rule="evenodd" d="M168.405 37.8966C168.927 37.8966 169.35 38.3199 169.35 38.842C169.35 39.3455 168.956 39.7571 168.46 39.7858L168.405 39.7874H149.402C148.88 39.7874 148.457 39.3641 148.457 38.842C148.457 38.3385 148.85 37.927 149.346 37.8982L149.402 37.8966H168.405Z" fill="#0C0C0C"/>
<path fill-rule="evenodd" clip-rule="evenodd" d="M149.402 73.5701C149.924 73.5701 150.347 73.9933 150.347 74.5155C150.347 75.019 149.954 75.4305 149.457 75.4593L149.402 75.4609H118.771C118.248 75.4609 117.825 75.0376 117.825 74.5155C117.825 74.012 118.219 73.6004 118.715 73.5717L118.771 73.5701H149.402Z" fill="#0C0C0C"/>
<path fill-rule="evenodd" clip-rule="evenodd" d="M65.5127 43.1594L101.123 25.1021C103.959 30.7115 105.44 36.8881 105.44 43.1594C105.44 65.0613 87.4147 83.0871 65.5127 83.0871C53.3485 83.0871 41.846 77.5407 34.2827 68.0236L65.5127 43.1594Z" fill="#0D5EFB"/>
<path fill-rule="evenodd" clip-rule="evenodd" d="M129.107 11.7404C129.629 11.7404 130.053 12.1636 130.053 12.6858C130.053 13.1893 129.659 13.6008 129.163 13.6296L129.107 13.6312H96.1124C95.5903 13.6312 95.167 13.2079 95.167 12.6858C95.167 12.1823 95.5606 11.7707 96.0569 11.742L96.1124 11.7404H129.107Z" fill="#0C0C0C"/>
<path fill-rule="evenodd" clip-rule="evenodd" d="M21.0152 11.6456C21.5373 11.6456 21.9606 12.0689 21.9606 12.591C21.9606 13.0945 21.567 13.5061 21.0707 13.5348L21.0152 13.5364H15.9415C15.4194 13.5364 14.9961 13.1132 14.9961 12.591C14.9961 12.0876 15.3897 11.676 15.886 11.6472L15.9415 11.6456H21.0152Z" fill="#0C0C0C"/>
<path fill-rule="evenodd" clip-rule="evenodd" d="M58.0653 43.9788L19.6502 44.3885C19.1281 44.3941 18.7093 44.8218 18.7149 45.3439C18.8094 54.1961 21.8351 62.5709 27.2399 69.3684C27.5645 69.7766 28.1584 69.8449 28.5671 69.5209L58.6626 45.6651C59.3686 45.1055 58.9661 43.9692 58.0653 43.9788ZM55.3242 45.8986L28.1421 67.4451L28.0689 67.3484C23.5452 61.318 20.9336 54.0737 20.633 46.4086L20.628 46.2689L55.3242 45.8986Z" fill="#0D5EFB"/>
<path fill-rule="evenodd" clip-rule="evenodd" d="M23.0013 27.282C21.2551 31.7958 20.3535 36.58 20.3535 41.5207V42.0249C20.3535 42.5519 20.7844 42.9771 21.3113 42.9702L59.6949 42.466C60.7342 42.4523 60.9936 41.0155 60.0246 40.6393L24.2252 26.7418C23.738 26.5527 23.1899 26.7947 23.0013 27.282ZM24.4343 28.8512L54.8002 40.6392L22.2472 41.0669L22.2497 40.8798C22.317 36.8276 23.0224 32.8931 24.3314 29.1425L24.4343 28.8512Z" fill="#0D5EFB"/>
<path fill-rule="evenodd" clip-rule="evenodd" d="M85.0797 4.0879L66.14 37.3978C65.6788 38.2089 66.5468 39.1269 67.3825 38.7118L101.701 21.6629C102.167 21.4311 102.359 20.8654 102.128 20.3981C98.6818 13.4089 93.1694 7.58699 86.3676 3.73266C85.9138 3.47551 85.3375 3.63447 85.0797 4.0879ZM86.2505 5.8536L86.3627 5.92102C92.1031 9.39683 96.8127 14.3716 99.9448 20.281L100.004 20.3943L69.3135 35.6412L86.2505 5.8536Z" fill="#0D5EFB"/>
<path fill-rule="evenodd" clip-rule="evenodd" d="M81.4897 5.43758C75.9433 2.25471 69.5145 0.426919 62.676 0.363892H62.0458C45.9423 0.52146 32.2339 10.5743 26.6875 24.7239L62.4239 38.7475L81.4897 5.43758Z" fill="#0C0C0C"/>
<path fill-rule="evenodd" clip-rule="evenodd" d="M26.8139 50.7542C27.336 50.7542 27.7593 51.1774 27.7593 51.6996C27.7593 52.203 27.3657 52.6146 26.8694 52.6434L26.8139 52.645H1.44541C0.923274 52.645 0.5 52.2217 0.5 51.6996C0.5 51.1961 0.89358 50.7845 1.38986 50.7558L1.44541 50.7542H26.8139Z" fill="#0C0C0C"/>
</svg>
