<svg width="214" height="143" viewBox="0 0 214 143" fill="none" xmlns="http://www.w3.org/2000/svg">
<path d="M12.2763 135.663H213.948V0.0521545H12.2763V135.663Z" fill="#0D5EFB" stroke="#0C0C0C" stroke-width="0.104357"/>
<path d="M0.510988 141.777H205.706V7.39955H0.510988V141.777Z" fill="white" stroke="#0C0C0C" stroke-width="0.621585"/>
<path d="M0.0683526 142.087V142.219L0.200135 142.219C60.5881 142.165 111.519 142.12 147.613 142.087C111.566 142.055 60.7213 142.01 0.436375 141.955C0.436369 141.999 0.436363 142.043 0.436358 142.087L0.436341 142.214L0.347207 142.124L0.163209 141.94L0.0744702 141.85L0.200229 141.851C0.244168 141.851 0.288103 141.851 0.332032 141.851C0.334875 120.057 0.33772 97.0438 0.340678 73.1143C0.343308 51.8432 0.346027 29.848 0.348914 7.34171C0.30473 7.34171 0.260544 7.34174 0.216357 7.34174H0.200182H0.074212L0.163286 7.25266L0.364229 7.05171L0.453319 6.96262L0.453303 7.08861C0.453296 7.13818 0.45329 7.18776 0.453284 7.23732C77.9588 7.22195 149.415 7.20738 205.805 7.19585C205.805 7.16013 205.805 7.1244 205.805 7.08867L205.805 6.98137C169.311 6.9744 126.508 6.96585 79.8378 6.9565C54.32 6.95139 27.6463 6.94604 0.216346 6.94061H0.200182H0.0521783V7.08861C0.0549506 31.7848 0.0579283 55.8669 0.0607953 79.0535C0.0635017 100.942 0.0661094 122.032 0.0683526 142.087V142.087ZM0.325893 141.955L0.332018 141.961C0.332018 141.959 0.332018 141.957 0.332018 141.955C0.329976 141.955 0.327935 141.955 0.325893 141.955ZM0.34893 7.2146L0.32618 7.23735C0.333762 7.23735 0.341345 7.23734 0.348927 7.23734C0.348928 7.22975 0.348929 7.22218 0.34893 7.2146ZM206.017 7.30017C205.981 7.30017 205.945 7.30019 205.91 7.30019C205.954 44.402 205.99 75.2028 206.017 97.953C206.044 75.2027 206.08 44.4018 206.124 7.30014L206.017 7.30017ZM206.124 7.08861V6.98141H206.017C205.953 6.98141 205.888 6.98138 205.824 6.98138L205.894 7.05171L206.054 7.21109L206.124 7.28119C206.124 7.217 206.124 7.15285 206.124 7.08861Z" fill="#0C0C0C" stroke="#0C0C0C" stroke-width="0.104357"/>
<path d="M83.2917 81.9684L63.1529 81.6904L63.0349 101.445L63.1012 101.446C74.0545 101.446 83.1089 92.7029 83.2917 81.9684Z" fill="#33535F" stroke="#0C0C0C" stroke-width="0.104357"/>
<mask id="path-5-inside-1_176_1850" fill="white">
<path d="M96.5741 109.048C96.5741 109.061 96.4247 109.072 96.1414 109.083C95.8211 109.091 95.41 109.102 94.9034 109.115C93.7871 109.128 92.2504 109.146 90.3803 109.168L90.3233 109.168L90.2863 109.122C88.4801 106.847 86.1497 103.911 83.6082 100.708C81.6342 98.1912 79.788 95.8377 78.2251 93.8436L78.329 93.8944C75.8915 93.8721 73.8505 93.8528 72.3715 93.839C71.6832 93.8236 71.1282 93.8113 70.7047 93.802C70.3205 93.7889 70.1157 93.7759 70.1157 93.7612C70.1157 93.7474 70.3205 93.7335 70.7047 93.7204C71.1282 93.712 71.6832 93.6989 72.3715 93.6842C73.8505 93.6704 75.8915 93.6511 78.329 93.6288L78.3929 93.628L78.4337 93.6796C80.0066 95.6652 81.8652 98.0095 83.8515 100.516C86.3722 103.736 88.6834 106.687 90.4742 108.974L90.3803 108.929C92.2504 108.951 93.7871 108.968 94.9034 108.981C95.4108 108.994 95.8211 109.005 96.1414 109.014C96.4247 109.024 96.5741 109.036 96.5741 109.048Z"/>
</mask>
<path d="M96.5741 109.048C96.5741 109.061 96.4247 109.072 96.1414 109.083C95.8211 109.091 95.41 109.102 94.9034 109.115C93.7871 109.128 92.2504 109.146 90.3803 109.168L90.3233 109.168L90.2863 109.122C88.4801 106.847 86.1497 103.911 83.6082 100.708C81.6342 98.1912 79.788 95.8377 78.2251 93.8436L78.329 93.8944C75.8915 93.8721 73.8505 93.8528 72.3715 93.839C71.6832 93.8236 71.1282 93.8113 70.7047 93.802C70.3205 93.7889 70.1157 93.7759 70.1157 93.7612C70.1157 93.7474 70.3205 93.7335 70.7047 93.7204C71.1282 93.712 71.6832 93.6989 72.3715 93.6842C73.8505 93.6704 75.8915 93.6511 78.329 93.6288L78.3929 93.628L78.4337 93.6796C80.0066 95.6652 81.8652 98.0095 83.8515 100.516C86.3722 103.736 88.6834 106.687 90.4742 108.974L90.3803 108.929C92.2504 108.951 93.7871 108.968 94.9034 108.981C95.4108 108.994 95.8211 109.005 96.1414 109.014C96.4247 109.024 96.5741 109.036 96.5741 109.048Z" fill="#0C0C0C"/>
<path d="M96.1414 109.083L96.1454 109.187L96.1442 109.187L96.1414 109.083ZM94.9034 109.115L94.9061 109.22L94.9047 109.22L94.9034 109.115ZM90.3803 109.168L90.3789 109.063L90.3791 109.063L90.3803 109.168ZM90.3233 109.168L90.3247 109.273L90.2737 109.273L90.2418 109.234L90.3233 109.168ZM90.2863 109.122L90.2048 109.187L90.2046 109.187L90.2863 109.122ZM83.6082 100.708L83.5265 100.773L83.5261 100.772L83.6082 100.708ZM78.2251 93.8436L78.143 93.908L78.2709 93.7499L78.2251 93.8436ZM78.329 93.8944L78.3749 93.8007L78.3281 93.9988L78.329 93.8944ZM72.3715 93.839L72.3706 93.9433L72.3692 93.9433L72.3715 93.839ZM70.7047 93.802L70.7024 93.9064L70.7012 93.9063L70.7047 93.802ZM70.7047 93.7204L70.7012 93.6161L70.7026 93.6161L70.7047 93.7204ZM72.3715 93.6842L72.3693 93.5799L72.3706 93.5799L72.3715 93.6842ZM78.329 93.6288L78.3303 93.7332L78.33 93.7332L78.329 93.6288ZM78.3929 93.628L78.3917 93.5237L78.4429 93.5231L78.4748 93.5633L78.3929 93.628ZM78.4337 93.6796L78.3519 93.7444L78.3519 93.7444L78.4337 93.6796ZM83.8515 100.516L83.9333 100.452L83.9337 100.452L83.8515 100.516ZM90.4742 108.974L90.5564 108.91L90.4288 109.068L90.4742 108.974ZM90.3803 108.929L90.3348 109.023L90.3815 108.825L90.3803 108.929ZM94.9034 108.981L94.9047 108.877L94.9061 108.877L94.9034 108.981ZM96.1414 109.014L96.1442 108.909L96.1454 108.909L96.1414 109.014ZM96.6785 109.048C96.6785 109.105 96.6369 109.133 96.6297 109.138C96.6171 109.146 96.6051 109.15 96.5996 109.152C96.587 109.156 96.5737 109.159 96.563 109.16C96.5403 109.164 96.5093 109.167 96.4723 109.17C96.3973 109.176 96.2874 109.182 96.1454 109.187L96.1375 108.979C96.2788 108.973 96.3852 108.968 96.4558 108.962C96.4915 108.959 96.5156 108.957 96.5297 108.954C96.5375 108.953 96.538 108.953 96.5347 108.954C96.5338 108.954 96.5254 108.957 96.5151 108.963C96.5102 108.967 96.4698 108.993 96.4698 109.048H96.6785ZM96.1442 109.187C95.8239 109.196 95.4128 109.207 94.9061 109.22L94.9007 109.011C95.4073 108.998 95.8184 108.987 96.1387 108.979L96.1442 109.187ZM94.9047 109.22C93.7883 109.233 92.2516 109.25 90.3815 109.272L90.3791 109.063C92.2492 109.042 93.7859 109.024 94.9022 109.011L94.9047 109.22ZM90.3817 109.272L90.3247 109.273L90.3219 109.064L90.3789 109.063L90.3817 109.272ZM90.2418 109.234L90.2048 109.187L90.3678 109.057L90.4048 109.103L90.2418 109.234ZM90.2046 109.187C88.3984 106.912 86.0679 103.976 83.5265 100.773L83.69 100.643C86.2314 103.846 88.5619 106.782 90.3681 109.057L90.2046 109.187ZM83.5261 100.772C81.5521 98.2556 79.7059 95.902 78.143 93.908L78.3072 93.7792C79.8701 95.7733 81.7163 98.1268 83.6903 100.644L83.5261 100.772ZM78.2709 93.7499L78.3749 93.8007L78.2832 93.9882L78.1793 93.9374L78.2709 93.7499ZM78.3281 93.9988C75.8906 93.9764 73.8495 93.9572 72.3706 93.9433L72.3725 93.7346C73.8515 93.7485 75.8925 93.7677 78.33 93.7901L78.3281 93.9988ZM72.3692 93.9433C71.6809 93.9279 71.1258 93.9156 70.7024 93.9064L70.707 93.6977C71.1305 93.7069 71.6856 93.7193 72.3739 93.7347L72.3692 93.9433ZM70.7012 93.9063C70.5089 93.8998 70.3602 93.8932 70.2591 93.8863C70.2089 93.8829 70.1684 93.8793 70.1394 93.8753C70.1256 93.8734 70.1104 93.8709 70.0971 93.8671C70.0912 93.8655 70.0792 93.8619 70.0667 93.8548C70.0604 93.8512 70.0489 93.844 70.0379 93.8315C70.0263 93.8183 70.0114 93.7943 70.0114 93.7612H70.2201C70.2201 93.729 70.2055 93.706 70.1947 93.6937C70.1845 93.6821 70.1742 93.6758 70.1695 93.6731C70.1642 93.6701 70.1599 93.6684 70.1578 93.6676C70.1555 93.6668 70.154 93.6663 70.1535 93.6662C70.1528 93.666 70.1566 93.667 70.168 93.6686C70.1895 93.6715 70.2241 93.6748 70.2732 93.6781C70.3706 93.6847 70.5164 93.6912 70.7083 93.6977L70.7012 93.9063ZM70.0114 93.7612C70.0114 93.7263 70.028 93.7018 70.0396 93.6892C70.0508 93.6771 70.0623 93.6702 70.0683 93.6669C70.0805 93.6603 70.0921 93.6569 70.0978 93.6553C70.1109 93.6518 70.1258 93.6493 70.1396 93.6475C70.1684 93.6435 70.2088 93.6399 70.259 93.6364C70.3601 93.6295 70.5088 93.6227 70.7012 93.6161L70.7083 93.8247C70.5165 93.8313 70.3707 93.8379 70.2733 93.8446C70.2243 93.848 70.1895 93.8513 70.1679 93.8542C70.1564 93.8558 70.1523 93.8568 70.1527 93.8567C70.1531 93.8566 70.1546 93.8562 70.1567 93.8554C70.1586 93.8547 70.1627 93.8531 70.1679 93.8503C70.1724 93.8479 70.1827 93.8419 70.193 93.8307C70.2039 93.8189 70.2201 93.7953 70.2201 93.7612H70.0114ZM70.7026 93.6161C71.1261 93.6076 71.6806 93.5945 72.3693 93.5799L72.3738 93.7886C71.6859 93.8032 71.1302 93.8163 70.7068 93.8248L70.7026 93.6161ZM72.3706 93.5799C73.8495 93.566 75.8906 93.5468 78.3281 93.5245L78.33 93.7332C75.8925 93.7555 73.8515 93.7747 72.3725 93.7886L72.3706 93.5799ZM78.3278 93.5245L78.3917 93.5237L78.3942 93.7324L78.3303 93.7332L78.3278 93.5245ZM78.4748 93.5633L78.5156 93.6149L78.3519 93.7444L78.3111 93.6928L78.4748 93.5633ZM78.5155 93.6148C80.0884 95.6004 81.9469 97.9447 83.9333 100.452L83.7697 100.581C81.7834 98.0744 79.9248 95.73 78.3519 93.7444L78.5155 93.6148ZM83.9337 100.452C86.4544 103.672 88.7655 106.623 90.5564 108.91L90.392 109.039C88.6013 106.752 86.29 103.8 83.7694 100.581L83.9337 100.452ZM90.4288 109.068L90.3348 109.023L90.4257 108.835L90.5196 108.881L90.4288 109.068ZM90.3815 108.825C92.2516 108.846 93.7883 108.864 94.9047 108.877L94.9022 109.086C93.7859 109.073 92.2492 109.055 90.3791 109.033L90.3815 108.825ZM94.9061 108.877C95.4135 108.89 95.8239 108.901 96.1442 108.909L96.1387 109.118C95.8184 109.11 95.4081 109.099 94.9007 109.086L94.9061 108.877ZM96.1454 108.909C96.2874 108.915 96.3973 108.92 96.4723 108.926C96.5093 108.929 96.5403 108.933 96.563 108.936C96.5737 108.938 96.587 108.94 96.5996 108.945C96.6051 108.946 96.6171 108.951 96.6297 108.959C96.6369 108.964 96.6785 108.992 96.6785 109.048H96.4698C96.4698 109.104 96.5102 109.13 96.5151 109.133C96.5253 109.14 96.5338 109.143 96.5347 109.143C96.538 109.144 96.5375 109.144 96.5297 109.142C96.5156 109.14 96.4915 109.137 96.4558 109.134C96.3852 109.129 96.2788 109.123 96.1375 109.118L96.1454 108.909Z" fill="#0C0C0C" mask="url(#path-5-inside-1_176_1850)"/>
<path d="M97.2857 111.485C99.0939 111.485 100.731 111.468 101.916 111.44C102.508 111.425 102.987 111.409 103.318 111.39C103.367 111.387 103.412 111.385 103.455 111.382C103.412 111.379 103.367 111.376 103.318 111.373C102.987 111.355 102.508 111.338 101.916 111.324C100.731 111.296 99.0939 111.279 97.2857 111.279C95.4771 111.279 93.8399 111.296 92.6551 111.324C92.0626 111.338 91.5836 111.355 91.253 111.373C91.2039 111.376 91.1581 111.379 91.1158 111.382C91.1581 111.385 91.2039 111.387 91.253 111.39C91.5836 111.409 92.0626 111.425 92.6551 111.44C93.8399 111.468 95.4771 111.485 97.2857 111.485Z" fill="#0C0C0C" stroke="#0C0C0C" stroke-width="0.104357"/>
<path d="M97.2857 113.91C99.0939 113.91 100.731 113.893 101.916 113.865C102.508 113.851 102.987 113.834 103.318 113.816C103.366 113.813 103.411 113.811 103.452 113.808C103.411 113.805 103.366 113.802 103.318 113.8C102.987 113.781 102.508 113.764 101.916 113.75C100.731 113.722 99.0939 113.705 97.2857 113.705C95.4771 113.705 93.8399 113.722 92.6551 113.75C92.0626 113.764 91.5836 113.781 91.253 113.8C91.2048 113.802 91.1598 113.805 91.1181 113.808C91.1598 113.811 91.2048 113.813 91.253 113.816C91.5836 113.834 92.0626 113.851 92.6551 113.865C93.8399 113.893 95.4771 113.91 97.2857 113.91Z" fill="#0C0C0C" stroke="#0C0C0C" stroke-width="0.104357"/>
<path d="M59.8472 78.7565L59.8479 78.7051H59.8994H80.0932C80.0641 67.8635 70.9604 58.9491 59.8994 58.9491C48.8207 58.9491 39.7055 67.8921 39.7055 78.7572C39.7055 89.4993 48.6173 98.3828 59.5639 98.5615L59.8472 78.7565Z" fill="#0D5EFB" stroke="#0C0C0C" stroke-width="0.104357"/>
<mask id="path-10-inside-2_176_1850" fill="white">
<path d="M51.995 72.2626C51.9966 72.2757 51.8749 72.3034 51.644 72.345C51.3683 72.3889 51.0357 72.442 50.6369 72.5059C49.7077 72.6368 48.4727 72.81 46.9999 73.0164L46.9399 73.024L46.8952 72.9809C45.5109 71.6344 43.8433 70.0122 42.0441 68.2615C39.7144 65.9764 37.6172 63.8946 36.1105 62.3771C35.3914 61.6442 34.7947 61.0352 34.3366 60.5686C33.9232 60.1367 33.7007 59.8903 33.7161 59.8749C33.7315 59.8595 33.9817 60.0766 34.4213 60.4824C34.8971 60.9305 35.5169 61.5156 36.2637 62.2208C37.8104 63.6983 39.9315 65.7547 42.262 68.0405C44.0466 69.8059 45.7003 71.4411 47.0731 72.7992L46.9684 72.7638C48.4458 72.6014 49.6861 72.4643 50.6185 72.3619C51.0211 72.325 51.3568 72.2942 51.634 72.2696C51.8688 72.2526 51.9935 72.2495 51.995 72.2626Z"/>
</mask>
<path d="M51.995 72.2626C51.9966 72.2757 51.8749 72.3034 51.644 72.345C51.3683 72.3889 51.0357 72.442 50.6369 72.5059C49.7077 72.6368 48.4727 72.81 46.9999 73.0164L46.9399 73.024L46.8952 72.9809C45.5109 71.6344 43.8433 70.0122 42.0441 68.2615C39.7144 65.9764 37.6172 63.8946 36.1105 62.3771C35.3914 61.6442 34.7947 61.0352 34.3366 60.5686C33.9232 60.1367 33.7007 59.8903 33.7161 59.8749C33.7315 59.8595 33.9817 60.0766 34.4213 60.4824C34.8971 60.9305 35.5169 61.5156 36.2637 62.2208C37.8104 63.6983 39.9315 65.7547 42.262 68.0405C44.0466 69.8059 45.7003 71.4411 47.0731 72.7992L46.9684 72.7638C48.4458 72.6014 49.6861 72.4643 50.6185 72.3619C51.0211 72.325 51.3568 72.2942 51.634 72.2696C51.8688 72.2526 51.9935 72.2495 51.995 72.2626Z" fill="#0C0C0C"/>
<path d="M51.644 72.345L51.6625 72.4477L51.6604 72.4481L51.644 72.345ZM50.6369 72.5059L50.6534 72.609L50.6515 72.6092L50.6369 72.5059ZM46.9999 73.0164L47.0144 73.1197L47.0132 73.1199L46.9999 73.0164ZM46.9399 73.024L46.9531 73.1276L46.9034 73.1339L46.8674 73.0991L46.9399 73.024ZM46.8952 72.9809L46.8227 73.056L46.8225 73.0558L46.8952 72.9809ZM42.0441 68.2615L41.9713 68.3362L41.971 68.336L42.0441 68.2615ZM36.1105 62.3771L36.0364 62.4506L36.036 62.4502L36.1105 62.3771ZM34.3366 60.5686L34.2621 60.6417L34.2612 60.6408L34.3366 60.5686ZM34.4213 60.4824L34.4921 60.4057L34.4928 60.4064L34.4213 60.4824ZM36.2637 62.2208L36.3353 62.1449L36.3357 62.1454L36.2637 62.2208ZM42.262 68.0405L42.335 67.966L42.3354 67.9663L42.262 68.0405ZM47.0731 72.7992L47.1465 72.7251L47.0396 72.8981L47.0731 72.7992ZM46.9684 72.7638L46.9349 72.8627L46.957 72.6601L46.9684 72.7638ZM50.6185 72.3619L50.6071 72.2582L50.6089 72.258L50.6185 72.3619ZM51.634 72.2696L51.6247 72.1656L51.6265 72.1655L51.634 72.2696ZM52.0987 72.2504C52.1039 72.295 52.0807 72.3251 52.0705 72.3361C52.0593 72.3482 52.0478 72.3553 52.042 72.3586C52.0296 72.3658 52.0165 72.3707 52.0073 72.3739C51.9872 72.3807 51.9607 72.3877 51.9304 72.3948C51.8686 72.4092 51.7783 72.4269 51.6624 72.4477L51.6255 72.2423C51.7406 72.2216 51.8266 72.2046 51.883 72.1915C51.9118 72.1848 51.9298 72.1798 51.9394 72.1765C51.945 72.1746 51.9429 72.1748 51.9378 72.1778C51.9356 72.179 51.9267 72.1842 51.9173 72.1944C51.9088 72.2036 51.8864 72.2319 51.8914 72.2748L52.0987 72.2504ZM51.6604 72.4481C51.3848 72.4919 51.0522 72.5451 50.6534 72.6089L50.6204 72.4029C51.0193 72.339 51.3519 72.2858 51.6276 72.242L51.6604 72.4481ZM50.6515 72.6092C49.7222 72.7401 48.4872 72.9134 47.0144 73.1197L46.9854 72.913C48.4583 72.7067 49.6931 72.5334 50.6224 72.4026L50.6515 72.6092ZM47.0132 73.1199L46.9531 73.1276L46.9266 72.9205L46.9867 72.9128L47.0132 73.1199ZM46.8674 73.0991L46.8227 73.056L46.9677 72.9059L47.0124 72.949L46.8674 73.0991ZM46.8225 73.0558C45.4382 71.7092 43.7706 70.087 41.9713 68.3362L42.1169 68.1867C43.9161 69.9374 45.5837 71.5596 46.968 72.9061L46.8225 73.0558ZM41.971 68.336C39.6411 66.0507 37.5435 63.9685 36.0364 62.4506L36.1845 62.3036C37.6908 63.8206 39.7877 65.9021 42.1172 68.187L41.971 68.336ZM36.036 62.4502C35.3168 61.7171 34.7202 61.1083 34.2621 60.6417L34.4111 60.4955C34.8692 60.9621 35.466 61.5712 36.185 62.304L36.036 62.4502ZM34.2612 60.6408C34.0543 60.4246 33.8944 60.2541 33.7878 60.1352C33.7348 60.0761 33.6937 60.0283 33.6663 59.9935C33.6531 59.9767 33.6407 59.9599 33.6318 59.945C33.6278 59.9383 33.6212 59.9266 33.6166 59.9124C33.6144 59.9055 33.6107 59.892 33.611 59.875C33.6113 59.8573 33.6166 59.8269 33.6423 59.8011L33.7899 59.9487C33.8146 59.9239 33.8194 59.8949 33.8197 59.8791C33.82 59.8639 33.8167 59.8528 33.8153 59.8486C33.8126 59.8399 33.8095 59.8355 33.8109 59.8379C33.8128 59.8411 33.8186 59.8494 33.8305 59.8646C33.8534 59.8938 33.8909 59.9375 33.9432 59.9959C34.0474 60.1121 34.2054 60.2807 34.412 60.4964L34.2612 60.6408ZM33.6423 59.8011C33.6678 59.7756 33.6978 59.7704 33.7151 59.7698C33.7318 59.7693 33.745 59.7728 33.752 59.7749C33.7661 59.7791 33.7779 59.7855 33.7846 59.7894C33.7997 59.798 33.8167 59.8101 33.8338 59.823C33.8691 59.8497 33.9177 59.8898 33.9778 59.9417C34.0986 60.046 34.2721 60.2026 34.4921 60.4057L34.3505 60.5591C34.1309 60.3564 33.9595 60.2016 33.8414 60.0997C33.7821 60.0485 33.7377 60.012 33.7081 59.9896C33.6927 59.978 33.6842 59.9724 33.6809 59.9705C33.6785 59.9691 33.6829 59.972 33.6915 59.9746C33.6956 59.9759 33.7065 59.9789 33.7214 59.9785C33.7367 59.978 33.7654 59.9732 33.7899 59.9487L33.6423 59.8011ZM34.4928 60.4064C34.9687 60.8546 35.5885 61.4397 36.3353 62.145L36.192 62.2967C35.4452 61.5915 34.8255 61.0064 34.3498 60.5584L34.4928 60.4064ZM36.3357 62.1454C37.8829 63.6232 40.0043 65.6799 42.335 67.966L42.1889 68.115C39.8586 65.8294 37.7379 63.7733 36.1916 62.2963L36.3357 62.1454ZM42.3354 67.9663C44.12 69.7316 45.7737 71.367 47.1465 72.7251L46.9997 72.8734C45.6269 71.5153 43.9732 69.8801 42.1886 68.1147L42.3354 67.9663ZM47.0396 72.8981L46.9349 72.8627L47.0018 72.665L47.1065 72.7004L47.0396 72.8981ZM46.957 72.6601C48.4343 72.4977 49.6748 72.3606 50.6071 72.2582L50.6298 72.4657C49.6974 72.5681 48.4573 72.7051 46.9798 72.8676L46.957 72.6601ZM50.6089 72.258C51.0115 72.2211 51.3474 72.1903 51.6247 72.1656L51.6432 72.3735C51.3662 72.3981 51.0307 72.4289 50.628 72.4659L50.6089 72.258ZM51.6265 72.1655C51.7442 72.157 51.8363 72.1518 51.8998 72.1505C51.931 72.1499 51.9585 72.1501 51.9796 72.1518C51.9893 72.1526 52.0032 72.1541 52.0171 72.158C52.0235 72.1599 52.0367 72.164 52.0505 72.1731C52.0634 72.1816 52.0934 72.2055 52.0987 72.2504L51.8914 72.2748C51.8965 72.3181 51.9253 72.3405 51.9361 72.3476C51.9478 72.3553 51.9579 72.3582 51.9603 72.3589C51.9662 72.3605 51.9683 72.3603 51.9624 72.3598C51.9524 72.359 51.9337 72.3586 51.9041 72.3592C51.8462 72.3604 51.7585 72.3652 51.6415 72.3736L51.6265 72.1655Z" fill="#0C0C0C" mask="url(#path-10-inside-2_176_1850)"/>
<path d="M22.0386 59.1035C23.8468 59.1035 25.4838 59.0861 26.6685 59.0581C27.2609 59.0441 27.7399 59.0275 28.0705 59.009C28.1187 59.0063 28.1637 59.0036 28.2054 59.0008C28.1637 58.9981 28.1187 58.9953 28.0705 58.9926C27.7399 58.9741 27.2609 58.9573 26.6685 58.9432C25.4837 58.9151 23.8468 58.8975 22.0386 58.8975C20.2296 58.8975 18.5924 58.9151 17.4077 58.9432C16.8153 58.9573 16.3364 58.9741 16.0058 58.9926C15.9576 58.9953 15.9126 58.9981 15.871 59.0008C15.9126 59.0036 15.9576 59.0063 16.0058 59.009C16.3364 59.0275 16.8153 59.0441 17.4077 59.0581C18.5924 59.0861 20.2296 59.1035 22.0386 59.1035Z" fill="#0C0C0C" stroke="#0C0C0C" stroke-width="0.104357"/>
<path d="M22.0386 61.5294C23.8468 61.5294 25.4837 61.5119 26.6685 61.4837C27.2609 61.4696 27.7399 61.4528 28.0705 61.4343C28.1187 61.4316 28.1637 61.4288 28.2054 61.4261C28.1637 61.4233 28.1187 61.4206 28.0705 61.4179C27.7399 61.3994 27.2609 61.3828 26.6685 61.3688C25.4838 61.3408 23.8468 61.3234 22.0386 61.3234C20.2296 61.3234 18.5924 61.3408 17.4077 61.3688C16.8153 61.3828 16.3364 61.3994 16.0058 61.4179C15.9576 61.4206 15.9126 61.4233 15.871 61.4261C15.9126 61.4288 15.9576 61.4316 16.0058 61.4343C16.3364 61.4528 16.8153 61.4696 17.4077 61.4837C18.5924 61.5119 20.2296 61.5294 22.0386 61.5294Z" fill="#0C0C0C" stroke="#0C0C0C" stroke-width="0.104357"/>
<mask id="path-14-inside-3_176_1850" fill="white">
<path d="M130.723 39.5232L130.643 27.1825C127.009 27.204 123.305 28.6415 120.462 31.1521C117.115 34.1101 114.972 38.5578 115.556 43.9332C115.62 44.5206 115.713 45.1173 115.844 45.7263L115.853 45.7694L115.854 45.7686L130.723 42.4234V39.5232Z"/>
</mask>
<path d="M130.723 39.5232L130.643 27.1825C127.009 27.204 123.305 28.6415 120.462 31.1521C117.115 34.1101 114.972 38.5578 115.556 43.9332C115.62 44.5206 115.713 45.1173 115.844 45.7263L115.853 45.7694L115.854 45.7686L130.723 42.4234V39.5232Z" fill="#F03D5F"/>
<path d="M130.643 27.1825L130.643 27.0781L130.747 27.0775L130.748 27.1818L130.643 27.1825ZM120.462 31.1521L120.393 31.0739L120.393 31.0739L120.462 31.1521ZM115.556 43.9332L115.453 43.9445L115.453 43.9445L115.556 43.9332ZM115.844 45.7263L115.946 45.7043L115.947 45.7062L115.844 45.7263ZM115.853 45.7694L115.899 45.8627L115.777 45.9241L115.75 45.7895L115.853 45.7694ZM115.854 45.7686L115.808 45.6753L115.819 45.6696L115.831 45.6668L115.854 45.7686ZM130.723 42.4234H130.828V42.5069L130.746 42.5252L130.723 42.4234ZM130.619 39.5239L130.539 27.1832L130.748 27.1818L130.828 39.5225L130.619 39.5239ZM130.644 27.2868C127.036 27.3082 123.355 28.7357 120.531 31.2303L120.393 31.0739C123.254 28.5472 126.983 27.0998 130.643 27.0781L130.644 27.2868ZM120.531 31.2303C117.208 34.1678 115.08 38.5831 115.66 43.9219L115.453 43.9445C114.864 38.5325 117.023 34.0523 120.393 31.0739L120.531 31.2303ZM115.66 43.9219C115.724 44.5061 115.815 45.0992 115.946 45.7043L115.742 45.7484C115.61 45.1354 115.517 44.5351 115.453 43.9445L115.66 43.9219ZM115.947 45.7062L115.955 45.7493L115.75 45.7895L115.742 45.7464L115.947 45.7062ZM115.806 45.6761L115.808 45.6753L115.901 45.862L115.899 45.8627L115.806 45.6761ZM115.831 45.6668L130.7 42.3216L130.746 42.5252L115.877 45.8705L115.831 45.6668ZM130.619 42.4234V39.5232H130.828V42.4234H130.619Z" fill="#0C0C0C" mask="url(#path-14-inside-3_176_1850)"/>
<path d="M115.556 43.9332C115.62 44.5179 115.712 45.1118 115.843 45.7178L115.893 45.7064M115.556 43.9332C115.492 43.335 115.46 42.7476 115.461 42.1732C115.464 37.5861 117.488 33.7813 120.462 31.1521M115.556 43.9332L115.608 43.9276C115.608 43.9276 115.608 43.9276 115.608 43.9276M115.556 43.9332L115.608 43.9276M120.462 31.1521C123.291 28.6535 126.974 27.2178 130.591 27.1829L130.592 27.2351M120.462 31.1521L120.497 31.1912C120.497 31.1912 120.497 31.1912 120.497 31.1912M120.462 31.1521L120.497 31.1912M130.592 27.2351C130.609 27.2349 130.626 27.2348 130.644 27.2347L130.723 39.5232M130.592 27.2351C126.987 27.2699 123.317 28.7006 120.497 31.1912M130.592 27.2351L130.671 39.5232H130.723M130.723 39.5232V42.4234M130.723 39.5232L130.671 39.5236L130.671 42.3817M130.723 42.4234L115.904 45.7575L115.896 45.7163L115.895 45.7153L115.895 45.7153C115.895 45.7123 115.894 45.7093 115.893 45.7064M130.723 42.4234L130.712 42.3725L130.671 42.3817M130.723 42.4234H130.671V42.3817M115.893 45.7064C115.763 45.1024 115.672 44.5105 115.608 43.9276M115.893 45.7064L130.671 42.3817M115.608 43.9276C115.544 43.3312 115.512 42.7457 115.513 42.1733L115.513 42.1732C115.516 37.6025 117.533 33.8115 120.497 31.1912" fill="#0D5EFB" stroke="#0C0C0C" stroke-width="0.104357"/>
<mask id="path-17-inside-4_176_1850" fill="white">
<path d="M146.05 35.7243C143.971 31.3836 139.877 27.9067 134.048 27.3224C133.892 27.307 133.735 27.2923 133.577 27.2816C133.477 27.2739 133.379 27.2638 133.277 27.2585C132.983 27.2423 132.683 27.2338 132.382 27.2323L132.341 27.2315H132.339L132.301 27.23V27.2315V27.2323L132.382 39.573L132.4 42.4732L147.274 45.7184L147.292 45.7214C147.52 44.6798 147.629 43.605 147.623 42.5225C147.611 40.2097 147.074 37.8631 146.05 35.7243Z"/>
</mask>
<path d="M146.05 35.7243C143.971 31.3836 139.877 27.9067 134.048 27.3224C133.892 27.307 133.735 27.2923 133.577 27.2816C133.477 27.2739 133.379 27.2638 133.277 27.2585C132.983 27.2423 132.683 27.2338 132.382 27.2323L132.341 27.2315H132.339L132.301 27.23V27.2315V27.2323L132.382 39.573L132.4 42.4732L147.274 45.7184L147.292 45.7214C147.52 44.6798 147.629 43.605 147.623 42.5225C147.611 40.2097 147.074 37.8631 146.05 35.7243Z" fill="#F03D5F"/>
<path d="M134.048 27.3224L134.058 27.2185L134.058 27.2185L134.048 27.3224ZM133.577 27.2816L133.57 27.3857L133.569 27.3856L133.577 27.2816ZM133.277 27.2585L133.271 27.3627L133.271 27.3627L133.277 27.2585ZM132.382 27.2323L132.381 27.3366L132.38 27.3366L132.382 27.2323ZM132.341 27.2315V27.1271L132.343 27.1272L132.341 27.2315ZM132.339 27.2315V27.3359L132.334 27.3358L132.339 27.2315ZM132.301 27.23H132.196V27.1213L132.305 27.1257L132.301 27.23ZM132.301 27.2323L132.196 27.233V27.2323H132.301ZM132.382 39.573L132.486 39.5723L132.486 39.5723L132.382 39.573ZM132.4 42.4732L132.378 42.5752L132.296 42.5574L132.296 42.4739L132.4 42.4732ZM147.274 45.7184L147.257 45.8214L147.252 45.8203L147.274 45.7184ZM147.292 45.7214L147.394 45.7437L147.373 45.8407L147.275 45.8244L147.292 45.7214ZM147.623 42.5225L147.518 42.5231V42.523L147.623 42.5225ZM145.956 35.7694C143.891 31.458 139.827 28.0066 134.037 27.4262L134.058 27.2185C139.928 27.8069 144.051 31.3091 146.144 35.6792L145.956 35.7694ZM134.037 27.4262C133.882 27.4109 133.726 27.3963 133.57 27.3857L133.584 27.1774C133.744 27.1883 133.902 27.2031 134.058 27.2185L134.037 27.4262ZM133.569 27.3856C133.466 27.3776 133.372 27.368 133.271 27.3627L133.283 27.1543C133.386 27.1597 133.489 27.1701 133.585 27.1775L133.569 27.3856ZM133.271 27.3627C132.979 27.3466 132.681 27.3382 132.381 27.3366L132.382 27.1279C132.686 27.1295 132.987 27.138 133.283 27.1543L133.271 27.3627ZM132.38 27.3366L132.339 27.3358L132.343 27.1272L132.384 27.1279L132.38 27.3366ZM132.341 27.3359H132.339V27.1271H132.341V27.3359ZM132.334 27.3358L132.297 27.3343L132.305 27.1257L132.343 27.1272L132.334 27.3358ZM132.405 27.23V27.2315H132.196V27.23H132.405ZM132.405 27.2315V27.2323H132.196V27.2315H132.405ZM132.405 27.2316L132.486 39.5723L132.277 39.5737L132.196 27.233L132.405 27.2316ZM132.486 39.5723L132.504 42.4726L132.296 42.4739L132.277 39.5737L132.486 39.5723ZM132.422 42.3713L147.296 45.6164L147.252 45.8203L132.378 42.5752L132.422 42.3713ZM147.291 45.6154L147.309 45.6185L147.275 45.8244L147.257 45.8213L147.291 45.6154ZM147.19 45.6991C147.416 44.6653 147.524 43.5982 147.518 42.5231L147.727 42.5219C147.733 43.6117 147.624 44.6942 147.394 45.7437L147.19 45.6991ZM147.518 42.523C147.507 40.2258 146.973 37.8943 145.956 35.7693L146.144 35.6792C147.174 37.8318 147.715 40.1936 147.727 42.522L147.518 42.523Z" fill="#0C0C0C" mask="url(#path-17-inside-4_176_1850)"/>
<mask id="path-19-inside-5_176_1850" fill="white">
<path d="M147.292 45.7214L147.274 45.7184L132.4 42.4732L132.382 39.573L132.301 27.2323V27.2315V27.23L132.339 27.2315H132.341L132.382 27.2323C132.683 27.2338 132.983 27.2423 133.277 27.2585C133.379 27.2638 133.477 27.2739 133.577 27.2816C133.735 27.2923 133.892 27.307 134.048 27.3224C139.877 27.9067 143.971 31.3836 146.05 35.7243C147.074 37.8631 147.611 40.2097 147.623 42.5225C147.623 42.5479 147.623 42.5733 147.623 42.5987C147.623 43.655 147.515 44.7044 147.292 45.7214Z"/>
</mask>
<path d="M147.292 45.7214L147.274 45.7184L132.4 42.4732L132.382 39.573L132.301 27.2323V27.2315V27.23L132.339 27.2315H132.341L132.382 27.2323C132.683 27.2338 132.983 27.2423 133.277 27.2585C133.379 27.2638 133.477 27.2739 133.577 27.2816C133.735 27.2923 133.892 27.307 134.048 27.3224C139.877 27.9067 143.971 31.3836 146.05 35.7243C147.074 37.8631 147.611 40.2097 147.623 42.5225C147.623 42.5479 147.623 42.5733 147.623 42.5987C147.623 43.655 147.515 44.7044 147.292 45.7214Z" fill="#0C0C0C"/>
<path d="M147.274 45.7184L147.257 45.8214L147.252 45.8203L147.274 45.7184ZM132.4 42.4732L132.378 42.5752L132.296 42.5574L132.296 42.4739L132.4 42.4732ZM132.382 39.573L132.486 39.5723L132.486 39.5723L132.382 39.573ZM132.301 27.2323L132.196 27.233V27.2323H132.301ZM132.301 27.23H132.196V27.1213L132.305 27.1257L132.301 27.23ZM132.339 27.2315V27.3359L132.334 27.3358L132.339 27.2315ZM132.341 27.2315V27.1271L132.343 27.1272L132.341 27.2315ZM132.382 27.2323L132.381 27.3366L132.38 27.3366L132.382 27.2323ZM133.277 27.2585L133.271 27.3627L133.271 27.3627L133.277 27.2585ZM133.577 27.2816L133.57 27.3857L133.569 27.3856L133.577 27.2816ZM134.048 27.3224L134.058 27.2185L134.058 27.2185L134.048 27.3224ZM146.05 35.7243L146.144 35.6792L146.144 35.6792L146.05 35.7243ZM147.623 42.5225L147.727 42.522V42.5225H147.623ZM147.623 42.5987L147.518 42.5988V42.5987H147.623ZM147.275 45.8244L147.257 45.8213L147.291 45.6154L147.309 45.6185L147.275 45.8244ZM147.252 45.8203L132.378 42.5752L132.422 42.3713L147.296 45.6164L147.252 45.8203ZM132.296 42.4739L132.277 39.5737L132.486 39.5723L132.504 42.4726L132.296 42.4739ZM132.277 39.5737L132.196 27.233L132.405 27.2316L132.486 39.5723L132.277 39.5737ZM132.196 27.2323V27.2315H132.405V27.2323H132.196ZM132.196 27.2315V27.23H132.405V27.2315H132.196ZM132.305 27.1257L132.343 27.1272L132.334 27.3358L132.297 27.3343L132.305 27.1257ZM132.339 27.1271H132.341V27.3359H132.339V27.1271ZM132.343 27.1272L132.384 27.1279L132.38 27.3366L132.339 27.3358L132.343 27.1272ZM132.382 27.1279C132.686 27.1295 132.987 27.138 133.283 27.1543L133.271 27.3627C132.979 27.3466 132.681 27.3382 132.381 27.3366L132.382 27.1279ZM133.283 27.1543C133.386 27.1597 133.489 27.1701 133.585 27.1775L133.569 27.3856C133.466 27.3776 133.372 27.368 133.271 27.3627L133.283 27.1543ZM133.584 27.1774C133.744 27.1883 133.902 27.2031 134.058 27.2185L134.037 27.4262C133.882 27.4109 133.726 27.3963 133.57 27.3857L133.584 27.1774ZM134.058 27.2185C139.928 27.8069 144.051 31.3091 146.144 35.6792L145.956 35.7694C143.891 31.458 139.827 28.0066 134.037 27.4262L134.058 27.2185ZM146.144 35.6792C147.174 37.8318 147.715 40.1936 147.727 42.522L147.518 42.523C147.507 40.2258 146.973 37.8943 145.956 35.7693L146.144 35.6792ZM147.727 42.5225C147.727 42.5225 147.727 42.5226 147.727 42.5226C147.727 42.5227 147.727 42.5227 147.727 42.5228C147.727 42.5228 147.727 42.5229 147.727 42.5229C147.727 42.523 147.727 42.523 147.727 42.5231C147.727 42.5231 147.727 42.5232 147.727 42.5232C147.727 42.5233 147.727 42.5233 147.727 42.5234C147.727 42.5234 147.727 42.5235 147.727 42.5235C147.727 42.5236 147.727 42.5236 147.727 42.5237C147.727 42.5237 147.727 42.5238 147.727 42.5238C147.727 42.5239 147.727 42.5239 147.727 42.524C147.727 42.524 147.727 42.5241 147.727 42.5241C147.727 42.5242 147.727 42.5242 147.727 42.5243C147.727 42.5243 147.727 42.5244 147.727 42.5244C147.727 42.5245 147.727 42.5245 147.727 42.5246C147.727 42.5246 147.727 42.5247 147.727 42.5247C147.727 42.5248 147.727 42.5248 147.727 42.5249C147.727 42.5249 147.727 42.525 147.727 42.525C147.727 42.5251 147.727 42.5251 147.727 42.5252C147.727 42.5252 147.727 42.5253 147.727 42.5253C147.727 42.5254 147.727 42.5254 147.727 42.5255C147.727 42.5255 147.727 42.5256 147.727 42.5256C147.727 42.5257 147.727 42.5257 147.727 42.5258C147.727 42.5258 147.727 42.5259 147.727 42.5259C147.727 42.526 147.727 42.526 147.727 42.5261C147.727 42.5261 147.727 42.5262 147.727 42.5262C147.727 42.5263 147.727 42.5263 147.727 42.5264C147.727 42.5264 147.727 42.5265 147.727 42.5265C147.727 42.5266 147.727 42.5266 147.727 42.5267C147.727 42.5267 147.727 42.5268 147.727 42.5268C147.727 42.5269 147.727 42.5269 147.727 42.527C147.727 42.527 147.727 42.5271 147.727 42.5271C147.727 42.5272 147.727 42.5272 147.727 42.5273C147.727 42.5273 147.727 42.5274 147.727 42.5274C147.727 42.5275 147.727 42.5275 147.727 42.5276C147.727 42.5276 147.727 42.5277 147.727 42.5277C147.727 42.5278 147.727 42.5278 147.727 42.5279C147.727 42.5279 147.727 42.528 147.727 42.528C147.727 42.5281 147.727 42.5281 147.727 42.5282C147.727 42.5282 147.727 42.5283 147.727 42.5283C147.727 42.5284 147.727 42.5284 147.727 42.5285C147.727 42.5285 147.727 42.5286 147.727 42.5286C147.727 42.5287 147.727 42.5287 147.727 42.5287C147.727 42.5288 147.727 42.5288 147.727 42.5289C147.727 42.5289 147.727 42.529 147.727 42.529C147.727 42.5291 147.727 42.5291 147.727 42.5292C147.727 42.5292 147.727 42.5293 147.727 42.5293C147.727 42.5294 147.727 42.5294 147.727 42.5295C147.727 42.5295 147.727 42.5296 147.727 42.5296C147.727 42.5297 147.727 42.5297 147.727 42.5298C147.727 42.5298 147.727 42.5299 147.727 42.5299C147.727 42.53 147.727 42.53 147.727 42.5301C147.727 42.5301 147.727 42.5302 147.727 42.5302C147.727 42.5303 147.727 42.5303 147.727 42.5304C147.727 42.5304 147.727 42.5305 147.727 42.5305C147.727 42.5306 147.727 42.5306 147.727 42.5307C147.727 42.5307 147.727 42.5308 147.727 42.5308C147.727 42.5309 147.727 42.5309 147.727 42.531C147.727 42.531 147.727 42.5311 147.727 42.5311C147.727 42.5312 147.727 42.5312 147.727 42.5313C147.727 42.5313 147.727 42.5314 147.727 42.5314C147.727 42.5315 147.727 42.5315 147.727 42.5316C147.727 42.5316 147.727 42.5317 147.727 42.5317C147.727 42.5318 147.727 42.5318 147.727 42.5319C147.727 42.5319 147.727 42.532 147.727 42.532C147.727 42.5321 147.727 42.5321 147.727 42.5322C147.727 42.5322 147.727 42.5323 147.727 42.5323C147.727 42.5324 147.727 42.5324 147.727 42.5325C147.727 42.5325 147.727 42.5326 147.727 42.5326C147.727 42.5327 147.727 42.5327 147.727 42.5328C147.727 42.5328 147.727 42.5329 147.727 42.5329C147.727 42.533 147.727 42.533 147.727 42.5331C147.727 42.5331 147.727 42.5332 147.727 42.5332C147.727 42.5333 147.727 42.5333 147.727 42.5334C147.727 42.5334 147.727 42.5335 147.727 42.5335C147.727 42.5336 147.727 42.5336 147.727 42.5337C147.727 42.5337 147.727 42.5338 147.727 42.5338C147.727 42.5339 147.727 42.5339 147.727 42.534C147.727 42.534 147.727 42.5341 147.727 42.5341C147.727 42.5342 147.727 42.5342 147.727 42.5343C147.727 42.5343 147.727 42.5344 147.727 42.5344C147.727 42.5345 147.727 42.5345 147.727 42.5346C147.727 42.5346 147.727 42.5347 147.727 42.5347C147.727 42.5348 147.727 42.5348 147.727 42.5349C147.727 42.5349 147.727 42.535 147.727 42.535C147.727 42.5351 147.727 42.5351 147.727 42.5352C147.727 42.5352 147.727 42.5353 147.727 42.5353C147.727 42.5353 147.727 42.5354 147.727 42.5354C147.727 42.5355 147.727 42.5355 147.727 42.5356C147.727 42.5356 147.727 42.5357 147.727 42.5357C147.727 42.5358 147.727 42.5358 147.727 42.5359C147.727 42.5359 147.727 42.536 147.727 42.536C147.727 42.5361 147.727 42.5361 147.727 42.5362C147.727 42.5362 147.727 42.5363 147.727 42.5363C147.727 42.5364 147.727 42.5364 147.727 42.5365C147.727 42.5365 147.727 42.5366 147.727 42.5366C147.727 42.5367 147.727 42.5367 147.727 42.5368C147.727 42.5368 147.727 42.5369 147.727 42.5369C147.727 42.537 147.727 42.537 147.727 42.5371C147.727 42.5371 147.727 42.5372 147.727 42.5372C147.727 42.5373 147.727 42.5373 147.727 42.5374C147.727 42.5374 147.727 42.5375 147.727 42.5375C147.727 42.5376 147.727 42.5376 147.727 42.5377C147.727 42.5377 147.727 42.5378 147.727 42.5378C147.727 42.5379 147.727 42.5379 147.727 42.538C147.727 42.538 147.727 42.5381 147.727 42.5381C147.727 42.5382 147.727 42.5382 147.727 42.5383C147.727 42.5383 147.727 42.5384 147.727 42.5384C147.727 42.5385 147.727 42.5385 147.727 42.5386C147.727 42.5386 147.727 42.5387 147.727 42.5387C147.727 42.5388 147.727 42.5388 147.727 42.5389C147.727 42.5389 147.727 42.539 147.727 42.539C147.727 42.5391 147.727 42.5391 147.727 42.5392C147.727 42.5392 147.727 42.5393 147.727 42.5393C147.727 42.5394 147.727 42.5394 147.727 42.5395C147.727 42.5395 147.727 42.5396 147.727 42.5396C147.727 42.5397 147.727 42.5397 147.727 42.5398C147.727 42.5398 147.727 42.5399 147.727 42.5399C147.727 42.54 147.727 42.54 147.727 42.5401C147.727 42.5401 147.727 42.5402 147.727 42.5402C147.727 42.5403 147.727 42.5403 147.727 42.5404C147.727 42.5404 147.727 42.5405 147.727 42.5405C147.727 42.5406 147.727 42.5406 147.727 42.5407C147.727 42.5407 147.727 42.5408 147.727 42.5408C147.727 42.5409 147.727 42.5409 147.727 42.541C147.727 42.541 147.727 42.5411 147.727 42.5411C147.727 42.5412 147.727 42.5412 147.727 42.5413C147.727 42.5413 147.727 42.5414 147.727 42.5414C147.727 42.5415 147.727 42.5415 147.727 42.5416C147.727 42.5416 147.727 42.5417 147.727 42.5417C147.727 42.5418 147.727 42.5418 147.727 42.5419C147.727 42.5419 147.727 42.5419 147.727 42.542C147.727 42.542 147.727 42.5421 147.727 42.5421C147.727 42.5422 147.727 42.5422 147.727 42.5423C147.727 42.5423 147.727 42.5424 147.727 42.5424C147.727 42.5425 147.727 42.5425 147.727 42.5426C147.727 42.5426 147.727 42.5427 147.727 42.5427C147.727 42.5428 147.727 42.5428 147.727 42.5429C147.727 42.5429 147.727 42.543 147.727 42.543C147.727 42.5431 147.727 42.5431 147.727 42.5432C147.727 42.5432 147.727 42.5433 147.727 42.5433C147.727 42.5434 147.727 42.5434 147.727 42.5435C147.727 42.5435 147.727 42.5436 147.727 42.5436C147.727 42.5437 147.727 42.5437 147.727 42.5438C147.727 42.5438 147.727 42.5439 147.727 42.5439C147.727 42.544 147.727 42.544 147.727 42.5441C147.727 42.5441 147.727 42.5442 147.727 42.5442C147.727 42.5443 147.727 42.5443 147.727 42.5444C147.727 42.5444 147.727 42.5445 147.727 42.5445C147.727 42.5446 147.727 42.5446 147.727 42.5447C147.727 42.5447 147.727 42.5448 147.727 42.5448C147.727 42.5449 147.727 42.5449 147.727 42.545C147.727 42.545 147.727 42.5451 147.727 42.5451C147.727 42.5452 147.727 42.5452 147.727 42.5453C147.727 42.5453 147.727 42.5454 147.727 42.5454C147.727 42.5455 147.727 42.5455 147.727 42.5456C147.727 42.5456 147.727 42.5457 147.727 42.5457C147.727 42.5458 147.727 42.5458 147.727 42.5459C147.727 42.5459 147.727 42.546 147.727 42.546C147.727 42.5461 147.727 42.5461 147.727 42.5462C147.727 42.5462 147.727 42.5463 147.727 42.5463C147.727 42.5464 147.727 42.5464 147.727 42.5465C147.727 42.5465 147.727 42.5466 147.727 42.5466C147.727 42.5467 147.727 42.5467 147.727 42.5468C147.727 42.5468 147.727 42.5469 147.727 42.5469C147.727 42.547 147.727 42.547 147.727 42.5471C147.727 42.5471 147.727 42.5472 147.727 42.5472C147.727 42.5473 147.727 42.5473 147.727 42.5474C147.727 42.5474 147.727 42.5475 147.727 42.5475C147.727 42.5476 147.727 42.5476 147.727 42.5477C147.727 42.5477 147.727 42.5478 147.727 42.5478C147.727 42.5479 147.727 42.5479 147.727 42.548C147.727 42.548 147.727 42.5481 147.727 42.5481C147.727 42.5482 147.727 42.5482 147.727 42.5483C147.727 42.5483 147.727 42.5484 147.727 42.5484C147.727 42.5484 147.727 42.5485 147.727 42.5485C147.727 42.5486 147.727 42.5486 147.727 42.5487C147.727 42.5487 147.727 42.5488 147.727 42.5488C147.727 42.5489 147.727 42.5489 147.727 42.549C147.727 42.549 147.727 42.5491 147.727 42.5491C147.727 42.5492 147.727 42.5492 147.727 42.5493C147.727 42.5493 147.727 42.5494 147.727 42.5494C147.727 42.5495 147.727 42.5495 147.727 42.5496C147.727 42.5496 147.727 42.5497 147.727 42.5497C147.727 42.5498 147.727 42.5498 147.727 42.5499C147.727 42.5499 147.727 42.55 147.727 42.55C147.727 42.5501 147.727 42.5501 147.727 42.5502C147.727 42.5502 147.727 42.5503 147.727 42.5503C147.727 42.5504 147.727 42.5504 147.727 42.5505C147.727 42.5505 147.727 42.5506 147.727 42.5506C147.727 42.5507 147.727 42.5507 147.727 42.5508C147.727 42.5508 147.727 42.5509 147.727 42.5509C147.727 42.551 147.727 42.551 147.727 42.5511C147.727 42.5511 147.727 42.5512 147.727 42.5512C147.727 42.5513 147.727 42.5513 147.727 42.5514C147.727 42.5514 147.727 42.5515 147.727 42.5515C147.727 42.5516 147.727 42.5516 147.727 42.5517C147.727 42.5517 147.727 42.5518 147.727 42.5518C147.727 42.5519 147.727 42.5519 147.727 42.552C147.727 42.552 147.727 42.5521 147.727 42.5521C147.727 42.5522 147.727 42.5522 147.727 42.5523C147.727 42.5523 147.727 42.5524 147.727 42.5524C147.727 42.5525 147.727 42.5525 147.727 42.5526C147.727 42.5526 147.727 42.5527 147.727 42.5527C147.727 42.5528 147.727 42.5528 147.727 42.5529C147.727 42.5529 147.727 42.553 147.727 42.553C147.727 42.5531 147.727 42.5531 147.727 42.5532C147.727 42.5532 147.727 42.5533 147.727 42.5533C147.727 42.5534 147.727 42.5534 147.727 42.5535C147.727 42.5535 147.727 42.5536 147.727 42.5536C147.727 42.5537 147.727 42.5537 147.727 42.5538C147.727 42.5538 147.727 42.5539 147.727 42.5539C147.727 42.554 147.727 42.554 147.727 42.5541C147.727 42.5541 147.727 42.5542 147.727 42.5542C147.727 42.5543 147.727 42.5543 147.727 42.5544C147.727 42.5544 147.727 42.5545 147.727 42.5545C147.727 42.5546 147.727 42.5546 147.727 42.5547C147.727 42.5547 147.727 42.5548 147.727 42.5548C147.727 42.5549 147.727 42.5549 147.727 42.555C147.727 42.555 147.727 42.555 147.727 42.5551C147.727 42.5551 147.727 42.5552 147.727 42.5552C147.727 42.5553 147.727 42.5553 147.727 42.5554C147.727 42.5554 147.727 42.5555 147.727 42.5555C147.727 42.5556 147.727 42.5556 147.727 42.5557C147.727 42.5557 147.727 42.5558 147.727 42.5558C147.727 42.5559 147.727 42.5559 147.727 42.556C147.727 42.556 147.727 42.5561 147.727 42.5561C147.727 42.5562 147.727 42.5562 147.727 42.5563C147.727 42.5563 147.727 42.5564 147.727 42.5564C147.727 42.5565 147.727 42.5565 147.727 42.5566C147.727 42.5566 147.727 42.5567 147.727 42.5567C147.727 42.5568 147.727 42.5568 147.727 42.5569C147.727 42.5569 147.727 42.557 147.727 42.557C147.727 42.5571 147.727 42.5571 147.727 42.5572C147.727 42.5572 147.727 42.5573 147.727 42.5573C147.727 42.5574 147.727 42.5574 147.727 42.5575C147.727 42.5575 147.727 42.5576 147.727 42.5576C147.727 42.5577 147.727 42.5577 147.727 42.5578C147.727 42.5578 147.727 42.5579 147.727 42.5579C147.727 42.558 147.727 42.558 147.727 42.5581C147.727 42.5581 147.727 42.5582 147.727 42.5582C147.727 42.5583 147.727 42.5583 147.727 42.5584C147.727 42.5584 147.727 42.5585 147.727 42.5585C147.727 42.5586 147.727 42.5586 147.727 42.5587C147.727 42.5587 147.727 42.5588 147.727 42.5588C147.727 42.5589 147.727 42.5589 147.727 42.559C147.727 42.559 147.727 42.5591 147.727 42.5591C147.727 42.5592 147.727 42.5592 147.727 42.5593C147.727 42.5593 147.727 42.5594 147.727 42.5594C147.727 42.5595 147.727 42.5595 147.727 42.5596C147.727 42.5596 147.727 42.5597 147.727 42.5597C147.727 42.5598 147.727 42.5598 147.727 42.5599C147.727 42.5599 147.727 42.56 147.727 42.56C147.727 42.5601 147.727 42.5601 147.727 42.5602C147.727 42.5602 147.727 42.5603 147.727 42.5603C147.727 42.5604 147.727 42.5604 147.727 42.5605C147.727 42.5605 147.727 42.5606 147.727 42.5606C147.727 42.5607 147.727 42.5607 147.727 42.5608C147.727 42.5608 147.727 42.5609 147.727 42.5609C147.727 42.561 147.727 42.561 147.727 42.5611C147.727 42.5611 147.727 42.5612 147.727 42.5612C147.727 42.5613 147.727 42.5613 147.727 42.5614C147.727 42.5614 147.727 42.5615 147.727 42.5615C147.727 42.5616 147.727 42.5616 147.727 42.5616C147.727 42.5617 147.727 42.5617 147.727 42.5618C147.727 42.5618 147.727 42.5619 147.727 42.5619C147.727 42.562 147.727 42.562 147.727 42.5621C147.727 42.5621 147.727 42.5622 147.727 42.5622C147.727 42.5623 147.727 42.5623 147.727 42.5624C147.727 42.5624 147.727 42.5625 147.727 42.5625C147.727 42.5626 147.727 42.5626 147.727 42.5627C147.727 42.5627 147.727 42.5628 147.727 42.5628C147.727 42.5629 147.727 42.5629 147.727 42.563C147.727 42.563 147.727 42.5631 147.727 42.5631C147.727 42.5632 147.727 42.5632 147.727 42.5633C147.727 42.5633 147.727 42.5634 147.727 42.5634C147.727 42.5635 147.727 42.5635 147.727 42.5636C147.727 42.5636 147.727 42.5637 147.727 42.5637C147.727 42.5638 147.727 42.5638 147.727 42.5639C147.727 42.5639 147.727 42.564 147.727 42.564C147.727 42.5641 147.727 42.5641 147.727 42.5642C147.727 42.5642 147.727 42.5643 147.727 42.5643C147.727 42.5644 147.727 42.5644 147.727 42.5645C147.727 42.5645 147.727 42.5646 147.727 42.5646C147.727 42.5647 147.727 42.5647 147.727 42.5648C147.727 42.5648 147.727 42.5649 147.727 42.5649C147.727 42.565 147.727 42.565 147.727 42.5651C147.727 42.5651 147.727 42.5652 147.727 42.5652C147.727 42.5653 147.727 42.5653 147.727 42.5654C147.727 42.5654 147.727 42.5655 147.727 42.5655C147.727 42.5656 147.727 42.5656 147.727 42.5657C147.727 42.5657 147.727 42.5658 147.727 42.5658C147.727 42.5659 147.727 42.5659 147.727 42.566C147.727 42.566 147.727 42.5661 147.727 42.5661C147.727 42.5662 147.727 42.5662 147.727 42.5663C147.727 42.5663 147.727 42.5664 147.727 42.5664C147.727 42.5665 147.727 42.5665 147.727 42.5666C147.727 42.5666 147.727 42.5667 147.727 42.5667C147.727 42.5668 147.727 42.5668 147.727 42.5669C147.727 42.5669 147.727 42.567 147.727 42.567C147.727 42.5671 147.727 42.5671 147.727 42.5672C147.727 42.5672 147.727 42.5673 147.727 42.5673C147.727 42.5674 147.727 42.5674 147.727 42.5675C147.727 42.5675 147.727 42.5676 147.727 42.5676C147.727 42.5677 147.727 42.5677 147.727 42.5678C147.727 42.5678 147.727 42.5679 147.727 42.5679C147.727 42.568 147.727 42.568 147.727 42.5681C147.727 42.5681 147.727 42.5681 147.727 42.5682C147.727 42.5682 147.727 42.5683 147.727 42.5683C147.727 42.5684 147.727 42.5684 147.727 42.5685C147.727 42.5685 147.727 42.5686 147.727 42.5686C147.727 42.5687 147.727 42.5687 147.727 42.5688C147.727 42.5688 147.727 42.5689 147.727 42.5689C147.727 42.569 147.727 42.569 147.727 42.5691C147.727 42.5691 147.727 42.5692 147.727 42.5692C147.727 42.5693 147.727 42.5693 147.727 42.5694C147.727 42.5694 147.727 42.5695 147.727 42.5695C147.727 42.5696 147.727 42.5696 147.727 42.5697C147.727 42.5697 147.727 42.5698 147.727 42.5698C147.727 42.5699 147.727 42.5699 147.727 42.57C147.727 42.57 147.727 42.5701 147.727 42.5701C147.727 42.5702 147.727 42.5702 147.727 42.5703C147.727 42.5703 147.727 42.5704 147.727 42.5704C147.727 42.5705 147.727 42.5705 147.727 42.5706C147.727 42.5706 147.727 42.5707 147.727 42.5707C147.727 42.5708 147.727 42.5708 147.727 42.5709C147.727 42.5709 147.727 42.571 147.727 42.571C147.727 42.5711 147.727 42.5711 147.727 42.5712C147.727 42.5712 147.727 42.5713 147.727 42.5713C147.727 42.5714 147.727 42.5714 147.727 42.5715C147.727 42.5715 147.727 42.5716 147.727 42.5716C147.727 42.5717 147.727 42.5717 147.727 42.5718C147.727 42.5718 147.727 42.5719 147.727 42.5719C147.727 42.572 147.727 42.572 147.727 42.5721C147.727 42.5721 147.727 42.5722 147.727 42.5722C147.727 42.5723 147.727 42.5723 147.727 42.5724C147.727 42.5724 147.727 42.5725 147.727 42.5725C147.727 42.5726 147.727 42.5726 147.727 42.5727C147.727 42.5727 147.727 42.5728 147.727 42.5728C147.727 42.5729 147.727 42.5729 147.727 42.573C147.727 42.573 147.727 42.5731 147.727 42.5731C147.727 42.5732 147.727 42.5732 147.727 42.5733C147.727 42.5733 147.727 42.5734 147.727 42.5734C147.727 42.5735 147.727 42.5735 147.727 42.5736C147.727 42.5736 147.727 42.5737 147.727 42.5737C147.727 42.5738 147.727 42.5738 147.727 42.5739C147.727 42.5739 147.727 42.574 147.727 42.574C147.727 42.5741 147.727 42.5741 147.727 42.5742C147.727 42.5742 147.727 42.5743 147.727 42.5743C147.727 42.5744 147.727 42.5744 147.727 42.5745C147.727 42.5745 147.727 42.5746 147.727 42.5746C147.727 42.5747 147.727 42.5747 147.727 42.5747C147.727 42.5748 147.727 42.5748 147.727 42.5749C147.727 42.5749 147.727 42.575 147.727 42.575C147.727 42.5751 147.727 42.5751 147.727 42.5752C147.727 42.5752 147.727 42.5753 147.727 42.5753C147.727 42.5754 147.727 42.5754 147.727 42.5755C147.727 42.5755 147.727 42.5756 147.727 42.5756C147.727 42.5757 147.727 42.5757 147.727 42.5758C147.727 42.5758 147.727 42.5759 147.727 42.5759C147.727 42.576 147.727 42.576 147.727 42.5761C147.727 42.5761 147.727 42.5762 147.727 42.5762C147.727 42.5763 147.727 42.5763 147.727 42.5764C147.727 42.5764 147.727 42.5765 147.727 42.5765C147.727 42.5766 147.727 42.5766 147.727 42.5767C147.727 42.5767 147.727 42.5768 147.727 42.5768C147.727 42.5769 147.727 42.5769 147.727 42.577C147.727 42.577 147.727 42.5771 147.727 42.5771C147.727 42.5772 147.727 42.5772 147.727 42.5773C147.727 42.5773 147.727 42.5774 147.727 42.5774C147.727 42.5775 147.727 42.5775 147.727 42.5776C147.727 42.5776 147.727 42.5777 147.727 42.5777C147.727 42.5778 147.727 42.5778 147.727 42.5779C147.727 42.5779 147.727 42.578 147.727 42.578C147.727 42.5781 147.727 42.5781 147.727 42.5782C147.727 42.5782 147.727 42.5783 147.727 42.5783C147.727 42.5784 147.727 42.5784 147.727 42.5785C147.727 42.5785 147.727 42.5786 147.727 42.5786C147.727 42.5787 147.727 42.5787 147.727 42.5788C147.727 42.5788 147.727 42.5789 147.727 42.5789C147.727 42.579 147.727 42.579 147.727 42.5791C147.727 42.5791 147.727 42.5792 147.727 42.5792C147.727 42.5793 147.727 42.5793 147.727 42.5794C147.727 42.5794 147.727 42.5795 147.727 42.5795C147.727 42.5796 147.727 42.5796 147.727 42.5797C147.727 42.5797 147.727 42.5798 147.727 42.5798C147.727 42.5799 147.727 42.5799 147.727 42.58C147.727 42.58 147.727 42.5801 147.727 42.5801C147.727 42.5802 147.727 42.5802 147.727 42.5803C147.727 42.5803 147.727 42.5804 147.727 42.5804C147.727 42.5805 147.727 42.5805 147.727 42.5806C147.727 42.5806 147.727 42.5807 147.727 42.5807C147.727 42.5808 147.727 42.5808 147.727 42.5809C147.727 42.5809 147.727 42.581 147.727 42.581C147.727 42.5811 147.727 42.5811 147.727 42.5812C147.727 42.5812 147.727 42.5812 147.727 42.5813C147.727 42.5813 147.727 42.5814 147.727 42.5814C147.727 42.5815 147.727 42.5815 147.727 42.5816C147.727 42.5816 147.727 42.5817 147.727 42.5817C147.727 42.5818 147.727 42.5818 147.727 42.5819C147.727 42.5819 147.727 42.582 147.727 42.582C147.727 42.5821 147.727 42.5821 147.727 42.5822C147.727 42.5822 147.727 42.5823 147.727 42.5823C147.727 42.5824 147.727 42.5824 147.727 42.5825C147.727 42.5825 147.727 42.5826 147.727 42.5826C147.727 42.5827 147.727 42.5827 147.727 42.5828C147.727 42.5828 147.727 42.5829 147.727 42.5829C147.727 42.583 147.727 42.583 147.727 42.5831C147.727 42.5831 147.727 42.5832 147.727 42.5832C147.727 42.5833 147.727 42.5833 147.727 42.5834C147.727 42.5834 147.727 42.5835 147.727 42.5835C147.727 42.5836 147.727 42.5836 147.727 42.5837C147.727 42.5837 147.727 42.5838 147.727 42.5838C147.727 42.5839 147.727 42.5839 147.727 42.584C147.727 42.584 147.727 42.5841 147.727 42.5841C147.727 42.5842 147.727 42.5842 147.727 42.5843C147.727 42.5843 147.727 42.5844 147.727 42.5844C147.727 42.5845 147.727 42.5845 147.727 42.5846C147.727 42.5846 147.727 42.5847 147.727 42.5847C147.727 42.5848 147.727 42.5848 147.727 42.5849C147.727 42.5849 147.727 42.585 147.727 42.585C147.727 42.5851 147.727 42.5851 147.727 42.5852C147.727 42.5852 147.727 42.5853 147.727 42.5853C147.727 42.5854 147.727 42.5854 147.727 42.5855C147.727 42.5855 147.727 42.5856 147.727 42.5856C147.727 42.5857 147.727 42.5857 147.727 42.5858C147.727 42.5858 147.727 42.5859 147.727 42.5859C147.727 42.586 147.727 42.586 147.727 42.5861C147.727 42.5861 147.727 42.5862 147.727 42.5862C147.727 42.5863 147.727 42.5863 147.727 42.5864C147.727 42.5864 147.727 42.5865 147.727 42.5865C147.727 42.5866 147.727 42.5866 147.727 42.5867C147.727 42.5867 147.727 42.5868 147.727 42.5868C147.727 42.5869 147.727 42.5869 147.727 42.587C147.727 42.587 147.727 42.5871 147.727 42.5871C147.727 42.5872 147.727 42.5872 147.727 42.5873C147.727 42.5873 147.727 42.5874 147.727 42.5874C147.727 42.5875 147.727 42.5875 147.727 42.5876C147.727 42.5876 147.727 42.5877 147.727 42.5877C147.727 42.5878 147.727 42.5878 147.727 42.5878C147.727 42.5879 147.727 42.5879 147.727 42.588C147.727 42.588 147.727 42.5881 147.727 42.5881C147.727 42.5882 147.727 42.5882 147.727 42.5883C147.727 42.5883 147.727 42.5884 147.727 42.5884C147.727 42.5885 147.727 42.5885 147.727 42.5886C147.727 42.5886 147.727 42.5887 147.727 42.5887C147.727 42.5888 147.727 42.5888 147.727 42.5889C147.727 42.5889 147.727 42.589 147.727 42.589C147.727 42.5891 147.727 42.5891 147.727 42.5892C147.727 42.5892 147.727 42.5893 147.727 42.5893C147.727 42.5894 147.727 42.5894 147.727 42.5895C147.727 42.5895 147.727 42.5896 147.727 42.5896C147.727 42.5897 147.727 42.5897 147.727 42.5898C147.727 42.5898 147.727 42.5899 147.727 42.5899C147.727 42.59 147.727 42.59 147.727 42.5901C147.727 42.5901 147.727 42.5902 147.727 42.5902C147.727 42.5903 147.727 42.5903 147.727 42.5904C147.727 42.5904 147.727 42.5905 147.727 42.5905C147.727 42.5906 147.727 42.5906 147.727 42.5907C147.727 42.5907 147.727 42.5908 147.727 42.5908C147.727 42.5909 147.727 42.5909 147.727 42.591C147.727 42.591 147.727 42.5911 147.727 42.5911C147.727 42.5912 147.727 42.5912 147.727 42.5913C147.727 42.5913 147.727 42.5914 147.727 42.5914C147.727 42.5915 147.727 42.5915 147.727 42.5916C147.727 42.5916 147.727 42.5917 147.727 42.5917C147.727 42.5918 147.727 42.5918 147.727 42.5919C147.727 42.5919 147.727 42.592 147.727 42.592C147.727 42.5921 147.727 42.5921 147.727 42.5922C147.727 42.5922 147.727 42.5923 147.727 42.5923C147.727 42.5924 147.727 42.5924 147.727 42.5925C147.727 42.5925 147.727 42.5926 147.727 42.5926C147.727 42.5927 147.727 42.5927 147.727 42.5928C147.727 42.5928 147.727 42.5929 147.727 42.5929C147.727 42.593 147.727 42.593 147.727 42.5931C147.727 42.5931 147.727 42.5932 147.727 42.5932C147.727 42.5933 147.727 42.5933 147.727 42.5934C147.727 42.5934 147.727 42.5935 147.727 42.5935C147.727 42.5936 147.727 42.5936 147.727 42.5937C147.727 42.5937 147.727 42.5938 147.727 42.5938C147.727 42.5939 147.727 42.5939 147.727 42.594C147.727 42.594 147.727 42.5941 147.727 42.5941C147.727 42.5942 147.727 42.5942 147.727 42.5943C147.727 42.5943 147.727 42.5944 147.727 42.5944C147.727 42.5944 147.727 42.5945 147.727 42.5945C147.727 42.5946 147.727 42.5946 147.727 42.5947C147.727 42.5947 147.727 42.5948 147.727 42.5948C147.727 42.5949 147.727 42.5949 147.727 42.595C147.727 42.595 147.727 42.5951 147.727 42.5951C147.727 42.5952 147.727 42.5952 147.727 42.5953C147.727 42.5953 147.727 42.5954 147.727 42.5954C147.727 42.5955 147.727 42.5955 147.727 42.5956C147.727 42.5956 147.727 42.5957 147.727 42.5957C147.727 42.5958 147.727 42.5958 147.727 42.5959C147.727 42.5959 147.727 42.596 147.727 42.596C147.727 42.5961 147.727 42.5961 147.727 42.5962C147.727 42.5962 147.727 42.5963 147.727 42.5963C147.727 42.5964 147.727 42.5964 147.727 42.5965C147.727 42.5965 147.727 42.5966 147.727 42.5966C147.727 42.5967 147.727 42.5967 147.727 42.5968C147.727 42.5968 147.727 42.5969 147.727 42.5969C147.727 42.597 147.727 42.597 147.727 42.5971C147.727 42.5971 147.727 42.5972 147.727 42.5972C147.727 42.5973 147.727 42.5973 147.727 42.5974C147.727 42.5974 147.727 42.5975 147.727 42.5975C147.727 42.5976 147.727 42.5976 147.727 42.5977C147.727 42.5977 147.727 42.5978 147.727 42.5978C147.727 42.5979 147.727 42.5979 147.727 42.598C147.727 42.598 147.727 42.5981 147.727 42.5981C147.727 42.5982 147.727 42.5982 147.727 42.5983C147.727 42.5983 147.727 42.5984 147.727 42.5984C147.727 42.5985 147.727 42.5985 147.727 42.5986C147.727 42.5986 147.727 42.5987 147.727 42.5987H147.518C147.518 42.5987 147.518 42.5986 147.518 42.5986C147.518 42.5985 147.518 42.5985 147.518 42.5984C147.518 42.5984 147.518 42.5983 147.518 42.5983C147.518 42.5982 147.518 42.5982 147.518 42.5981C147.518 42.5981 147.518 42.598 147.518 42.598C147.518 42.5979 147.518 42.5979 147.518 42.5978C147.518 42.5978 147.518 42.5977 147.518 42.5977C147.518 42.5976 147.518 42.5976 147.518 42.5975C147.518 42.5975 147.518 42.5974 147.518 42.5974C147.518 42.5973 147.518 42.5973 147.518 42.5972C147.518 42.5972 147.518 42.5971 147.518 42.5971C147.518 42.597 147.518 42.597 147.518 42.5969C147.518 42.5969 147.518 42.5968 147.518 42.5968C147.518 42.5967 147.518 42.5967 147.518 42.5966C147.518 42.5966 147.518 42.5965 147.518 42.5965C147.518 42.5964 147.518 42.5964 147.518 42.5963C147.518 42.5963 147.518 42.5962 147.518 42.5962C147.518 42.5961 147.518 42.5961 147.518 42.596C147.518 42.596 147.518 42.5959 147.518 42.5959C147.518 42.5958 147.518 42.5958 147.518 42.5957C147.518 42.5957 147.518 42.5956 147.518 42.5956C147.518 42.5955 147.518 42.5955 147.518 42.5954C147.518 42.5954 147.518 42.5953 147.518 42.5953C147.518 42.5952 147.518 42.5952 147.518 42.5951C147.518 42.5951 147.518 42.595 147.518 42.595C147.518 42.5949 147.518 42.5949 147.518 42.5948C147.518 42.5948 147.518 42.5947 147.518 42.5947C147.518 42.5946 147.518 42.5946 147.518 42.5945C147.518 42.5945 147.518 42.5944 147.518 42.5944C147.518 42.5944 147.518 42.5943 147.518 42.5943C147.518 42.5942 147.518 42.5942 147.518 42.5941C147.518 42.5941 147.518 42.594 147.518 42.594C147.518 42.5939 147.518 42.5939 147.518 42.5938C147.518 42.5938 147.518 42.5937 147.518 42.5937C147.518 42.5936 147.518 42.5936 147.518 42.5935C147.518 42.5935 147.518 42.5934 147.518 42.5934C147.518 42.5933 147.518 42.5933 147.518 42.5932C147.518 42.5932 147.518 42.5931 147.518 42.5931C147.518 42.593 147.518 42.593 147.518 42.5929C147.518 42.5929 147.518 42.5928 147.518 42.5928C147.518 42.5927 147.518 42.5927 147.518 42.5926C147.518 42.5926 147.518 42.5925 147.518 42.5925C147.518 42.5924 147.518 42.5924 147.518 42.5923C147.518 42.5923 147.518 42.5922 147.518 42.5922C147.518 42.5921 147.518 42.5921 147.518 42.592C147.518 42.592 147.518 42.5919 147.518 42.5919C147.518 42.5918 147.518 42.5918 147.518 42.5917C147.518 42.5917 147.518 42.5916 147.518 42.5916C147.518 42.5915 147.518 42.5915 147.518 42.5914C147.518 42.5914 147.518 42.5913 147.518 42.5913C147.518 42.5912 147.518 42.5912 147.518 42.5911C147.518 42.5911 147.518 42.591 147.518 42.591C147.518 42.5909 147.518 42.5909 147.518 42.5908C147.518 42.5908 147.518 42.5907 147.518 42.5907C147.518 42.5906 147.518 42.5906 147.518 42.5905C147.518 42.5905 147.518 42.5904 147.518 42.5904C147.518 42.5903 147.518 42.5903 147.518 42.5902C147.518 42.5902 147.518 42.5901 147.518 42.5901C147.518 42.59 147.518 42.59 147.518 42.5899C147.518 42.5899 147.518 42.5898 147.518 42.5898C147.518 42.5897 147.518 42.5897 147.518 42.5896C147.518 42.5896 147.518 42.5895 147.518 42.5895C147.518 42.5894 147.518 42.5894 147.518 42.5893C147.518 42.5893 147.518 42.5892 147.518 42.5892C147.518 42.5891 147.518 42.5891 147.518 42.589C147.518 42.589 147.518 42.5889 147.518 42.5889C147.518 42.5888 147.518 42.5888 147.518 42.5887C147.518 42.5887 147.518 42.5886 147.518 42.5886C147.518 42.5885 147.518 42.5885 147.518 42.5884C147.518 42.5884 147.518 42.5883 147.518 42.5883C147.518 42.5882 147.518 42.5882 147.518 42.5881C147.518 42.5881 147.518 42.588 147.518 42.588C147.518 42.5879 147.518 42.5879 147.518 42.5878C147.518 42.5878 147.518 42.5878 147.518 42.5877C147.518 42.5877 147.518 42.5876 147.518 42.5876C147.518 42.5875 147.518 42.5875 147.518 42.5874C147.518 42.5874 147.518 42.5873 147.518 42.5873C147.518 42.5872 147.518 42.5872 147.518 42.5871C147.518 42.5871 147.518 42.587 147.518 42.587C147.518 42.5869 147.518 42.5869 147.518 42.5868C147.518 42.5868 147.518 42.5867 147.518 42.5867C147.518 42.5866 147.518 42.5866 147.518 42.5865C147.518 42.5865 147.518 42.5864 147.518 42.5864C147.518 42.5863 147.518 42.5863 147.518 42.5862C147.518 42.5862 147.518 42.5861 147.518 42.5861C147.518 42.586 147.518 42.586 147.518 42.5859C147.518 42.5859 147.518 42.5858 147.518 42.5858C147.518 42.5857 147.518 42.5857 147.518 42.5856C147.518 42.5856 147.518 42.5855 147.518 42.5855C147.518 42.5854 147.518 42.5854 147.518 42.5853C147.518 42.5853 147.518 42.5852 147.518 42.5852C147.518 42.5851 147.518 42.5851 147.518 42.585C147.518 42.585 147.518 42.5849 147.518 42.5849C147.518 42.5848 147.518 42.5848 147.518 42.5847C147.518 42.5847 147.518 42.5846 147.518 42.5846C147.518 42.5845 147.518 42.5845 147.518 42.5844C147.518 42.5844 147.518 42.5843 147.518 42.5843C147.518 42.5842 147.518 42.5842 147.518 42.5841C147.518 42.5841 147.518 42.584 147.518 42.584C147.518 42.5839 147.518 42.5839 147.518 42.5838C147.518 42.5838 147.518 42.5837 147.518 42.5837C147.518 42.5836 147.518 42.5836 147.518 42.5835C147.518 42.5835 147.518 42.5834 147.518 42.5834C147.518 42.5833 147.518 42.5833 147.518 42.5832C147.518 42.5832 147.518 42.5831 147.518 42.5831C147.518 42.583 147.518 42.583 147.518 42.5829C147.518 42.5829 147.518 42.5828 147.518 42.5828C147.518 42.5827 147.518 42.5827 147.518 42.5826C147.518 42.5826 147.518 42.5825 147.518 42.5825C147.518 42.5824 147.518 42.5824 147.518 42.5823C147.518 42.5823 147.518 42.5822 147.518 42.5822C147.518 42.5821 147.518 42.5821 147.518 42.582C147.518 42.582 147.518 42.5819 147.518 42.5819C147.518 42.5818 147.518 42.5818 147.518 42.5817C147.518 42.5817 147.518 42.5816 147.518 42.5816C147.518 42.5815 147.518 42.5815 147.518 42.5814C147.518 42.5814 147.518 42.5813 147.518 42.5813C147.518 42.5812 147.518 42.5812 147.518 42.5812C147.518 42.5811 147.518 42.5811 147.518 42.581C147.518 42.581 147.518 42.5809 147.518 42.5809C147.518 42.5808 147.518 42.5808 147.518 42.5807C147.518 42.5807 147.518 42.5806 147.518 42.5806C147.518 42.5805 147.518 42.5805 147.518 42.5804C147.518 42.5804 147.518 42.5803 147.518 42.5803C147.518 42.5802 147.518 42.5802 147.518 42.5801C147.518 42.5801 147.518 42.58 147.518 42.58C147.518 42.5799 147.518 42.5799 147.518 42.5798C147.518 42.5798 147.518 42.5797 147.518 42.5797C147.518 42.5796 147.518 42.5796 147.518 42.5795C147.518 42.5795 147.518 42.5794 147.518 42.5794C147.518 42.5793 147.518 42.5793 147.518 42.5792C147.518 42.5792 147.518 42.5791 147.518 42.5791C147.518 42.579 147.518 42.579 147.518 42.5789C147.518 42.5789 147.518 42.5788 147.518 42.5788C147.518 42.5787 147.518 42.5787 147.518 42.5786C147.518 42.5786 147.518 42.5785 147.518 42.5785C147.518 42.5784 147.518 42.5784 147.518 42.5783C147.518 42.5783 147.518 42.5782 147.518 42.5782C147.518 42.5781 147.518 42.5781 147.518 42.578C147.518 42.578 147.518 42.5779 147.518 42.5779C147.518 42.5778 147.518 42.5778 147.518 42.5777C147.518 42.5777 147.518 42.5776 147.518 42.5776C147.518 42.5775 147.518 42.5775 147.518 42.5774C147.518 42.5774 147.518 42.5773 147.518 42.5773C147.518 42.5772 147.518 42.5772 147.518 42.5771C147.518 42.5771 147.518 42.577 147.518 42.577C147.518 42.5769 147.518 42.5769 147.518 42.5768C147.518 42.5768 147.518 42.5767 147.518 42.5767C147.518 42.5766 147.518 42.5766 147.518 42.5765C147.518 42.5765 147.518 42.5764 147.518 42.5764C147.518 42.5763 147.518 42.5763 147.518 42.5762C147.518 42.5762 147.518 42.5761 147.518 42.5761C147.518 42.576 147.518 42.576 147.518 42.5759C147.518 42.5759 147.518 42.5758 147.518 42.5758C147.518 42.5757 147.518 42.5757 147.518 42.5756C147.518 42.5756 147.518 42.5755 147.518 42.5755C147.518 42.5754 147.518 42.5754 147.518 42.5753C147.518 42.5753 147.518 42.5752 147.518 42.5752C147.518 42.5751 147.518 42.5751 147.518 42.575C147.518 42.575 147.518 42.5749 147.518 42.5749C147.518 42.5748 147.518 42.5748 147.518 42.5747C147.518 42.5747 147.518 42.5747 147.518 42.5746C147.518 42.5746 147.518 42.5745 147.518 42.5745C147.518 42.5744 147.518 42.5744 147.518 42.5743C147.518 42.5743 147.518 42.5742 147.518 42.5742C147.518 42.5741 147.518 42.5741 147.518 42.574C147.518 42.574 147.518 42.5739 147.518 42.5739C147.518 42.5738 147.518 42.5738 147.518 42.5737C147.518 42.5737 147.518 42.5736 147.518 42.5736C147.518 42.5735 147.518 42.5735 147.518 42.5734C147.518 42.5734 147.518 42.5733 147.518 42.5733C147.518 42.5732 147.518 42.5732 147.518 42.5731C147.518 42.5731 147.518 42.573 147.518 42.573C147.518 42.5729 147.518 42.5729 147.518 42.5728C147.518 42.5728 147.518 42.5727 147.518 42.5727C147.518 42.5726 147.518 42.5726 147.518 42.5725C147.518 42.5725 147.518 42.5724 147.518 42.5724C147.518 42.5723 147.518 42.5723 147.518 42.5722C147.518 42.5722 147.518 42.5721 147.518 42.5721C147.518 42.572 147.518 42.572 147.518 42.5719C147.518 42.5719 147.518 42.5718 147.518 42.5718C147.518 42.5717 147.518 42.5717 147.518 42.5716C147.518 42.5716 147.518 42.5715 147.518 42.5715C147.518 42.5714 147.518 42.5714 147.518 42.5713C147.518 42.5713 147.518 42.5712 147.518 42.5712C147.518 42.5711 147.518 42.5711 147.518 42.571C147.518 42.571 147.518 42.5709 147.518 42.5709C147.518 42.5708 147.518 42.5708 147.518 42.5707C147.518 42.5707 147.518 42.5706 147.518 42.5706C147.518 42.5705 147.518 42.5705 147.518 42.5704C147.518 42.5704 147.518 42.5703 147.518 42.5703C147.518 42.5702 147.518 42.5702 147.518 42.5701C147.518 42.5701 147.518 42.57 147.518 42.57C147.518 42.5699 147.518 42.5699 147.518 42.5698C147.518 42.5698 147.518 42.5697 147.518 42.5697C147.518 42.5696 147.518 42.5696 147.518 42.5695C147.518 42.5695 147.518 42.5694 147.518 42.5694C147.518 42.5693 147.518 42.5693 147.518 42.5692C147.518 42.5692 147.518 42.5691 147.518 42.5691C147.518 42.569 147.518 42.569 147.518 42.5689C147.518 42.5689 147.518 42.5688 147.518 42.5688C147.518 42.5687 147.518 42.5687 147.518 42.5686C147.518 42.5686 147.518 42.5685 147.518 42.5685C147.518 42.5684 147.518 42.5684 147.518 42.5683C147.518 42.5683 147.518 42.5682 147.518 42.5682C147.518 42.5681 147.518 42.5681 147.518 42.5681C147.518 42.568 147.518 42.568 147.518 42.5679C147.518 42.5679 147.518 42.5678 147.518 42.5678C147.518 42.5677 147.518 42.5677 147.518 42.5676C147.518 42.5676 147.518 42.5675 147.518 42.5675C147.518 42.5674 147.518 42.5674 147.518 42.5673C147.518 42.5673 147.518 42.5672 147.518 42.5672C147.518 42.5671 147.518 42.5671 147.518 42.567C147.518 42.567 147.518 42.5669 147.518 42.5669C147.518 42.5668 147.518 42.5668 147.518 42.5667C147.518 42.5667 147.518 42.5666 147.518 42.5666C147.518 42.5665 147.518 42.5665 147.518 42.5664C147.518 42.5664 147.518 42.5663 147.518 42.5663C147.518 42.5662 147.518 42.5662 147.518 42.5661C147.518 42.5661 147.518 42.566 147.518 42.566C147.518 42.5659 147.518 42.5659 147.518 42.5658C147.518 42.5658 147.518 42.5657 147.518 42.5657C147.518 42.5656 147.518 42.5656 147.518 42.5655C147.518 42.5655 147.518 42.5654 147.518 42.5654C147.518 42.5653 147.518 42.5653 147.518 42.5652C147.518 42.5652 147.518 42.5651 147.518 42.5651C147.518 42.565 147.518 42.565 147.518 42.5649C147.518 42.5649 147.518 42.5648 147.518 42.5648C147.518 42.5647 147.518 42.5647 147.518 42.5646C147.518 42.5646 147.518 42.5645 147.518 42.5645C147.518 42.5644 147.518 42.5644 147.518 42.5643C147.518 42.5643 147.518 42.5642 147.518 42.5642C147.518 42.5641 147.518 42.5641 147.518 42.564C147.518 42.564 147.518 42.5639 147.518 42.5639C147.518 42.5638 147.518 42.5638 147.518 42.5637C147.518 42.5637 147.518 42.5636 147.518 42.5636C147.518 42.5635 147.518 42.5635 147.518 42.5634C147.518 42.5634 147.518 42.5633 147.518 42.5633C147.518 42.5632 147.518 42.5632 147.518 42.5631C147.518 42.5631 147.518 42.563 147.518 42.563C147.518 42.5629 147.518 42.5629 147.518 42.5628C147.518 42.5628 147.518 42.5627 147.518 42.5627C147.518 42.5626 147.518 42.5626 147.518 42.5625C147.518 42.5625 147.518 42.5624 147.518 42.5624C147.518 42.5623 147.518 42.5623 147.518 42.5622C147.518 42.5622 147.518 42.5621 147.518 42.5621C147.518 42.562 147.518 42.562 147.518 42.5619C147.518 42.5619 147.518 42.5618 147.518 42.5618C147.518 42.5617 147.518 42.5617 147.518 42.5616C147.518 42.5616 147.518 42.5616 147.518 42.5615C147.518 42.5615 147.518 42.5614 147.518 42.5614C147.518 42.5613 147.518 42.5613 147.518 42.5612C147.518 42.5612 147.518 42.5611 147.518 42.5611C147.518 42.561 147.518 42.561 147.518 42.5609C147.518 42.5609 147.518 42.5608 147.518 42.5608C147.518 42.5607 147.518 42.5607 147.518 42.5606C147.518 42.5606 147.518 42.5605 147.518 42.5605C147.518 42.5604 147.518 42.5604 147.518 42.5603C147.518 42.5603 147.518 42.5602 147.518 42.5602C147.518 42.5601 147.518 42.5601 147.518 42.56C147.518 42.56 147.518 42.5599 147.518 42.5599C147.518 42.5598 147.518 42.5598 147.518 42.5597C147.518 42.5597 147.518 42.5596 147.518 42.5596C147.518 42.5595 147.518 42.5595 147.518 42.5594C147.518 42.5594 147.518 42.5593 147.518 42.5593C147.518 42.5592 147.518 42.5592 147.518 42.5591C147.518 42.5591 147.518 42.559 147.518 42.559C147.518 42.5589 147.518 42.5589 147.518 42.5588C147.518 42.5588 147.518 42.5587 147.518 42.5587C147.518 42.5586 147.518 42.5586 147.518 42.5585C147.518 42.5585 147.518 42.5584 147.518 42.5584C147.518 42.5583 147.518 42.5583 147.518 42.5582C147.518 42.5582 147.518 42.5581 147.518 42.5581C147.518 42.558 147.518 42.558 147.518 42.5579C147.518 42.5579 147.518 42.5578 147.518 42.5578C147.518 42.5577 147.518 42.5577 147.518 42.5576C147.518 42.5576 147.518 42.5575 147.518 42.5575C147.518 42.5574 147.518 42.5574 147.518 42.5573C147.518 42.5573 147.518 42.5572 147.518 42.5572C147.518 42.5571 147.518 42.5571 147.518 42.557C147.518 42.557 147.518 42.5569 147.518 42.5569C147.518 42.5568 147.518 42.5568 147.518 42.5567C147.518 42.5567 147.518 42.5566 147.518 42.5566C147.518 42.5565 147.518 42.5565 147.518 42.5564C147.518 42.5564 147.518 42.5563 147.518 42.5563C147.518 42.5562 147.518 42.5562 147.518 42.5561C147.518 42.5561 147.518 42.556 147.518 42.556C147.518 42.5559 147.518 42.5559 147.518 42.5558C147.518 42.5558 147.518 42.5557 147.518 42.5557C147.518 42.5556 147.518 42.5556 147.518 42.5555C147.518 42.5555 147.518 42.5554 147.518 42.5554C147.518 42.5553 147.518 42.5553 147.518 42.5552C147.518 42.5552 147.518 42.5551 147.518 42.5551C147.518 42.555 147.518 42.555 147.518 42.555C147.518 42.5549 147.518 42.5549 147.518 42.5548C147.518 42.5548 147.518 42.5547 147.518 42.5547C147.518 42.5546 147.518 42.5546 147.518 42.5545C147.518 42.5545 147.518 42.5544 147.518 42.5544C147.518 42.5543 147.518 42.5543 147.518 42.5542C147.518 42.5542 147.518 42.5541 147.518 42.5541C147.518 42.554 147.518 42.554 147.518 42.5539C147.518 42.5539 147.518 42.5538 147.518 42.5538C147.518 42.5537 147.518 42.5537 147.518 42.5536C147.518 42.5536 147.518 42.5535 147.518 42.5535C147.518 42.5534 147.518 42.5534 147.518 42.5533C147.518 42.5533 147.518 42.5532 147.518 42.5532C147.518 42.5531 147.518 42.5531 147.518 42.553C147.518 42.553 147.518 42.5529 147.518 42.5529C147.518 42.5528 147.518 42.5528 147.518 42.5527C147.518 42.5527 147.518 42.5526 147.518 42.5526C147.518 42.5525 147.518 42.5525 147.518 42.5524C147.518 42.5524 147.518 42.5523 147.518 42.5523C147.518 42.5522 147.518 42.5522 147.518 42.5521C147.518 42.5521 147.518 42.552 147.518 42.552C147.518 42.5519 147.518 42.5519 147.518 42.5518C147.518 42.5518 147.518 42.5517 147.518 42.5517C147.518 42.5516 147.518 42.5516 147.518 42.5515C147.518 42.5515 147.518 42.5514 147.518 42.5514C147.518 42.5513 147.518 42.5513 147.518 42.5512C147.518 42.5512 147.518 42.5511 147.518 42.5511C147.518 42.551 147.518 42.551 147.518 42.5509C147.518 42.5509 147.518 42.5508 147.518 42.5508C147.518 42.5507 147.518 42.5507 147.518 42.5506C147.518 42.5506 147.518 42.5505 147.518 42.5505C147.518 42.5504 147.518 42.5504 147.518 42.5503C147.518 42.5503 147.518 42.5502 147.518 42.5502C147.518 42.5501 147.518 42.5501 147.518 42.55C147.518 42.55 147.518 42.5499 147.518 42.5499C147.518 42.5498 147.518 42.5498 147.518 42.5497C147.518 42.5497 147.518 42.5496 147.518 42.5496C147.518 42.5495 147.518 42.5495 147.518 42.5494C147.518 42.5494 147.518 42.5493 147.518 42.5493C147.518 42.5492 147.518 42.5492 147.518 42.5491C147.518 42.5491 147.518 42.549 147.518 42.549C147.518 42.5489 147.518 42.5489 147.518 42.5488C147.518 42.5488 147.518 42.5487 147.518 42.5487C147.518 42.5486 147.518 42.5486 147.518 42.5485C147.518 42.5485 147.518 42.5484 147.518 42.5484C147.518 42.5484 147.518 42.5483 147.518 42.5483C147.518 42.5482 147.518 42.5482 147.518 42.5481C147.518 42.5481 147.518 42.548 147.518 42.548C147.518 42.5479 147.518 42.5479 147.518 42.5478C147.518 42.5478 147.518 42.5477 147.518 42.5477C147.518 42.5476 147.518 42.5476 147.518 42.5475C147.518 42.5475 147.518 42.5474 147.518 42.5474C147.518 42.5473 147.518 42.5473 147.518 42.5472C147.518 42.5472 147.518 42.5471 147.518 42.5471C147.518 42.547 147.518 42.547 147.518 42.5469C147.518 42.5469 147.518 42.5468 147.518 42.5468C147.518 42.5467 147.518 42.5467 147.518 42.5466C147.518 42.5466 147.518 42.5465 147.518 42.5465C147.518 42.5464 147.518 42.5464 147.518 42.5463C147.518 42.5463 147.518 42.5462 147.518 42.5462C147.518 42.5461 147.518 42.5461 147.518 42.546C147.518 42.546 147.518 42.5459 147.518 42.5459C147.518 42.5458 147.518 42.5458 147.518 42.5457C147.518 42.5457 147.518 42.5456 147.518 42.5456C147.518 42.5455 147.518 42.5455 147.518 42.5454C147.518 42.5454 147.518 42.5453 147.518 42.5453C147.518 42.5452 147.518 42.5452 147.518 42.5451C147.518 42.5451 147.518 42.545 147.518 42.545C147.518 42.5449 147.518 42.5449 147.518 42.5448C147.518 42.5448 147.518 42.5447 147.518 42.5447C147.518 42.5446 147.518 42.5446 147.518 42.5445C147.518 42.5445 147.518 42.5444 147.518 42.5444C147.518 42.5443 147.518 42.5443 147.518 42.5442C147.518 42.5442 147.518 42.5441 147.518 42.5441C147.518 42.544 147.518 42.544 147.518 42.5439C147.518 42.5439 147.518 42.5438 147.518 42.5438C147.518 42.5437 147.518 42.5437 147.518 42.5436C147.518 42.5436 147.518 42.5435 147.518 42.5435C147.518 42.5434 147.518 42.5434 147.518 42.5433C147.518 42.5433 147.518 42.5432 147.518 42.5432C147.518 42.5431 147.518 42.5431 147.518 42.543C147.518 42.543 147.518 42.5429 147.518 42.5429C147.518 42.5428 147.518 42.5428 147.518 42.5427C147.518 42.5427 147.518 42.5426 147.518 42.5426C147.518 42.5425 147.518 42.5425 147.518 42.5424C147.518 42.5424 147.518 42.5423 147.518 42.5423C147.518 42.5422 147.518 42.5422 147.518 42.5421C147.518 42.5421 147.518 42.542 147.518 42.542C147.518 42.5419 147.518 42.5419 147.518 42.5419C147.518 42.5418 147.518 42.5418 147.518 42.5417C147.518 42.5417 147.518 42.5416 147.518 42.5416C147.518 42.5415 147.518 42.5415 147.518 42.5414C147.518 42.5414 147.518 42.5413 147.518 42.5413C147.518 42.5412 147.518 42.5412 147.518 42.5411C147.518 42.5411 147.518 42.541 147.518 42.541C147.518 42.5409 147.518 42.5409 147.518 42.5408C147.518 42.5408 147.518 42.5407 147.518 42.5407C147.518 42.5406 147.518 42.5406 147.518 42.5405C147.518 42.5405 147.518 42.5404 147.518 42.5404C147.518 42.5403 147.518 42.5403 147.518 42.5402C147.518 42.5402 147.518 42.5401 147.518 42.5401C147.518 42.54 147.518 42.54 147.518 42.5399C147.518 42.5399 147.518 42.5398 147.518 42.5398C147.518 42.5397 147.518 42.5397 147.518 42.5396C147.518 42.5396 147.518 42.5395 147.518 42.5395C147.518 42.5394 147.518 42.5394 147.518 42.5393C147.518 42.5393 147.518 42.5392 147.518 42.5392C147.518 42.5391 147.518 42.5391 147.518 42.539C147.518 42.539 147.518 42.5389 147.518 42.5389C147.518 42.5388 147.518 42.5388 147.518 42.5387C147.518 42.5387 147.518 42.5386 147.518 42.5386C147.518 42.5385 147.518 42.5385 147.518 42.5384C147.518 42.5384 147.518 42.5383 147.518 42.5383C147.518 42.5382 147.518 42.5382 147.518 42.5381C147.518 42.5381 147.518 42.538 147.518 42.538C147.518 42.5379 147.518 42.5379 147.518 42.5378C147.518 42.5378 147.518 42.5377 147.518 42.5377C147.518 42.5376 147.518 42.5376 147.518 42.5375C147.518 42.5375 147.518 42.5374 147.518 42.5374C147.518 42.5373 147.518 42.5373 147.518 42.5372C147.518 42.5372 147.518 42.5371 147.518 42.5371C147.518 42.537 147.518 42.537 147.518 42.5369C147.518 42.5369 147.518 42.5368 147.518 42.5368C147.518 42.5367 147.518 42.5367 147.518 42.5366C147.518 42.5366 147.518 42.5365 147.518 42.5365C147.518 42.5364 147.518 42.5364 147.518 42.5363C147.518 42.5363 147.518 42.5362 147.518 42.5362C147.518 42.5361 147.518 42.5361 147.518 42.536C147.518 42.536 147.518 42.5359 147.518 42.5359C147.518 42.5358 147.518 42.5358 147.518 42.5357C147.518 42.5357 147.518 42.5356 147.518 42.5356C147.518 42.5355 147.518 42.5355 147.518 42.5354C147.518 42.5354 147.518 42.5353 147.518 42.5353C147.518 42.5353 147.518 42.5352 147.518 42.5352C147.518 42.5351 147.518 42.5351 147.518 42.535C147.518 42.535 147.518 42.5349 147.518 42.5349C147.518 42.5348 147.518 42.5348 147.518 42.5347C147.518 42.5347 147.518 42.5346 147.518 42.5346C147.518 42.5345 147.518 42.5345 147.518 42.5344C147.518 42.5344 147.518 42.5343 147.518 42.5343C147.518 42.5342 147.518 42.5342 147.518 42.5341C147.518 42.5341 147.518 42.534 147.518 42.534C147.518 42.5339 147.518 42.5339 147.518 42.5338C147.518 42.5338 147.518 42.5337 147.518 42.5337C147.518 42.5336 147.518 42.5336 147.518 42.5335C147.518 42.5335 147.518 42.5334 147.518 42.5334C147.518 42.5333 147.518 42.5333 147.518 42.5332C147.518 42.5332 147.518 42.5331 147.518 42.5331C147.518 42.533 147.518 42.533 147.518 42.5329C147.518 42.5329 147.518 42.5328 147.518 42.5328C147.518 42.5327 147.518 42.5327 147.518 42.5326C147.518 42.5326 147.518 42.5325 147.518 42.5325C147.518 42.5324 147.518 42.5324 147.518 42.5323C147.518 42.5323 147.518 42.5322 147.518 42.5322C147.518 42.5321 147.518 42.5321 147.518 42.532C147.518 42.532 147.518 42.5319 147.518 42.5319C147.518 42.5318 147.518 42.5318 147.518 42.5317C147.518 42.5317 147.518 42.5316 147.518 42.5316C147.518 42.5315 147.518 42.5315 147.518 42.5314C147.518 42.5314 147.518 42.5313 147.518 42.5313C147.518 42.5312 147.518 42.5312 147.518 42.5311C147.518 42.5311 147.518 42.531 147.518 42.531C147.518 42.5309 147.518 42.5309 147.518 42.5308C147.518 42.5308 147.518 42.5307 147.518 42.5307C147.518 42.5306 147.518 42.5306 147.518 42.5305C147.518 42.5305 147.518 42.5304 147.518 42.5304C147.518 42.5303 147.518 42.5303 147.518 42.5302C147.518 42.5302 147.518 42.5301 147.518 42.5301C147.518 42.53 147.518 42.53 147.518 42.5299C147.518 42.5299 147.518 42.5298 147.518 42.5298C147.518 42.5297 147.518 42.5297 147.518 42.5296C147.518 42.5296 147.518 42.5295 147.518 42.5295C147.518 42.5294 147.518 42.5294 147.518 42.5293C147.518 42.5293 147.518 42.5292 147.518 42.5292C147.518 42.5291 147.518 42.5291 147.518 42.529C147.518 42.529 147.518 42.5289 147.518 42.5289C147.518 42.5288 147.518 42.5288 147.518 42.5287C147.518 42.5287 147.518 42.5287 147.518 42.5286C147.518 42.5286 147.518 42.5285 147.518 42.5285C147.518 42.5284 147.518 42.5284 147.518 42.5283C147.518 42.5283 147.518 42.5282 147.518 42.5282C147.518 42.5281 147.518 42.5281 147.518 42.528C147.518 42.528 147.518 42.5279 147.518 42.5279C147.518 42.5278 147.518 42.5278 147.518 42.5277C147.518 42.5277 147.518 42.5276 147.518 42.5276C147.518 42.5275 147.518 42.5275 147.518 42.5274C147.518 42.5274 147.518 42.5273 147.518 42.5273C147.518 42.5272 147.518 42.5272 147.518 42.5271C147.518 42.5271 147.518 42.527 147.518 42.527C147.518 42.5269 147.518 42.5269 147.518 42.5268C147.518 42.5268 147.518 42.5267 147.518 42.5267C147.518 42.5266 147.518 42.5266 147.518 42.5265C147.518 42.5265 147.518 42.5264 147.518 42.5264C147.518 42.5263 147.518 42.5263 147.518 42.5262C147.518 42.5262 147.518 42.5261 147.518 42.5261C147.518 42.526 147.518 42.526 147.518 42.5259C147.518 42.5259 147.518 42.5258 147.518 42.5258C147.518 42.5257 147.518 42.5257 147.518 42.5256C147.518 42.5256 147.518 42.5255 147.518 42.5255C147.518 42.5254 147.518 42.5254 147.518 42.5253C147.518 42.5253 147.518 42.5252 147.518 42.5252C147.518 42.5251 147.518 42.5251 147.518 42.525C147.518 42.525 147.518 42.5249 147.518 42.5249C147.518 42.5248 147.518 42.5248 147.518 42.5247C147.518 42.5247 147.518 42.5246 147.518 42.5246C147.518 42.5245 147.518 42.5245 147.518 42.5244C147.518 42.5244 147.518 42.5243 147.518 42.5243C147.518 42.5242 147.518 42.5242 147.518 42.5241C147.518 42.5241 147.518 42.524 147.518 42.524C147.518 42.5239 147.518 42.5239 147.518 42.5238C147.518 42.5238 147.518 42.5237 147.518 42.5237C147.518 42.5236 147.518 42.5236 147.518 42.5235C147.518 42.5235 147.518 42.5234 147.518 42.5234C147.518 42.5233 147.518 42.5233 147.518 42.5232C147.518 42.5232 147.518 42.5231 147.518 42.5231C147.518 42.523 147.518 42.523 147.518 42.5229C147.518 42.5229 147.518 42.5228 147.518 42.5228C147.518 42.5227 147.518 42.5227 147.518 42.5226C147.518 42.5226 147.518 42.5225 147.518 42.5225H147.727ZM147.727 42.5986C147.728 43.6621 147.618 44.719 147.394 45.7437L147.19 45.6991C147.411 44.6898 147.519 43.6479 147.518 42.5988L147.727 42.5986Z" fill="#0C0C0C" mask="url(#path-19-inside-5_176_1850)"/>
<mask id="path-21-inside-6_176_1850" fill="white">
<path d="M131.521 43.9639L116.651 47.3099C118.177 54.1174 124.252 59.2064 131.521 59.2064C138.825 59.2064 144.925 54.0674 146.413 47.2091L131.539 43.9639"/>
</mask>
<path d="M131.521 43.9639L116.651 47.3099C118.177 54.1174 124.252 59.2064 131.521 59.2064C138.825 59.2064 144.925 54.0674 146.413 47.2091L131.539 43.9639" fill="#0D5EFB"/>
<path d="M116.651 47.3099L116.549 47.3327L116.526 47.231L116.628 47.2081L116.651 47.3099ZM146.413 47.2091L146.435 47.1071L146.537 47.1293L146.515 47.2312L146.413 47.2091ZM131.544 44.0658L116.674 47.4117L116.628 47.2081L131.498 43.8621L131.544 44.0658ZM116.753 47.2871C118.268 54.048 124.302 59.1021 131.521 59.1021V59.3108C124.202 59.3108 118.085 54.1868 116.549 47.3327L116.753 47.2871ZM131.521 59.1021C138.775 59.1021 144.834 53.9983 146.311 47.187L146.515 47.2312C145.017 54.1364 138.875 59.3108 131.521 59.3108V59.1021ZM146.391 47.311L131.517 44.0659L131.561 43.862L146.435 47.1071L146.391 47.311Z" fill="#0C0C0C" mask="url(#path-21-inside-6_176_1850)"/>
<path d="M172.233 41.8907C176.973 41.8907 181.265 41.8682 184.372 41.8318C185.925 41.8136 187.182 41.792 188.051 41.7679C188.352 41.7596 188.607 41.751 188.811 41.7421C188.607 41.7333 188.352 41.7247 188.051 41.7164C187.182 41.6925 185.925 41.6709 184.372 41.6527C181.265 41.6165 176.973 41.5939 172.233 41.5939C167.49 41.5939 163.198 41.6165 160.091 41.6527C158.537 41.6709 157.28 41.6925 156.412 41.7164C156.11 41.7247 155.855 41.7333 155.652 41.7421C155.855 41.751 156.11 41.7596 156.412 41.7679C157.28 41.792 158.537 41.8136 160.091 41.8318C163.198 41.8682 167.49 41.8907 172.233 41.8907Z" fill="#0C0C0C" stroke="#0C0C0C" stroke-width="0.104357"/>
<path d="M172.233 37.9763C176.973 37.9763 181.265 37.9539 184.372 37.9178C185.925 37.8997 187.182 37.8781 188.051 37.8542C188.354 37.8458 188.609 37.8371 188.814 37.8283C188.609 37.8194 188.354 37.8107 188.051 37.8024C187.182 37.7784 185.925 37.7569 184.372 37.7388C181.265 37.7026 176.973 37.6803 172.233 37.6803C167.49 37.6803 163.198 37.7026 160.091 37.7388C158.537 37.7569 157.28 37.7784 156.412 37.8024C156.109 37.8107 155.853 37.8194 155.649 37.8283C155.853 37.8371 156.109 37.8458 156.412 37.8542C157.28 37.8781 158.537 37.8997 160.091 37.9178C163.198 37.9539 167.49 37.9763 172.233 37.9763Z" fill="#0C0C0C" stroke="#0C0C0C" stroke-width="0.104357"/>
<path d="M172.233 34.0627C176.973 34.0627 181.265 34.0402 184.372 34.0038C185.925 33.9856 187.182 33.964 188.051 33.9399C188.354 33.9315 188.61 33.9228 188.815 33.9139C188.61 33.905 188.354 33.8963 188.051 33.8879C187.182 33.8639 185.925 33.8422 184.372 33.824C181.265 33.7877 176.973 33.7652 172.233 33.7652C167.49 33.7652 163.198 33.7877 160.091 33.824C158.537 33.8422 157.28 33.8639 156.412 33.8879C156.108 33.8963 155.852 33.905 155.648 33.9139C155.852 33.9228 156.108 33.9315 156.412 33.9399C157.28 33.964 158.537 33.9856 160.091 34.0038C163.198 34.0402 167.49 34.0627 172.233 34.0627Z" fill="#0C0C0C" stroke="#0C0C0C" stroke-width="0.104357"/>
<path d="M172.233 45.5323C176.973 45.5323 181.265 45.5098 184.372 45.4734C185.925 45.4552 187.182 45.4336 188.051 45.4095C188.352 45.4012 188.607 45.3925 188.811 45.3837C188.607 45.3749 188.352 45.3663 188.051 45.358C187.182 45.334 185.925 45.3125 184.372 45.2943C181.265 45.2581 176.973 45.2355 172.233 45.2355C167.49 45.2355 163.198 45.2581 160.091 45.2943C158.537 45.3125 157.28 45.334 156.412 45.358C156.11 45.3663 155.855 45.3749 155.652 45.3837C155.855 45.3925 156.11 45.4012 156.412 45.4095C157.28 45.4336 158.537 45.4552 160.091 45.4734C163.198 45.5098 167.49 45.5323 172.233 45.5323Z" fill="#0C0C0C" stroke="#0C0C0C" stroke-width="0.104357"/>
<path d="M166.975 49.4959C170.231 49.4959 173.179 49.4734 175.312 49.437C176.379 49.4188 177.242 49.3972 177.839 49.3732C178.047 49.3648 178.223 49.3561 178.363 49.3472C178.223 49.3383 178.047 49.3296 177.839 49.3212C177.242 49.2973 176.379 49.2757 175.312 49.2577C173.179 49.2215 170.231 49.1992 166.975 49.1992C163.718 49.1992 160.77 49.2215 158.636 49.2577C157.569 49.2757 156.706 49.2973 156.11 49.3212C155.902 49.3296 155.726 49.3383 155.586 49.3472C155.726 49.3561 155.902 49.3648 156.11 49.3732C156.707 49.3972 157.569 49.4188 158.636 49.437C160.77 49.4734 163.718 49.4959 166.975 49.4959Z" fill="#0C0C0C" stroke="#0C0C0C" stroke-width="0.104357"/>
<path d="M119.1 77.7335V117.132H122.533V77.7335H119.1Z" fill="#0D5EFB" stroke="#0C0C0C" stroke-width="0.104357"/>
<path d="M125.928 117.132H129.361V91.1505H125.928V117.132Z" fill="#F03D5F" stroke="#0C0C0C" stroke-width="0.104357"/>
<path d="M132.758 82.6436V117.333H136.19V82.6436H132.758Z" fill="#0D5EFB" stroke="#0C0C0C" stroke-width="0.104357"/>
<path d="M139.586 117.132H143.02V79.2594H139.586V117.132Z" fill="#F03D5F" stroke="#0C0C0C" stroke-width="0.104357"/>
<path d="M146.414 91.9535V117.132H149.847V91.9535H146.414Z" fill="#0D5EFB" stroke="#0C0C0C" stroke-width="0.104357"/>
<path d="M153.243 117.132H156.676V96.9118H153.243V117.132Z" fill="#F03D5F" stroke="#0C0C0C" stroke-width="0.104357"/>
<path d="M160.072 81.7878V117.132H163.505V81.7878H160.072Z" fill="#0D5EFB" stroke="#0C0C0C" stroke-width="0.104357"/>
<path d="M166.901 117.132H170.334V88.1795H166.901V117.132Z" fill="#F03D5F" stroke="#0C0C0C" stroke-width="0.104357"/>
<path d="M173.73 83.0719V117.132H177.162V83.0719H173.73Z" fill="#0D5EFB" stroke="#0C0C0C" stroke-width="0.104357"/>
<path d="M180.559 117.132H183.991V93.9606H180.559V117.132Z" fill="#F03D5F" stroke="#0C0C0C" stroke-width="0.104357"/>
<path d="M187.388 89.5322V117.132H190.82V89.5322H187.388Z" fill="#0D5EFB" stroke="#0C0C0C" stroke-width="0.104357"/>
<path d="M154.846 120.029C165.192 120.029 174.56 120.012 181.34 119.986C184.731 119.973 187.474 119.957 189.371 119.94C189.533 119.938 189.688 119.937 189.838 119.935C189.688 119.934 189.533 119.932 189.371 119.931C187.474 119.913 184.731 119.898 181.34 119.884C174.56 119.858 165.192 119.842 154.846 119.842C144.497 119.842 135.129 119.858 128.348 119.884C124.957 119.898 122.214 119.913 120.318 119.931C120.156 119.932 120 119.934 119.851 119.935C120 119.937 120.156 119.938 120.318 119.94C122.214 119.957 124.957 119.973 128.348 119.986C135.129 120.012 144.497 120.029 154.846 120.029Z" fill="#0C0C0C" stroke="#0C0C0C" stroke-width="0.104357"/>
<path d="M121.468 123.138C122.192 123.138 122.847 123.121 123.321 123.095C123.558 123.082 123.749 123.066 123.879 123.049C123.892 123.048 123.903 123.046 123.914 123.044C123.903 123.043 123.892 123.041 123.879 123.04C123.749 123.023 123.558 123.007 123.321 122.994C122.847 122.967 122.192 122.951 121.468 122.951C120.744 122.951 120.088 122.967 119.615 122.994C119.378 123.007 119.187 123.023 119.056 123.04C119.044 123.041 119.033 123.043 119.022 123.044C119.033 123.046 119.044 123.048 119.056 123.049C119.187 123.066 119.378 123.082 119.615 123.095C120.088 123.121 120.744 123.138 121.468 123.138Z" fill="#0C0C0C" stroke="#0C0C0C" stroke-width="0.104357"/>
<path d="M129.664 123.297C130.53 123.297 131.313 123.28 131.879 123.254C132.163 123.241 132.391 123.225 132.548 123.208C132.562 123.206 132.576 123.205 132.589 123.203C132.576 123.202 132.562 123.2 132.548 123.199C132.391 123.181 132.163 123.166 131.879 123.153C131.313 123.126 130.53 123.11 129.664 123.11C128.798 123.11 128.014 123.126 127.447 123.153C127.164 123.166 126.935 123.181 126.778 123.199C126.764 123.2 126.751 123.202 126.738 123.203C126.751 123.205 126.764 123.206 126.778 123.208C126.935 123.225 127.164 123.241 127.447 123.254C128.014 123.28 128.798 123.297 129.664 123.297Z" fill="#0C0C0C" stroke="#0C0C0C" stroke-width="0.104357"/>
<path d="M137.089 123.297C137.955 123.297 138.738 123.28 139.305 123.254C139.589 123.241 139.817 123.225 139.974 123.208C139.988 123.206 140.002 123.205 140.015 123.203C140.002 123.202 139.988 123.2 139.974 123.199C139.817 123.181 139.589 123.166 139.305 123.153C138.738 123.126 137.955 123.11 137.089 123.11C136.224 123.11 135.44 123.126 134.874 123.153C134.59 123.166 134.362 123.181 134.205 123.199C134.191 123.2 134.177 123.202 134.164 123.203C134.177 123.205 134.191 123.206 134.205 123.208C134.362 123.225 134.59 123.241 134.874 123.254C135.44 123.28 136.224 123.297 137.089 123.297Z" fill="#0C0C0C" stroke="#0C0C0C" stroke-width="0.104357"/>
<path d="M144.517 123.297C145.382 123.297 146.165 123.28 146.732 123.254C147.015 123.241 147.244 123.225 147.401 123.208C147.415 123.206 147.428 123.205 147.441 123.203C147.428 123.202 147.415 123.2 147.401 123.199C147.244 123.181 147.015 123.166 146.732 123.153C146.165 123.126 145.382 123.11 144.517 123.11C143.651 123.11 142.867 123.126 142.3 123.153C142.016 123.166 141.788 123.181 141.631 123.199C141.617 123.2 141.603 123.202 141.59 123.203C141.603 123.205 141.617 123.206 141.631 123.208C141.788 123.225 142.016 123.241 142.3 123.254C142.867 123.28 143.651 123.297 144.517 123.297Z" fill="#0C0C0C" stroke="#0C0C0C" stroke-width="0.104357"/>
<path d="M151.943 123.297C152.809 123.297 153.592 123.28 154.159 123.254C154.442 123.241 154.671 123.225 154.828 123.208C154.842 123.206 154.855 123.205 154.868 123.203C154.855 123.202 154.842 123.2 154.828 123.199C154.671 123.181 154.442 123.166 154.159 123.153C153.592 123.126 152.809 123.11 151.943 123.11C151.078 123.11 150.294 123.126 149.727 123.153C149.444 123.166 149.215 123.181 149.058 123.199C149.044 123.2 149.031 123.202 149.018 123.203C149.031 123.205 149.044 123.206 149.058 123.208C149.215 123.225 149.444 123.241 149.727 123.254C150.294 123.28 151.078 123.297 151.943 123.297Z" fill="#0C0C0C" stroke="#0C0C0C" stroke-width="0.104357"/>
<path d="M159.37 123.297C160.235 123.297 161.019 123.28 161.586 123.254C161.869 123.241 162.098 123.225 162.255 123.208C162.269 123.206 162.282 123.205 162.295 123.203C162.282 123.202 162.269 123.2 162.255 123.199C162.098 123.181 161.869 123.166 161.586 123.153C161.019 123.126 160.235 123.11 159.37 123.11C158.504 123.11 157.72 123.126 157.154 123.153C156.87 123.166 156.642 123.181 156.485 123.199C156.471 123.2 156.457 123.202 156.444 123.203C156.457 123.205 156.471 123.206 156.485 123.208C156.642 123.225 156.87 123.241 157.154 123.254C157.72 123.28 158.504 123.297 159.37 123.297Z" fill="#0C0C0C" stroke="#0C0C0C" stroke-width="0.104357"/>
<path d="M166.796 123.297C167.662 123.297 168.445 123.28 169.012 123.254C169.295 123.241 169.523 123.225 169.68 123.208C169.695 123.206 169.708 123.205 169.721 123.203C169.708 123.202 169.695 123.2 169.68 123.199C169.523 123.181 169.295 123.166 169.012 123.153C168.445 123.126 167.662 123.11 166.796 123.11C165.93 123.11 165.147 123.126 164.58 123.153C164.296 123.166 164.068 123.181 163.911 123.199C163.897 123.2 163.883 123.202 163.871 123.203C163.883 123.205 163.897 123.206 163.911 123.208C164.068 123.225 164.296 123.241 164.58 123.254C165.147 123.28 165.93 123.297 166.796 123.297Z" fill="#0C0C0C" stroke="#0C0C0C" stroke-width="0.104357"/>
<path d="M174.223 123.297C175.089 123.297 175.872 123.28 176.439 123.254C176.722 123.241 176.95 123.225 177.107 123.208C177.122 123.206 177.135 123.205 177.148 123.203C177.135 123.202 177.122 123.2 177.107 123.199C176.95 123.181 176.722 123.166 176.439 123.153C175.872 123.126 175.089 123.11 174.223 123.11C173.357 123.11 172.573 123.126 172.007 123.153C171.723 123.166 171.494 123.181 171.337 123.199C171.323 123.2 171.31 123.202 171.297 123.203C171.31 123.205 171.323 123.206 171.337 123.208C171.494 123.225 171.723 123.241 172.007 123.254C172.573 123.28 173.357 123.297 174.223 123.297Z" fill="#0C0C0C" stroke="#0C0C0C" stroke-width="0.104357"/>
<path d="M181.649 123.297C182.514 123.297 183.298 123.28 183.865 123.254C184.148 123.241 184.377 123.225 184.534 123.208C184.548 123.206 184.561 123.205 184.574 123.203C184.561 123.202 184.548 123.2 184.534 123.199C184.377 123.181 184.148 123.166 183.865 123.153C183.298 123.126 182.514 123.11 181.649 123.11C180.783 123.11 180 123.126 179.433 123.153C179.15 123.166 178.921 123.181 178.764 123.199C178.75 123.2 178.737 123.202 178.724 123.203C178.737 123.205 178.75 123.206 178.764 123.208C178.921 123.225 179.15 123.241 179.433 123.254C180 123.28 180.783 123.297 181.649 123.297Z" fill="#0C0C0C" stroke="#0C0C0C" stroke-width="0.104357"/>
<path d="M189.076 123.297C189.942 123.297 190.725 123.28 191.292 123.254C191.575 123.241 191.803 123.225 191.96 123.208C191.975 123.206 191.988 123.205 192.001 123.203C191.988 123.202 191.975 123.2 191.96 123.199C191.803 123.181 191.575 123.166 191.292 123.153C190.725 123.126 189.942 123.11 189.076 123.11C188.21 123.11 187.426 123.126 186.86 123.153C186.576 123.166 186.347 123.181 186.19 123.199C186.176 123.2 186.163 123.202 186.15 123.203C186.163 123.205 186.176 123.206 186.19 123.208C186.347 123.225 186.576 123.241 186.86 123.254C187.426 123.28 188.21 123.297 189.076 123.297Z" fill="#0C0C0C" stroke="#0C0C0C" stroke-width="0.104357"/>
<path d="M125.928 117.132H129.361V91.1505H125.928V117.132Z" fill="#0C0C0C" stroke="#0C0C0C" stroke-width="0.104357"/>
<path d="M139.586 117.132H143.02V79.2594H139.586V117.132Z" fill="#0C0C0C" stroke="#0C0C0C" stroke-width="0.104357"/>
<path d="M153.243 117.132H156.676V96.9118H153.243V117.132Z" fill="#0C0C0C" stroke="#0C0C0C" stroke-width="0.104357"/>
<path d="M166.901 117.132H170.334V88.1795H166.901V117.132Z" fill="#0C0C0C" stroke="#0C0C0C" stroke-width="0.104357"/>
<path d="M180.559 117.132H183.991V93.9606H180.559V117.132Z" fill="#0C0C0C" stroke="#0C0C0C" stroke-width="0.104357"/>
<path d="M21.8015 35.8148C23.6535 35.8148 25.1538 34.3137 25.1538 32.4624C25.1538 30.6112 23.6535 29.1101 21.8015 29.1101C19.9502 29.1101 18.4492 30.6112 18.4492 32.4624C18.4492 34.3137 19.9502 35.8148 21.8015 35.8148Z" fill="#0C0C0C" stroke="#0C0C0C" stroke-width="0.104357"/>
<mask id="path-56-inside-7_176_1850" fill="white">
<path d="M83.7415 29.7769C83.7415 29.8877 72.2615 29.9771 58.1038 29.9771C43.9407 29.9771 32.4639 29.8877 32.4639 29.7769C32.4639 29.666 43.9407 29.5759 58.1038 29.5759C72.2615 29.5759 83.7415 29.666 83.7415 29.7769Z"/>
</mask>
<path d="M83.7415 29.7769C83.7415 29.8877 72.2615 29.9771 58.1038 29.9771C43.9407 29.9771 32.4639 29.8877 32.4639 29.7769C32.4639 29.666 43.9407 29.5759 58.1038 29.5759C72.2615 29.5759 83.7415 29.666 83.7415 29.7769Z" fill="#0D5EFB"/>
<path d="M83.8458 29.7769C83.8458 29.8369 83.7997 29.8649 83.7943 29.8682C83.7817 29.876 83.7697 29.88 83.7639 29.8818C83.7509 29.8858 83.7364 29.8884 83.7241 29.8903C83.6978 29.8944 83.6615 29.898 83.6171 29.9014C83.5275 29.9083 83.3956 29.915 83.2245 29.9216C82.8819 29.9347 82.3774 29.9473 81.7285 29.9593C80.4304 29.9832 78.5526 30.0048 76.2326 30.0229C71.5926 30.0591 65.1828 30.0814 58.1038 30.0814V29.8727C65.1825 29.8727 71.5916 29.8504 76.231 29.8142C78.5507 29.7961 80.4277 29.7745 81.7246 29.7506C82.3732 29.7386 82.8761 29.726 83.2166 29.713C83.387 29.7065 83.5156 29.6999 83.6011 29.6933C83.6442 29.69 83.6741 29.6869 83.6922 29.6841C83.702 29.6826 83.7042 29.6818 83.7023 29.6823C83.7021 29.6824 83.6943 29.6846 83.6845 29.6907C83.6819 29.6923 83.6371 29.7186 83.6371 29.7769H83.8458ZM58.1038 30.0814C51.0221 30.0814 44.6118 30.0591 39.9719 30.0229C37.652 30.0048 35.7743 29.9832 34.4765 29.9593C33.8277 29.9473 33.3232 29.9347 32.9807 29.9216C32.8096 29.915 32.6778 29.9083 32.5882 29.9014C32.5438 29.898 32.5075 29.8944 32.4813 29.8903C32.4689 29.8884 32.4545 29.8858 32.4414 29.8818C32.4357 29.88 32.4237 29.876 32.4111 29.8682C32.4056 29.8649 32.3595 29.8369 32.3595 29.7769H32.5682C32.5682 29.7186 32.5235 29.6923 32.5208 29.6907C32.511 29.6846 32.5032 29.6824 32.5031 29.6823C32.5011 29.6818 32.5034 29.6826 32.5132 29.6841C32.5312 29.6869 32.5611 29.69 32.6042 29.6933C32.6897 29.6999 32.8182 29.7065 32.9887 29.713C33.3291 29.726 33.8319 29.7386 34.4804 29.7506C35.7771 29.7745 37.6538 29.7961 39.9735 29.8142C44.6128 29.8504 51.0225 29.8727 58.1038 29.8727V30.0814ZM32.3595 29.7769C32.3595 29.7168 32.4056 29.6889 32.4111 29.6855C32.4237 29.6777 32.4357 29.6738 32.4414 29.672C32.4545 29.6679 32.4689 29.6653 32.4813 29.6634C32.5075 29.6594 32.5438 29.6557 32.5882 29.6523C32.6778 29.6454 32.8096 29.6387 32.9807 29.6321C33.3232 29.619 33.8277 29.6064 34.4765 29.5944C35.7743 29.5703 37.652 29.5487 39.9719 29.5305C44.6118 29.4941 51.0221 29.4716 58.1038 29.4716V29.6803C51.0225 29.6803 44.6128 29.7028 39.9735 29.7392C37.6538 29.7574 35.7771 29.779 34.4804 29.803C33.8319 29.8151 33.3291 29.8277 32.9887 29.8407C32.8182 29.8472 32.6897 29.8538 32.6042 29.8604C32.5611 29.8637 32.5312 29.8669 32.5132 29.8697C32.5034 29.8712 32.5011 29.872 32.5031 29.8714C32.5033 29.8713 32.511 29.8691 32.5208 29.863C32.5235 29.8614 32.5682 29.8352 32.5682 29.7769H32.3595ZM58.1038 29.4716C65.1829 29.4716 71.5926 29.4941 76.2326 29.5305C78.5526 29.5487 80.4304 29.5703 81.7285 29.5944C82.3774 29.6064 82.8819 29.619 83.2246 29.6321C83.3956 29.6387 83.5275 29.6454 83.6171 29.6523C83.6615 29.6557 83.6978 29.6594 83.7241 29.6634C83.7364 29.6653 83.7509 29.6679 83.7639 29.672C83.7697 29.6738 83.7817 29.6777 83.7943 29.6855C83.7997 29.6889 83.8458 29.7168 83.8458 29.7769H83.6371C83.6371 29.8352 83.6819 29.8614 83.6845 29.863C83.6943 29.8691 83.7021 29.8713 83.7023 29.8714C83.7042 29.872 83.702 29.8712 83.6922 29.8697C83.6741 29.8669 83.6442 29.8637 83.6011 29.8604C83.5156 29.8538 83.387 29.8472 83.2166 29.8407C82.8761 29.8277 82.3732 29.8151 81.7246 29.803C80.4277 29.779 78.5507 29.7574 76.231 29.7392C71.5916 29.7028 65.1825 29.6803 58.1038 29.6803V29.4716Z" fill="#0C0C0C" mask="url(#path-56-inside-7_176_1850)"/>
<path d="M33.6324 33.8159C34.1436 33.792 34.8835 33.7705 35.7982 33.7528C37.6267 33.7158 40.1527 33.6935 42.9444 33.6935C45.7345 33.6935 48.2605 33.7158 50.0898 33.7528C51.0037 33.7705 51.7443 33.792 52.2555 33.8159M33.6324 33.8159L33.6349 33.868C33.4573 33.8766 33.3077 33.8853 33.1882 33.8941C33.3077 33.9029 33.4573 33.9115 33.6349 33.9201L33.6324 33.9722M33.6324 33.8159L33.6349 33.868C34.1454 33.8442 34.8847 33.8226 35.7992 33.8049L35.7992 33.8049C37.6273 33.768 40.1529 33.7457 42.9444 33.7457C45.7343 33.7457 48.2599 33.768 50.0888 33.8049L50.0888 33.8049C51.0025 33.8226 51.7426 33.8442 52.2531 33.868L52.2555 33.8159M33.6324 33.8159C33.2865 33.8325 33.0453 33.8499 32.9253 33.8679L52.962 33.8679C52.842 33.8499 52.6009 33.8325 52.2555 33.8159M33.6324 33.9722C34.1436 33.9961 34.8835 34.0184 35.7982 34.0361C37.6267 34.0723 40.1527 34.0946 42.9444 34.0946C45.7345 34.0946 48.2605 34.0723 50.0898 34.0361C51.0037 34.0184 51.7443 33.9961 52.2555 33.9722M33.6324 33.9722L33.6349 33.9201C34.1454 33.9439 34.8847 33.9662 35.7992 33.9839L35.7992 33.9839C37.6273 34.0201 40.1529 34.0424 42.9444 34.0424C45.7343 34.0424 48.2599 34.0201 50.0888 33.9839L50.0888 33.9839C51.0025 33.9662 51.7426 33.9439 52.2531 33.9201L52.2555 33.9722M33.6324 33.9722C33.2866 33.9555 33.0454 33.9385 32.9253 33.9207L52.9619 33.9207C52.8419 33.9385 52.6009 33.9555 52.2555 33.9722M52.2555 33.9722L52.253 33.9201C52.4304 33.9115 52.5798 33.9029 52.6992 33.8941C52.5798 33.8853 52.4304 33.8766 52.253 33.868L52.2555 33.8159" fill="#0D5EFB" stroke="#0C0C0C" stroke-width="0.104357"/>
</svg>
