<svg width="140" height="140" viewBox="0 0 140 140" fill="none" xmlns="http://www.w3.org/2000/svg">
<circle cx="70" cy="69.9995" r="70" fill="url(#paint0_linear_176_1581)"/>
<path fill-rule="evenodd" clip-rule="evenodd" d="M23.5401 34.0861C23.4025 34.1277 23.2291 34.2436 23.1546 34.3435L23.0192 34.5252L23.003 69.4927C22.9927 91.6702 23.0093 104.52 23.0484 104.623C23.0822 104.712 23.1805 104.831 23.2669 104.888C23.4103 104.982 26.0408 104.992 53.5551 104.998C82.3595 105.004 83.6969 104.999 83.9282 104.889C84.4218 104.655 84.3873 105.185 84.4065 97.5295C84.4252 90.1041 84.4371 90.3739 84.0786 90.1384C83.987 90.0782 83.6601 90.0039 83.3182 89.9655C82.5693 89.8814 82.2771 89.9599 82.0792 90.2984C81.949 90.5212 81.9474 90.5927 81.9474 96.2272C81.9474 101.643 81.9415 101.94 81.8299 102.11C81.5801 102.493 83.7011 102.465 53.6744 102.476C26.3679 102.486 26.0546 102.485 25.8874 102.361C25.7943 102.291 25.6825 102.165 25.6389 102.08C25.5332 101.874 25.5195 37.1568 25.6251 36.8532C25.6621 36.7465 25.7647 36.6262 25.853 36.5859C25.9721 36.5315 33.2939 36.5116 54.2696 36.509C75.9889 36.5062 82.5764 36.4876 82.7446 36.4285C82.865 36.3862 83.0241 36.2695 83.098 36.1691C83.2174 36.0073 83.2316 35.9047 83.2237 35.2619C83.2122 34.3262 83.1408 34.1686 82.6845 34.0705C82.1991 33.9661 23.8857 33.9815 23.5401 34.0861ZM78.188 41.598C77.6094 41.6621 77.1115 41.8425 76.6043 42.172C76.2276 42.4167 74.2681 44.4351 71.4355 47.4963C67.9175 51.2982 68.0402 51.1503 67.9017 51.7516C67.7511 52.4056 68.1335 53.1451 68.7799 53.4497C69.554 53.8144 71.1951 53.8577 72.5641 53.5493C74.4246 53.1303 75.8962 52.3785 77.2241 51.1683C77.9343 50.5212 78.6797 50.0029 79.3137 49.7153C80.2922 49.2714 81.8212 49.0235 83.0398 49.111C83.3933 49.1364 84.1017 49.1616 84.6142 49.1671C86.4099 49.1864 86.6674 49.3223 89.4981 51.7461C90.0813 52.2454 92.4815 54.26 94.8319 56.2229C103.03 63.069 103.497 63.4671 105.914 65.6532C107.94 67.4854 107.892 67.4505 108.325 67.419C108.739 67.3891 109.067 67.1868 110.062 66.3487C110.398 66.0659 110.68 65.8418 110.69 65.8509C110.7 65.86 110.736 66.1976 110.769 66.6011C110.828 67.3008 110.846 67.3654 111.161 67.9968C111.687 69.0506 112.173 69.4869 113.142 69.7753C113.856 69.9877 114.81 69.8648 115.474 69.4746C115.872 69.2408 116.468 68.5865 116.654 68.1796C117.01 67.399 117 67.7014 117 57.8981C117 48.0357 117.012 48.3637 116.637 47.5929C116.542 47.3975 116.289 47.0602 116.073 46.8433C115.453 46.2189 114.728 45.9171 113.848 45.9171C112.662 45.9171 111.639 46.5549 111.101 47.6302C110.933 47.9671 110.574 48.2832 110.304 48.3324C110.189 48.3535 107.853 48.3622 105.114 48.3517L100.133 48.3326L99.7057 48.1294C99.2399 47.9082 96.3699 46.0201 94.5748 44.754C93.1782 43.7689 92.664 43.4469 91.7738 43.0001C89.9502 42.085 88.626 41.763 86.285 41.6655C84.2341 41.5801 78.762 41.5345 78.188 41.598ZM57.4973 41.769C56.7835 41.9613 56.2194 42.451 55.8858 43.1679C55.7784 43.3986 55.1315 45.6914 54.3469 48.6225C52.9692 53.7688 51.9788 57.3665 51.2296 59.9465C50.9131 61.0366 50.8125 61.4804 50.8125 61.7868C50.8125 62.6101 51.1808 63.4167 51.8424 64.0424C52.3494 64.5218 52.786 64.7529 53.4488 64.8925C53.8621 64.9797 54.0294 64.9828 54.6464 64.9145C55.6049 64.8085 56.4483 64.8633 57.0411 65.07C58.0965 65.4378 58.4789 65.7871 60.8231 68.5244C61.6262 69.4621 62.3106 70.2263 62.344 70.2225C62.3774 70.2187 62.5989 69.8726 62.836 69.4535C63.4112 68.4372 63.7329 68.08 64.3473 67.7756C64.8089 67.547 64.872 67.5333 65.5827 67.5084C67.8836 67.4279 69.3418 68.344 69.7407 70.1207C69.9496 71.0509 70.0244 71.103 71.152 71.103C72.0854 71.103 72.7534 71.2373 73.3316 71.5411C74.6031 72.2094 75.2083 73.3621 74.9794 74.6798C74.891 75.188 74.8912 75.1883 75.4248 75.2884C76.8718 75.56 77.2045 75.6765 77.5715 76.04C78.1367 76.5996 78.3978 77.9641 78.5005 80.8941C78.5579 82.5319 78.6153 82.8052 78.9698 83.1315C79.0559 83.2107 79.5586 83.4746 80.087 83.7177C81.3342 84.2917 81.9391 84.6003 82.6795 85.0402C83.4686 85.5089 83.8124 85.6205 84.4536 85.6163C85.4095 85.61 86.5018 85.0963 87.1668 84.3402C87.4748 83.9901 87.9559 83.2459 87.9559 83.1196C87.9559 83.0811 87.3558 82.7045 86.6224 82.2827C85.8891 81.8609 84.7364 81.1852 84.0611 80.7811L82.8332 80.0463L82.6038 79.6328L82.3745 79.2192L82.8678 79.2198L83.3611 79.2203L84.7106 80.0002C85.4529 80.4291 86.6674 81.1308 87.4096 81.5595C88.85 82.3916 89.562 82.7006 90.3326 82.828C92.1723 83.1322 94.0469 82.1196 94.9516 80.3329C95.1117 80.0166 95.1295 79.628 94.9927 79.4322C94.9398 79.3565 94.2819 78.8234 93.5308 78.2477C90.1184 75.6322 87.1036 73.2627 87.0145 73.1265C86.8876 72.9324 86.9447 72.7683 87.2246 72.5219L87.4511 72.3226L87.8481 72.6343C88.0664 72.8057 89.315 73.773 90.6227 74.7838C95.5384 78.5832 95.9076 78.8413 96.7309 79.0563C97.9401 79.372 99.0039 78.953 100.32 77.6428C101.043 76.9221 101.318 76.435 101.37 75.7777C101.434 74.9823 101.372 74.8709 100.234 73.744C98.4526 71.98 95.4366 69.066 93.2033 66.9514C91.0634 64.9252 90.7834 64.612 90.7834 64.2455C90.7834 63.881 91.2182 63.7132 91.6214 63.9222C91.7253 63.976 93.8566 66.0529 96.3574 68.5375C98.8584 71.022 101.093 73.2115 101.322 73.4029C101.849 73.8416 102.405 74.1182 102.947 74.2113C103.497 74.3058 104.153 74.1706 104.882 73.8122C105.568 73.4748 106.11 73.0551 107.036 72.1435C107.693 71.4964 107.814 71.3455 107.909 71.0493C108.09 70.4866 108.026 69.9591 107.694 69.2653C107.294 68.4287 106.794 67.7114 106.257 67.2016C105.698 66.6701 103.613 64.9089 100.244 62.123C98.8915 61.004 96.3612 58.8909 94.6214 57.4272C87.7769 51.6689 86.2419 50.4001 85.9637 50.2707C85.6859 50.1415 85.575 50.1362 83.1349 50.1362H80.5953L80.1789 50.3461C79.9499 50.4616 79.213 50.9924 78.5415 51.5256C77.87 52.0588 77.0194 52.6984 76.6513 52.9468C75.4512 53.757 74.0785 54.3612 72.7901 54.6464C72.0701 54.8058 70.1546 54.8478 69.4222 54.7202C68.355 54.5345 67.611 54.0117 67.1882 53.1509C66.9852 52.7374 66.9744 52.6797 66.9744 52.0056C66.9744 51.3198 66.9823 51.2792 67.209 50.8126C67.4863 50.2415 67.4291 50.3104 70.0911 47.3397C71.2397 46.0578 72.1881 44.9846 72.1986 44.9548C72.242 44.8318 71.306 44.7576 69.7002 44.7567C67.7467 44.7555 66.4768 44.6834 65.1108 44.4962C63.9846 44.3418 62.2172 44.0042 62.0286 43.9073C61.7994 43.7896 61.5423 43.514 61.2462 43.0686C60.7854 42.3753 60.2172 41.9563 59.4663 41.7559C59.0354 41.6408 57.946 41.6482 57.4973 41.769ZM32.7461 45.4683C32.1668 45.5351 32.1131 45.6988 32.1127 47.3986C32.1125 48.7789 32.166 49.024 32.5025 49.184C32.7403 49.2971 44.5942 49.3274 44.8553 49.2156C45.1616 49.0844 45.2083 48.8539 45.2321 47.3551C45.2528 46.0554 45.2476 45.9835 45.1195 45.8096C45.0457 45.7093 44.9129 45.5916 44.8244 45.548C44.7016 45.4876 43.2896 45.4647 38.8538 45.4514C35.6585 45.4418 32.91 45.4494 32.7461 45.4683ZM33.8152 55.4542C32.275 55.5207 32.1122 55.7315 32.1124 57.6597C32.1125 58.4629 32.1327 58.6794 32.2249 58.8643C32.4368 59.2893 32.1299 59.2699 38.4051 59.256C41.8372 59.2484 44.2093 59.2183 44.3798 59.1803C45.096 59.0203 45.2418 58.6756 45.249 57.1251C45.2543 55.9643 45.2167 55.8028 44.8836 55.5557C44.7084 55.4258 44.6394 55.424 39.6784 55.4211C36.9131 55.4195 34.2747 55.4344 33.8152 55.4542ZM38.1311 65.0437L32.4222 65.0803L32.3029 65.228C32.1295 65.4426 32.0996 65.7707 32.1233 67.1967L32.1444 68.4728L32.3553 68.6616L32.5663 68.8504L38.6961 68.8334L44.8258 68.8163L44.9855 68.6659C45.1963 68.4674 45.2149 68.33 45.232 66.8433C45.2447 65.7447 45.2323 65.5569 45.1371 65.4114C44.9789 65.1694 44.7164 65.0566 44.25 65.0302C44.0246 65.0175 41.2711 65.0236 38.1311 65.0437ZM65.5695 68.6285C65.0527 68.7539 64.4449 69.0552 64.1216 69.3463C63.8825 69.5614 63.8037 69.7147 63.4334 70.6843C62.168 73.9977 61.7912 75.0686 61.7211 75.5507C61.4798 77.2097 62.4575 78.6252 64.1425 79.0563C64.3521 79.1099 64.7891 79.1725 65.1136 79.1953C66.043 79.2609 66.1093 79.1981 66.9372 77.4669C68.3412 74.5312 69.0885 71.9239 68.8708 70.7205C68.6845 69.6907 68.072 68.9384 67.1718 68.6336C66.7885 68.5039 66.0924 68.5017 65.5695 68.6285ZM70.8898 72.1214C70.0385 72.534 69.9643 72.6581 68.6047 75.9449C67.3508 78.9763 67.4334 78.7415 67.4302 79.2836C67.4278 79.6944 67.4572 79.8293 67.6266 80.1854C67.9798 80.9274 68.4573 81.3629 69.2235 81.6416C70.074 81.9511 70.9673 81.8951 71.4318 81.5034C71.6855 81.2895 72.0812 80.3001 73.5033 76.3246C74.1838 74.4223 74.2217 74.2657 74.0039 74.2603C73.9823 74.2597 73.9474 74.1133 73.9263 73.9349C73.8505 73.293 73.2872 72.5459 72.596 72.1705C72.3212 72.0213 72.1477 71.9768 71.7643 71.9572C71.3318 71.935 71.2381 71.9527 70.8898 72.1214ZM33.2369 75.0741C32.2146 75.2875 32.0857 75.5485 32.1228 77.3306C32.1471 78.502 32.2021 78.6618 32.6324 78.813C32.9423 78.9218 44.3539 78.9204 44.7714 78.8114C45.2246 78.6931 45.2538 78.5872 45.2538 77.0613C45.2538 75.5359 45.2094 75.3657 44.7583 75.1604C44.4917 75.0392 44.301 75.0353 38.9241 75.0412C35.8668 75.0445 33.3076 75.0592 33.2369 75.0741ZM75.3284 76.3846C74.738 76.4755 74.556 76.7119 74.1784 77.8778C73.8999 78.7376 73.6558 79.3294 72.8847 81.0143C72.1854 82.5424 72.4578 83.1501 74.2337 84.0238C75.5027 84.6482 76.3316 84.8199 76.877 84.5717C77.4461 84.3126 77.6272 83.7984 77.62 82.4632C77.6127 81.1407 77.2663 77.6401 77.0989 77.1989C76.8766 76.6127 76.1168 76.2633 75.3284 76.3846ZM32.4979 84.3276C32.328 84.3857 32.2542 84.4597 32.1962 84.63C32.0918 84.9371 32.0918 87.3506 32.1962 87.6567C32.3516 88.1119 30.9196 88.0742 48.8204 88.0942C58.8581 88.1054 65.2207 88.0888 65.6116 88.0502C66.6608 87.9467 66.8372 87.7624 66.9491 86.6528C67.0383 85.769 67.0007 84.9221 66.8604 84.6548C66.8025 84.5444 66.6555 84.4067 66.5337 84.3488C66.3305 84.2521 64.9335 84.2438 49.5176 84.2471C36.6819 84.2499 32.6698 84.2689 32.4979 84.3276ZM32.5943 94.3821C32.1575 94.576 32.1465 94.6164 32.1248 96.0958C32.1026 97.6126 32.1416 97.8068 32.5089 98.0078C32.714 98.12 33.4113 98.1247 49.5594 98.1247C64.4427 98.1247 66.4183 98.1135 66.5882 98.0275C66.9353 97.8519 66.9724 97.6817 66.9734 96.2567C66.9745 94.8167 66.936 94.6553 66.5395 94.4381C66.3425 94.3302 65.4581 94.3236 49.5594 94.3104C35.7313 94.299 32.7532 94.3116 32.5943 94.3821Z" fill="white"/>
<defs>
<linearGradient id="paint0_linear_176_1581" x1="42.71" y1="19.3025" x2="100.064" y2="19.3461" gradientUnits="userSpaceOnUse">
<stop stop-color="#3887DB"/>
<stop offset="1" stop-color="#1E4875"/>
</linearGradient>
</defs>
</svg>
