<svg width="140" height="140" viewBox="0 0 140 140" fill="none" xmlns="http://www.w3.org/2000/svg">
<circle cx="70" cy="70" r="70" fill="url(#paint0_linear_176_1598)"/>
<path fill-rule="evenodd" clip-rule="evenodd" d="M34.9051 28.283C33.3008 28.8125 32.1893 29.8569 31.3982 31.5784L31.048 32.3401V50.7741V69.2082L31.4405 70.1222C31.6564 70.625 34.1773 74.8966 37.0423 79.6147C39.9074 84.3329 42.2516 88.3151 42.2516 88.4642C42.2516 88.7094 41.5952 92.4865 41.4084 93.3171C41.3347 93.644 41.262 93.6599 39.8364 93.6599C37.8482 93.6599 37.8068 93.7038 37.3441 96.2912L36.9975 98.2303H34.8518C31.9186 98.2303 32.2295 97.8494 31.3587 102.511C30.8828 105.059 30.8823 105.163 31.346 105.626L31.7201 106H49.8537C59.8272 106 68.0983 105.957 68.234 105.905C68.9291 105.639 68.9269 105.678 68.9237 92.8677C68.9221 85.7922 68.8588 80.3583 68.7713 79.753C68.566 78.3348 68.1067 77.0236 67.372 75.7591C66.855 74.8692 65.3109 73.251 58.0459 65.9854C48.7207 56.659 48.7754 56.7062 46.8525 56.3281C45.5772 56.0773 44.3701 56.223 43.2906 56.7577L42.404 57.1969V46.1778C42.404 40.1172 42.4473 35.1586 42.5004 35.1586C42.5534 35.1586 42.8182 35.2954 43.0889 35.4626C43.7375 35.8632 44.3324 36.7463 44.5265 37.5961C44.6219 38.0138 44.6845 41.213 44.6868 45.7848C44.6903 53.0822 44.6989 53.2962 44.9953 53.5926C45.4199 54.0169 46.2235 53.9935 46.6455 53.5447C46.9769 53.192 46.9769 53.1916 46.9769 45.366C46.9769 36.6101 46.9681 36.5225 45.9297 35.015C45.2828 34.0761 44.019 33.1337 43.038 32.859C42.674 32.7571 42.3397 32.5644 42.2951 32.4308C41.7032 30.6614 40.5816 29.3121 39.0948 28.5805C37.8328 27.9595 36.2302 27.8457 34.9051 28.283ZM68.7488 28.6923C66.7713 30.3814 64.1 31.077 61.5542 30.566C60.3167 30.3177 60.0621 30.4736 59.5595 31.7882C58.5593 34.4043 56.7699 36.1884 54.3336 36.9988C53.1537 37.3912 52.8674 37.8287 53.1072 38.8728C53.3375 39.8761 53.2832 41.8934 52.9997 42.8684C52.6548 44.0541 52.0957 45.1442 51.4059 45.9752C50.2782 47.3338 50.2769 47.516 51.3849 48.8466C52.0937 49.698 52.6514 50.7789 52.9997 51.9766C53.2832 52.9516 53.3375 54.9689 53.1072 55.9722C52.8674 57.0163 53.1537 57.4538 54.3336 57.8463C56.7699 58.6566 58.5593 60.4407 59.5595 63.0568C60.0621 64.3714 60.3167 64.5273 61.5542 64.279C64.1 63.768 66.7713 64.4636 68.7488 66.1527C69.8115 67.0604 70.1761 67.0604 71.2388 66.1527C73.2163 64.4636 75.8876 63.768 78.4334 64.279C79.671 64.5273 79.9255 64.3714 80.4281 63.0568C81.4283 60.4407 83.2177 58.6566 85.654 57.8463C86.8333 57.454 87.1197 57.0167 86.8813 55.9722C86.6749 55.068 86.6926 53.1441 86.9158 52.1977C87.1862 51.0511 87.915 49.6139 88.68 48.7182C89.7094 47.513 89.7026 47.3256 88.5817 45.9752C87.8919 45.1442 87.3328 44.0541 86.9879 42.8684C86.7044 41.8934 86.6501 39.8761 86.8804 38.8728C87.1202 37.8287 86.8339 37.3912 85.654 36.9988C83.2177 36.1884 81.4283 34.4043 80.4281 31.7882C79.9255 30.4736 79.671 30.3177 78.4334 30.566C75.8876 31.077 73.2163 30.3814 71.2388 28.6923C70.1761 27.7846 69.8115 27.7846 68.7488 28.6923ZM101.743 28.2193C99.8563 28.8084 98.394 30.3279 97.6945 32.4256C97.6509 32.5563 97.3167 32.7527 96.9516 32.8618C95.3031 33.3551 93.8291 34.8429 93.2974 36.5504C93.0323 37.4014 93.0107 38.0655 93.0107 45.3529V53.2347L93.3634 53.5661C93.8125 53.9876 94.5844 54.0002 94.9923 53.5926C95.2889 53.2961 95.2971 53.0848 95.2971 45.8303C95.2971 37.9777 95.3508 37.2338 95.9794 36.3824C96.3397 35.8942 97.2302 35.1586 97.4607 35.1586C97.5282 35.1586 97.5836 40.1172 97.5836 46.1778V57.1969L96.6365 56.7279C95.7971 56.312 95.5415 56.2593 94.3882 56.2646C92.7857 56.2717 92.0749 56.4725 90.9291 57.2411C90.4076 57.5909 86.5559 61.3323 81.6387 66.2656C74.6851 73.2417 73.1319 74.8762 72.6174 75.7591C71.8816 77.0217 71.4219 78.3322 71.2163 79.753C71.1288 80.3583 71.0655 85.7922 71.0639 92.8677C71.0607 105.678 71.0585 105.639 71.7536 105.905C71.8893 105.957 80.1604 106 90.1339 106H108.268L108.642 105.626C109.105 105.163 109.105 105.059 108.629 102.511C107.758 97.8494 108.069 98.2303 105.136 98.2303H102.99L102.643 96.2912C102.181 93.7038 102.139 93.6599 100.151 93.6599C98.7256 93.6599 98.6529 93.644 98.5792 93.3171C98.3925 92.4871 97.736 88.7095 97.736 88.4645C97.736 88.3157 100.107 84.2823 103.006 79.5015C105.905 74.7207 108.426 70.4146 108.608 69.9324L108.94 69.0558L108.981 51.0141C109.026 30.9463 109.08 32.0697 107.996 30.4725C106.665 28.5112 103.946 27.5313 101.743 28.2193ZM35.8855 30.427C35.0783 30.6274 34.2199 31.2917 33.762 32.0702L33.3345 32.7972L33.2903 50.0124C33.2453 67.5639 33.2723 68.5706 33.8183 69.6515C33.9491 69.9105 36.4488 74.0738 39.3733 78.9034C43.0903 85.0419 44.6902 87.8157 44.6893 88.1204C44.6887 88.3602 44.4833 89.6531 44.2332 90.9938C43.9831 92.3345 43.7777 93.4827 43.7771 93.5456C43.7765 93.6085 48.8861 93.6599 55.1319 93.6599H66.4879V86.8643C66.4879 81.1589 66.4492 79.9186 66.2465 79.1327C65.6989 77.0102 65.7015 77.0132 56.5134 67.7942C50.8146 62.0765 47.7613 59.1202 47.3479 58.92C46.1895 58.3592 44.3875 58.5964 43.4964 59.4272C42.5211 60.3364 42.1755 62.1941 42.768 63.3428C42.9193 63.6361 46.7885 67.6263 51.3663 72.2099C59.3402 80.1941 59.6896 80.5673 59.6896 81.1037C59.6896 81.782 59.2167 82.2338 58.5069 82.2338C58.0781 82.2338 57.1505 81.3556 49.5376 73.7405C42.0342 66.2351 40.997 65.1408 40.6202 64.333L40.1938 63.419L40.1176 48.1842C40.037 32.076 40.0645 32.6482 39.3202 31.6375C38.6163 30.6815 37.0635 30.1343 35.8855 30.427ZM102.601 30.4256C101.558 30.6287 100.626 31.4225 100.134 32.5284C99.991 32.8488 99.9279 36.5924 99.87 48.1842L99.7938 63.419L99.3674 64.333C98.9906 65.1408 97.9534 66.2351 90.45 73.7405C82.8371 81.3556 81.9095 82.2338 81.4807 82.2338C80.7709 82.2338 80.298 81.782 80.298 81.1037C80.298 80.5673 80.6474 80.1941 88.6213 72.2099C93.1991 67.6263 97.0684 63.6361 97.2196 63.3428C97.3927 63.007 97.4961 62.4711 97.4985 61.8955C97.5034 60.7491 97.0243 59.8196 96.0908 59.1647C95.2035 58.542 93.6631 58.4244 92.6744 58.9037C92.2174 59.1252 89.4362 61.8093 83.4611 67.7948C76.0107 75.2582 74.8409 76.4916 74.428 77.3196C73.5204 79.1395 73.4997 79.3516 73.4997 86.8362V93.6599H84.8557C91.1015 93.6599 96.2111 93.6085 96.2105 93.5456C96.2099 93.4827 96.0045 92.3345 95.7544 90.9938C95.5043 89.6531 95.299 88.3593 95.2983 88.1184C95.2976 87.8305 95.8389 86.7883 96.8807 85.0715C103.429 74.2825 106.062 69.8658 106.336 69.2082C106.65 68.4537 106.654 68.2794 106.696 51.1651C106.726 39.1406 106.689 33.6407 106.573 33.085C106.19 31.2406 104.439 30.068 102.601 30.4256ZM69.3841 31.1393C67.6439 32.3916 65.5624 33.0257 63.191 33.0257H61.6196L61.2239 33.8331C60.261 35.7989 58.4288 37.6543 56.5606 38.5559L55.5503 39.0434L55.6296 40.0669C55.789 42.1263 55.1154 44.6708 53.9364 46.4623L53.3028 47.4251L53.8713 48.2618C55.0557 50.0043 55.7887 52.7214 55.6296 54.7781L55.5503 55.8016L56.5606 56.2891C58.4288 57.1907 60.261 59.0461 61.2239 61.0119L61.6196 61.8193L63.1773 61.8216C65.5285 61.825 67.517 62.4161 69.2983 63.6409L69.9938 64.1191L70.6416 63.6754C72.5136 62.3927 74.4135 61.8193 76.7916 61.8193H78.3579L78.8414 60.8682C79.8278 58.9282 81.5762 57.1823 83.427 56.2891L84.4373 55.8016L84.358 54.7781C84.1989 52.7214 84.9319 50.0043 86.1163 48.2618L86.6848 47.4251L86.0512 46.4623C84.8722 44.6708 84.1986 42.1263 84.358 40.0669L84.4373 39.0434L83.427 38.5559C81.5762 37.6627 79.8278 35.9168 78.8414 33.9768L78.3579 33.0257H76.7916C74.4185 33.0257 72.5132 32.452 70.6523 31.177C70.3019 30.9369 69.9932 30.7438 69.9664 30.7479C69.9395 30.7521 69.6775 30.9282 69.3841 31.1393ZM67.3263 34.6493C64.7992 35.1881 62.7 36.3528 60.7718 38.2859C59.2268 39.835 58.3236 41.271 57.6342 43.2753C55.6749 48.9707 58.056 55.4684 63.234 58.5569C70.8172 63.0803 80.374 59.1491 82.6752 50.5598C82.9116 49.6775 82.9852 48.933 82.9852 47.4225C82.9852 45.912 82.9116 45.1675 82.6752 44.2852C81.3487 39.3341 77.4856 35.6522 72.5534 34.6383C71.1065 34.3409 68.7489 34.3458 67.3263 34.6493ZM68.0884 36.9101C65.9387 37.3144 64.3426 38.1226 62.7398 39.6187C61.4198 40.8509 60.4267 42.3713 59.8318 44.0709C59.4431 45.1816 59.4053 45.4787 59.4053 47.4225C59.4053 49.3663 59.4431 49.6634 59.8318 50.7741C61.5885 55.7935 66.714 58.8853 71.7467 57.9613C73.378 57.6618 74.4818 57.2259 75.8177 56.3539C78.814 54.3977 80.6585 50.9944 80.6585 47.4225C80.6585 45.7066 80.3215 44.2901 79.5335 42.694C77.4182 38.4101 72.7249 36.0384 68.0884 36.9101ZM39.7437 96.1355C39.7109 96.2403 39.6397 96.6002 39.5856 96.9353C39.5314 97.2705 39.45 97.6989 39.4047 97.8875L39.3224 98.2303H52.9052H66.4879V97.0877V95.9451H53.1456C42.6051 95.9451 39.7906 95.985 39.7437 96.1355ZM73.4997 97.0869V98.2303H87.0659C94.5274 98.2303 100.628 98.179 100.623 98.116C100.618 98.0531 100.528 97.5562 100.425 97.0115L100.236 96.0213L86.8676 95.9824L73.4997 95.9434V97.0869Z" fill="white"/>
<defs>
<linearGradient id="paint0_linear_176_1598" x1="42.71" y1="19.303" x2="100.064" y2="19.3465" gradientUnits="userSpaceOnUse">
<stop stop-color="#3887DB"/>
<stop offset="1" stop-color="#1E4875"/>
</linearGradient>
</defs>
</svg>
