<svg width="140" height="140" viewBox="0 0 140 140" fill="none" xmlns="http://www.w3.org/2000/svg">
<circle cx="70" cy="70" r="70" fill="url(#paint0_linear_176_1589)"/>
<path fill-rule="evenodd" clip-rule="evenodd" d="M65.2962 20.2654C60.6047 21.0511 54.1535 24.2241 50.3485 27.618C46.9519 30.6466 43.5434 35.7682 41.9982 40.1633C40.729 43.7737 40.0164 51.6009 40.6493 54.9756C40.9445 56.5509 41.0792 56.6513 43.1106 56.8133C45.5056 57.004 45.3546 57.4375 44.4767 52.8975L44.1968 51.4479L49.8503 51.5832L55.5043 51.718L55.8243 54.8246C56.0006 56.5332 56.589 59.3291 57.1317 61.0378C57.6747 62.7464 58.1218 64.2935 58.1252 64.4761C58.1285 64.6586 56.8838 65.3679 55.3586 66.0528L52.5854 67.2978L52.0317 70.5005C51.3726 74.3163 51.385 74.3316 57.4149 77.2513C62.3276 79.63 65.3654 80.3035 71.0032 80.2643C77.4424 80.2193 83.3562 78.2746 88.5254 74.5022L90.4991 73.0617L90.0128 70.9928C89.7453 69.8548 89.4501 68.6423 89.357 68.2981C89.2639 67.9545 87.7884 67.0383 86.0784 66.2621C84.3684 65.4864 82.9693 64.6725 82.9693 64.4536C82.9693 64.2342 83.3945 62.8186 83.9141 61.3078C84.4338 59.7966 84.9841 57.4508 85.1369 56.0949C85.7063 51.0517 85.1331 51.479 91.3283 51.479H96.8031L96.5237 53.5174L96.2443 55.5563L98.4993 55.3766L100.754 55.1974L100.535 49.3952C100.276 42.5545 99.2955 39.1769 96.048 33.9363C92.1742 27.6844 85.0213 22.5647 77.4954 20.6568C74.8755 19.9924 68.2027 19.7783 65.2962 20.2654ZM62.1379 25.3955C58.8789 26.5818 55.2717 28.5738 54.3326 29.7056C53.7972 30.3513 54.0732 30.6089 56.4147 31.6451C59.3169 32.9293 60.042 33.0827 60.042 32.4117C60.042 32.1765 61.2337 30.3221 62.6901 28.2909C64.1469 26.2597 65.2752 24.5381 65.1978 24.4655C65.1204 24.3928 63.7438 24.811 62.1379 25.3955ZM75.8045 24.5185C75.8045 24.6452 76.8616 26.1292 78.1532 27.8153C79.4452 29.502 80.6417 31.3225 80.8127 31.8606C81.2054 33.098 81.3276 33.0903 84.6383 31.6255C87.2357 30.476 87.3399 30.3656 86.5981 29.545C86.1667 29.0685 84.7534 28.1007 83.457 27.3948C81.0291 26.0728 75.8045 24.1089 75.8045 24.5185ZM66.0972 28.4185C64.6762 30.1926 63.2743 32.1063 62.9815 32.6707C62.3858 33.8197 62.5888 33.9172 66.8485 34.5323L69.1174 34.8597V30.0263C69.1174 27.3675 69.019 25.1924 68.8991 25.1924C68.7792 25.1924 67.5182 26.6444 66.0972 28.4185ZM72.0029 29.8686L71.9833 34.7842L74.491 34.4596C78.8787 33.8918 78.915 33.8507 77.2346 31.3124C76.4293 30.0961 74.9271 28.1676 73.8963 27.0267L72.0225 24.9534L72.0029 29.8686ZM49.685 34.3822C46.8005 38.4203 45.4206 41.8333 44.5593 47.0581L44.3033 48.6114H49.9339H55.5645L55.6767 46.4487C55.7708 44.6268 56.6397 40.7106 57.9074 36.3905C58.1581 35.5374 57.7526 35.2081 54.9664 34.0008C53.1891 33.2304 51.6019 32.5421 51.439 32.4705C51.2766 32.3992 50.487 33.2595 49.685 34.3822ZM86.3129 33.8503C84.868 34.5906 83.5115 35.2621 83.298 35.3424C83.0845 35.4222 83.4608 37.3894 84.1339 39.7136C84.8069 42.0373 85.3576 44.6502 85.3576 45.5191C85.3576 48.5904 85.3987 48.6114 91.3794 48.6114C94.3724 48.6114 96.8175 48.4498 96.8132 48.2529C96.773 46.5304 95.2102 41.0566 94.1679 38.99C92.4813 35.6449 90.1083 32.3428 89.4559 32.4327C89.1721 32.4719 87.7578 33.1099 86.3129 33.8503ZM60.1146 39.1401C59.5748 40.8004 59.0007 43.0195 58.8388 44.071C58.6769 45.1224 58.4347 46.5739 58.3 47.2971L58.0554 48.6114H63.5867H69.1174V43.1366V37.6623L67.565 37.4238C63.3789 36.7815 62.3132 36.5879 61.7295 36.3637C61.2973 36.1979 60.7852 37.0787 60.1146 39.1401ZM77.4763 36.7036C76.4255 36.9258 74.7599 37.2322 73.7745 37.3846L71.9833 37.6623V43.1366V48.6114H77.4926H83.0023L82.6851 46.1022C82.3116 43.1519 80.2123 36.1597 79.7242 36.2423C79.5388 36.2739 78.5272 36.4813 77.4763 36.7036ZM58.3864 53.7492C58.7882 56.657 59.9178 61.1984 60.6266 62.7541C61.0537 63.6922 61.4224 63.9021 62.2693 63.6894C62.8697 63.5388 64.6566 63.2798 66.2395 63.1144L69.1174 62.8133V57.1464V51.479H63.5952H58.0726L58.3864 53.7492ZM71.9833 57.1464V62.8133L74.8612 63.1144C76.4441 63.2798 78.231 63.5388 78.8314 63.6894C79.6783 63.9021 80.0471 63.6922 80.4741 62.7541C81.1829 61.1984 82.3126 56.657 82.7143 53.7492L83.0281 51.479H77.5055H71.9833V57.1464ZM95.5311 59.5848C93.1386 61.0445 92.3509 63.036 92.6686 66.8256C93.0856 71.8029 95.0315 74.898 97.7436 74.898C100.349 74.898 104.935 68.4927 104.929 64.8613C104.923 60.0561 99.6294 57.0843 95.5311 59.5848ZM39.6457 61.0187C37.8058 62.1409 36.637 64.238 36.637 66.4165C36.637 69.9767 41.3419 76.3318 43.9776 76.3318C46.8889 76.3318 49.056 72.243 49.056 66.7506C49.056 64.7198 48.8042 63.7142 48.0586 62.7655C45.9364 60.0661 42.4075 59.333 39.6457 61.0187ZM63.7438 66.1594C63.0216 66.2688 62.4303 66.4781 62.4303 66.6244C62.4303 67.131 66.6307 72.752 67.8717 73.9058L69.1174 75.0648V70.4407V65.8172L67.0874 65.8888C65.9706 65.928 64.466 66.0499 63.7438 66.1594ZM71.9833 70.3776V75.0767L73.4664 73.673C75.1439 72.0853 78.8682 66.8117 78.5424 66.4858C78.4249 66.3682 76.9012 66.1383 75.1559 65.9754L71.9833 65.679V70.3776ZM56.579 68.5381C55.0687 69.2115 53.8325 69.9274 53.8325 70.1296C53.8325 71.1739 63.2676 75.8539 65.3736 75.8539C65.6549 75.8539 65.161 75.0476 64.2764 74.0616C63.3918 73.0761 61.9474 71.1404 61.0666 69.7601C60.1853 68.3799 59.4335 67.2653 59.3952 67.2825C59.357 67.2997 58.0893 67.8646 56.579 68.5381ZM80.0198 69.7778C79.1462 71.1433 77.8121 72.9685 77.0546 73.8341C76.297 74.6996 75.7845 75.5155 75.9158 75.6464C76.6896 76.4212 87.2682 71.2236 87.2682 70.0689C87.2682 69.8333 87.1875 69.6407 87.0886 69.6407C86.9902 69.6407 85.7168 69.113 84.2585 68.4678L81.608 67.2945L80.0198 69.7778ZM92.7407 78.0557C90.3945 79.2735 89.8877 79.9799 88.0587 84.5777C87.092 87.0085 85.4942 90.4792 84.5083 92.2911C82.699 95.6152 81.5135 96.5682 73.4951 101.143C73.0122 101.419 73.2157 101.866 74.331 102.982C75.1416 103.793 75.8045 104.903 75.8045 105.449C75.8045 105.995 76.0735 106.44 76.4016 106.437C77.4477 106.429 81.876 104.182 84.9143 102.117L87.8538 100.12L87.5472 103.639C87.3786 105.575 87.1182 108.396 86.9687 109.907L86.6969 112.655H93.8899H101.083L101.63 110.624C102.997 105.543 103.978 98.9153 104.512 91.1479C104.539 90.7536 104.749 91.1837 104.979 92.1038C105.943 95.966 105.454 101.311 103.442 108.907C102.353 113.018 102.638 114.33 104.736 114.857C106.588 115.322 107.654 113.951 109.2 109.115C111.817 100.927 112.23 98.8025 111.904 95.2104C111.422 89.9052 109.214 81.2216 108.018 79.9312C106.831 78.6493 102.092 76.9957 100.909 77.4502C100.473 77.6174 99.0557 79.9613 97.7594 82.6587C95.2947 87.787 94.7979 87.6819 96.0952 82.306C96.9545 78.7454 96.956 78.6995 96.2118 78.9853C95.877 79.1139 95.0864 80.5592 94.4559 82.1966C93.825 83.834 93.1625 85.3471 92.9838 85.5598C92.5668 86.0545 93.3502 80.8368 93.9683 79.0025C94.2262 78.2369 94.3728 77.5462 94.294 77.4674C94.2152 77.388 93.5159 77.6533 92.7407 78.0557ZM38.4406 79.5091C36.9102 80.1443 36.2983 80.9262 34.0615 85.1005C28.5761 95.337 28.8326 94.578 29.1292 99.7106C29.5887 107.66 30.4772 113.183 31.4545 114.161C32.5841 115.291 33.5356 115.28 34.6906 114.125C35.5489 113.266 35.5919 112.667 35.3378 105.147C35.1152 98.5554 35.1945 96.843 35.7753 95.7342C36.4545 94.4366 36.4985 94.5986 36.7999 99.529C36.9728 102.361 37.1146 106.133 37.1146 107.911C37.1146 113.002 36.4469 112.655 46.2622 112.655H54.8298L54.4964 105.919L54.1635 99.1825L55.3839 100.314C56.0555 100.937 58.5789 102.605 60.992 104.023C63.7366 105.635 65.5398 107.021 65.8073 107.724C66.2391 108.862 68.3646 110.014 69.1427 109.533C69.3749 109.389 70.354 109.209 71.3179 109.134C74.2789 108.9 75.3235 106.34 73.2539 104.389C72.6391 103.809 70.3287 102.305 68.1191 101.046C60.4533 96.6786 60.0315 96.2465 57.2305 89.8885C52.5495 79.2635 53.2354 80.2863 50.1961 79.4021C47.8857 78.7301 47.2098 78.7048 45.6154 79.2314C44.1509 79.7151 43.4077 79.7266 42.1873 79.2854C40.3335 78.6144 40.6397 78.5963 38.4406 79.5091Z" fill="white"/>
<defs>
<linearGradient id="paint0_linear_176_1589" x1="42.71" y1="19.303" x2="100.064" y2="19.3465" gradientUnits="userSpaceOnUse">
<stop stop-color="#3887DB"/>
<stop offset="1" stop-color="#1E4875"/>
</linearGradient>
</defs>
</svg>
