<svg width="197" height="99" viewBox="0 0 197 99" fill="none" xmlns="http://www.w3.org/2000/svg">
<path d="M33.54 92.7639C22.6147 87.6197 12.9641 77.8764 6.34667 65.3082C1.39728 55.9089 -1.88876 43.7312 1.20122 33.0367C3.36704 25.5409 8.31895 20.0294 13.5791 16.0034C24.7587 7.44691 38.2286 4.22385 50.9745 7.05537C74.2756 12.2317 94.2475 36.5175 117.872 35.8516C137.055 35.3108 153.656 18.3372 172.339 12.5658C178.522 10.6567 185.678 10.2817 190.544 15.6649C194.163 19.6678 195.725 26.0453 196.447 32.2005C199.109 54.8637 192.008 79.082 178.479 93.4873L33.54 92.7639Z" fill="white"/>
<path d="M189.728 92.7486C189.728 92.777 149.264 92.8054 99.3381 92.8054C49.4118 92.8054 8.91943 92.777 8.91943 92.7486C8.91943 92.7202 49.3833 92.6633 99.3381 92.6633C149.293 92.6633 189.728 92.6918 189.728 92.7486Z" fill="#263238"/>
<path d="M121.162 57.9397C121.162 57.9397 119.968 72.2328 117.382 72.9432C110.335 74.8186 102.265 73.4262 99.4236 72.8579C99.111 72.6022 98.7416 72.2612 98.3438 71.8634C97.985 71.5072 97.6874 71.0944 97.4629 70.6415C97.2072 70.0732 96.8662 69.3344 96.8377 68.8797C96.8093 68.4251 96.0421 68.1125 95.7864 68.5672C95.5306 69.0218 95.4454 70.7836 96.3831 72.3464C96.4279 72.4463 96.4499 72.5549 96.4476 72.6643C96.4453 72.7737 96.4187 72.8812 96.3698 72.9791C96.3208 73.077 96.2507 73.1628 96.1646 73.2303C96.0784 73.2978 95.9784 73.3453 95.8716 73.3694C94.6782 73.8241 90.4442 75.1312 89.7622 75.4437C89.0803 75.7563 88.5688 76.2678 89.2223 76.353C89.8759 76.4383 93.3426 75.9552 93.3426 75.9552C93.3426 75.9552 88.7677 76.5235 88.8814 77.1771C88.995 77.8307 90.1885 77.8591 93.1721 77.1771C93.1721 77.1771 89.3928 77.6886 89.0234 78.0864C88.1141 78.9673 92.6606 78.4274 92.6606 78.4274C89.4781 78.8252 89.5065 78.6547 89.4781 79.1094C89.4497 79.564 90.1885 79.564 91.9218 79.5924C93.6552 79.6208 94.7918 79.905 96.9514 80.0471C96.9514 80.0471 124.174 87.7477 127.924 75.7563C129.942 69.306 129.97 66.8338 130.652 62.5999" fill="#FFBE9D"/>
<path d="M94.5929 78.2288C94.5929 78.2856 93.6268 78.4561 92.4049 78.5982C91.183 78.7403 90.2169 78.7403 90.2169 78.6834C90.2169 78.6266 91.183 78.4277 92.3765 78.314C93.57 78.2004 94.5645 78.1435 94.5929 78.2288Z" fill="#A36957"/>
<path d="M94.5361 76.9786C94.5645 77.0639 93.5415 77.2912 92.2628 77.5185C90.9841 77.7458 89.9327 77.8311 89.9327 77.7458C89.9327 77.6606 90.9557 77.4333 92.206 77.2343C93.4563 77.0354 94.5361 76.8934 94.5361 76.9786Z" fill="#A36957"/>
<path d="M94.5078 75.6998C94.5362 75.785 93.57 76.0124 92.3482 76.2397C91.1263 76.467 90.1602 76.5523 90.1602 76.467C90.1602 76.3818 91.0979 76.1544 92.3197 75.9555C93.5416 75.7566 94.5078 75.6146 94.5078 75.6998Z" fill="#A36957"/>
<path d="M156.511 82.3203L158.301 92.6352H130.681L131.732 84.622L156.511 82.3203Z" fill="#263238"/>
<path d="M123.975 46.9143C123.975 46.9143 119.94 58.9626 120.196 59.4456L129.033 61.4916L123.975 46.9143Z" fill="#2CE3CB"/>
<path d="M131.533 69.5618L130.652 86.8101L157.335 83.798L153.158 67.118C153.158 67.118 150.288 47.7954 145.059 45.6358C143.248 44.9342 141.398 44.3365 139.518 43.8456C136.184 42.91 132.696 42.6492 129.26 43.0784L128.72 43.1636C126.504 43.4478 124.628 44.897 123.975 46.9145C123.975 46.9145 123.861 52.8534 125.68 56.7747L131.533 69.5618Z" fill="#0FA792"/>
<path d="M137.842 92.3226C137.813 92.3226 137.756 90.9302 137.728 89.1969C137.7 87.4635 137.7 86.0427 137.728 86.0427C137.756 86.0427 137.842 87.4635 137.87 89.1969C137.898 90.9302 137.898 92.3226 137.842 92.3226Z" fill="#455A64"/>
<path d="M139.319 86.8386C139.345 86.7972 139.386 86.7669 139.433 86.7534C139.495 86.7362 139.56 86.7323 139.624 86.7421C139.687 86.7519 139.748 86.7751 139.802 86.8102C139.893 86.8556 139.969 86.9244 140.024 87.0093C140.079 87.0942 140.111 87.1922 140.115 87.2933C140.101 87.414 140.054 87.5285 139.979 87.6239C139.903 87.7192 139.803 87.7917 139.689 87.8332C139.57 87.8637 139.445 87.864 139.326 87.8343C139.207 87.8045 139.097 87.7455 139.007 87.6627C138.946 87.5878 138.902 87.501 138.878 87.408C138.853 87.3149 138.849 87.2177 138.865 87.1228C138.921 86.7818 139.12 86.6681 139.12 86.6966C139.033 86.8243 138.975 86.9699 138.95 87.1228C138.943 87.2022 138.955 87.2821 138.985 87.3561C139.014 87.4301 139.061 87.4962 139.12 87.549C139.18 87.6233 139.261 87.677 139.353 87.7025C139.445 87.728 139.542 87.724 139.632 87.6911C139.721 87.6646 139.801 87.613 139.861 87.5425C139.921 87.4719 139.96 87.3854 139.973 87.2933C139.98 87.2151 139.965 87.1366 139.929 87.0664C139.894 86.9962 139.841 86.937 139.774 86.8955C139.633 86.8268 139.473 86.8069 139.319 86.8386Z" fill="#455A64"/>
<path d="M156.937 88.5151C156.966 88.5436 156.909 88.572 156.852 88.6004C156.745 88.6862 156.631 88.7622 156.511 88.8277C156.106 89.0698 155.678 89.2697 155.232 89.4244C154.565 89.6601 153.865 89.7942 153.158 89.8223C152.291 89.8717 151.424 89.756 150.6 89.4813C149.776 89.2127 149.006 88.7989 148.327 88.2594C147.78 87.8211 147.301 87.304 146.906 86.725C146.622 86.3475 146.383 85.9373 146.196 85.5031L146.054 85.1337C146.04 85.0972 146.03 85.059 146.026 85.02C146.117 85.163 146.193 85.3155 146.253 85.4747C146.46 85.8955 146.707 86.2952 146.992 86.6681C147.395 87.232 147.873 87.7387 148.412 88.1742C149.084 88.6952 149.845 89.09 150.657 89.3392C151.464 89.6 152.311 89.7155 153.158 89.6802C153.852 89.655 154.539 89.5404 155.204 89.3392C155.648 89.192 156.076 89.0016 156.482 88.7709C156.643 88.7027 156.796 88.6169 156.937 88.5151Z" fill="#455A64"/>
<g opacity="0.2">
<path opacity="0.2" d="M135.142 86.2419C137.882 86.1945 140.525 85.2232 142.644 83.4856C145.486 81.0987 146.878 77.3478 147.19 73.6538C147.503 69.9598 146.849 66.2373 146.196 62.6001C143.643 66.1435 141.579 70.0144 140.058 74.1084C139.035 76.7795 138.154 79.7063 135.938 81.4965C135.142 82.1501 134.204 82.6331 133.579 83.4288C132.954 84.2244 132.812 85.5884 133.636 86.1851L134.375 86.4408" fill="black"/>
</g>
<path d="M115.592 86.3839C116.126 86.6414 116.689 86.8323 117.269 86.9522C117.737 87.0416 118.216 87.0607 118.69 87.009L119.343 86.9238C120.254 86.7551 121.106 86.3538 121.815 85.7588C124.884 83.0877 133.21 74.6198 134.688 72.716C136.165 70.8121 136.989 55.2119 136.989 55.2119L146.992 56.86C146.992 56.86 146.793 67.8001 144.349 76.3248C142.786 81.7521 123.89 92.8911 123.861 92.9195C122.616 94.3234 121.297 95.6608 119.911 96.9261C117.894 98.6026 117.752 98.4321 117.581 98.148C117.411 97.8638 121.02 95.0507 119.911 95.0791C118.803 95.1075 115.535 98.5458 115.109 97.7786C114.683 97.0114 118.661 94.3403 119.002 94.113C119.343 93.8856 119.002 93.4026 118.718 93.6299C118.434 93.8572 113.887 97.2387 113.347 96.2441C113.063 95.7042 114.086 95.278 114.086 95.278C114.086 95.278 118.434 92.4933 118.178 92.0386C117.922 91.584 115.308 93.1184 114.456 93.7151C113.603 94.3119 113.006 94.113 113.063 93.5446C113.12 92.9763 115.649 91.2998 116.473 90.7315C117.297 90.1632 119.684 88.714 117.922 88.4867C116.161 88.2593 114.91 87.4637 114.74 86.9806C114.569 86.4976 115.109 86.0997 115.592 86.3839Z" fill="#FFBE9D"/>
<path d="M140.769 45.3231C141.71 45.134 142.685 45.1831 143.603 45.4659C144.521 45.7488 145.353 46.2564 146.025 46.9428C147.191 48.1646 148.356 50.1821 148.242 53.3931C148.043 59.673 147.56 61.8326 147.56 61.8326L135.228 61.4063L135.711 50.8357C135.711 50.8357 136.677 46.1755 140.769 45.3231Z" fill="#2CE3CB"/>
<path d="M134.261 31.6554C134.239 31.8167 134.264 31.9811 134.335 32.1277C134.406 32.2744 134.519 32.3968 134.659 32.4795C134.801 32.567 134.965 32.6109 135.132 32.6058C135.299 32.6008 135.46 32.547 135.597 32.451C136.08 32.0816 136.051 31.3144 135.824 30.7177C135.597 30.121 135.341 29.5242 135.483 28.9275C135.625 28.3308 135.995 28.1319 136.279 27.7625C136.526 27.4226 136.688 27.0288 136.752 26.6137C136.816 26.1986 136.781 25.7741 136.648 25.3755C136.514 24.9858 136.277 24.6398 135.962 24.3746C135.646 24.1093 135.265 23.9347 134.858 23.8695C134.005 23.7843 133.068 24.1821 132.357 23.699C131.647 23.216 131.732 22.6476 131.306 22.193C130.88 21.7383 129.544 21.5394 128.635 21.8236C127.726 22.1077 126.816 22.534 125.879 22.4487C124.941 22.3635 124.373 21.9657 123.605 21.7383C122.77 21.4987 121.88 21.5277 121.062 21.8211C120.243 22.1144 119.538 22.6575 119.045 23.3734C118.552 24.0894 118.296 24.9421 118.314 25.8112C118.332 26.6804 118.622 27.5219 119.144 28.2171C119.494 28.7398 120.017 29.1222 120.622 29.2969" fill="#263238"/>
<path d="M132.869 49.472C131.637 49.6966 130.367 49.4254 129.334 48.7175C128.302 48.0096 127.591 46.9224 127.356 45.6927C127.101 44.2151 126.873 42.9932 126.873 42.9932C126.873 42.9932 123.066 43.0501 122.384 39.356C121.702 35.662 120.934 27.5351 120.934 27.5351V27.0236C124.913 24.4662 130.027 24.6367 134.204 26.8531L134.347 27.6204L136.733 44.3004C136.867 45.4921 136.542 46.6902 135.825 47.6509C135.107 48.6116 134.05 49.2628 132.869 49.472Z" fill="#FFBE9D"/>
<path d="M126.845 42.9365C128.564 42.6851 130.168 41.9228 131.448 40.7485C131.448 40.7485 130.766 43.6185 127.015 43.9027L126.845 42.9365Z" fill="#EB996E"/>
<path d="M134.489 30.1208C134.574 30.0923 137.217 29.4388 137.302 32.6497C137.387 35.8607 134.148 34.8662 134.119 34.7809C134.091 34.6957 134.489 30.1208 134.489 30.1208Z" fill="#FFBE9D"/>
<path d="M135.085 33.6445L135.228 33.7013C135.293 33.7361 135.366 33.7543 135.441 33.7543C135.515 33.7543 135.588 33.7361 135.654 33.7013C135.995 33.5592 136.25 33.0193 136.25 32.451C136.254 32.1763 136.196 31.9043 136.08 31.6554C135.966 31.428 135.824 31.2575 135.654 31.2291C135.586 31.2204 135.518 31.2319 135.457 31.2623C135.396 31.2927 135.346 31.3405 135.313 31.3996C135.284 31.4849 135.313 31.5417 135.284 31.5701C135.241 31.5133 135.221 31.4423 135.228 31.3712C135.254 31.2925 135.304 31.2233 135.37 31.1723C135.451 31.1108 135.552 31.0805 135.654 31.0871C135.788 31.1052 135.915 31.1598 136.02 31.245C136.125 31.3302 136.205 31.4427 136.25 31.5701C136.402 31.8388 136.48 32.1425 136.478 32.451C136.478 33.1046 136.165 33.7013 135.711 33.8434C135.627 33.8748 135.537 33.886 135.448 33.8762C135.359 33.8663 135.274 33.8356 135.199 33.7865C135.085 33.7013 135.085 33.6445 135.085 33.6445Z" fill="#EB996E"/>
<path d="M120.309 29.1829C120.309 29.1829 122.696 29.9786 125.424 28.1032C127.214 26.8813 129.374 26.1141 129.942 26.4266C130.511 26.7392 130.852 28.6999 132.841 29.0409C132.841 29.0409 133.21 32.8202 134.716 32.4792C136.222 32.1382 134.46 26.4266 134.46 26.4266L130.653 24.4091L126.561 24.2102L122.185 25.29L119.883 27.1654L120.309 29.1829Z" fill="#263238"/>
<path d="M134.29 23.2157C134.29 23.2725 133.892 23.2725 133.494 23.5282C133.096 23.784 132.869 24.0681 132.812 24.0397C132.937 23.7621 133.149 23.5322 133.415 23.3838C133.681 23.2354 133.988 23.1765 134.29 23.2157Z" fill="#263238"/>
<path d="M132.528 21.9656C132.719 22.3227 132.808 22.7261 132.784 23.1306C132.788 23.421 132.74 23.7098 132.642 23.9831C132.556 24.182 132.499 24.2957 132.471 24.2672C132.586 23.8994 132.643 23.516 132.642 23.1306C132.642 22.4771 132.471 21.9656 132.528 21.9656Z" fill="#263238"/>
<path d="M100.958 58.5079C100.958 58.5079 102.01 57.1155 101.299 55.5243C100.589 53.933 98.6565 52.1144 98.6565 52.1144C98.0882 51.9723 98.827 48.7613 99.1396 47.6815C99.4522 46.6017 99.1112 46.0334 98.5429 46.2608C97.9746 46.4881 97.0653 49.6706 96.7527 50.722C96.5822 51.2903 96.298 52.427 95.9286 53.0521C95.5592 53.6772 95.2751 53.7341 94.9057 52.91C94.1384 51.1482 92.8597 50.0685 92.3483 50.0116C91.8368 49.9548 91.5526 50.6936 91.9788 51.0914C92.4051 51.4892 92.7745 52.1428 93.0871 52.7111C93.35 53.1693 93.5326 53.669 93.627 54.1887C93.6838 54.6434 93.7406 55.0412 93.7974 55.3822C93.8913 56.2801 93.8818 57.1859 93.769 58.0817L83.0563 70.7267L80.7262 62.1735L80.4989 61.4916L71.2922 64.9298C71.0081 65.0151 73.2813 71.6928 74.7021 75.8699C75.05 76.8908 75.6131 77.8251 76.3534 78.6095C77.0937 79.3938 77.9938 80.0101 78.9929 80.4164C80.5605 81.0522 82.2956 81.1458 83.9225 80.6824C85.5494 80.2191 86.9748 79.2253 87.9722 77.859L99.4238 61.2358L99.1964 61.0653L99.4238 61.1506L100.958 58.5079Z" fill="#F9B384"/>
<path d="M99.5089 52.9386C99.5373 52.9386 99.5089 53.0522 99.4236 53.2511L99.1395 54.0752L98.6564 55.3255C98.5898 55.5821 98.474 55.8234 98.3154 56.0359C98.2116 56.1535 98.0717 56.2334 97.9176 56.2632C97.8378 56.2751 97.7563 56.2657 97.6814 56.2357C97.6065 56.2057 97.5409 56.1564 97.4914 56.0927C97.3829 55.9659 97.3225 55.8049 97.3209 55.638C97.3019 55.4955 97.3115 55.3506 97.3493 55.2118C97.4345 54.9561 97.4914 54.7003 97.5766 54.473C97.6619 54.2457 97.8608 53.5637 97.9744 53.2227L98.3154 52.3987C98.4007 52.1997 98.4575 52.1145 98.4859 52.1145C98.4555 52.2213 98.4175 52.3257 98.3722 52.4271C98.3154 52.626 98.2018 52.9101 98.0881 53.2511C97.9744 53.5921 97.8324 54.0184 97.6903 54.5014C97.5482 54.9845 97.5766 54.9845 97.4914 55.2402C97.4544 55.3627 97.443 55.4914 97.4576 55.6184C97.4723 55.7455 97.5128 55.8682 97.5766 55.979C97.6582 56.0654 97.7704 56.1164 97.8892 56.1211C98.0136 56.0937 98.1243 56.0233 98.2018 55.9222C98.3486 55.7233 98.4636 55.5028 98.5427 55.2686L99.0258 54.0468C99.1679 53.7342 99.2816 53.45 99.3668 53.2227L99.5089 52.9386Z" fill="#AA6550"/>
<path d="M100.617 54.1887L100.532 54.4728C100.475 54.6433 100.361 54.899 100.248 55.1832L99.8499 56.263C99.75 56.4807 99.6047 56.6745 99.4237 56.8313C99.3069 56.9113 99.1673 56.9512 99.0258 56.945C98.9553 56.9472 98.8851 56.9329 98.821 56.9034C98.7569 56.8738 98.7005 56.8296 98.6564 56.7745C98.5649 56.6767 98.4968 56.5594 98.4574 56.4313C98.418 56.3033 98.4083 56.168 98.4291 56.0357C98.4507 55.8153 98.4887 55.5968 98.5428 55.3821C98.6444 55.0023 98.7774 54.6316 98.9406 54.2739C99.0377 54.0295 99.1516 53.7921 99.2816 53.5635L99.4237 53.3362C99.4521 53.3362 99.2532 53.7056 99.0258 54.3023C98.7985 54.899 98.7985 54.9843 98.6849 55.4105C98.6171 55.6221 98.5788 55.842 98.5712 56.0641C98.5526 56.17 98.5583 56.2787 98.5878 56.3821C98.6174 56.4854 98.67 56.5807 98.7417 56.6608C98.8202 56.7361 98.9219 56.7827 99.0302 56.793C99.1385 56.8033 99.2471 56.7767 99.3384 56.7176C99.5073 56.5854 99.6354 56.4081 99.7078 56.2062L100.162 55.1548C100.252 54.9118 100.356 54.6745 100.475 54.4444C100.56 54.2739 100.589 54.1887 100.617 54.1887Z" fill="#AA6550"/>
<path d="M101.214 55.4673L100.986 56.2629L100.702 57.1438C100.676 57.2338 100.633 57.3178 100.574 57.391C100.516 57.4641 100.443 57.525 100.361 57.57C100.255 57.6208 100.134 57.6309 100.02 57.5984C99.9114 57.5543 99.8211 57.474 99.7644 57.3711C99.6717 57.1867 99.6324 56.98 99.6508 56.7744C99.6542 56.5931 99.6732 56.4125 99.7076 56.2345C99.7855 55.9322 99.8901 55.6374 100.02 55.3536C100.107 55.1665 100.222 54.9939 100.361 54.8421L100.503 54.6716C100.383 54.9246 100.251 55.1712 100.105 55.4104C99.9914 55.6852 99.9058 55.9708 99.8497 56.2629C99.8167 56.4315 99.7977 56.6026 99.7929 56.7744C99.7741 56.9495 99.8036 57.1263 99.8781 57.2859C99.9145 57.3559 99.974 57.4112 100.047 57.4423C100.119 57.4734 100.2 57.4784 100.276 57.4564C100.424 57.3778 100.535 57.2456 100.589 57.087C100.702 56.7744 100.787 56.4902 100.901 56.2345C100.968 55.9651 101.073 55.7067 101.214 55.4673Z" fill="#AA6550"/>
<path d="M97.548 58.1953C97.5279 58.0066 97.5184 57.8168 97.5196 57.627C97.4755 57.1637 97.3505 56.7116 97.1502 56.2915C96.9404 55.8786 96.6506 55.5116 96.2977 55.2117C96.042 54.9844 95.8431 54.8707 95.8715 54.8423L96.383 55.1264C96.7618 55.4266 97.0718 55.8045 97.2923 56.2347C97.4965 56.6718 97.6123 57.145 97.6332 57.627C97.6527 57.8206 97.6234 58.016 97.548 58.1953Z" fill="#AA6550"/>
<path d="M37.8752 92.6636L65.6658 92.7772L66.0068 87.8897L44.3256 78.2568C42.4451 80.5244 41.1998 83.2503 40.7168 86.1564L37.8752 92.6636Z" fill="#263238"/>
<path d="M51.0034 83.2295L50.7476 83.4852L50.4351 83.7978L49.9804 84.1956L49.3837 84.5934L48.6733 84.9912C48.1062 85.26 47.5167 85.4787 46.9115 85.6448C46.2976 85.8025 45.6692 85.8977 45.0361 85.9289H44.212L43.5016 85.8721L42.9333 85.7585L42.5071 85.6448L42.1377 85.5027C42.1377 85.4743 42.6492 85.6448 43.5301 85.7585L44.212 85.8153C44.4865 85.8295 44.7616 85.8295 45.0361 85.8153C45.6507 85.7858 46.2604 85.6906 46.8547 85.5311C47.4565 85.3662 48.0453 85.1573 48.6165 84.906L49.3269 84.5082L49.8952 84.1388C50.6056 83.5989 50.975 83.201 51.0034 83.2295Z" fill="#455A64"/>
<path d="M58.5618 92.2372C58.6441 91.9178 58.7486 91.6044 58.8743 91.2995C59.1301 90.6743 59.4142 89.9071 59.7552 89.0262C60.0962 88.1453 60.3804 87.4065 60.6361 86.7814C60.7422 86.4674 60.8753 86.1631 61.0339 85.8721L60.7214 86.8098C60.5224 87.4065 60.2099 88.2022 59.8973 89.083C59.5847 89.9639 59.2153 90.7596 58.988 91.3279C58.7607 91.8962 58.7607 91.8394 58.6754 92.0099C58.6447 92.089 58.6066 92.1651 58.5618 92.2372Z" fill="#455A64"/>
<path d="M58.7038 85.6448C58.7322 85.6732 58.4765 85.7016 58.3344 85.9858C58.2964 86.0667 58.2791 86.1558 58.2841 86.2451C58.2891 86.3344 58.3161 86.421 58.3628 86.4973C58.4189 86.5888 58.4987 86.6636 58.5937 86.7136C58.6888 86.7636 58.7955 86.787 58.9027 86.7814C59.0069 86.7516 59.1025 86.6974 59.1816 86.6233C59.2607 86.5492 59.3209 86.4573 59.3574 86.3552C59.3798 86.2649 59.3784 86.1704 59.3536 86.0808C59.3287 85.9912 59.281 85.9095 59.2153 85.8437C59.0876 85.7275 58.9303 85.6489 58.7607 85.6164C58.8064 85.5989 58.857 85.5989 58.9027 85.6164C58.9772 85.6158 59.051 85.6307 59.1195 85.66C59.1879 85.6894 59.2496 85.7326 59.3006 85.7869C59.386 85.858 59.4499 85.9515 59.485 86.0569C59.5202 86.1623 59.5252 86.2755 59.4995 86.3836C59.4693 86.5164 59.4 86.6372 59.3006 86.7303C59.2012 86.8234 59.0761 86.8846 58.9416 86.906C58.8071 86.9274 58.6692 86.908 58.5458 86.8503C58.4224 86.7927 58.3191 86.6994 58.2492 86.5825C58.1914 86.4885 58.1608 86.3803 58.1608 86.2699C58.1608 86.1596 58.1914 86.0514 58.2492 85.9574C58.2764 85.8894 58.3186 85.8285 58.3728 85.7793C58.4269 85.7301 58.4915 85.6938 58.5618 85.6732C58.647 85.6164 58.7038 85.6164 58.7038 85.6448Z" fill="#455A64"/>
<path d="M77.4865 51.1768C77.4865 51.1768 81.5499 63.1113 81.3226 63.6228L73.1105 65.8677L77.4865 51.1768Z" fill="#0FA792"/>
<path d="M70.8374 70.9824L68.2516 81.9793L66.5466 88.1455L44.3256 78.2569L51.3726 66.8906C51.3726 66.8906 55.2372 51.0915 60.693 48.1647C64.6428 46.0335 68.0242 46.7723 68.5357 46.7723L73.2527 47.4259L73.5653 47.4827C74.7847 47.7507 75.8689 48.444 76.6239 49.4384C77.3788 50.4328 77.7552 51.6635 77.6856 52.9101C77.5719 54.956 77.2309 58.4511 76.0943 61.0654C74.5882 64.5321 70.8374 70.9824 70.8374 70.9824Z" fill="#2CE3CB"/>
<path d="M67.257 61.0939C67.257 61.0939 67.257 71.2099 69.786 72.1476C76.6626 74.7618 84.8748 74.1651 87.7732 73.8809C88.1141 73.6536 88.5404 73.341 88.995 72.9716L89.9328 72.176C89.9328 72.176 94.4793 73.0569 94.4224 73.2842C94.3656 73.5115 92.6607 74.0799 90.8989 73.682C90.8422 73.7767 90.8074 73.8829 90.7971 73.9928C90.7868 74.1027 90.8012 74.2135 90.8394 74.3171C90.8776 74.4207 90.9385 74.5144 91.0176 74.5914C91.0967 74.6683 91.1921 74.7266 91.2967 74.7618C92.4617 75.3301 96.5536 77.0635 97.2072 77.4613C97.8607 77.8591 98.3438 78.3706 97.6902 78.399C97.0367 78.4275 93.5984 77.6034 93.5984 77.6034C93.5984 77.6034 98.1165 78.6264 97.946 79.2799C97.7755 79.9335 96.5536 79.8198 93.6268 78.8537C93.6268 78.8537 97.3492 79.7346 97.7186 80.1608C98.5143 81.1553 94.0246 80.1324 94.0246 80.1324C97.1787 80.8712 97.1503 80.7007 97.1503 81.1269C97.1503 81.5532 96.4115 81.5248 94.6497 81.3827C92.888 81.2406 91.7229 81.4111 89.5633 81.3258C89.5633 81.3258 61.4602 86.3554 58.9028 73.9378C57.5105 67.2601 57.7662 64.7879 57.4821 60.4688" fill="#F9B384"/>
<path d="M92.1207 79.7346C92.0923 79.8198 93.0584 80.0755 94.2519 80.3313C95.4454 80.587 96.4399 80.7291 96.4399 80.6439C96.4399 80.5586 95.5022 80.3029 94.3087 80.0471C93.1153 79.7914 92.1491 79.6777 92.1207 79.7346Z" fill="#AA6550"/>
<path d="M92.2627 78.5124C92.2627 78.5692 93.2572 78.9102 94.5075 79.2512C95.7578 79.5922 96.8092 79.8195 96.8376 79.7342C96.866 79.649 95.8431 79.308 94.5928 78.967C93.3425 78.626 92.2911 78.4271 92.2627 78.5124Z" fill="#AA6550"/>
<path d="M92.4334 77.2338C92.4049 77.2906 93.3711 77.6316 94.5361 77.9726C95.7012 78.3136 96.6957 78.5125 96.7241 78.4557C96.7525 78.3988 95.8148 78.0294 94.6214 77.6885C93.4279 77.3475 92.4618 77.1486 92.4334 77.2338Z" fill="#AA6550"/>
<path d="M62.0567 51.2051C61.146 51.1354 60.2327 51.303 59.406 51.6915C58.5793 52.0799 57.8674 52.676 57.3397 53.4215C56.402 54.757 55.5211 56.8882 55.9473 60.0708C56.7998 66.2938 57.4818 68.3681 57.4818 68.3681L68.9049 66.5495L67.342 56.121C67.342 56.121 65.9496 51.6029 62.0567 51.2051Z" fill="#0FA792"/>
<path d="M90.842 72.3749H90.6147L89.9043 72.2328C89.7459 72.2563 89.5978 72.3254 89.4781 72.4317C89.3038 72.5365 89.1418 72.6604 88.995 72.8011L87.972 73.8241H87.9436C87.0549 74.0721 86.1382 74.2058 85.2157 74.2219C84.1347 74.2384 83.0535 74.2004 81.9763 74.1082C79.3621 73.9093 76.9752 73.7672 75.2702 73.5399C74.4178 73.4263 73.7074 73.2842 73.2527 73.1989L72.7128 73.0853L72.5139 73.0284H72.7128L73.2527 73.1137L75.2702 73.3978C76.9752 73.5968 79.3621 73.7388 81.9763 73.9093C83.0521 74.0245 84.134 74.0719 85.2157 74.0514C86.1286 74.058 87.0377 73.9336 87.9152 73.682H87.8868C88.2154 73.3192 88.5665 72.9775 88.9382 72.659L89.4212 72.2896C89.5769 72.1954 89.7517 72.1372 89.9327 72.1191L90.6147 72.2612C90.7852 72.3465 90.842 72.3465 90.842 72.3749Z" fill="#AA6550"/>
<path d="M62.1137 29.2113C61.9062 28.6286 61.5403 28.1154 61.0571 27.7293C60.5739 27.3432 59.9925 27.0995 59.3784 27.0257C58.7644 26.9519 58.1419 27.0509 57.5809 27.3115C57.02 27.5721 56.5429 27.984 56.2032 28.5009C55.7486 29.1544 55.5781 29.9217 55.2939 30.6605C55.0098 31.3993 54.6404 32.1381 53.93 32.5359C53.2196 32.9337 52.0545 32.8201 51.3441 33.36C50.6338 33.8999 50.4917 35.3206 51.1737 36.0879C51.8556 36.8551 53.0491 36.9972 54.0152 36.6278C53.7824 37.2274 53.6481 37.8607 53.6174 38.5032C53.6092 38.8244 53.6801 39.1427 53.8238 39.4301C53.9674 39.7175 54.1796 39.9651 54.4415 40.1513C54.9813 40.4923 55.7202 40.407 56.2885 40.1229C56.847 39.7777 57.3302 39.3234 57.7093 38.7874C57.8005 39.2417 57.9535 39.6815 58.1639 40.0945C58.2807 40.2932 58.4367 40.4662 58.6223 40.6029C58.8079 40.7397 59.0193 40.8374 59.2437 40.8901C59.5263 40.9087 59.8088 40.8529 60.0631 40.7283C60.3174 40.6036 60.5345 40.4145 60.6929 40.1797C60.9726 39.6908 61.1468 39.1488 61.2044 38.5884C61.3659 37.1904 61.2696 35.7746 60.9202 34.4113C60.7213 33.5589 60.4087 32.678 60.5792 31.7971C60.7497 30.9162 61.6306 30.0922 62.4831 30.3479" fill="#263238"/>
<path d="M50.9181 35.2071L51.0602 35.2924L51.4864 35.406C52.0387 35.5187 52.6071 35.5283 53.1629 35.4344C54.0008 35.2672 54.777 34.8741 55.4078 34.2978C55.7703 33.9449 56.0684 33.5314 56.2887 33.0759C56.535 32.6029 56.7074 32.0951 56.8001 31.5699C56.8855 31.0658 57.0187 30.5711 57.198 30.0923C57.375 29.6516 57.6699 29.2682 58.0504 28.9841C58.375 28.7508 58.7468 28.5918 59.1396 28.5181C59.5325 28.4445 59.9367 28.458 60.3237 28.5578C60.854 28.6907 61.3425 28.9545 61.7445 29.3251C62.057 29.5808 62.1707 29.7513 62.1991 29.7513L62.1139 29.6092L61.8297 29.2398C61.418 28.8489 60.9223 28.5573 60.3805 28.3874C59.967 28.2731 59.5333 28.2521 59.1107 28.3258C58.6881 28.3995 58.2872 28.5661 57.9368 28.8136C57.5208 29.118 57.1964 29.5308 56.999 30.007C56.8103 30.4947 56.6676 30.9989 56.5728 31.5131C56.4763 32.0244 56.3139 32.5211 56.0897 32.9907C55.8712 33.4146 55.583 33.7988 55.2373 34.1273C54.6662 34.7084 53.9335 35.1045 53.1345 35.2639C52.6022 35.3785 52.0538 35.3978 51.5148 35.3208L50.9181 35.2071Z" fill="#455A64"/>
<path d="M58.3913 40.4639L58.505 40.3786L58.7891 40.0945C59.0707 39.7002 59.2468 39.2405 59.3006 38.759C59.3605 38.0479 59.2735 37.3321 59.0449 36.6562C58.846 35.889 58.505 35.0649 58.3629 34.184C58.2519 33.3476 58.4218 32.4981 58.846 31.7687C59.2029 31.1862 59.7144 30.714 60.3236 30.4048C60.7424 30.201 61.1951 30.0758 61.6591 30.0353H62.1706C62.1706 30.0069 62.0001 29.9785 61.6591 29.9785C61.1776 29.9789 60.7022 30.0856 60.2667 30.2911C59.5968 30.578 59.0313 31.0642 58.647 31.6835C58.1854 32.4509 58.0046 33.3549 58.1356 34.2409C58.2776 35.1786 58.6186 35.9742 58.846 36.7414C59.0822 37.3863 59.179 38.0739 59.1301 38.759C59.1072 39.2249 58.96 39.6762 58.7039 40.0661C58.5334 40.3218 58.3913 40.4355 58.3913 40.4639Z" fill="#455A64"/>
<path d="M77.373 35.065C79.5894 29.9218 76.5489 26.7961 74.5598 25.6594C73.3664 24.9775 71.974 24.8354 70.6101 24.807C69.2639 24.745 67.9156 24.8693 66.6034 25.1764C65.2834 25.483 64.0797 26.1637 63.1367 27.137C61.517 28.8704 61.1476 31.4562 61.2897 33.8431C61.4634 36.6614 62.2799 39.4025 63.6766 41.8564C63.8302 42.1846 64.0649 42.4682 64.3586 42.6804C64.5159 42.7721 64.7014 42.8025 64.8797 42.7658C65.058 42.7291 65.2165 42.6279 65.3247 42.4815" fill="#263238"/>
<path d="M73.5653 47.9086L73.4801 45.2091C73.4801 45.2091 76.6342 44.6976 77.2878 40.5489C77.6288 38.503 77.5151 35.1215 77.3446 32.3652C77.3095 31.7782 77.1557 31.2044 76.8924 30.6785C76.6292 30.1527 76.262 29.6857 75.8131 29.3058C75.3641 28.9259 74.8428 28.6411 74.2806 28.4685C73.7185 28.2959 73.1271 28.2392 72.5424 28.3018L65.3532 29.069C64.989 29.1048 64.6519 29.277 64.4094 29.551C64.167 29.8251 64.0372 30.1808 64.0461 30.5466L65.0122 48.278C65.0705 49.3686 65.5451 50.3952 66.3382 51.146C67.1314 51.8968 68.1824 52.3146 69.2746 52.313C69.8477 52.3132 70.4151 52.1986 70.9433 51.9759C71.4714 51.7532 71.9495 51.4269 72.3495 51.0163C72.7495 50.6058 73.0631 50.1193 73.2719 49.5855C73.4807 49.0517 73.5805 48.4815 73.5653 47.9086Z" fill="#F9B384"/>
<path d="M73.4798 45.2093C71.5323 45.2338 69.6154 44.7227 67.9387 43.7317C67.9387 43.7317 69.2743 46.5733 73.4229 46.1754L73.4798 45.2093Z" fill="#E28B6D"/>
<path d="M77.3446 32.3653C76.6343 28.8418 75.6397 30.2342 74.5315 28.5576C72.9118 30.1773 69.2178 32.0528 66.9729 32.4222C66.7324 32.4503 66.5002 32.5277 66.291 32.6495C65.95 32.9052 65.9216 33.4167 65.9216 33.843C65.9553 35.062 65.86 36.2812 65.6374 37.4802C65.3878 38.6939 64.7613 39.7977 63.8472 40.6343C62.4832 37.7643 62.3696 34.4113 62.9663 31.314C63.2221 30.0353 63.6483 28.6997 64.6428 27.8757C65.6374 27.0516 66.3194 27.08 67.2287 26.9095C69.5019 26.4833 71.8888 26.398 74.0484 27.1937C76.208 27.9893 77.8561 28.9839 78.1403 31.2855" fill="#263238"/>
<path d="M61.7158 29.8931L62.1989 30.1489L62.7672 30.3762L63.1366 30.4899L63.5344 30.6035C64.2313 30.7812 64.9465 30.8765 65.6656 30.8877C66.5404 30.9113 67.4155 30.8543 68.2798 30.7172C69.135 30.5783 69.9732 30.3497 70.7804 30.0352C71.1458 29.9088 71.4979 29.747 71.8318 29.5522L72.2865 29.3248L72.6843 29.0691L73.3378 28.586C73.4352 28.5251 73.5217 28.4483 73.5936 28.3587C73.6668 28.2997 73.7335 28.233 73.7925 28.1598C73.9383 28.0502 74.0634 27.9155 74.1619 27.762C73.6682 28.1856 73.146 28.5748 72.599 28.927L72.2012 29.1543L71.7466 29.3817C71.4134 29.5503 71.072 29.702 70.7236 29.8363C69.9141 30.1375 69.0763 30.3565 68.223 30.4899C67.3788 30.6376 66.5225 30.7042 65.6656 30.6888C64.9692 30.6679 64.2756 30.5919 63.5913 30.4615C62.3978 30.2057 61.7442 29.8363 61.7158 29.8931Z" fill="#455A64"/>
<path d="M62.881 27.1086L63.2504 27.3928C63.3866 27.5102 63.5399 27.606 63.705 27.677L64.0176 27.8475L64.3586 27.9895C65.3247 28.4158 66.8023 28.6999 68.422 28.7283C69.7983 28.7238 71.1702 28.5714 72.5139 28.2737C73.0254 28.16 73.4516 28.0179 73.7358 27.9327C74.0199 27.8475 74.162 27.7906 74.162 27.7622C74.162 27.7338 73.5084 27.9043 72.4855 28.1032C71.1465 28.3628 69.786 28.496 68.422 28.501C67.0598 28.5029 65.7064 28.2821 64.4154 27.8475C63.8912 27.6286 63.379 27.382 62.881 27.1086Z" fill="#455A64"/>
<path d="M75.6113 26.1993C75.6113 26.1709 75.4692 26.1425 75.2419 26.1993C74.955 26.2874 74.6989 26.4549 74.5031 26.6824C74.3039 26.9133 74.1844 27.2023 74.1621 27.5064C74.1621 27.7338 74.1905 27.8758 74.2189 27.8758C74.2474 27.8758 74.2758 27.3075 74.6736 26.8529C75.0714 26.3982 75.6113 26.2846 75.6113 26.1993Z" fill="#455A64"/>
<path d="M54.2427 30.6601L54.1291 30.518C53.9815 30.3986 53.8051 30.3202 53.6176 30.2907C53.3098 30.2527 52.9983 30.323 52.7367 30.4896C52.5671 30.6033 52.4323 30.7617 52.3471 30.9472C52.2618 31.1328 52.2295 31.3382 52.2536 31.541C52.2786 31.7861 52.3645 32.0211 52.5034 32.2246C52.6424 32.4281 52.83 32.5936 53.0493 32.706C53.3052 32.8237 53.5883 32.8699 53.8684 32.8399C54.1485 32.8099 54.4153 32.7047 54.6405 32.5355C54.8964 32.3651 55.1024 32.1298 55.2373 31.8535C55.369 31.5673 55.4461 31.2589 55.4646 30.9442C55.493 30.3191 55.3793 29.694 55.493 29.0688C55.6275 28.4948 55.8996 27.9621 56.2857 27.5166C56.6718 27.0711 57.1604 26.7261 57.7094 26.5114C58.1701 26.3599 58.6585 26.3119 59.1399 26.3708C59.6212 26.4298 60.0837 26.5942 60.4942 26.8524C61.0434 27.2194 61.4927 27.7175 61.8013 28.3016C62.0002 28.7278 62.0286 28.9836 62.057 28.9836C62.0532 28.9166 62.0437 28.85 62.0286 28.7847C62.0108 28.6073 61.9627 28.4343 61.8865 28.2732C61.6028 27.6496 61.15 27.118 60.5794 26.7387C60.187 26.4679 59.7414 26.2838 59.2723 26.1988C58.7317 26.096 58.1736 26.1352 57.6526 26.3125C57.058 26.5308 56.5278 26.8949 56.1108 27.3716C55.6937 27.8483 55.4031 28.4221 55.2657 29.0404C55.152 29.694 55.2657 30.3475 55.2373 30.9158C55.2183 31.209 55.1511 31.497 55.0384 31.7683C54.9158 32.0038 54.7408 32.2079 54.5269 32.365C54.3306 32.5141 54.0984 32.6085 53.8537 32.6384C53.6091 32.6684 53.3609 32.6329 53.1345 32.5355C52.9381 32.4371 52.7683 32.2927 52.6397 32.1146C52.5111 31.9365 52.4274 31.73 52.3957 31.5126C52.3826 31.3371 52.4149 31.1613 52.4896 31.002C52.5642 30.8427 52.6787 30.7054 52.8219 30.6033C53.0439 30.4415 53.3149 30.3612 53.5892 30.3759C53.8291 30.4083 54.0554 30.5067 54.2427 30.6601Z" fill="#263238"/>
<path d="M65.0973 32.5359H66.717C68.0136 32.5043 69.2977 32.2743 70.5247 31.8539C71.7719 31.4286 72.8615 30.6362 73.6504 29.5806C73.8704 29.2476 74.0605 28.8957 74.2187 28.5293C74.304 28.2735 74.3324 28.103 74.304 28.103C74.0964 28.5889 73.8291 29.0471 73.5083 29.467C72.7201 30.4794 71.6535 31.2398 70.4394 31.655C69.2238 32.0479 67.9637 32.2865 66.6886 32.3654C65.7224 32.4506 65.0973 32.479 65.0973 32.5359Z" fill="#263238"/>
<path d="M59.2436 42.6236C59.2152 42.6236 59.2436 42.7941 59.4141 43.0214C59.6921 43.3282 60.0804 43.5121 60.4939 43.5329C60.7966 43.5453 61.0986 43.4963 61.3819 43.3889C61.6651 43.2814 61.9237 43.1178 62.142 42.9078C62.2848 42.7928 62.4035 42.6508 62.4912 42.4899C62.579 42.329 62.6342 42.1523 62.6535 41.97C62.6833 41.7605 62.6474 41.5468 62.5507 41.3585C62.454 41.1702 62.3013 41.0165 62.1136 40.9187C61.9173 40.831 61.6945 40.8235 61.4928 40.8979C61.291 40.9722 61.1263 41.1224 61.0338 41.3165C60.9967 41.4124 60.9801 41.5151 60.985 41.6178C60.9899 41.7206 61.0162 41.8212 61.0622 41.9132C61.1599 42.0865 61.3088 42.2255 61.4884 42.311C61.6414 42.3751 61.8056 42.4081 61.9715 42.4081C62.1374 42.4081 62.3016 42.3751 62.4546 42.311C62.7292 42.2288 62.9753 42.0713 63.165 41.8564C63.4509 41.56 63.6393 41.1832 63.7049 40.7766C63.7264 40.6341 63.7167 40.4887 63.6765 40.3503C63.648 40.3503 63.648 40.5208 63.5912 40.7766C63.5063 41.1432 63.3191 41.4782 63.0513 41.7427C62.867 41.9239 62.6434 42.0601 62.3977 42.1405C62.1288 42.2318 61.8357 42.2217 61.5737 42.1121C61.4402 42.0554 61.332 41.9519 61.2693 41.8212C61.2065 41.6905 61.1935 41.5413 61.2327 41.4017C61.3102 41.2679 61.4327 41.1658 61.5784 41.1138C61.7241 41.0618 61.8835 41.0631 62.0283 41.1176C62.1661 41.2029 62.2767 41.3257 62.3472 41.4717C62.4177 41.6176 62.445 41.7807 62.4262 41.9416C62.3979 42.2617 62.2448 42.5577 61.9999 42.7657C61.594 43.1555 61.0565 43.3786 60.4939 43.3908C60.1233 43.3669 59.7722 43.2165 59.4994 42.9646C59.3939 42.8676 59.3072 42.752 59.2436 42.6236Z" fill="#263238"/>
<path d="M91.6945 2.75638C89.5282 2.6171 87.3625 3.03785 85.406 3.97811C83.4494 4.91838 81.7678 6.34651 80.5232 8.125C79.2785 9.90349 78.5127 11.9725 78.2994 14.1327C78.086 16.293 78.4325 18.4718 79.3052 20.4593C80.7828 23.7556 83.6244 26.3414 84.8747 29.7513C85.7272 32.0529 85.8124 34.6103 86.6933 36.9404C88.4835 41.7143 93.9961 44.7263 98.9689 43.7034C101.981 43.0782 104.68 41.2312 107.721 41.0323C110.761 40.8334 114.74 42.4815 117.325 40.4924C119.144 39.0716 119.428 36.3721 118.775 34.1841C118.121 31.9961 116.7 30.0923 115.564 28.1316C114.427 26.1709 113.432 23.8692 113.859 21.596C114.285 19.3227 115.706 17.9019 116.615 16.0549C117.48 14.2956 117.866 12.339 117.733 10.3829C117.6 8.42677 116.953 6.54041 115.858 4.9144C114.762 3.28839 113.257 1.98036 111.494 1.12245C109.731 0.264553 107.773 -0.112817 105.817 0.0284772C103.203 0.227387 100.759 1.30718 98.2585 2.04599C95.7579 2.7848 94.5076 2.84163 91.6945 2.75638Z" fill="url(#paint0_linear_176_1494)"/>
<path d="M97.9458 11.1105C97.9458 11.1105 93.1152 11.0537 91.467 15.2308C89.8189 19.4079 91.6944 21.4538 92.4616 22.6757C93.2288 23.8976 95.1895 26.597 95.1895 29.0976H101.668C102.007 26.8666 102.779 24.7235 103.942 22.7893C105.874 19.55 105.646 17.2199 105.107 15.7991C104.567 14.3783 102.862 10.9116 97.9458 11.1105Z" fill="#0D5EFB"/>
<path d="M99.4234 28.8989C99.4062 28.8634 99.3965 28.8246 99.395 28.7852C99.3705 28.6917 99.3515 28.5968 99.3382 28.501C99.3098 28.2169 99.2529 27.8475 99.1961 27.336C99.054 26.3414 98.8551 24.9207 98.713 23.1305C98.6846 22.6758 98.6562 22.2212 98.6562 21.7097C98.6562 21.1982 98.6278 20.7151 98.6562 20.1752C98.6841 19.6271 98.8092 19.0883 99.0256 18.584C99.2831 18.0471 99.7277 17.6227 100.276 17.3905C100.566 17.2697 100.886 17.2377 101.194 17.2984C101.503 17.3591 101.786 17.5098 102.009 17.7315C102.244 17.9647 102.377 18.2814 102.379 18.6124C102.369 18.9448 102.249 19.2645 102.038 19.5217C101.83 19.7826 101.568 19.9958 101.27 20.1468C100.963 20.2842 100.638 20.3798 100.304 20.431C99.6418 20.5782 98.9655 20.6545 98.2868 20.6583C97.6029 20.6771 96.9185 20.6391 96.2409 20.5446C95.9168 20.4933 95.6012 20.3977 95.3032 20.2605C94.994 20.1281 94.7212 19.9234 94.5075 19.6638C94.2769 19.4251 94.1107 19.1318 94.0245 18.8113C93.9716 18.4916 94.0213 18.1633 94.1665 17.8736C94.3021 17.5767 94.5461 17.3428 94.8485 17.22C94.9958 17.1663 95.1526 17.1436 95.3091 17.1533C95.4656 17.1631 95.6184 17.2052 95.7578 17.2768C96.0189 17.4099 96.2433 17.6051 96.4114 17.8452C96.5777 18.095 96.6935 18.3749 96.7524 18.6692C96.8407 19.2047 96.8882 19.7462 96.8944 20.2889C96.9513 21.3403 96.9797 22.3348 97.0081 23.2157C97.0933 25.0059 97.1502 26.4551 97.207 27.4781C97.207 27.9611 97.2354 28.359 97.2354 28.6147V28.9273C97.2378 28.8223 97.2282 28.7175 97.207 28.6147C97.207 28.359 97.1786 27.9611 97.1502 27.4781C97.1218 26.4551 97.0365 25.0059 96.9513 23.2157C96.9228 22.3348 96.866 21.3403 96.8092 20.2889C96.8029 19.7462 96.7554 19.2047 96.6671 18.6692C96.6053 18.3982 96.4997 18.139 96.3545 17.902C96.1856 17.6699 95.9608 17.4842 95.701 17.3621C95.5771 17.2903 95.4384 17.2479 95.2955 17.2381C95.1527 17.2282 95.0095 17.2512 94.8769 17.3053C94.5997 17.4167 94.3759 17.6303 94.2518 17.902C94.1047 18.171 94.0642 18.4854 94.1381 18.7829C94.204 19.0907 94.3512 19.3753 94.5643 19.6069C95.0145 20.0785 95.6201 20.3712 96.2693 20.431C96.9365 20.5358 97.6115 20.5833 98.2868 20.5731C98.9552 20.5551 99.6207 20.479 100.276 20.3457C100.601 20.2987 100.917 20.2029 101.214 20.0616C101.506 19.9283 101.761 19.723 101.952 19.4649C102.151 19.2247 102.261 18.9239 102.265 18.6124C102.272 18.461 102.248 18.3097 102.194 18.1679C102.14 18.0262 102.058 17.897 101.952 17.7883C101.738 17.5819 101.468 17.4424 101.175 17.3869C100.882 17.3314 100.58 17.3623 100.304 17.4758C99.7733 17.6989 99.3467 18.1153 99.1109 18.6408C98.8885 19.1332 98.7631 19.6638 98.7415 20.2037C98.713 20.7053 98.713 21.2081 98.7415 21.7097C98.7415 22.1928 98.7699 22.6758 98.7983 23.1305C98.9119 24.9207 99.1109 26.3414 99.2245 27.336C99.2813 27.8475 99.3382 28.2169 99.3666 28.501C99.3877 28.5942 99.3972 28.6897 99.395 28.7852C99.3965 28.8246 99.4062 28.8634 99.4234 28.8989Z" fill="#263238"/>
<path d="M95.2183 29.0126L101.697 28.8989L101.782 33.0192L99.8784 35.264L97.4063 35.3777L95.3035 32.8487L95.2183 29.0126Z" fill="#E0E0E0"/>
<path d="M99.8781 35.2639C99.708 35.0922 99.5038 34.958 99.2787 34.8699C99.0535 34.7818 98.8125 34.7418 98.571 34.7524C98.3348 34.7645 98.1037 34.8265 97.8932 34.9342C97.6826 35.0419 97.4972 35.193 97.3491 35.3775L99.8781 35.2639Z" fill="#455A64"/>
<path d="M101.583 32.6783L101.356 32.593L100.702 32.3088C99.982 32.0559 99.2206 31.9403 98.4575 31.9679C97.6962 31.9738 96.9433 32.1283 96.2411 32.4225C96.0213 32.4896 95.8111 32.5852 95.616 32.7067L95.3602 32.8203L95.5876 32.6783L96.2127 32.3373C96.9261 32.0433 97.6864 31.8797 98.4575 31.8542C99.2346 31.8283 100.009 31.9638 100.731 32.252L101.384 32.5362L101.583 32.6783Z" fill="#263238"/>
<path d="M101.583 31.6836L101.356 31.57L100.731 31.3142C100.008 31.0688 99.2493 30.944 98.4859 30.9448C97.7147 30.9703 96.9544 31.1339 96.241 31.4279C96.0233 31.5006 95.8138 31.5958 95.6159 31.712L95.3885 31.8257C95.3885 31.7973 95.4454 31.7689 95.5875 31.6836C95.7819 31.5461 95.9917 31.4317 96.2126 31.3426C96.926 31.0487 97.6863 30.885 98.4574 30.8596C99.2345 30.8337 100.009 30.9691 100.731 31.2574L101.384 31.5415L101.583 31.6836Z" fill="#263238"/>
<path d="M101.555 30.7458L101.299 30.6322C101.096 30.534 100.887 30.4486 100.674 30.3764C99.9541 30.1177 99.1934 29.9925 98.4288 30.007C97.6596 30.0247 96.8995 30.1786 96.184 30.4617L95.5589 30.7458L95.3315 30.8595L95.5304 30.7174L96.1556 30.4049C96.8748 30.0978 97.6469 29.9337 98.4288 29.9218C99.2058 29.8983 99.9793 30.0337 100.702 30.3196C100.92 30.3923 101.129 30.4875 101.327 30.6038L101.555 30.7458Z" fill="#263238"/>
<g opacity="0.2">
<path opacity="0.2" d="M94.4224 22.7044C94.3372 22.7897 94.1099 22.7613 93.7689 22.5908C93.3296 22.3465 92.9509 22.0066 92.6607 21.5962C92.1846 20.9945 91.8452 20.2964 91.6661 19.5503C91.4219 18.6219 91.3927 17.6501 91.5809 16.7087C91.8047 15.7747 92.2315 14.9016 92.8312 14.1513C93.3224 13.5697 93.9204 13.0874 94.5929 12.7305C95.0383 12.4779 95.5323 12.3229 96.0421 12.2759C96.4115 12.2759 96.6104 12.3327 96.6673 12.4748C96.7241 12.6169 96.1274 13.1283 95.417 13.8672C94.9983 14.2795 94.6267 14.7369 94.3088 15.2311C93.9494 15.8189 93.6901 16.4622 93.5415 17.135C93.3876 17.8059 93.3587 18.4995 93.4563 19.1809C93.5203 19.7659 93.6637 20.3395 93.8825 20.8858C94.2235 21.8804 94.6213 22.4771 94.4224 22.7044Z" fill="white"/>
</g>
<g opacity="0.2">
<path opacity="0.2" d="M96.4968 24.9775C96.4801 25.154 96.4123 25.3217 96.3015 25.4601C96.1908 25.5985 96.042 25.7015 95.8735 25.7564C95.705 25.8114 95.5242 25.8159 95.3531 25.7695C95.1821 25.723 95.0284 25.6275 94.9109 25.4949C94.7933 25.3622 94.7172 25.1981 94.6917 25.0227C94.6662 24.8473 94.6926 24.6683 94.7675 24.5076C94.8424 24.347 94.9626 24.2118 95.1133 24.1186C95.2641 24.0254 95.4388 23.9782 95.6159 23.983C95.8621 24.0047 96.0906 24.1198 96.2545 24.3048C96.4183 24.4898 96.505 24.7306 96.4968 24.9775Z" fill="white"/>
</g>
<path d="M90.1602 12.6166C90.1602 12.645 89.3361 12.0483 88.3416 11.281C87.7204 10.8492 87.1228 10.3844 86.5514 9.88867C87.1942 10.2951 87.811 10.7411 88.3984 11.2242C89.0139 11.6514 89.6023 12.1164 90.1602 12.6166Z" fill="#263238"/>
<path d="M91.524 10.8267C91.2521 10.5475 90.996 10.2534 90.7568 9.94577C90.508 9.64937 90.2802 9.33605 90.0748 9.00806C90.3643 9.27052 90.6218 9.56619 90.842 9.88894C91.1058 10.1733 91.3347 10.4881 91.524 10.8267Z" fill="#263238"/>
<path d="M94.5077 10.3998C94.2247 9.73166 93.9781 9.04868 93.7689 8.35388C93.5092 7.67634 93.2909 6.98361 93.1154 6.27954C93.3983 6.94769 93.645 7.63067 93.8542 8.32547C94.2236 9.4621 94.5361 10.3998 94.5077 10.3998Z" fill="#263238"/>
<path d="M98.1447 9.63279C98.0494 9.28844 97.9829 8.93677 97.9458 8.58141C97.8772 8.23537 97.8486 7.8826 97.8606 7.53003C97.9576 7.87277 98.0148 8.22556 98.0311 8.58141C98.1011 8.92765 98.1391 9.27959 98.1447 9.63279Z" fill="#263238"/>
<path d="M101.697 10.855C101.697 10.855 101.953 9.77519 102.322 8.43965C102.691 7.10411 103.004 6.05273 103.032 6.05273C103.061 6.05273 102.777 7.13253 102.436 8.46807C102.095 9.8036 101.725 10.855 101.697 10.855Z" fill="#263238"/>
<path d="M104.709 12.3325C104.709 12.3325 104.965 11.8779 105.334 11.338C105.525 10.9918 105.754 10.6678 106.016 10.3718C105.842 10.7267 105.643 11.0686 105.419 11.3948C105.218 11.7326 104.98 12.047 104.709 12.3325Z" fill="#263238"/>
<path d="M109.483 11.7073C109.511 11.7357 108.659 12.3608 107.607 13.1281C106.556 13.8953 105.703 14.4636 105.703 14.4636C106.292 13.9553 106.908 13.481 107.55 13.0428C108.602 12.2756 109.483 11.7073 109.483 11.7073Z" fill="#263238"/>
<defs>
<linearGradient id="paint0_linear_176_1494" x1="78.2382" y1="25.5085" x2="119.132" y2="24.9961" gradientUnits="userSpaceOnUse">
<stop stop-color="#E4FFFF"/>
<stop offset="0.495563" stop-color="#BDF2E9"/>
<stop offset="1" stop-color="#E4FFFF"/>
</linearGradient>
</defs>
</svg>
