<svg width="216" height="197" viewBox="0 0 216 197" fill="none" xmlns="http://www.w3.org/2000/svg">
<path d="M212.479 1.0437H70.8052V104.245H212.479V1.0437Z" fill="white"/>
<path d="M212.927 2.09446H70.3571C70.0784 2.09446 69.8111 1.98373 69.614 1.78665C69.4169 1.58957 69.3062 1.32227 69.3062 1.04355C69.3082 0.766111 69.4197 0.500697 69.6166 0.305202C69.8135 0.109706 70.0797 -6.78367e-06 70.3571 3.146e-10H212.927C213.204 3.1459e-10 213.469 0.109946 213.665 0.30565C213.861 0.501354 213.971 0.766785 213.971 1.04355C213.972 1.18121 213.945 1.3177 213.893 1.44516C213.841 1.57262 213.765 1.68853 213.668 1.78622C213.571 1.8839 213.455 1.96142 213.328 2.01432C213.201 2.06723 213.065 2.09446 212.927 2.09446Z" fill="#E0E0E0"/>
<path d="M135.02 91.0879H131.872V61.277H135.02V91.0879Z" fill="#0D5EFB"/>
<path d="M137.951 91.0879H141.099V71.4022H137.951V91.0879Z" fill="#F03D5F"/>
<path d="M147.177 91.2393H144.029V64.9824H147.177V91.2393Z" fill="#0D5EFB"/>
<path d="M150.107 91.0879H153.256V62.4286H150.107V91.0879Z" fill="#F03D5F"/>
<path d="M159.334 91.0879H156.185V72.0082H159.334V91.0879Z" fill="#0D5EFB"/>
<path d="M162.263 91.0879H165.412V75.75H162.263V91.0879Z" fill="#F03D5F"/>
<path d="M171.491 91.0879H168.342V64.3366H171.491V91.0879Z" fill="#0D5EFB"/>
<path d="M174.42 91.0879H177.568V69.1601H174.42V91.0879Z" fill="#F03D5F"/>
<path d="M183.647 91.0879H180.499V65.3057H183.647V91.0879Z" fill="#0D5EFB"/>
<path d="M186.577 91.0879H189.725V73.5229H186.577V91.0879Z" fill="#F03D5F"/>
<path d="M195.803 91.0879H192.655V70.1809H195.803V91.0879Z" fill="#0D5EFB"/>
<path d="M197.088 93.1639C197.088 93.2243 182.155 93.2737 163.737 93.2737C145.313 93.2737 130.382 93.2243 130.382 93.1639C130.382 93.1029 145.313 93.0541 163.737 93.0541C182.155 93.0541 197.088 93.1029 197.088 93.1639Z" fill="#17282F"/>
<path d="M137.951 91.0879H141.099V71.4022H137.951V91.0879Z" fill="url(#paint0_linear_176_1329)"/>
<path d="M150.107 91.0879H153.256V62.4286H150.107V91.0879Z" fill="url(#paint1_linear_176_1329)"/>
<path d="M162.263 91.0879H165.412V75.75H162.263V91.0879Z" fill="url(#paint2_linear_176_1329)"/>
<path d="M174.42 91.0879H177.568V69.1601H174.42V91.0879Z" fill="url(#paint3_linear_176_1329)"/>
<path d="M186.577 91.0879H189.725V73.5229H186.577V91.0879Z" fill="url(#paint4_linear_176_1329)"/>
<rect x="80.8663" y="11.1868" width="99.9909" height="1.52608" fill="#E0E0E0"/>
<rect x="80.8663" y="24.5276" width="52.9126" height="1.46979" fill="#E0E0E0"/>
<rect x="80.8663" y="17.8574" width="71.445" height="1.52608" fill="#E0E0E0"/>
<rect x="80.8663" y="31.1416" width="27.1912" height="1.46979" fill="#E0E0E0"/>
<rect x="80.8663" y="38.2148" width="16.1677" height="1.46979" fill="#E0E0E0"/>
<rect x="113.936" y="30.8657" width="27.1912" height="1.46979" fill="#E0E0E0"/>
<rect x="101.443" y="38.2148" width="17.6375" height="1.46979" fill="#E0E0E0"/>
<path d="M135.798 44.9062H126.25V43.0671H135.798V44.9062Z" fill="#E0E0E0"/>
<path d="M154.503 51.3325H144.955V49.4941H154.503V51.3325Z" fill="#E0E0E0"/>
<path d="M95.9127 78.3779H87.2992C87.876 77.7332 88.4657 77.1208 89.0664 76.5395H95.9127V78.3779Z" fill="#DCDCDC"/>
<path d="M117.332 68.7244H126.881V66.8858H117.332V68.7244Z" fill="#DCDCDC"/>
<path d="M87.2993 78.3779H86.3646V76.5395H89.0666C88.4658 77.1208 87.8761 77.7332 87.2993 78.3779Z" fill="#C2C8D4"/>
<path d="M89.8323 76.2759L89.2322 75.6402L104.757 60.9921L120.469 64.3965L135.477 47.2814L148.566 48.02L158.761 33.9584L159.469 34.4718L148.994 48.9205L135.854 48.1786L120.787 65.3604L105.022 61.9444L89.8323 76.2759Z" fill="black"/>
<circle cx="105.033" cy="61.5174" r="1.83724" fill="#FF1D1D"/>
<circle cx="120.466" cy="64.4569" r="1.83724" fill="#FF1D1D"/>
<circle cx="135.163" cy="47.5545" r="1.83724" fill="#FF1D1D"/>
<circle cx="158.68" cy="35.0609" r="1.83724" fill="#FF1D1D"/>
<path d="M108.919 96.3376H95.2349C94.4515 96.3376 93.8165 96.9727 93.8165 97.756V100.262C93.8165 101.045 94.4515 101.68 95.2349 101.68H108.919C109.702 101.68 110.337 101.045 110.337 100.262V97.756C110.337 96.9727 109.702 96.3376 108.919 96.3376Z" fill="#407BFF"/>
<path d="M109.507 94.1184H94.647C94.1883 94.1184 93.8165 94.4902 93.8165 94.9488V95.5074C93.8165 95.966 94.1883 96.3378 94.647 96.3378H109.507C109.965 96.3378 110.337 95.966 110.337 95.5074V94.9488C110.337 94.4902 109.965 94.1184 109.507 94.1184Z" fill="#444A4C"/>
<path d="M142.752 104.912H140.532V196.757H142.752V104.912Z" fill="#0C0C0C"/>
<path d="M144.707 160.446H138.578C137.888 160.446 137.328 161.005 137.328 161.695V163.297C137.328 163.987 137.888 164.547 138.578 164.547H144.707C145.397 164.547 145.956 163.987 145.956 163.297V161.695C145.956 161.005 145.397 160.446 144.707 160.446Z" fill="#0C0C0C"/>
<path d="M119.683 196.756H117.464L140.532 162.496H142.752L119.683 196.756Z" fill="#0C0C0C"/>
<path d="M163.601 196.756H165.82L142.752 162.496H140.532L163.601 196.756Z" fill="#0C0C0C"/>
<path d="M215.189 101.688H64.6984L68.2055 105.575H211.681L215.189 101.688Z" fill="#E0E0E0"/>
<path d="M29.9816 44.7925C29.9816 44.7925 30.0649 48.7098 31.2282 49.8842C31.2282 49.8842 30.151 54.1933 26.7526 54.1933V45.2619L29.9816 44.7925Z" fill="#FDB171"/>
<path d="M23.517 44.7925C23.517 44.7925 23.4366 48.7098 22.2761 49.8842C22.2761 49.8842 23.3561 54.1933 26.7514 54.1933V45.2619L23.517 44.7925Z" fill="#FDB171"/>
<path d="M27.4152 49.4928C26.5717 49.398 25.7629 49.1042 25.0552 48.6355C24.3476 48.1668 23.7615 47.5367 23.3452 46.797C23.4364 46.1322 23.4938 45.4631 23.5172 44.7925L26.7516 45.2619L29.9807 44.7925C30.0226 45.944 30.177 47.0887 30.4415 48.2103C30.0466 48.6131 29.5759 48.9338 29.0565 49.1539C28.5371 49.374 27.9793 49.4892 27.4152 49.4928Z" fill="#F09C56"/>
<path d="M41.3368 186.538C41.3368 186.538 44.4825 190.514 45.9788 192.338C47.4699 194.162 45.3152 198.307 41.3368 196.15C37.3584 193.995 35.3788 191.957 34.5461 191.649C33.7131 191.341 33.0467 189.52 33.3799 184.55L41.3368 186.538Z" fill="#0C0C0C"/>
<path d="M40.2344 115.434L42.3416 186.538H31.4807L27.7217 124.66C27.7217 124.66 27.6467 121.497 26.7526 120.906V114.279L40.2344 115.434Z" fill="#569BE4"/>
<path d="M12.1662 186.538C12.1662 186.538 9.0179 190.514 7.52677 192.338C6.03336 194.162 8.1903 198.307 12.1662 196.15C16.1446 193.995 18.1242 191.957 18.9572 191.649C19.7899 191.341 20.4534 189.52 20.1202 184.55L12.1662 186.538Z" fill="#0C0C0C"/>
<path d="M13.272 115.434L11.1566 186.538H22.0204L25.7822 124.66C25.7822 124.66 26.0042 121.253 26.751 120.906V114.279L13.272 115.434Z" fill="#569BE4"/>
<path d="M34.5346 50.9622C36.3643 51.9589 43.1581 55.2713 43.491 58.7527C43.8188 62.2342 41.5033 75.6604 41.1729 84.1116C40.8397 92.5601 41.5033 115.434 41.5033 115.434H26.7526V54.1941L34.5346 50.9622Z" fill="#0D5EFB"/>
<path d="M18.9639 50.9622C17.1342 51.9589 10.3406 55.2713 10.0103 58.7527C9.67709 62.2342 11.9981 75.6604 12.3313 84.1116C12.6616 92.5601 11.9981 115.434 11.9981 115.434H26.7513V54.1941L18.9639 50.9622Z" fill="#0D5EFB"/>
<path d="M35.2925 51.3748L26.8944 72.8392V54.1922L33.5555 50.448L35.2925 51.3748Z" fill="#B4D1D7"/>
<path d="M18.1795 51.3748L26.896 72.8392V54.1922L19.908 50.448L18.1795 51.3748Z" fill="#B4D1D7"/>
<path d="M26.7517 48.0017C23.992 48.0017 21.2324 44.5621 20.4966 40.4668C20.3071 40.5013 20.1117 40.4816 19.933 40.4099C19.7542 40.3383 19.5993 40.2175 19.4862 40.0617C19.1481 39.6414 18.9136 39.1475 18.8017 38.6198C18.6898 38.0922 18.7036 37.5456 18.842 37.0242C18.8975 36.8402 19.0004 36.674 19.1405 36.5424C19.2806 36.4108 19.4529 36.3184 19.6401 36.2745C19.8272 36.2306 20.0226 36.2368 20.2066 36.2924C20.3906 36.348 20.5567 36.4511 20.6882 36.5912C20.6301 35.758 20.7436 34.9217 21.0216 34.1341C21.2997 33.3464 21.7364 32.6243 22.3047 32.0122C22.8731 31.4001 23.561 30.9111 24.3259 30.5756C25.0908 30.24 25.9164 30.065 26.7517 30.0613V48.0017Z" fill="#FDB171"/>
<path d="M26.7526 48.0017C29.5097 48.0017 32.2693 44.5621 33.0051 40.4668C33.1942 40.5015 33.3893 40.4819 33.5677 40.4102C33.7461 40.3385 33.9004 40.2176 34.0129 40.0617C34.3526 39.6422 34.5883 39.1484 34.7007 38.6205C34.8131 38.0926 34.799 37.5456 34.6597 37.0242C34.6039 36.8401 34.5006 36.6739 34.3602 36.5423C34.2199 36.4107 34.0474 36.3183 33.86 36.2744C33.6727 36.2306 33.4771 36.2367 33.2929 36.2924C33.1087 36.348 32.9424 36.451 32.8106 36.5912C32.8693 35.7583 32.7563 34.9223 32.4788 34.1348C32.2013 33.3473 31.7651 32.6251 31.1972 32.0129C30.6293 31.4008 29.9418 30.9118 29.1773 30.5761C28.4128 30.2404 27.5875 30.0652 26.7526 30.0613V48.0017Z" fill="#FDB171"/>
<path d="M18.6622 30.0617C18.94 26.8688 20.6835 24.0036 26.7524 23.9175C32.8187 24.0036 34.5651 26.8688 34.84 30.0617C34.9687 32.2157 34.7664 34.3767 34.2402 36.4694C33.0049 36.2084 32.4522 37.6799 32.4522 37.6799C32.8187 34.8148 30.7976 30.4725 30.059 31.0445C29.1046 31.76 27.9439 32.1467 26.7511 32.1467C25.5583 32.1467 24.3976 31.76 23.4432 31.0445C22.7017 30.4725 20.6835 34.8148 21.0528 37.6799C21.0528 37.6799 20.4973 36.2084 19.2649 36.4694C18.7356 34.3772 18.5323 32.2159 18.6622 30.0617Z" fill="#713C1F"/>
<path d="M26.7541 54.1929L31.2289 49.2234L34.5353 50.9633L30.4442 57.4282L26.7541 54.1929Z" fill="#D8E9ED"/>
<path d="M26.7528 54.1929L22.2751 49.2234L18.9631 50.9633L23.0598 57.4282L26.7528 54.1929Z" fill="#D8E9ED"/>
<path d="M40.762 54.8293C42.3211 55.9469 43.5921 57.4191 44.4701 59.1246C45.3482 60.8301 45.8081 62.7199 45.8119 64.6381C46.3089 71.8453 38.8518 74.6635 38.8518 74.6635L40.762 54.8293Z" fill="#0D5EFB"/>
<path d="M65.269 82.1865C66.6457 81.119 68.2382 80.3639 69.936 79.9738C71.3714 79.9127 75.8107 79.2437 76.3076 80.643C76.8074 82.0395 75.7245 85.6096 74.3005 85.8845C72.8733 86.1623 69.6611 86.9703 68.645 86.3926C67.6134 85.9753 66.5191 85.7343 65.4077 85.6794L65.269 82.1865Z" fill="#FDB171"/>
<path d="M39.1394 71.6587C41.5909 78.3664 46.8049 90.4601 48.7927 91.2874C50.7833 92.1204 66.972 86.9396 66.972 86.9396L65.617 80.9205L52.6074 82.8139L44.5808 59.54L39.1394 71.6587Z" fill="#0D5EFB"/>
<path d="M12.3425 100.828V102.932L15.393 105.039L16.9196 103.776L12.3425 100.828Z" fill="#569BE4"/>
<path d="M72.136 82.0794C72.1676 82.0804 72.1992 82.0785 72.2304 82.0737L83.5468 80.3383C83.6221 80.3344 83.6958 80.3151 83.7634 80.2817C83.831 80.2483 83.8911 80.2015 83.94 80.144C83.9889 80.0866 84.0255 80.0198 84.0476 79.9477C84.0698 79.8756 84.077 79.7998 84.0688 79.7248C84.0221 79.5741 83.9207 79.4464 83.7845 79.3668C83.6483 79.2872 83.4872 79.2615 83.333 79.2947L72.0112 81.0297C71.9357 81.0345 71.8618 81.0546 71.7943 81.0889C71.7268 81.1232 71.6671 81.171 71.6187 81.2292C71.5703 81.2875 71.5343 81.355 71.513 81.4277C71.4917 81.5003 71.4855 81.5766 71.4947 81.6518C71.534 81.7872 71.6199 81.9044 71.7373 81.9826C71.8547 82.0609 71.9959 82.0952 72.136 82.0794Z" fill="#707070"/>
<path d="M12.3425 89.1553V86.0366L21.4968 100.163L18.6083 102.119L12.3425 89.1553Z" fill="#569BE4"/>
<path d="M72.6058 82.1089C73.2574 82.0439 73.8652 81.751 74.3219 81.2817C74.7785 80.8123 75.0548 80.1968 75.102 79.5437C74.9797 78.2442 71.8121 80.8955 71.2205 81.1733C70.6266 81.4482 69.8908 82.814 69.8908 82.814L72.6058 82.1089Z" fill="#FDB171"/>
<path d="M15.9277 52.6416C15.9277 52.6416 8.32049 54.8293 5.02522 67.5671C3.24268 74.4551 0.00284333 84.0221 3.74786e-07 88.0645C-0.00284258 91.9958 16.1693 104.506 16.1693 104.506L20.6086 100.164L9.88639 86.0935L12.7404 77.8032L15.9277 52.6416Z" fill="#0D5EFB"/>
<path d="M32.4654 97.836L30.8389 99.4968L38.0893 106.597L39.7158 104.937L32.4654 97.836Z" fill="#0C0C0C"/>
<path d="M15.6942 106.599L14.0709 104.936L21.3233 97.8367L22.9523 99.497L15.6942 106.599Z" fill="#0C0C0C"/>
<defs>
<linearGradient id="paint0_linear_176_1329" x1="137.951" y1="79.65" x2="141.102" y2="79.6568" gradientUnits="userSpaceOnUse">
<stop stop-color="#E4EAFF"/>
<stop offset="0.495563" stop-color="#B4D0F9" stop-opacity="0.9"/>
<stop offset="1" stop-color="#E4EAFF"/>
</linearGradient>
<linearGradient id="paint1_linear_176_1329" x1="150.107" y1="74.436" x2="153.26" y2="74.4407" gradientUnits="userSpaceOnUse">
<stop stop-color="#E4EAFF"/>
<stop offset="0.495563" stop-color="#B4D0F9" stop-opacity="0.9"/>
<stop offset="1" stop-color="#E4EAFF"/>
</linearGradient>
<linearGradient id="paint2_linear_176_1329" x1="162.263" y1="82.1762" x2="165.415" y2="82.1849" gradientUnits="userSpaceOnUse">
<stop stop-color="#E4EAFF"/>
<stop offset="0.495563" stop-color="#B4D0F9" stop-opacity="0.9"/>
<stop offset="1" stop-color="#E4EAFF"/>
</linearGradient>
<linearGradient id="paint3_linear_176_1329" x1="174.42" y1="78.3472" x2="177.572" y2="78.3533" gradientUnits="userSpaceOnUse">
<stop stop-color="#E4EAFF"/>
<stop offset="0.495563" stop-color="#B4D0F9" stop-opacity="0.9"/>
<stop offset="1" stop-color="#E4EAFF"/>
</linearGradient>
<linearGradient id="paint4_linear_176_1329" x1="186.577" y1="80.8821" x2="189.728" y2="80.8897" gradientUnits="userSpaceOnUse">
<stop stop-color="#E4EAFF"/>
<stop offset="0.495563" stop-color="#B4D0F9" stop-opacity="0.9"/>
<stop offset="1" stop-color="#E4EAFF"/>
</linearGradient>
</defs>
</svg>
