<svg width="205" height="167" viewBox="0 0 205 167" fill="none" xmlns="http://www.w3.org/2000/svg">
<path d="M186.058 8.34525V6.12761L184.923 6.02447C184.771 5.28536 184.473 4.58403 184.046 3.96155L184.768 3.0848L183.221 1.53761L182.344 2.25964C181.722 1.8331 181.02 1.53504 180.281 1.3829L180.178 0.248291H177.961L177.857 1.3829C177.121 1.54489 176.422 1.84218 175.794 2.25964L174.918 1.53761L173.371 3.0848L174.093 3.96155C173.683 4.58744 173.402 5.28878 173.267 6.02447L172.133 6.12761V8.34525L173.267 8.44839C173.402 9.16814 173.683 9.85265 174.093 10.4597L173.371 11.3881L174.918 12.9352L175.794 12.2132C176.425 12.6147 177.124 12.8946 177.857 13.0384L177.961 14.173H180.178L180.281 13.0384C181.017 12.9033 181.718 12.6228 182.344 12.2132L183.221 12.9352L184.768 11.3881L184.046 10.4597C184.473 9.85614 184.771 9.17165 184.923 8.44839L186.058 8.34525ZM179.095 10.2019C178.504 10.2019 177.925 10.0264 177.433 9.69776C176.941 9.36908 176.558 8.90191 176.332 8.35534C176.105 7.80876 176.046 7.20732 176.161 6.62708C176.277 6.04684 176.562 5.51385 176.98 5.09552C177.398 4.67719 177.931 4.3923 178.512 4.27689C179.092 4.16147 179.693 4.22071 180.24 4.4471C180.786 4.6735 181.254 5.0569 181.582 5.5488C181.911 6.04071 182.086 6.61903 182.086 7.21064C182.086 8.00397 181.771 8.7648 181.21 9.32576C180.649 9.88673 179.888 10.2019 179.095 10.2019Z" fill="white"/>
<path d="M195.031 14.5859V12.8324H194.154C194.025 12.2645 193.799 11.7235 193.484 11.2337L194.051 10.5116L192.813 9.27389L192.143 9.78962C191.638 9.47746 191.078 9.26721 190.492 9.17075V8.24243H188.739V9.17075C188.154 9.26721 187.593 9.47746 187.089 9.78962L186.418 9.22232L185.18 10.4601L185.748 11.1821C185.433 11.6719 185.206 12.213 185.077 12.7809H184.201V14.5343L185.077 14.6375C185.225 15.1992 185.45 15.7374 185.748 16.2362L185.18 16.9067L186.418 18.1444L187.089 17.5771C187.601 17.8839 188.158 18.11 188.739 18.2476V19.1243H190.492V18.2992C191.074 18.1616 191.63 17.9354 192.143 17.6287L192.813 18.196L194.051 16.9583L193.484 16.2878C193.781 15.789 194.007 15.2508 194.154 14.6891L195.031 14.5859ZM189.564 16.0815C188.939 16.0684 188.343 15.8142 187.901 15.3721C187.459 14.93 187.205 14.3342 187.192 13.7092C187.192 13.08 187.442 12.4766 187.887 12.0317C188.332 11.5868 188.935 11.3368 189.564 11.3368C190.193 11.3368 190.797 11.5868 191.242 12.0317C191.687 12.4766 191.937 13.08 191.937 13.7092C191.923 14.3342 191.669 14.93 191.227 15.3721C190.785 15.8142 190.189 16.0684 189.564 16.0815Z" fill="white"/>
<path d="M186.057 19.4854V18.0413H185.284C185.204 17.5556 185.01 17.0959 184.716 16.7004L185.232 16.0815L184.201 15.0501L183.582 15.5658C183.18 15.285 182.723 15.0917 182.241 14.9985V14.1733H180.797L180.694 14.9469C180.218 15.06 179.765 15.2517 179.353 15.5142L178.786 14.9985L177.754 16.03L178.218 16.6488C177.947 17.0565 177.755 17.5113 177.651 17.9897H176.929V19.4854L177.651 19.5885C177.764 20.064 177.956 20.5172 178.218 20.9294L177.754 21.4967L178.786 22.5282L179.353 22.064C179.765 22.3265 180.218 22.5183 180.694 22.6313L180.797 23.3533H182.241V22.6313C182.723 22.5381 183.18 22.3448 183.582 22.064L184.201 22.5282L185.232 21.4967L184.716 20.9294C185 20.5286 185.194 20.0712 185.284 19.5885L186.057 19.4854ZM181.467 20.7747C180.943 20.7612 180.444 20.5434 180.078 20.1676C179.712 19.7919 179.507 19.288 179.508 18.7633C179.508 18.2436 179.714 17.7451 180.082 17.3776C180.449 17.01 180.948 16.8036 181.467 16.8036C181.987 16.8036 182.486 17.01 182.853 17.3776C183.221 17.7451 183.427 18.2436 183.427 18.7633C183.427 19.288 183.223 19.7919 182.856 20.1676C182.49 20.5434 181.992 20.7612 181.467 20.7747Z" fill="white"/>
<path d="M105 166.522C160.228 166.522 205 163.913 205 160.694C205 157.475 160.228 154.866 105 154.866C49.7715 154.866 5 157.475 5 160.694C5 163.913 49.7715 166.522 105 166.522Z" fill="#F7FBF7"/>
<g filter="url(#filter0_d_176_1411)">
<path d="M186.47 15.668V119.484C186.444 120.712 185.949 121.883 185.085 122.756C184.221 123.63 183.056 124.138 181.828 124.178H32.4731C29.9976 124.178 28.141 121.96 28.141 119.484V15.668C28.1272 15.0905 28.2291 14.5161 28.4407 13.9785C28.6522 13.4409 28.9691 12.9511 29.3728 12.5378C29.7765 12.1246 30.2587 11.7962 30.7911 11.5721C31.3236 11.348 31.8954 11.2326 32.4731 11.2327H181.828C183.028 11.2186 184.186 11.6749 185.054 12.5039C185.921 13.3329 186.43 14.4687 186.47 15.668Z" fill="white"/>
</g>
<g opacity="0.1" filter="url(#filter1_d_176_1411)">
<path d="M186.47 28.6128V119.484C186.444 120.712 185.948 121.883 185.085 122.756C184.221 123.63 183.056 124.138 181.828 124.178H32.473C29.9975 124.178 28.1409 121.96 28.1409 119.484V84.1053C41.292 58.8346 72.5968 54.7603 109.265 69.5102C161.199 90.4488 183.324 62.0321 186.47 28.6128Z" fill="white"/>
</g>
<path opacity="0.2" d="M145.676 112.315H69.915C69.2311 112.315 68.5752 112.044 68.0916 111.56C67.608 111.076 67.3363 110.421 67.3363 109.737C67.3363 109.053 67.608 108.397 68.0916 107.913C68.5752 107.43 69.2311 107.158 69.915 107.158H145.676C146.019 107.151 146.359 107.213 146.678 107.339C146.997 107.466 147.288 107.655 147.532 107.895C147.777 108.135 147.972 108.422 148.105 108.738C148.238 109.054 148.306 109.394 148.306 109.737C148.306 110.08 148.238 110.419 148.105 110.736C147.972 111.052 147.777 111.338 147.532 111.578C147.288 111.819 146.997 112.007 146.678 112.134C146.359 112.261 146.019 112.322 145.676 112.315Z" fill="black"/>
<path d="M69.9151 111.799C69.368 111.799 68.8433 111.582 68.4564 111.195C68.0695 110.808 67.8522 110.284 67.8522 109.737C67.8522 109.189 68.0695 108.665 68.4564 108.278C68.8433 107.891 69.368 107.674 69.9151 107.674H114.732C115.279 107.674 115.804 107.891 116.191 108.278C116.578 108.665 116.795 109.189 116.795 109.737C116.795 110.284 116.578 110.808 116.191 111.195C115.804 111.582 115.279 111.799 114.732 111.799H69.9151Z" fill="#029B00"/>
<path opacity="0.7" d="M69.9151 111.799C69.368 111.799 68.8433 111.582 68.4564 111.195C68.0695 110.808 67.8522 110.284 67.8522 109.737C67.8522 109.189 68.0695 108.665 68.4564 108.278C68.8433 107.891 69.368 107.674 69.9151 107.674H114.732C115.279 107.674 115.804 107.891 116.191 108.278C116.578 108.665 116.795 109.189 116.795 109.737C116.795 110.284 116.578 110.808 116.191 111.195C115.804 111.582 115.279 111.799 114.732 111.799H69.9151Z" fill="white"/>
<path opacity="0.2" d="M79.6188 16.2366H52.1511C50.1901 16.2366 48.6003 17.9323 48.6003 20.0241V49.3363C48.6003 51.4281 50.1901 53.1238 52.1511 53.1238H79.6188C81.5798 53.1238 83.1696 51.4281 83.1696 49.3363V20.0241C83.1696 17.9323 81.5798 16.2366 79.6188 16.2366Z" fill="black"/>
<path d="M84.6133 11.4402H55.5262C53.4469 11.4402 51.7614 13.1258 51.7614 15.205V44.2922C51.7614 46.3714 53.4469 48.057 55.5262 48.057H84.6133C86.6926 48.057 88.3782 46.3714 88.3782 44.2922V15.205C88.3782 13.1258 86.6926 11.4402 84.6133 11.4402Z" fill="#029B00"/>
<path opacity="0.3" d="M84.6133 11.4402H55.5262C53.4469 11.4402 51.7614 13.1258 51.7614 15.205V44.2922C51.7614 46.3714 53.4469 48.057 55.5262 48.057H84.6133C86.6926 48.057 88.3782 46.3714 88.3782 44.2922V15.205C88.3782 13.1258 86.6926 11.4402 84.6133 11.4402Z" fill="white"/>
<path d="M72.855 25.5196V23.3019L71.7204 23.1988C71.5766 22.4656 71.2967 21.7659 70.8952 21.1359L71.6172 20.2591L70.0701 18.7119L69.1933 19.434C68.5632 19.0325 67.8635 18.7526 67.1304 18.6088L67.0273 17.4226H64.8096L64.7065 18.6088C63.9708 18.7439 63.2694 19.0244 62.6436 19.434L61.7668 18.7119L60.2196 20.2591L60.9416 21.1359C60.5242 21.7633 60.2269 22.4628 60.0649 23.1988L58.9303 23.3019V25.5196L60.0649 25.6227C60.217 26.3618 60.5151 27.0631 60.9416 27.6856L60.2196 28.5624L61.7668 30.1096L62.6436 29.3875C63.266 29.8141 63.9674 30.1121 64.7065 30.2643L64.8096 31.3989H67.0273L67.1304 30.2643C67.8664 30.1023 68.5659 29.805 69.1933 29.3875L70.0701 30.1096L71.6172 28.5624L70.8952 27.6856C71.3048 27.0597 71.5853 26.3584 71.7204 25.6227L72.855 25.5196ZM65.8927 27.4278C65.2866 27.438 64.6913 27.2669 64.183 26.9365C63.6748 26.6061 63.2769 26.1315 63.0402 25.5734C62.8035 25.0153 62.7389 24.3993 62.8547 23.8043C62.9705 23.2093 63.2613 22.6624 63.6899 22.2338C64.1185 21.8052 64.6654 21.5143 65.2604 21.3986C65.8554 21.2828 66.4715 21.3474 67.0295 21.5841C67.5876 21.8208 68.0622 22.2187 68.3926 22.7269C68.723 23.2351 68.8941 23.8305 68.8839 24.4365C68.8839 25.2299 68.5687 25.9907 68.0078 26.5517C67.4468 27.1126 66.686 27.4278 65.8927 27.4278Z" fill="white"/>
<path d="M81.8802 31.7602V30.0583L80.9519 29.9551C80.8371 29.3829 80.6092 28.8393 80.2815 28.3563L80.8488 27.6343L79.6626 26.4481L78.9406 27.0155C78.4576 26.6878 77.9141 26.4598 77.3418 26.345L77.2387 25.4683H75.5368L75.4336 26.345C74.8614 26.4598 74.3178 26.6878 73.8349 27.0155L73.1644 26.4481L71.9267 27.6343L72.494 28.3563C72.1663 28.8393 71.9383 29.3829 71.8235 29.9551L70.9468 30.0583V31.7602L71.8235 31.8633C71.9383 32.4355 72.1663 32.9791 72.494 33.4621L71.9267 34.1325L73.1644 35.3703L73.8349 34.803C74.3178 35.1307 74.8614 35.3586 75.4336 35.4734L75.5368 36.3502H77.2387L77.3418 35.4734C77.9141 35.3586 78.4576 35.1307 78.9406 34.803L79.6626 35.3703L80.8488 34.1325L80.2815 33.4621C80.6092 32.9791 80.8371 32.4355 80.9519 31.8633L81.8802 31.7602ZM76.4135 33.2558C75.9422 33.266 75.4786 33.1356 75.0817 32.8813C74.6849 32.6269 74.3728 32.2601 74.1853 31.8276C73.9978 31.3951 73.9434 30.9166 74.0291 30.453C74.1147 29.9895 74.3365 29.562 74.6661 29.225C74.9957 28.888 75.4183 28.6569 75.8798 28.5611C76.3414 28.4653 76.821 28.5092 77.2575 28.6872C77.694 28.8651 78.0676 29.169 78.3306 29.5602C78.5936 29.9514 78.7342 30.412 78.7343 30.8834C78.7412 31.1925 78.6862 31.4998 78.5727 31.7874C78.4591 32.0749 78.2893 32.3369 78.0731 32.5579C77.8569 32.7789 77.5987 32.9545 77.3137 33.0743C77.0287 33.1942 76.7227 33.2559 76.4135 33.2558Z" fill="white"/>
<path d="M72.8549 36.7112V35.2671L72.1328 35.164C72.0198 34.6885 71.8281 34.2353 71.5655 33.8231L72.0297 33.2558L70.9982 32.2243L70.4309 32.6885C70.0233 32.4173 69.5685 32.2249 69.09 32.1212V31.3992H67.5944V32.1212C67.119 32.2342 66.6657 32.426 66.2535 32.6885L65.6862 32.2243L64.6548 33.2558L65.1189 33.8231C64.8564 34.2353 64.6646 34.6885 64.5516 35.164L63.8296 35.2671V36.7112H64.5516C64.6553 37.1897 64.8477 37.6445 65.1189 38.0521L64.6548 38.671L65.6862 39.7024L66.2535 39.1867C66.6657 39.4492 67.119 39.641 67.5944 39.754V40.5276H69.09V39.754C69.5685 39.6503 70.0233 39.4579 70.4309 39.1867L70.9982 39.7024L72.0297 38.671L71.5655 38.0521C71.8367 37.6445 72.0291 37.1897 72.1328 36.7112H72.8549ZM68.3164 37.9489C68.0548 37.9558 67.7944 37.9102 67.5506 37.8148C67.3069 37.7194 67.0847 37.5762 66.8972 37.3935C66.7097 37.2108 66.5607 36.9924 66.459 36.7512C66.3573 36.5101 66.305 36.2509 66.3051 35.9892C66.2586 35.7016 66.2751 35.4074 66.3535 35.1268C66.4319 34.8463 66.5703 34.5861 66.7591 34.3643C66.9479 34.1425 67.1827 33.9644 67.4471 33.8422C67.7115 33.72 67.9994 33.6568 68.2906 33.6568C68.5819 33.6568 68.8698 33.72 69.1342 33.8422C69.3986 33.9644 69.6334 34.1425 69.8222 34.3643C70.011 34.5861 70.1494 34.8463 70.2278 35.1268C70.3062 35.4074 70.3227 35.7016 70.2762 35.9892C70.2762 36.5089 70.0697 37.0074 69.7022 37.3749C69.3347 37.7425 68.8362 37.9489 68.3164 37.9489Z" fill="white"/>
<path opacity="0.2" d="M86.1607 11.4402H57.0735C54.9943 11.4402 53.3087 13.1258 53.3087 15.205V44.2922C53.3087 46.3714 54.9943 48.057 57.0735 48.057H86.1607C88.24 48.057 89.9255 46.3714 89.9255 44.2922V15.205C89.9255 13.1258 88.24 11.4402 86.1607 11.4402Z" fill="white"/>
<path opacity="0.2" d="M149.428 60.0659H121.774C119.781 60.0659 118.167 61.709 118.167 63.7358V91.8848C118.167 93.9116 119.781 95.5546 121.774 95.5546H149.428C151.42 95.5546 153.035 93.9116 153.035 91.8848V63.7358C153.035 61.709 151.42 60.0659 149.428 60.0659Z" fill="black"/>
<path d="M153.138 57.8997H126.32C124.383 57.8997 122.813 59.4698 122.813 61.4066V88.24C122.813 90.1769 124.383 91.747 126.32 91.747H153.138C155.075 91.747 156.645 90.1769 156.645 88.24V61.4066C156.645 59.4698 155.075 57.8997 153.138 57.8997Z" fill="#029B00"/>
<path opacity="0.2" d="M153.138 57.8997H126.32C124.383 57.8997 122.813 59.4698 122.813 61.4066V88.24C122.813 90.1769 124.383 91.747 126.32 91.747H153.138C155.075 91.747 156.645 90.1769 156.645 88.24V61.4066C156.645 59.4698 155.075 57.8997 153.138 57.8997Z" fill="white"/>
<path d="M141.019 80.2309C141.019 80.5592 140.888 80.874 140.656 81.1061C140.424 81.3383 140.109 81.4687 139.781 81.4687C139.453 81.4687 139.138 81.3383 138.906 81.1061C138.673 80.874 138.543 80.5592 138.543 80.2309C138.543 79.9026 138.673 79.5878 138.906 79.3557C139.138 79.1236 139.453 78.9932 139.781 78.9932C140.109 78.9932 140.424 79.1236 140.656 79.3557C140.888 79.5878 141.019 79.9026 141.019 80.2309Z" fill="white"/>
<path d="M139.678 68.0598C136.463 68.0598 133.381 69.3367 131.108 71.6096C128.835 73.8825 127.558 76.9651 127.558 80.1795H137.254C137.238 79.8594 137.291 79.5398 137.408 79.2415C137.525 78.9433 137.704 78.6732 137.933 78.4491C138.162 78.225 138.436 78.0519 138.736 77.9413C139.037 77.8306 139.358 77.7849 139.678 77.8071L140.4 77.9103L144.99 72.6498L141.74 78.8901C142.016 79.2631 142.161 79.7161 142.153 80.1795H151.849C151.835 76.9604 150.547 73.8778 148.266 71.6064C145.985 69.335 142.897 68.0598 139.678 68.0598Z" fill="white"/>
<path opacity="0.2" d="M154.582 57.8997H127.764C125.827 57.8997 124.257 59.4698 124.257 61.4066V88.24C124.257 90.1769 125.827 91.747 127.764 91.747H154.582C156.519 91.747 158.089 90.1769 158.089 88.24V61.4066C158.089 59.4698 156.519 57.8997 154.582 57.8997Z" fill="white"/>
<path opacity="0.2" d="M155.695 26.3948H131.658C129.929 26.3948 128.527 27.7987 128.527 29.5306V53.6146C128.527 55.3465 129.929 56.7505 131.658 56.7505H155.695C157.425 56.7505 158.827 55.3465 158.827 53.6146V29.5306C158.827 27.7987 157.425 26.3948 155.695 26.3948Z" fill="black"/>
<path d="M159.549 23.2493H135.928C134.248 23.2493 132.886 24.6116 132.886 26.2921V49.9073C132.886 51.5878 134.248 52.9501 135.928 52.9501H159.549C161.229 52.9501 162.592 51.5878 162.592 49.9073V26.2921C162.592 24.6116 161.229 23.2493 159.549 23.2493Z" fill="#029B00"/>
<path opacity="0.1" d="M159.549 23.2493H135.928C134.248 23.2493 132.886 24.6116 132.886 26.2921V49.9073C132.886 51.5878 134.248 52.9501 135.928 52.9501H159.549C161.229 52.9501 162.592 51.5878 162.592 49.9073V26.2921C162.592 24.6116 161.229 23.2493 159.549 23.2493Z" fill="white"/>
<path d="M156.042 30.7793C156.049 30.6486 156.029 30.5179 155.983 30.3956C155.936 30.2733 155.864 30.1623 155.771 30.0697C155.679 29.9772 155.568 29.9053 155.446 29.8587C155.323 29.8121 155.193 29.7919 155.062 29.7994H140.518C140.388 29.7919 140.257 29.8121 140.135 29.8587C140.012 29.9053 139.901 29.9772 139.809 30.0697C139.716 30.1623 139.644 30.2733 139.598 30.3956C139.551 30.5179 139.531 30.6486 139.539 30.7793V33.9768C139.531 34.1074 139.551 34.2382 139.598 34.3604C139.644 34.4827 139.716 34.5938 139.809 34.6863C139.901 34.7788 140.012 34.8507 140.135 34.8973C140.257 34.9439 140.388 34.9642 140.518 34.9567H155.062C155.193 34.9642 155.323 34.9439 155.446 34.8973C155.568 34.8507 155.679 34.7788 155.771 34.6863C155.864 34.5938 155.936 34.4827 155.983 34.3604C156.029 34.2382 156.049 34.1074 156.042 33.9768V30.7793ZM151.246 32.5327H150.42V31.656H151.246V32.5327ZM153.463 32.9453C153.24 32.9322 153.03 32.834 152.876 32.671C152.723 32.508 152.638 32.2924 152.638 32.0686C152.638 31.8497 152.725 31.6399 152.88 31.4851C153.034 31.3304 153.244 31.2434 153.463 31.2434C153.682 31.2434 153.892 31.3304 154.047 31.4851C154.201 31.6399 154.288 31.8497 154.288 32.0686C154.289 32.2924 154.204 32.508 154.05 32.671C153.897 32.834 153.687 32.9322 153.463 32.9453Z" fill="white"/>
<path d="M156.042 36.4524C156.049 36.3217 156.029 36.191 155.983 36.0687C155.936 35.9464 155.864 35.8354 155.771 35.7428C155.679 35.6503 155.568 35.5784 155.446 35.5318C155.323 35.4852 155.193 35.465 155.062 35.4725H140.518C140.388 35.465 140.257 35.4852 140.135 35.5318C140.012 35.5784 139.901 35.6503 139.809 35.7428C139.716 35.8354 139.644 35.9464 139.598 36.0687C139.551 36.191 139.531 36.3217 139.539 36.4524V39.6499C139.531 39.7805 139.551 39.9113 139.598 40.0335C139.644 40.1558 139.716 40.2669 139.809 40.3594C139.901 40.4519 140.012 40.5238 140.135 40.5704C140.257 40.617 140.388 40.6372 140.518 40.6298H155.062C155.193 40.6372 155.323 40.617 155.446 40.5704C155.568 40.5238 155.679 40.4519 155.771 40.3594C155.864 40.2669 155.936 40.1558 155.983 40.0335C156.029 39.9113 156.049 39.7805 156.042 39.6499V36.4524ZM151.246 38.5153H150.42V37.6901H151.246V38.5153ZM153.463 38.9279C153.3 38.9279 153.14 38.8795 153.005 38.7888C152.869 38.6981 152.763 38.5692 152.701 38.4185C152.638 38.2677 152.622 38.1018 152.654 37.9417C152.686 37.7816 152.764 37.6346 152.88 37.5192C152.995 37.4038 153.142 37.3252 153.302 37.2934C153.462 37.2615 153.628 37.2779 153.779 37.3403C153.93 37.4028 154.059 37.5086 154.149 37.6443C154.24 37.7799 154.288 37.9395 154.288 38.1027C154.288 38.3215 154.201 38.5314 154.047 38.6862C153.892 38.8409 153.682 38.9279 153.463 38.9279Z" fill="white"/>
<path d="M156.042 42.125C156.049 41.9943 156.029 41.8636 155.983 41.7413C155.936 41.619 155.864 41.508 155.771 41.4155C155.679 41.3229 155.568 41.251 155.446 41.2044C155.323 41.1578 155.193 41.1376 155.062 41.1451H140.518C140.388 41.1376 140.257 41.1578 140.135 41.2044C140.012 41.251 139.901 41.3229 139.809 41.4155C139.716 41.508 139.644 41.619 139.598 41.7413C139.551 41.8636 139.531 41.9943 139.539 42.125V45.3225C139.531 45.4531 139.551 45.5839 139.598 45.7061C139.644 45.8284 139.716 45.9395 139.809 46.032C139.901 46.1245 140.012 46.1964 140.135 46.243C140.257 46.2896 140.388 46.3099 140.518 46.3024H155.062C155.193 46.3099 155.323 46.2896 155.446 46.243C155.568 46.1964 155.679 46.1245 155.771 46.032C155.864 45.9395 155.936 45.8284 155.983 45.7061C156.029 45.5839 156.049 45.4531 156.042 45.3225V42.125ZM151.246 44.4973H150.42V43.6721H151.246V44.4973ZM153.463 44.9099C153.3 44.9099 153.14 44.8615 153.005 44.7708C152.869 44.6802 152.763 44.5513 152.701 44.4005C152.638 44.2497 152.622 44.0838 152.654 43.9237C152.686 43.7637 152.764 43.6167 152.88 43.5013C152.995 43.3859 153.142 43.3073 153.302 43.2754C153.462 43.2436 153.628 43.2599 153.779 43.3224C153.93 43.3848 154.059 43.4906 154.149 43.6263C154.24 43.762 154.288 43.9215 154.288 44.0847C154.288 44.3036 154.201 44.5135 154.047 44.6682C153.892 44.823 153.682 44.9099 153.463 44.9099Z" fill="white"/>
<path opacity="0.2" d="M160.838 23.2493H137.218C135.537 23.2493 134.175 24.6116 134.175 26.2921V49.9073C134.175 51.5878 135.537 52.9501 137.218 52.9501H160.838C162.519 52.9501 163.881 51.5878 163.881 49.9073V26.2921C163.881 24.6116 162.519 23.2493 160.838 23.2493Z" fill="white"/>
<path opacity="0.2" d="M105.555 57.3542H75.8557C73.7353 57.3542 72.0164 59.1277 72.0164 61.3153V91.9702C72.0164 94.1578 73.7353 95.9312 75.8557 95.9312H105.555C107.675 95.9312 109.394 94.1578 109.394 91.9702V61.3153C109.394 59.1277 107.675 57.3542 105.555 57.3542Z" fill="black"/>
<path d="M108.827 54.2595H79.7402C77.6609 54.2595 75.9753 55.9451 75.9753 58.0244V87.1115C75.9753 89.1908 77.6609 90.8763 79.7402 90.8763H108.827C110.907 90.8763 112.592 89.1908 112.592 87.1115V58.0244C112.592 55.9451 110.907 54.2595 108.827 54.2595Z" fill="#029B00"/>
<path opacity="0.5" d="M108.827 54.2595H79.7402C77.6609 54.2595 75.9753 55.9451 75.9753 58.0244V87.1115C75.9753 89.1908 77.6609 90.8763 79.7402 90.8763H108.827C110.907 90.8763 112.592 89.1908 112.592 87.1115V58.0244C112.592 55.9451 110.907 54.2595 108.827 54.2595Z" fill="white"/>
<path d="M84.1235 82.6238C83.5972 82.0763 83.3032 81.3462 83.3032 80.5867C83.3032 79.8272 83.5972 79.0972 84.1235 78.5496L90.828 71.8967C90.9728 71.7404 91.1484 71.6158 91.3436 71.5306C91.5388 71.4454 91.7496 71.4014 91.9626 71.4014C92.1756 71.4014 92.3864 71.4454 92.5816 71.5306C92.7769 71.6158 92.9524 71.7404 93.0972 71.8967L94.8507 73.6501C95.0069 73.795 95.1316 73.9705 95.2168 74.1658C95.302 74.361 95.346 74.5717 95.346 74.7847C95.346 74.9978 95.302 75.2085 95.2168 75.4038C95.1316 75.599 95.0069 75.7745 94.8507 75.9194L88.1978 82.6238C87.6502 83.1502 86.9202 83.4441 86.1607 83.4441C85.4011 83.4441 84.6711 83.1502 84.1235 82.6238Z" fill="white"/>
<path d="M96.4497 71.6397L95.1604 70.3504L102.69 62.7692L104.34 62.4597L103.979 64.1101L96.4497 71.6397Z" fill="white"/>
<path d="M95.7274 73.3416L93.4066 71.0208C93.3121 70.9244 93.2592 70.7948 93.2592 70.6598C93.2592 70.5248 93.3121 70.3952 93.4066 70.2988C93.503 70.2043 93.6326 70.1514 93.7676 70.1514C93.9026 70.1514 94.0322 70.2043 94.1286 70.2988L96.4494 72.6196C96.5439 72.716 96.5968 72.8456 96.5968 72.9806C96.5968 73.1156 96.5439 73.2452 96.4494 73.3416C96.353 73.4361 96.2234 73.489 96.0884 73.489C95.9534 73.489 95.8238 73.4361 95.7274 73.3416Z" fill="white"/>
<path d="M92.5818 68.9061L89.3843 65.7085C90.0031 64.1098 88.817 62.15 87.4761 61.6343V64.1098C87.4761 64.3833 87.3674 64.6457 87.1739 64.8391C86.9805 65.0326 86.7182 65.1412 86.4446 65.1412C86.1661 65.1416 85.8981 65.0346 85.6964 64.8425C85.4948 64.6504 85.3748 64.388 85.3616 64.1098V61.6859C84.7642 61.9362 84.2492 62.3493 83.8753 62.8782C83.5014 63.4071 83.2838 64.0304 83.2471 64.6771C83.2669 65.4347 83.5596 66.1596 84.0713 66.7186C84.5829 67.2776 85.2792 67.6332 86.032 67.7199C86.5568 67.8061 87.0953 67.7342 87.5792 67.5136L90.7767 70.7111L92.5818 68.9061Z" fill="white"/>
<path d="M103.154 81.026V83.4499C103.751 83.2138 104.268 82.8112 104.643 82.2901C105.018 81.769 105.235 81.1512 105.269 80.5102C105.277 79.7504 105.01 79.0132 104.517 78.4349C104.024 77.8567 103.339 77.4763 102.587 77.3643C102.107 77.2438 101.601 77.2799 101.143 77.4674L97.7909 74.1667L95.9858 75.9718L99.2865 79.2725C98.3066 81.2323 99.8022 82.9342 101.143 83.4499V81.026C101.143 80.7524 101.252 80.49 101.445 80.2966C101.639 80.1032 101.901 79.9945 102.175 79.9945C102.308 79.9943 102.44 80.0213 102.562 80.0737C102.684 80.1261 102.795 80.203 102.886 80.2995C102.978 80.396 103.049 80.5102 103.095 80.6351C103.141 80.76 103.162 80.893 103.154 81.026Z" fill="white"/>
<path opacity="0.2" d="M110.374 54.2595H81.2868C79.2075 54.2595 77.522 55.9451 77.522 58.0244V87.1115C77.522 89.1908 79.2075 90.8763 81.2868 90.8763H110.374C112.453 90.8763 114.139 89.1908 114.139 87.1115V58.0244C114.139 55.9451 112.453 54.2595 110.374 54.2595Z" fill="white"/>
<path opacity="0.2" d="M134.265 7.00293H98.3077C95.7366 7.00293 93.6523 8.89687 93.6523 11.2332V43.9228C93.6523 46.2591 95.7366 48.153 98.3077 48.153H134.265C136.836 48.153 138.92 46.2591 138.92 43.9228V11.2332C138.92 8.89687 136.836 7.00293 134.265 7.00293Z" fill="black"/>
<path d="M100.962 44.1362L136.032 44.1362C138.538 44.1362 140.57 42.1043 140.57 39.5978V4.53849C140.57 2.03199 138.538 8.01086e-05 136.032 8.01086e-05L100.962 8.01086e-05C98.4556 8.01086e-05 96.4237 2.03199 96.4237 4.53849V39.5978C96.4237 42.1043 98.4556 44.1362 100.962 44.1362Z" fill="#029B00"/>
<path opacity="0.5" d="M100.962 44.1362L136.032 44.1362C138.538 44.1362 140.57 42.1043 140.57 39.5978V4.53849C140.57 2.03199 138.538 8.01086e-05 136.032 8.01086e-05L100.962 8.01086e-05C98.4556 8.01086e-05 96.4237 2.03199 96.4237 4.53849V39.5978C96.4237 42.1043 98.4556 44.1362 100.962 44.1362Z" fill="white"/>
<path d="M118.497 8.34375L104.985 13.6558C104.985 13.6558 106.687 32.222 118.497 35.6774C130.308 32.222 132.009 13.6558 132.009 13.6558L118.497 8.34375ZM118.136 26.3427C118.049 26.4507 117.939 26.5388 117.814 26.601C117.69 26.6633 117.553 26.6983 117.414 26.7037C117.261 26.704 117.111 26.6665 116.976 26.5945C116.841 26.5225 116.726 26.4183 116.641 26.2911L111.896 19.7929C111.751 19.586 111.691 19.3309 111.73 19.081C111.768 18.8311 111.902 18.6058 112.102 18.4521C112.305 18.322 112.549 18.2711 112.786 18.3092C113.024 18.3472 113.24 18.4715 113.392 18.6583L117.414 24.1767L123.964 15.564C124.109 15.3667 124.325 15.2345 124.566 15.1958C124.808 15.1572 125.055 15.2154 125.253 15.3577C125.458 15.5205 125.593 15.7548 125.631 16.0132C125.669 16.2717 125.608 16.5351 125.46 16.7501L118.136 26.3427Z" fill="white"/>
<path opacity="0.2" d="M102.819 44.1362L137.889 44.1362C140.395 44.1362 142.427 42.1043 142.427 39.5978V4.53849C142.427 2.03199 140.395 8.01086e-05 137.889 8.01086e-05L102.819 8.01086e-05C100.313 8.01086e-05 98.2807 2.03199 98.2807 4.53849V39.5978C98.2807 42.1043 100.313 44.1362 102.819 44.1362Z" fill="white"/>
<g filter="url(#filter2_d_176_1411)">
<path d="M180.797 114.895H136.857V144.564H180.797V114.895Z" fill="#029B00"/>
<path opacity="0.7" d="M180.797 114.895H136.857V144.564H180.797V114.895Z" fill="white"/>
<path d="M179.92 117.164H137.681V143.559H179.92V117.164Z" fill="white"/>
<path d="M174.298 121.238H139.589V122.012H174.298V121.238Z" fill="white"/>
<path d="M169.141 123.455H139.589V124.229H169.141V123.455Z" fill="white"/>
<path d="M174.298 125.622H139.589V126.396H174.298V125.622Z" fill="white"/>
<path d="M169.141 127.839H139.589V128.613H169.141V127.839Z" fill="white"/>
<path d="M143.354 130.005H139.589V130.779H143.354V130.005Z" fill="white"/>
<path d="M158.826 132.222H139.589V132.996H158.826V132.222Z" fill="white"/>
<path d="M169.141 134.389H139.589V135.163H169.141V134.389Z" fill="white"/>
<path d="M143.354 136.607H139.589V137.381H143.354V136.607Z" fill="white"/>
<path d="M143.354 138.772H139.589V139.546H143.354V138.772Z" fill="white"/>
</g>
<path d="M54.0305 57.855H10.0903V87.5249H54.0305V57.855Z" fill="#029B00"/>
<path opacity="0.7" d="M54.0305 57.855H10.0903V87.5249H54.0305V57.855Z" fill="white"/>
<g filter="url(#filter3_d_176_1411)">
<path d="M53.1539 60.1245H10.9156V86.5196H53.1539V60.1245Z" fill="white"/>
</g>
<path d="M47.532 64.1985H12.8234V64.9721H47.532V64.1985Z" fill="white"/>
<path d="M42.3747 66.4163H12.8234V67.1899H42.3747V66.4163Z" fill="white"/>
<path d="M47.532 68.5833H12.8234V69.3568H47.532V68.5833Z" fill="white"/>
<path d="M42.3747 70.8003H12.8234V71.5739H42.3747V70.8003Z" fill="white"/>
<path d="M16.5882 72.9663H12.8234V73.7399H16.5882V72.9663Z" fill="white"/>
<path d="M32.0601 75.1833H12.8234V75.9569H32.0601V75.1833Z" fill="white"/>
<path d="M42.3747 77.3496H12.8234V78.1232H42.3747V77.3496Z" fill="white"/>
<path d="M16.5882 79.5674H12.8234V80.341H16.5882V79.5674Z" fill="white"/>
<path d="M16.5882 81.7334H12.8234V82.507H16.5882V81.7334Z" fill="white"/>
<defs>
<filter id="filter0_d_176_1411" x="18.1398" y="3.23242" width="178.33" height="132.945" filterUnits="userSpaceOnUse" color-interpolation-filters="sRGB">
<feFlood flood-opacity="0" result="BackgroundImageFix"/>
<feColorMatrix in="SourceAlpha" type="matrix" values="0 0 0 0 0 0 0 0 0 0 0 0 0 0 0 0 0 0 127 0" result="hardAlpha"/>
<feOffset dy="2"/>
<feGaussianBlur stdDeviation="5"/>
<feComposite in2="hardAlpha" operator="out"/>
<feColorMatrix type="matrix" values="0 0 0 0 0 0 0 0 0 0 0 0 0 0 0 0 0 0 0.1 0"/>
<feBlend mode="normal" in2="BackgroundImageFix" result="effect1_dropShadow_176_1411"/>
<feBlend mode="normal" in="SourceGraphic" in2="effect1_dropShadow_176_1411" result="shape"/>
</filter>
<filter id="filter1_d_176_1411" x="18.1409" y="20.6128" width="178.329" height="115.565" filterUnits="userSpaceOnUse" color-interpolation-filters="sRGB">
<feFlood flood-opacity="0" result="BackgroundImageFix"/>
<feColorMatrix in="SourceAlpha" type="matrix" values="0 0 0 0 0 0 0 0 0 0 0 0 0 0 0 0 0 0 127 0" result="hardAlpha"/>
<feOffset dy="2"/>
<feGaussianBlur stdDeviation="5"/>
<feComposite in2="hardAlpha" operator="out"/>
<feColorMatrix type="matrix" values="0 0 0 0 0 0 0 0 0 0 0 0 0 0 0 0 0 0 0.1 0"/>
<feBlend mode="normal" in2="BackgroundImageFix" result="effect1_dropShadow_176_1411"/>
<feBlend mode="normal" in="SourceGraphic" in2="effect1_dropShadow_176_1411" result="shape"/>
</filter>
<filter id="filter2_d_176_1411" x="126.857" y="106.895" width="63.9402" height="49.6699" filterUnits="userSpaceOnUse" color-interpolation-filters="sRGB">
<feFlood flood-opacity="0" result="BackgroundImageFix"/>
<feColorMatrix in="SourceAlpha" type="matrix" values="0 0 0 0 0 0 0 0 0 0 0 0 0 0 0 0 0 0 127 0" result="hardAlpha"/>
<feOffset dy="2"/>
<feGaussianBlur stdDeviation="5"/>
<feComposite in2="hardAlpha" operator="out"/>
<feColorMatrix type="matrix" values="0 0 0 0 0 0 0 0 0 0 0 0 0 0 0 0 0 0 0.1 0"/>
<feBlend mode="normal" in2="BackgroundImageFix" result="effect1_dropShadow_176_1411"/>
<feBlend mode="normal" in="SourceGraphic" in2="effect1_dropShadow_176_1411" result="shape"/>
</filter>
<filter id="filter3_d_176_1411" x="0.915649" y="52.1245" width="62.2383" height="46.395" filterUnits="userSpaceOnUse" color-interpolation-filters="sRGB">
<feFlood flood-opacity="0" result="BackgroundImageFix"/>
<feColorMatrix in="SourceAlpha" type="matrix" values="0 0 0 0 0 0 0 0 0 0 0 0 0 0 0 0 0 0 127 0" result="hardAlpha"/>
<feOffset dy="2"/>
<feGaussianBlur stdDeviation="5"/>
<feComposite in2="hardAlpha" operator="out"/>
<feColorMatrix type="matrix" values="0 0 0 0 0 0 0 0 0 0 0 0 0 0 0 0 0 0 0.1 0"/>
<feBlend mode="normal" in2="BackgroundImageFix" result="effect1_dropShadow_176_1411"/>
<feBlend mode="normal" in="SourceGraphic" in2="effect1_dropShadow_176_1411" result="shape"/>
</filter>
</defs>
</svg>
