<svg width="230" height="185" viewBox="0 0 230 185" fill="none" xmlns="http://www.w3.org/2000/svg">
<path d="M110.894 105.257C110.978 106.589 110.766 107.924 110.273 109.165L110.127 116.492L109.532 146.288L109.407 152.573L109.311 157.511L109.262 159.947L109.25 160.573C106.194 161.129 103.076 161.265 99.9832 160.977H99.9691C99.4988 160.935 99.0568 160.885 98.6171 160.82L98.4172 160.789C96.6191 160.55 94.8659 160.049 93.2136 159.301C91.0245 158.249 89.6255 156.745 89.6114 154.779C89.6114 154.706 89.6114 154.631 89.6114 154.544C89.7101 152.322 88.9553 149.942 87.608 147.356C80.5398 133.795 52.4034 114.173 52.4034 85.0045C52.4034 50.0021 79.7239 35.6259 109.431 36.2796C109.666 36.2796 109.901 36.2796 110.136 36.2796C110.677 36.2968 111.21 36.3219 111.735 36.3548L110.414 102.823C110.703 103.604 110.865 104.425 110.894 105.257Z" fill="url(#paint0_radial_176_1189)"/>
<path opacity="0.85" d="M110.127 116.492C107.7 116.388 105.594 115.864 103.87 114.999C100.468 113.299 98.5629 110.272 98.6805 106.513C98.9297 98.3957 108.119 96.9237 110.397 102.821C110.692 103.601 110.86 104.424 110.893 105.257C110.978 106.589 110.766 107.924 110.273 109.165C109.203 111.798 106.868 113.715 103.87 114.999C100.691 116.367 96.7641 117.016 92.8185 117.042C89.6812 117.075 86.553 116.697 83.5142 115.916C75.2844 113.727 72.1971 98.9412 84.0691 100.928C87.8054 101.554 90.6529 108.217 92.8185 117.042C94.9912 125.937 96.4585 137.043 97.4061 146.41C97.6741 149.049 97.8998 151.551 98.088 153.824C98.2361 155.602 98.3607 157.243 98.4665 158.703C98.5206 159.454 98.57 160.159 98.6123 160.82C98.6123 160.923 98.6264 161.027 98.6311 161.128C98.8286 164.088 98.9109 165.859 98.9109 165.859" stroke="#F3FF6F" stroke-width="3.79298" stroke-linecap="round" stroke-linejoin="round"/>
<path d="M109.532 146.288L109.408 152.573L109.311 157.511L109.262 159.947L109.25 160.573L109.165 164.864L109.116 167.215L109.02 172.153L108.784 183.56C107.78 183.737 106.762 183.828 105.742 183.83H104.528C97.5708 183.858 91.5818 179.957 88.9789 174.363C88.2826 172.876 87.8399 171.282 87.6692 169.649C87.6176 169.162 87.5909 168.673 87.5892 168.184C87.5892 168.184 87.5422 167.796 87.4693 167.128C87.3541 166.11 87.1777 164.436 86.999 162.477C86.9191 161.558 86.8415 160.575 86.7639 159.566C86.6628 158.156 86.5805 156.709 86.5288 155.32C86.3994 151.405 86.5617 147.967 87.4552 147.386C87.4915 147.362 87.5301 147.342 87.5704 147.325C88.5533 146.874 92.4895 146.563 97.3827 146.385C101.185 146.288 105.532 146.241 109.532 146.288Z" fill="#171615"/>
<path d="M109.407 152.571L109.311 157.509L98.4712 158.708L93.2042 159.291L88.2028 159.846C87.7173 159.901 87.2264 159.811 86.792 159.588C86.4648 159.43 86.1814 159.194 85.9669 158.901C85.7524 158.607 85.6135 158.266 85.5622 157.906L85.5058 157.457C85.4575 157.04 85.5321 156.617 85.7205 156.241C85.9089 155.865 86.2028 155.552 86.5663 155.341C86.8779 155.15 87.2281 155.031 87.5915 154.993L89.6113 154.758L98.1021 153.817L109.407 152.571Z" fill="#AFADA8"/>
<path d="M109.262 159.94L109.25 160.566L109.165 164.864L88.2805 167.175C88.0121 167.206 87.7404 167.193 87.4763 167.135C87.0095 167.05 86.5809 166.821 86.2501 166.48C85.9193 166.14 85.7028 165.705 85.6305 165.235L85.5717 164.786C85.5201 164.297 85.6338 163.805 85.8946 163.387C86.1554 162.97 86.5483 162.652 87.0108 162.484C87.2197 162.401 87.4387 162.347 87.6621 162.322L98.6359 161.109L99.9691 160.958L109.262 159.94Z" fill="#AFADA8"/>
<path d="M88.2146 169.543L109.118 167.229L109.022 172.167L88.9882 174.385L88.8378 174.401C87.528 174.547 86.343 173.677 86.1878 172.461L86.129 172.012C86.0727 171.501 86.1967 170.986 86.4797 170.557C86.7626 170.128 87.1867 169.811 87.6785 169.661C87.8521 169.601 88.032 169.561 88.2146 169.543Z" fill="#AFADA8"/>
<g opacity="0.65">
<path opacity="0.65" d="M82.7053 50.0797C83.2202 49.814 83.8386 49.4448 84.5135 49.0333C85.1883 48.6218 85.9243 48.1704 86.7402 47.7213C87.5986 47.2379 88.4842 46.8045 89.3925 46.4233C90.4088 45.9993 91.4631 45.6726 92.541 45.4475H92.5622C93.1629 45.3129 93.7844 45.2994 94.3903 45.4079C94.9963 45.5163 95.5745 45.7445 96.0912 46.0791C96.608 46.4138 97.0527 46.8481 97.3996 47.3566C97.7464 47.8652 97.9884 48.4378 98.1113 49.041C98.2342 49.6442 98.2355 50.2659 98.1153 50.8696C97.9951 51.4733 97.7556 52.047 97.411 52.5571C97.0664 53.0672 96.6235 53.5034 96.1083 53.8403C95.5931 54.1772 95.0158 54.4079 94.4104 54.5191L94.3445 54.5308C93.234 54.7881 92.1691 55.2131 91.1866 55.7912C90.5823 56.118 89.9404 56.4966 89.2374 56.9175C88.5343 57.3384 87.7631 57.7922 86.8413 58.2601C85.7597 58.8132 84.5025 58.914 83.3466 58.5403C82.1906 58.1666 81.2304 57.349 80.6772 56.2673C80.1241 55.1856 80.0233 53.9285 80.397 52.7725C80.7707 51.6165 81.5883 50.6564 82.67 50.1032L82.7053 50.0797Z" fill="#CAD6FF"/>
<path opacity="0.65" d="M66.1376 87.6875C65.7879 85.4018 65.6048 83.0937 65.5897 80.7815C65.5766 78.407 65.7876 76.0365 66.2199 73.7015C66.6598 71.356 67.3316 69.06 68.2256 66.8473C69.1015 64.6887 70.1513 62.6049 71.3646 60.6162C71.9876 59.6216 72.9755 58.9107 74.1165 58.6359C75.2575 58.3612 76.4607 58.5444 77.4681 59.1464C78.4756 59.7484 79.207 60.7212 79.5056 61.8562C79.8042 62.9912 79.6461 64.198 79.0653 65.2178C78.1142 66.802 77.2924 68.4604 76.6082 70.1769C75.9505 71.8438 75.4598 73.5719 75.1433 75.3358C74.8294 77.1106 74.6846 78.9111 74.7106 80.7133C74.7389 82.5771 74.9023 84.4365 75.1997 86.2766V86.2955C75.2923 86.8899 75.267 87.4967 75.1251 88.0813C74.9832 88.6659 74.7276 89.2169 74.3728 89.7027C74.018 90.1885 73.5709 90.5997 73.0572 90.9127C72.5435 91.2258 71.9732 91.4346 71.3787 91.5272C70.7843 91.6199 70.1775 91.5945 69.5929 91.4526C69.0083 91.3107 68.4573 91.0551 67.9715 90.7003C66.9904 89.9837 66.334 88.9067 66.147 87.7063L66.1376 87.6875Z" fill="#CAD6FF"/>
</g>
<path d="M127.261 46.5693C160.712 46.5693 174.028 67.5952 173.915 85.7219C173.781 109.198 135.889 118.933 135.67 134.597C135.522 145.054 135.67 157.201 135.67 157.201" stroke="#3686FA" stroke-width="24.5768" stroke-linejoin="round"/>
<path d="M146.523 174.55C147.456 168.777 143.533 163.342 137.76 162.409C131.988 161.476 126.552 165.399 125.619 171.171C124.686 176.944 128.609 182.38 134.382 183.313C140.154 184.246 145.59 180.322 146.523 174.55Z" fill="#1F4976"/>
<path d="M42.4642 104.822L1.19074 107.801C1.04792 107.814 0.903955 107.799 0.76705 107.756C0.630145 107.713 0.502985 107.644 0.39283 107.552C0.170362 107.367 0.030667 107.101 0.00447498 106.812C-0.00849401 106.669 0.00679316 106.526 0.0494636 106.389C0.0921341 106.252 0.161352 106.125 0.253166 106.014C0.438592 105.792 0.704799 105.652 0.993223 105.626L42.1421 101.107C42.6338 101.052 43.1269 101.196 43.513 101.505C43.8991 101.814 44.1464 102.264 44.2007 102.756C44.255 103.248 44.1117 103.741 43.8023 104.127C43.493 104.513 43.0429 104.761 42.5512 104.815L42.4642 104.822Z" fill="#CAD6FF"/>
<path d="M40.2985 71.7359L12.6747 65.6365C12.5666 65.6156 12.4637 65.5737 12.3718 65.5131C12.2799 65.4525 12.2009 65.3743 12.1392 65.2832C12.0146 65.0991 11.9683 64.873 12.0104 64.6548C12.0525 64.4365 12.1796 64.2439 12.3637 64.1193C12.4548 64.0576 12.5573 64.0145 12.6651 63.9924C12.7729 63.9703 12.884 63.9697 12.9921 63.9905L40.891 68.6932C41.0917 68.727 41.2838 68.8001 41.4563 68.9081C41.6288 69.0162 41.7783 69.1571 41.8963 69.323C42.0144 69.4888 42.0986 69.6762 42.1441 69.8746C42.1897 70.073 42.1958 70.2784 42.1619 70.4791C42.1281 70.6798 42.0551 70.8719 41.9471 71.0444C41.839 71.2169 41.6981 71.3664 41.5322 71.4844C41.3664 71.6024 41.1789 71.6866 40.9806 71.7322C40.7822 71.7778 40.5768 71.7838 40.3761 71.75L40.2985 71.7359Z" fill="#CAD6FF"/>
<path d="M51.8062 41.4526L31.8196 28.8728C31.7021 28.7928 31.6193 28.6711 31.588 28.5325C31.5566 28.3938 31.5789 28.2484 31.6505 28.1255C31.722 28.0027 31.8375 27.9115 31.9736 27.8704C32.1097 27.8293 32.2563 27.8413 32.3839 27.904L53.1559 39.1506C53.4677 39.3193 53.6997 39.605 53.8009 39.9447C53.9021 40.2845 53.8642 40.6505 53.6955 40.9623C53.612 41.1167 53.4989 41.2532 53.3626 41.3638C53.2264 41.4745 53.0697 41.5573 52.9014 41.6074C52.5617 41.7086 52.1956 41.6707 51.8838 41.502L51.8062 41.4526Z" fill="#CAD6FF"/>
<path d="M81.09 26.6648L70.8216 4.56199C70.7394 4.38579 70.7281 4.1847 70.7901 4.00039C70.852 3.81609 70.9826 3.6627 71.1546 3.57201C71.3266 3.48132 71.5269 3.46029 71.714 3.51326C71.9011 3.56624 72.0606 3.68917 72.1595 3.85658L84.5207 24.8566C84.7835 25.3 84.8595 25.8297 84.7318 26.329C84.6041 26.8284 84.2833 27.2567 83.8399 27.5195C83.3965 27.7824 82.8669 27.8583 82.3675 27.7307C81.8681 27.603 81.4399 27.2822 81.177 26.8388C81.137 26.7753 81.1159 26.7189 81.09 26.6648Z" fill="#CAD6FF"/>
<path d="M115.803 20.7465L116.744 0.715258C116.744 0.525365 116.819 0.34325 116.953 0.208976C117.088 0.074702 117.27 -0.000732422 117.46 -0.000732422C117.65 -0.000732422 117.832 0.074702 117.966 0.208976C118.1 0.34325 118.176 0.525365 118.176 0.715258L119.116 20.7465C119.137 21.1859 118.982 21.6154 118.686 21.9406C118.39 22.2658 117.977 22.4601 117.537 22.4806C117.098 22.5012 116.668 22.3464 116.343 22.0503C116.018 21.7542 115.824 21.3411 115.803 20.9017C115.801 20.85 115.801 20.7959 115.803 20.7465Z" fill="#CAD6FF"/>
<path d="M152.426 28.3767L163.776 7.99746C163.822 7.9039 163.886 7.82037 163.965 7.75166C164.043 7.68294 164.135 7.63038 164.234 7.59698C164.333 7.56357 164.437 7.54997 164.541 7.55696C164.646 7.56395 164.747 7.59138 164.841 7.6377C164.934 7.68402 165.018 7.74831 165.087 7.82691C165.155 7.9055 165.208 7.99687 165.241 8.09578C165.275 8.19469 165.288 8.29921 165.281 8.40337C165.274 8.50754 165.247 8.60931 165.201 8.70287L155.877 30.0862C155.654 30.5244 155.272 30.8608 154.809 31.0266C154.346 31.1923 153.837 31.1749 153.387 30.9778C152.936 30.7808 152.578 30.419 152.385 29.9665C152.193 29.514 152.18 29.005 152.35 28.5437C152.367 28.4849 152.397 28.4308 152.426 28.3767Z" fill="#CAD6FF"/>
<path d="M184.195 41.5632L208.515 30.6317C208.692 30.5509 208.893 30.5418 209.077 30.6062C209.26 30.6706 209.412 30.8036 209.499 30.9773C209.587 31.151 209.604 31.3518 209.547 31.5377C209.489 31.7236 209.362 31.8801 209.192 31.9743L185.914 44.9821C185.47 45.2297 184.947 45.291 184.458 45.1525C183.97 45.014 183.556 44.6872 183.308 44.2438C183.061 43.8004 183 43.2768 183.138 42.7882C183.276 42.2996 183.603 41.886 184.047 41.6384L184.195 41.5632Z" fill="#CAD6FF"/>
<path d="M196.881 73.3793L223.409 72.2813C223.533 72.2805 223.653 72.327 223.744 72.4112C223.835 72.4955 223.891 72.6112 223.9 72.735C223.909 72.8588 223.87 72.9813 223.792 73.0778C223.714 73.1743 223.602 73.2376 223.479 73.2547L197.071 75.9964C196.893 76.0305 196.709 76.0271 196.532 75.9865C196.355 75.946 196.188 75.869 196.042 75.7606C195.897 75.6522 195.775 75.5147 195.685 75.3568C195.595 75.1989 195.539 75.0241 195.52 74.8433C195.501 74.6626 195.52 74.4799 195.576 74.3069C195.631 74.1339 195.722 73.9743 195.842 73.8382C195.963 73.7021 196.11 73.5925 196.275 73.5164C196.44 73.4402 196.619 73.3992 196.801 73.3958C196.824 73.3817 196.855 73.3817 196.881 73.3793Z" fill="#CAD6FF"/>
<path d="M191.83 105.44L229.24 114.646C229.491 114.701 229.71 114.854 229.848 115.071C229.986 115.288 230.033 115.551 229.977 115.802C229.922 116.053 229.769 116.271 229.552 116.409C229.335 116.548 229.073 116.594 228.821 116.539L191.021 109.094C190.759 109.069 190.506 108.99 190.277 108.861C190.048 108.732 189.848 108.557 189.691 108.346C189.534 108.135 189.423 107.894 189.365 107.638C189.307 107.381 189.303 107.116 189.354 106.858C189.405 106.6 189.509 106.356 189.66 106.141C189.811 105.925 190.006 105.744 190.231 105.609C190.456 105.474 190.707 105.387 190.968 105.355C191.229 105.323 191.494 105.345 191.745 105.421L191.83 105.44Z" fill="#CAD6FF"/>
<defs>
<radialGradient id="paint0_radial_176_1189" cx="0" cy="0" r="1" gradientUnits="userSpaceOnUse" gradientTransform="translate(77.1785 72.1763) rotate(67.4814) scale(216.639 102.94)">
<stop stop-color="#1583F8"/>
<stop offset="1" stop-color="#000DFF" stop-opacity="0"/>
</radialGradient>
</defs>
</svg>
