<svg width="240" height="181" viewBox="0 0 240 181" fill="none" xmlns="http://www.w3.org/2000/svg">
<path d="M120 180.959C169.971 180.959 210.48 140.45 210.48 90.4792C210.48 40.5085 169.971 -0.000732422 120 -0.000732422C70.0292 -0.000732422 29.5199 40.5085 29.5199 90.4792C29.5199 140.45 70.0292 180.959 120 180.959Z" fill="#3686FA"/>
<g style="mix-blend-mode:multiply" opacity="0.5">
<path d="M208.464 44.4951L180.816 54.6711L181.584 56.4471L178.608 57.5511L164.208 62.8311L164.688 64.1751L161.28 65.4231L151.776 68.9751L121.056 65.8551C119.745 65.7449 118.429 66.0113 117.264 66.6231L102.048 74.8791L87.12 78.3351L79.056 74.7831L76.176 73.5351L76.992 71.6631L63.36 65.0871L60.336 63.6471L61.248 61.9191L34.752 49.1031L0 28.0791V98.1591L3.168 99.9831C3.49128 100.912 4.08412 101.723 4.87073 102.313C5.65735 102.903 6.60202 103.245 7.584 103.295C7.95459 103.311 8.32564 103.278 8.688 103.199L32.112 116.879L39.024 103.871L45.264 106.703L58.224 112.607L60.048 108.671L66.048 111.551L70.128 113.519C72.384 115.151 76.08 118.079 79.536 120.911C78.336 120.815 77.856 121.295 77.856 121.295C75.408 123.023 78.48 128.975 81.744 130.511C82.6146 130.91 83.574 131.075 84.528 130.991C85.3145 130.866 86.0479 130.516 86.64 129.983C86.352 130.799 86.16 131.615 85.968 132.287C85.7972 132.981 85.7664 133.701 85.8774 134.407C85.9884 135.113 86.2389 135.789 86.6143 136.397C86.9896 137.005 87.4824 137.532 88.0637 137.947C88.645 138.362 89.3033 138.657 90 138.815C93.024 139.439 95.952 137.903 95.952 137.903C95.952 137.903 95.424 140.159 97.968 142.319L98.5919 142.799C101.856 145.103 105.696 143.759 105.936 143.663C106.161 144.971 106.884 146.14 107.952 146.927L108.432 147.263H108.528C108.856 147.471 109.212 147.632 109.584 147.743L109.728 147.839C111.216 148.367 113.664 148.943 115.776 147.695L120.384 145.007C122.512 146.081 124.864 146.64 127.248 146.639C128.018 146.643 128.777 146.462 129.462 146.111C130.147 145.76 130.738 145.25 131.184 144.623C131.896 143.628 132.358 142.475 132.528 141.263C133.257 141.827 134.066 142.28 134.928 142.607C136.08 142.991 139.776 143.711 142.416 140.543C142.697 140.256 142.939 139.933 143.136 139.583C144.768 136.895 143.76 134.687 143.712 134.639C145.296 135.167 151.152 134.831 153.024 130.511C153.024 130.463 153.072 130.463 153.072 130.415C154.848 126.191 152.352 122.351 152.304 122.255C158.64 125.807 161.76 123.455 163.296 121.247C164.832 119.039 164.496 117.023 164.448 115.823V115.727C164.443 115.347 164.361 114.971 164.208 114.623H164.16L162.768 111.359C162.768 111.359 163.872 110.735 165.456 109.679L166.272 109.103L166.464 108.959L167.184 108.431L167.424 108.239L168.096 107.711L168.432 107.423L169.056 106.943L169.44 106.607L170.016 106.079L170.448 105.695L170.976 105.215L171.408 104.783L171.936 104.255L172.368 103.775L172.704 103.391L172.992 103.103L177.552 101.423L178.896 105.359L193.344 100.415L198.864 98.5431L204.48 112.223L240 95.8551V29.3751L208.464 44.4951ZM87.408 127.295L87.648 127.535L87.504 127.823C87.456 127.679 87.456 127.487 87.408 127.295Z" fill="#1B79A1"/>
</g>
<path d="M108.432 140.063C108.432 140.063 112.512 142.463 115.776 140.543C119.04 138.623 121.392 137.231 121.392 137.231L114.144 132.959L108.432 140.063Z" fill="#FAB29A"/>
<g style="mix-blend-mode:multiply" opacity="0.5">
<path d="M108.432 140.063C108.432 140.063 112.512 142.463 115.776 140.543C119.04 138.623 121.392 137.231 121.392 137.231L114.144 132.959L108.432 140.063Z" fill="#CC8A79"/>
</g>
<path d="M163.296 114.095C161.76 116.303 158.64 118.655 152.256 115.103H152.304C152.448 115.343 154.368 118.415 153.456 122.063C153.35 122.47 153.222 122.87 153.072 123.263C153.072 123.311 153.024 123.311 153.024 123.359C151.152 127.679 145.296 127.967 143.712 127.439C143.76 127.487 144.768 129.695 143.136 132.383C142.939 132.733 142.697 133.056 142.416 133.343C141.514 134.392 140.32 135.149 138.987 135.517C137.653 135.884 136.24 135.846 134.928 135.407C134.066 135.08 133.257 134.627 132.528 134.063C132.358 135.275 131.897 136.428 131.184 137.423C130.738 138.05 130.147 138.56 129.462 138.911C128.777 139.262 128.018 139.443 127.248 139.439C124.128 139.439 121.728 138.575 118.896 137.039L116.928 135.935L114.144 134.207C108.864 130.991 88.464 120.959 88.464 120.959L80.4 114.335C76.656 111.311 72.576 108.047 70.128 106.271L66.048 104.303L54.192 98.639L48.624 95.951L32.64 88.367L54.624 56.927L65.472 61.679L79.056 67.583L87.12 71.135L105.552 66.863L109.968 65.807L124.752 75.167L161.28 98.351L162.768 104.207L164.208 107.471C164.361 107.819 164.443 108.195 164.448 108.575V108.671C164.496 109.871 164.4 112.463 163.296 114.095Z" fill="#FAB29A"/>
<g style="mix-blend-mode:multiply" opacity="0.5">
<path d="M116.928 135.983L114.144 134.255C108.864 131.087 88.4639 121.007 88.4639 121.007L80.3999 114.383C76.6559 111.359 72.5759 108.095 70.1279 106.319L66.0479 104.351L54.1919 98.687L56.7359 94.271L74.6879 102.767C74.6879 102.767 96.9599 121.535 103.392 125.567C109.824 129.599 116.688 134.879 116.688 134.879L116.928 135.983Z" fill="#B6AEAC"/>
</g>
<g style="mix-blend-mode:multiply" opacity="0.5">
<path d="M79.0559 67.5834L66.0479 104.351L48.6239 95.9994L65.4719 61.6794L79.0559 67.5834Z" fill="#875C50"/>
</g>
<g style="mix-blend-mode:multiply" opacity="0.5">
<path d="M164.208 107.471H164.16L162.768 104.207L161.28 98.3509L124.752 75.1669L109.968 65.8069L105.552 66.8629L102.768 70.8469L90.3838 87.8869C90.3838 87.8869 92.4958 93.2149 99.3118 92.6389C106.128 92.0629 111.84 82.6069 114.24 81.5029C115.2 81.0709 120.528 82.9429 127.104 85.7269C136.848 91.1509 155.904 101.711 159.936 104.447C161.657 105.564 163.182 106.959 164.448 108.575C164.443 108.194 164.361 107.819 164.208 107.471Z" fill="#E68064"/>
</g>
<g style="mix-blend-mode:multiply" opacity="0.5">
<path d="M153.456 122.063L139.872 112.703C134.496 109.007 135.168 104.351 135.168 104.351L152.256 115.103H152.304C152.448 115.343 154.368 118.415 153.456 122.063Z" fill="#875C50"/>
</g>
<g style="mix-blend-mode:multiply" opacity="0.5">
<path d="M143.136 132.431L133.2 125.711C129.072 122.927 128.88 117.551 128.88 117.551L143.712 127.487C143.76 127.535 144.768 129.743 143.136 132.431Z" fill="#875C50"/>
</g>
<g style="mix-blend-mode:multiply" opacity="0.5">
<path d="M132.528 134.111C132.358 135.323 131.896 136.476 131.184 137.471C128.431 135.879 125.771 134.132 123.216 132.239C119.664 129.455 119.808 126.575 119.808 126.575L132.528 134.111Z" fill="#875C50"/>
</g>
<path d="M216.192 80.1116L185.472 91.3436L172.992 95.9516L172.704 96.2396C170.545 98.615 168.112 100.726 165.456 102.528C163.872 103.584 162.768 104.208 162.768 104.208L161.904 103.104C161.013 102.003 159.942 101.061 158.736 100.32L153.504 97.1996L143.616 91.2477L141.792 90.1437L140.592 89.4716L119.664 76.8956C118.89 76.4662 117.992 76.3138 117.12 76.4637L116.688 76.6077L110.688 78.6716L110.304 78.8157L109.968 78.9597C109.576 79.1093 109.229 79.3572 108.96 79.6796C108.764 79.8382 108.6 80.034 108.48 80.2556C103.872 87.5516 99.0718 89.8076 95.4718 90.2396L94.1758 90.3356C93.3505 90.3521 92.5268 90.2552 91.7278 90.0476C91.381 89.9694 91.0554 89.8165 90.7737 89.5997C90.492 89.3829 90.2608 89.1073 90.0964 88.7921C89.9319 88.4769 89.8381 88.1296 89.8214 87.7745C89.8047 87.4194 89.8656 87.0649 89.9998 86.7356L96.5278 72.3837C97.1088 70.9577 98.1585 69.7725 99.5038 69.0237L117.264 59.4237C118.429 58.8119 119.744 58.5455 121.056 58.6557L151.776 61.7757L161.28 58.2237L173.712 53.6637L202.32 43.0557L213.984 74.2077L216.192 80.1116Z" fill="#FAB29A"/>
<path d="M76.9918 64.4634L58.2238 105.407L45.2638 99.5034L32.0638 93.5034L54.1438 53.4714L63.3598 57.8874L76.9918 64.4634Z" fill="white"/>
<g style="mix-blend-mode:multiply" opacity="0.5">
<path d="M118.896 137.087C117.456 136.319 115.92 135.359 114.144 134.255C108.864 131.087 88.4641 121.007 88.4641 121.007L80.4001 114.383C82.3201 114.431 86.2081 115.151 90.1921 119.183L95.5201 116.639C95.5201 116.639 101.328 117.119 103.536 124.799L109.056 122.351C110.303 123.057 111.36 124.055 112.137 125.259C112.914 126.462 113.389 127.836 113.52 129.263C113.52 129.263 117.936 130.799 118.656 133.583C118.982 134.721 119.064 135.915 118.896 137.087Z" fill="#875C50"/>
</g>
<path d="M84.5279 123.791C83.574 123.876 82.6145 123.71 81.7439 123.311C78.4799 121.775 75.4079 115.823 77.8559 114.095C77.8559 114.095 79.1519 112.799 82.5599 114.815C84.5759 116.015 85.8719 117.167 86.6399 118.319C87.1367 119.046 87.4346 119.89 87.5039 120.767C87.6479 122.111 86.3999 123.503 84.5279 123.791Z" fill="#FAB29A"/>
<g style="mix-blend-mode:multiply" opacity="0.5">
<path d="M84.5281 123.791C85.0329 121.897 85.741 120.062 86.6401 118.319C87.1369 119.046 87.4348 119.89 87.5041 120.767C87.6481 122.111 86.4001 123.503 84.5281 123.791Z" fill="#CC8A79"/>
</g>
<path d="M89.9998 131.615C89.3031 131.457 88.6449 131.162 88.0636 130.747C87.4823 130.332 86.9895 129.805 86.6141 129.197C86.2387 128.589 85.9882 127.913 85.8773 127.207C85.7663 126.502 85.7971 125.781 85.9678 125.087C86.4942 122.724 87.4195 120.468 88.7038 118.415C91.5838 113.903 100.08 115.823 99.2158 123.359L95.9518 130.703C95.9518 130.703 93.0238 132.239 89.9998 131.615Z" fill="#FAB29A"/>
<path d="M109.872 128.303L105.936 136.463C105.696 136.559 101.856 137.903 98.5917 135.599L97.9677 135.119C95.4237 132.959 95.9517 130.703 95.9517 130.703L99.2157 123.359C99.2157 123.359 101.568 118.895 105.648 119.951H105.888C110.112 121.295 110.928 125.183 109.872 128.303Z" fill="#FAB29A"/>
<path d="M117.168 132.719C116.736 134.879 114.912 140.351 114.912 140.351C114.192 141.071 112.944 141.839 109.584 140.591C108.997 140.393 108.446 140.101 107.952 139.727C106.884 138.94 106.161 137.771 105.936 136.463L109.152 129.743C110.592 128.543 111.984 128.255 113.136 128.495C115.68 128.975 117.36 131.807 117.168 132.719Z" fill="#FAB29A"/>
<g style="mix-blend-mode:multiply" opacity="0.5">
<path d="M105.648 119.951C104.496 120.767 102.336 122.783 100.848 126.671C99.7917 129.599 98.7357 132.767 97.9677 135.119C95.4237 132.959 95.9517 130.703 95.9517 130.703L99.2157 123.359C99.2157 123.359 101.568 118.895 105.648 119.951Z" fill="#CC8A79"/>
</g>
<g style="mix-blend-mode:multiply" opacity="0.5">
<path d="M113.136 128.495C112.368 129.167 111.264 130.559 110.16 133.391C109.056 136.223 108.48 138.047 107.952 139.727C106.884 138.94 106.161 137.771 105.936 136.463L109.152 129.743C110.592 128.543 111.984 128.255 113.136 128.495Z" fill="#CC8A79"/>
</g>
<g style="mix-blend-mode:multiply" opacity="0.5">
<path d="M213.984 74.2076C191.376 81.8396 165.264 90.8156 162.912 92.2556C161.155 93.3037 159.244 94.0653 157.248 94.5116C154.8 92.9276 151.68 90.9596 148.224 88.8476C153.936 84.3356 153.456 77.0396 153.456 77.0396C151.68 82.6556 148.8 85.7276 146.064 87.4556C133.968 79.9676 119.472 71.1356 118.368 71.0876C117.264 71.0396 108.96 73.5356 108.96 73.5356C108.96 73.5356 108.528 81.2156 102.24 86.0156C100.136 87.6545 97.8681 89.0701 95.4717 90.2396C99.0717 89.8076 103.872 87.5516 108.48 80.2556C108.6 80.0339 108.763 79.8382 108.96 79.6796L109.152 79.4876H109.2L109.44 79.2956L109.68 79.1516C109.692 79.1516 109.705 79.1465 109.714 79.1375C109.723 79.1285 109.728 79.1163 109.728 79.1036L109.968 79.0076L110.16 78.9116H110.304L110.688 78.7676L116.688 76.7036H117.12C117.986 76.5139 118.892 76.6506 119.664 77.0876L140.592 89.6636L143.616 91.4396L153.504 97.1996L158.736 100.32C159.942 101.061 161.013 102.003 161.904 103.104L162.768 104.208C162.768 104.208 163.872 103.584 165.456 102.528C168.219 100.642 170.749 98.4343 172.992 95.9516L216.192 80.1116L213.984 74.2076Z" fill="#CC8A79"/>
</g>
<g style="mix-blend-mode:multiply" opacity="0.5">
<path d="M185.472 91.3433L172.992 95.9513L172.704 96.2393L161.28 58.2233L173.712 53.6633L185.472 91.3433Z" fill="#CC8A79"/>
</g>
<path d="M206.112 88.8955L193.344 93.2635L178.896 98.2075L164.208 55.6315L178.608 50.3515L188.016 46.8955L206.112 88.8955Z" fill="white"/>
<g style="mix-blend-mode:multiply">
<path d="M206.112 88.8955L193.344 93.2635L178.608 50.3515L188.016 46.8955L206.112 88.8955Z" fill="#B3B3B3"/>
</g>
<path d="M240 22.1753V88.6553L204.48 105.023L198.864 91.3913L197.136 87.1193L194.544 80.8313L190.416 70.7993L189.36 68.2553L182.112 50.5433L181.584 49.2473L180.816 47.4233L208.464 37.2953L240 22.1753Z" fill="#0169EE"/>
<g style="mix-blend-mode:multiply">
<path d="M63.3598 57.8874L45.2638 99.5034L32.0638 93.5034L54.1438 53.4714L63.3598 57.8874Z" fill="#B3B3B3"/>
</g>
<path d="M61.248 54.7189L60.336 56.4469L59.04 58.8469L50.736 74.5909L49.44 76.9909L41.232 92.4469L39.024 96.6709L32.112 109.727L8.688 95.9989L3.168 92.7829L0 90.9589V20.8789L34.752 41.9029L61.248 54.7189Z" fill="#1F4976"/>
<path d="M16.6039 82.663C16.5642 83.6436 16.2335 84.5902 15.654 85.3822C15.0745 86.1742 14.2724 86.7759 13.3498 87.1105C12.4272 87.4451 11.4259 87.4976 10.4734 87.2613C9.52085 87.025 8.66021 86.5105 8.00107 85.7834C7.34192 85.0563 6.91408 84.1495 6.77203 83.1784C6.62999 82.2073 6.78016 81.2159 7.20343 80.3305C7.6267 79.4451 8.30391 78.7056 9.14883 78.2064C9.99374 77.7071 10.9681 77.4706 11.9479 77.527C13.2425 77.6014 14.456 78.1815 15.3269 79.1422C16.1978 80.1029 16.6564 81.3673 16.6039 82.663Z" fill="#CACACA"/>
<path d="M218.173 82.6976C218.133 83.6782 217.802 84.6248 217.223 85.4169C216.643 86.2089 215.841 86.8105 214.918 87.1452C213.996 87.4798 212.994 87.5323 212.042 87.296C211.089 87.0596 210.229 86.5452 209.57 85.8181C208.911 85.0909 208.483 84.1841 208.341 83.2131C208.199 82.242 208.349 81.2506 208.772 80.3652C209.195 79.4797 209.873 78.7403 210.717 78.241C211.562 77.7418 212.537 77.5053 213.517 77.5616C214.811 77.6361 216.025 78.2162 216.895 79.1769C217.766 80.1376 218.225 81.402 218.173 82.6976Z" fill="#CACACA"/>
<path d="M86.8628 56.5414C89.1497 54.2545 89.1497 50.5467 86.8628 48.2598C84.5758 45.9729 80.868 45.9729 78.5811 48.2598C76.2942 50.5467 76.2942 54.2545 78.5811 56.5414C80.868 58.8284 84.5758 58.8284 86.8628 56.5414Z" fill="white"/>
<path d="M95.52 60.3351C97.2961 60.3351 98.7359 58.8952 98.7359 57.1191C98.7359 55.3429 97.2961 53.9031 95.52 53.9031C93.7438 53.9031 92.304 55.3429 92.304 57.1191C92.304 58.8952 93.7438 60.3351 95.52 60.3351Z" fill="white"/>
<path d="M177.6 115.295C179.376 115.295 180.816 113.855 180.816 112.079C180.816 110.303 179.376 108.863 177.6 108.863C175.824 108.863 174.384 110.303 174.384 112.079C174.384 113.855 175.824 115.295 177.6 115.295Z" fill="white"/>
<path d="M161.52 48.8147C162.898 48.8147 164.016 47.6973 164.016 46.3188C164.016 44.9402 162.898 43.8228 161.52 43.8228C160.141 43.8228 159.024 44.9402 159.024 46.3188C159.024 47.6973 160.141 48.8147 161.52 48.8147Z" fill="white"/>
<path d="M109.536 158.015C107.376 158.495 106.992 158.831 106.56 161.039C106.128 158.831 105.744 158.495 103.584 158.015C105.744 157.583 106.128 157.247 106.56 155.039C106.992 157.247 107.376 157.583 109.536 158.015Z" fill="white"/>
<path d="M128.173 160.188C128.685 156.994 126.51 153.991 123.317 153.479C120.124 152.968 117.12 155.142 116.609 158.335C116.097 161.529 118.271 164.532 121.465 165.044C124.658 165.555 127.662 163.381 128.173 160.188Z" fill="white"/>
<path d="M65.7599 126.335C68.3313 126.335 70.4159 124.251 70.4159 121.679C70.4159 119.108 68.3313 117.023 65.7599 117.023C63.1884 117.023 61.1039 119.108 61.1039 121.679C61.1039 124.251 63.1884 126.335 65.7599 126.335Z" fill="white"/>
<path d="M153.562 53.6062C155.348 51.7565 155.297 48.8089 153.447 47.0227C151.597 45.2364 148.65 45.2878 146.864 47.1376C145.077 48.9873 145.129 51.9349 146.979 53.7211C148.828 55.5074 151.776 55.456 153.562 53.6062Z" fill="white"/>
<path d="M175.945 130.394C178.546 127.673 178.448 123.358 175.726 120.757C173.005 118.157 168.69 118.255 166.089 120.976C163.489 123.698 163.586 128.012 166.308 130.613C169.03 133.214 173.344 133.116 175.945 130.394Z" fill="white"/>
<path d="M119.52 48.1907C123.735 48.1907 127.152 44.7738 127.152 40.5588C127.152 36.3437 123.735 32.9268 119.52 32.9268C115.305 32.9268 111.888 36.3437 111.888 40.5588C111.888 44.7738 115.305 48.1907 119.52 48.1907Z" fill="white"/>
</svg>
