<svg width="114" height="114" viewBox="0 0 114 114" fill="none" xmlns="http://www.w3.org/2000/svg">
<path fill-rule="evenodd" clip-rule="evenodd" d="M57 14.25C33.3898 14.25 14.25 33.3898 14.25 57C14.25 80.6102 33.3898 99.75 57 99.75C80.6102 99.75 99.75 80.6102 99.75 57C99.75 33.3898 80.6102 14.25 57 14.25ZM4.75 57C4.75 28.1431 28.1431 4.75 57 4.75C85.8569 4.75 109.25 28.1431 109.25 57C109.25 85.8569 85.8569 109.25 57 109.25C28.1431 109.25 4.75 85.8569 4.75 57Z" fill="white" fill-opacity="0.4"/>
<path fill-rule="evenodd" clip-rule="evenodd" d="M45.2587 33.8121C46.8032 32.9855 48.6773 33.0761 50.1348 34.0478L78.6348 53.0478C79.9563 53.9287 80.75 55.4118 80.75 57C80.75 58.5882 79.9563 60.0713 78.6348 60.9522L50.1348 79.9522C48.6773 80.924 46.8032 81.0146 45.2587 80.188C43.7142 79.3614 42.75 77.7518 42.75 76V38C42.75 36.2482 43.7142 34.6386 45.2587 33.8121ZM52.25 46.8755V67.1245L67.4368 57L52.25 46.8755Z" fill="white" fill-opacity="0.4"/>
</svg>
