<svg width="91" height="96" viewBox="0 0 91 96" fill="none" xmlns="http://www.w3.org/2000/svg">
<g clip-path="url(#clip0_75_411)">
<path d="M45.448 57.2165C45.1854 59.7072 42.3465 62.7827 42.3465 62.7827C36.3268 68.2958 33.1127 73.1217 31.6536 77.2484C28.427 86.3686 35.468 95.9224 45.3063 96.0001C45.3647 96.0001 45.423 96.0001 45.4772 96.0001C53.7397 96.0083 60.5807 89.4278 60.2055 81.33C59.6469 69.1874 45.4439 57.2124 45.4439 57.2124L45.448 57.2165Z" fill="url(#paint0_linear_75_411)"/>
<path d="M79.3317 15.619L57.1706 3.06735C49.9503 -1.02245 41.0499 -1.02245 33.8296 3.06735L23.958 8.65812C39.7952 10.8912 44.8602 18.6618 44.8602 18.6618C60.4139 30.0723 67.4424 49.1595 67.4424 49.1595C77.9394 76.1685 63.6155 88.9205 56.1284 93.4889C56.4786 93.313 56.8287 93.129 57.1706 92.9367L79.3317 80.3851C86.552 76.2953 91.0001 68.7374 91.0001 60.5537V35.4504C91.0001 27.2708 86.552 19.7088 79.3317 15.619Z" fill="url(#paint1_linear_75_411)"/>
<path d="M23.9579 8.6582L11.6684 15.6191C4.44807 19.7089 0 27.2709 0 35.4505V60.5537C0 68.7334 4.44807 76.2954 11.6684 80.3852L33.8295 92.9368C34.088 93.0841 34.3506 93.2231 34.6174 93.3622C3.24747 73.4816 31.5993 34.5712 31.5993 34.5712C27.9349 49.544 36.7102 50.4437 36.7102 50.4437C52.3597 46.538 44.8643 18.666 44.8643 18.666C44.8643 18.666 39.7992 10.8994 23.9621 8.66229L23.9579 8.6582Z" fill="url(#paint2_linear_75_411)"/>
</g>
<defs>
<linearGradient id="paint0_linear_75_411" x1="45.5439" y1="60.6069" x2="45.5439" y2="80.6102" gradientUnits="userSpaceOnUse">
<stop stop-color="#FDBB2F"/>
<stop offset="1" stop-color="#F97932"/>
</linearGradient>
<linearGradient id="paint1_linear_75_411" x1="45.052" y1="-24.9028" x2="69.1144" y2="66.5261" gradientUnits="userSpaceOnUse">
<stop stop-color="#FDBB2F"/>
<stop offset="1" stop-color="#FC9A30"/>
</linearGradient>
<linearGradient id="paint2_linear_75_411" x1="6.8868" y1="75.273" x2="37.611" y2="30.8645" gradientUnits="userSpaceOnUse">
<stop stop-color="#FDBB2F"/>
<stop offset="0.8" stop-color="#E27234"/>
</linearGradient>
<clipPath id="clip0_75_411">
<rect width="91" height="96" fill="white"/>
</clipPath>
</defs>
</svg>
