<svg width="96" height="91" viewBox="0 0 96 91" fill="none" xmlns="http://www.w3.org/2000/svg">
<g clip-path="url(#clip0_75_421)">
<path d="M60.1666 71.4007C60.2282 64.5207 54.8848 59.0284 48.077 58.975C41.2736 58.9216 35.8687 64.334 35.8291 71.2361C35.7895 78.0716 41.1636 83.5106 48.011 83.5639C54.6825 83.6173 60.105 78.1916 60.1622 71.4007H60.1666Z" fill="url(#paint0_linear_75_421)"/>
<path d="M83.6906 16.9841L60.3118 3.33545C52.6948 -1.11182 43.3098 -1.11182 35.6884 3.33545L12.3096 16.9841C10.225 18.1982 8.36473 19.7014 6.75513 21.418C25.2656 26.4968 43.3318 34.3018 43.3318 34.3018C46.4235 34.3018 49.5195 34.3018 52.6112 34.3018C54.4231 34.3018 54.8453 34.6887 55.118 36.5388C55.4742 38.967 55.8744 41.3907 56.1998 43.8278C56.279 44.4238 56.5209 44.695 57.0706 44.8907C58.0513 45.2376 59.0188 45.6334 59.9512 46.0959C60.4613 46.3494 60.8043 46.2605 61.2221 45.9358C63.1484 44.4371 65.0878 42.9562 67.0316 41.4841C68.2674 40.5502 68.9447 40.528 70.0266 41.6131C72.4454 44.0368 74.829 46.4962 77.1642 49C78.1669 50.0762 78.1229 50.7967 77.239 51.9797C75.8141 53.8875 74.3804 55.7954 72.9203 57.6766C72.5993 58.0902 72.5641 58.3971 72.784 58.8685C73.3029 59.9936 73.7119 61.1722 74.2529 62.2884C74.4112 62.6131 74.8246 62.9555 75.1676 63.0178C77.6524 63.4536 80.1547 63.8183 82.6483 64.2008C84.0292 64.4142 84.5394 64.9568 84.5438 66.3532C84.5614 69.6709 84.5613 72.993 84.5394 76.3107C84.5306 77.8094 84.0204 78.3342 82.5296 78.5565C80.0624 78.9257 77.5952 79.2815 75.1412 79.7128C74.7718 79.7795 74.3584 80.1665 74.1649 80.5178C73.7867 81.2116 73.6592 82.0565 73.2282 82.7014C72.4893 83.8043 72.762 84.6182 73.5404 85.5521C74.9037 87.1842 76.1747 88.8964 77.4545 90.5953C77.5336 90.702 77.604 90.8088 77.6744 90.9244L83.695 87.4111C91.312 82.9638 96.0045 74.7452 96.0045 65.8463V38.5489C96.0045 29.6544 91.312 21.4314 83.695 16.9841H83.6906Z" fill="url(#paint1_linear_75_421)"/>
<path d="M0 38.5488V65.8461C0 74.7407 4.69247 82.9637 12.3095 87.4109L18.4576 90.9999C18.55 90.8487 18.6599 90.6886 18.7875 90.5196C20.164 88.6917 21.5185 86.8461 22.9478 85.0628C23.4008 84.4935 23.4008 84.0799 23.0973 83.4573C22.596 82.43 22.1826 81.3582 21.7956 80.282C21.6153 79.7794 21.3954 79.5215 20.8281 79.4459C18.3565 79.1168 15.8937 78.721 13.4309 78.3563C11.9269 78.1339 11.4651 77.618 11.4607 76.0837C11.4519 72.8283 11.4519 69.5729 11.4607 66.3175C11.4651 64.7388 11.9489 64.214 13.4793 63.9872C15.9773 63.618 18.4752 63.2489 20.9644 62.822C21.2766 62.7686 21.6417 62.4128 21.7912 62.106C22.2881 61.0742 22.6576 59.9846 23.1501 58.9529C23.3788 58.477 23.3436 58.1612 23.027 57.7565C21.5361 55.8576 20.0804 53.9319 18.6028 52.0196C17.6616 50.801 17.5649 50.1917 18.6028 49.0755C20.8896 46.6117 23.2073 44.1746 25.6481 41.8709C27.2269 40.3766 27.6931 40.4878 29.4126 41.8309C31.1849 43.214 32.9748 44.5837 34.7208 45.998C35.165 46.3582 35.4992 46.3626 35.983 46.1269C36.9197 45.6778 37.8784 45.2464 38.8591 44.9084C39.4704 44.6994 39.6639 44.3569 39.7475 43.7477C40.0905 41.2527 40.4467 38.7578 40.8821 36.2807C41.1768 34.5952 41.6078 34.3061 43.3317 34.3061C43.3317 34.3061 25.2699 26.5011 6.75505 21.4224C2.48037 25.9808 0 32.0869 0 38.5488Z" fill="url(#paint2_linear_75_421)"/>
</g>
<defs>
<linearGradient id="paint0_linear_75_421" x1="45.5395" y1="80.442" x2="48.4851" y2="69.7051" gradientUnits="userSpaceOnUse">
<stop stop-color="#AC33C1"/>
<stop offset="1" stop-color="#CF4EEA"/>
</linearGradient>
<linearGradient id="paint1_linear_75_421" x1="93.0228" y1="74.8964" x2="59.4457" y2="35.8731" gradientUnits="userSpaceOnUse">
<stop stop-color="#AC33C1"/>
<stop offset="1" stop-color="#CF4EEA"/>
</linearGradient>
<linearGradient id="paint2_linear_75_421" x1="42.3466" y1="28.7915" x2="2.46265" y2="64.7483" gradientUnits="userSpaceOnUse">
<stop stop-color="#66137A"/>
<stop offset="1" stop-color="#CF4EEA"/>
</linearGradient>
<clipPath id="clip0_75_421">
<rect width="96" height="91" fill="white"/>
</clipPath>
</defs>
</svg>
