<svg width="95" height="93" viewBox="0 0 95 93" fill="none" xmlns="http://www.w3.org/2000/svg">
<g clip-path="url(#clip0_75_418)">
<path d="M69.593 92.9999L82.8187 85.3763C90.3564 81.0323 95 73.0047 95 64.3124V37.6491C95 28.9612 90.3564 20.9292 82.8187 16.5852L59.6835 3.25358C52.1458 -1.09039 42.8586 -1.09039 35.3166 3.25358L22.2649 10.7773C41.3049 16.1725 47.4978 30.9029 47.4978 30.9029L69.3188 57.1492C78.6713 68.4001 77.431 83.1782 69.5886 92.9956L69.593 92.9999Z" fill="url(#paint0_linear_75_418)"/>
<path d="M22.2649 10.7817L12.1813 16.594C4.64359 20.9336 0 28.9656 0 37.6535V64.3168C0 73.0047 4.64359 81.0367 12.1813 85.3807L25.407 93.0044C17.5647 83.187 16.3244 68.4088 25.6769 57.1579L47.4978 30.9117C47.4978 30.9117 41.3006 16.1813 22.2649 10.7861V10.7817Z" fill="url(#paint1_linear_75_418)"/>
</g>
<defs>
<linearGradient id="paint0_linear_75_418" x1="54.9702" y1="13.8529" x2="72.504" y2="50.3284" gradientUnits="userSpaceOnUse">
<stop stop-color="#4CED6F"/>
<stop offset="1" stop-color="#2BC16F"/>
</linearGradient>
<linearGradient id="paint1_linear_75_418" x1="-1.60589" y1="81.8317" x2="34.1485" y2="30.8061" gradientUnits="userSpaceOnUse">
<stop stop-color="#4CED6F"/>
<stop offset="1" stop-color="#25935C"/>
</linearGradient>
<clipPath id="clip0_75_418">
<rect width="95" height="93" fill="white"/>
</clipPath>
</defs>
</svg>
