<svg width="514" height="510" viewBox="0 0 514 510" fill="none" xmlns="http://www.w3.org/2000/svg">
<path opacity="0.5" d="M217.845 332.131C221.249 332.131 224.009 329.371 224.009 325.967C224.009 322.562 221.249 319.802 217.845 319.802C214.44 319.802 211.681 322.562 211.681 325.967C211.681 329.371 214.44 332.131 217.845 332.131Z" fill="#D3D3D3"/>
<path opacity="0.5" d="M202.294 315.878C207.478 315.878 211.681 311.676 211.681 306.492C211.681 301.308 207.478 297.106 202.294 297.106C197.111 297.106 192.908 301.308 192.908 306.492C192.908 311.676 197.111 315.878 202.294 315.878Z" fill="#D3D3D3"/>
<path opacity="0.5" d="M229.192 301.449C231.977 301.449 234.235 299.191 234.235 296.406C234.235 293.62 231.977 291.362 229.192 291.362C226.406 291.362 224.148 293.62 224.148 296.406C224.148 299.191 226.406 301.449 229.192 301.449Z" fill="#D3D3D3"/>
<path opacity="0.5" d="M197.951 94.4682C201.355 94.4682 204.115 91.7084 204.115 88.3041C204.115 84.8998 201.355 82.14 197.951 82.14C194.546 82.14 191.787 84.8998 191.787 88.3041C191.787 91.7084 194.546 94.4682 197.951 94.4682Z" fill="#D3D3D3"/>
<path opacity="0.5" d="M256.23 67.0101C259.016 67.0101 261.274 64.7522 261.274 61.9668C261.274 59.1814 259.016 56.9235 256.23 56.9235C253.445 56.9235 251.187 59.1814 251.187 61.9668C251.187 64.7522 253.445 67.0101 256.23 67.0101Z" fill="#D3D3D3"/>
<path d="M514.001 302.92V509.977H397.724V302.92C397.724 295.215 402.767 289.051 408.931 289.051H502.793C508.957 289.051 514.001 295.215 514.001 302.92Z" fill="url(#paint0_linear_176_1638)"/>
<path d="M248.805 373.245V509.976H132.528V373.245C132.528 365.68 137.572 359.376 143.876 359.376H237.598C243.762 359.376 248.805 365.68 248.805 373.245Z" fill="url(#paint1_linear_176_1638)"/>
<path d="M116.277 408.41V509.977H0V408.41C0 400.845 5.04334 394.541 11.2074 394.541H105.07C111.234 394.541 116.277 400.845 116.277 408.41Z" fill="url(#paint2_linear_176_1638)"/>
<path d="M381.473 337.944V509.977H265.196V337.944C265.196 330.239 270.239 324.074 276.403 324.074H370.125C376.429 324.074 381.473 330.239 381.473 337.944Z" fill="url(#paint3_linear_176_1638)"/>
<path d="M166.291 59.2983H166.851L167.411 59.0181C167.551 58.878 167.691 58.7379 167.551 58.4577C167.411 58.1775 167.131 58.0374 166.851 58.0374C164.696 57.7562 162.507 57.8989 160.407 58.4577C159.549 58.4615 158.698 58.6034 157.885 58.878C156.807 59.2282 155.841 59.8563 155.083 60.6992C153.682 62.2402 155.784 61.5398 156.764 61.2596C157.745 60.9794 163.209 60.1388 166.291 59.2983Z" fill="#FFBC96"/>
<g style="mix-blend-mode:overlay" opacity="0.3">
<path d="M166.291 59.2983H166.851L167.411 59.0181C167.551 58.878 167.691 58.7379 167.551 58.4577C167.411 58.1775 167.131 58.0374 166.851 58.0374C164.696 57.7562 162.507 57.8989 160.407 58.4577C159.549 58.4615 158.698 58.6034 157.885 58.878C156.807 59.2282 155.841 59.8563 155.083 60.6992C153.682 62.2402 155.784 61.5398 156.764 61.2596C157.745 60.9794 163.209 60.1388 166.291 59.2983Z" fill="#1D1D1B"/>
</g>
<path d="M144.996 62.2413C144.54 63.9938 143.781 65.6532 142.755 67.1446C142.022 68.718 141.778 70.4746 142.054 72.1879C142.194 72.7483 142.334 73.4488 142.895 73.7289H143.875C146.635 73.4523 149.358 72.8889 152.001 72.0478C152.444 71.951 152.84 71.7035 153.121 71.3474C153.542 70.9271 153.402 70.0865 153.402 69.3861C153.132 67.3102 153.524 65.2021 154.522 63.3621C154.943 62.6616 155.643 62.3814 156.203 61.8211L159.005 59.7197C161.387 58.3187 163.768 57.198 166.01 55.7971C168.251 54.3962 169.232 52.8551 166.15 53.5556C164.909 53.7018 163.687 53.9836 162.508 54.3962C159.285 55.5169 155.783 55.7971 152.701 57.198C154.102 55.7971 155.923 54.9565 157.324 53.6957C158.725 52.4349 159.846 51.3141 158.865 50.1934C157.885 49.0726 157.885 50.0533 157.464 50.3335L148.919 56.0773C147.869 56.7718 146.977 57.6796 146.301 58.7416C145.625 59.8036 145.18 60.9961 144.996 62.2413Z" fill="#FFBC96"/>
<path d="M165.03 52.5748C163.209 54.6762 160.967 57.3379 158.446 58.3186C155.924 59.2992 153.823 60.8403 153.122 59.8596C152.422 58.879 154.803 57.4781 155.224 57.1979C158.306 55.0965 161.108 52.855 164.19 50.8937C164.475 50.6716 164.813 50.5268 165.17 50.4734C165.334 50.4675 165.497 50.5029 165.644 50.5763C165.791 50.6497 165.917 50.7589 166.011 50.8937C166.054 51.1011 166.037 51.3165 165.963 51.5149C165.888 51.7132 165.759 51.8864 165.59 52.0144L165.03 52.5748Z" fill="#FFBC96"/>
<path d="M84.7554 105.25L85.8761 126.684L93.7213 139.573L102.827 126.404L101.006 113.796L84.7554 105.25Z" fill="#FFBC96"/>
<path d="M107.591 99.7845C108.545 102.738 108.594 105.909 107.731 108.891C106.891 111.272 105.069 114.214 102.548 115.195C100.164 116.101 97.6643 116.667 95.1227 116.876C88.5384 117.016 86.1568 111.272 83.6351 106.229C79.8526 98.5237 81.2536 90.6785 88.2582 87.8766C92.4327 86.1187 97.0895 85.871 101.427 87.1762C103.222 89.7574 104.725 92.5294 105.91 95.4416C106.591 96.8396 107.153 98.2923 107.591 99.7845Z" fill="#FFBC96"/>
<path d="M92.1807 97.2648C92.601 98.3855 88.8185 101.327 88.118 100.067C87.4176 98.8058 91.6204 96.0039 92.1807 97.2648Z" fill="#003450"/>
<path d="M100.307 94.1824C100.307 95.0229 104.79 94.8828 104.79 93.7621C104.79 92.6413 100.307 93.0616 100.307 94.1824Z" fill="#003450"/>
<g style="mix-blend-mode:overlay" opacity="0.3">
<path d="M89.9505 108.097C91.5417 107.493 92.5421 106.241 92.1849 105.3C91.8278 104.36 90.2483 104.088 88.657 104.692C87.0658 105.297 86.0654 106.549 86.4226 107.489C86.7798 108.429 88.3593 108.702 89.9505 108.097Z" fill="#1D1D1B"/>
</g>
<g style="mix-blend-mode:overlay" opacity="0.3">
<path d="M108.011 101.046C107.603 101.515 107.068 101.855 106.47 102.027C104.929 102.587 103.388 102.307 102.968 101.466C102.548 100.626 103.668 99.2248 105.209 98.6644C105.768 98.3684 106.409 98.2697 107.031 98.3843C107.311 99.2248 107.731 100.065 108.011 101.046Z" fill="#1D1D1B"/>
</g>
<path d="M95.2628 102.167C95.2772 102.278 95.2583 102.39 95.2083 102.49C95.1584 102.59 95.0798 102.673 94.9826 102.727C94.7024 102.727 94.5623 102.587 94.4222 102.307C94.2821 102.027 94.142 101.887 94.002 101.467V100.906C94.142 100.486 94.5623 100.346 94.8425 100.626C95.0349 100.828 95.174 101.074 95.2474 101.343C95.3207 101.612 95.326 101.895 95.2628 102.167Z" fill="#003450"/>
<path d="M103.529 98.8041C103.389 99.0843 103.389 99.3645 103.109 99.3645C102.828 99.3645 102.688 99.2244 102.548 99.0843L102.128 98.2437V97.6834C102.144 97.5771 102.19 97.4776 102.261 97.3968C102.332 97.316 102.425 97.2574 102.528 97.2279C102.631 97.1983 102.741 97.1992 102.844 97.2302C102.947 97.2613 103.039 97.3214 103.109 97.4032C103.392 97.8145 103.539 98.3046 103.529 98.8041Z" fill="#003450"/>
<path d="M84.4756 94.1819C88.955 95.3977 93.7005 95.2021 98.0646 93.6215C101.427 92.2206 106.19 89.5588 106.61 85.6362C106.723 84.3927 106.526 83.1407 106.037 81.9918C105.548 80.8429 104.783 79.8329 103.808 79.0519C101.946 77.4072 99.5673 76.4656 97.0839 76.3901C92.2828 76.1342 87.5244 77.4096 83.4949 80.0325C81.9744 81.0178 80.7227 82.3658 79.8525 83.9551C79.1521 85.356 78.7318 86.8971 77.8912 88.298C77.0507 89.6989 76.6304 88.7182 76.3502 88.8583C75.7811 89.269 75.304 89.7938 74.9493 90.3994C74.2798 91.6472 73.9421 93.0462 73.9686 94.462C73.7375 98.3473 74.9331 102.183 77.3309 105.249C78.0313 106.23 79.4323 108.191 80.6931 108.611C81.9539 109.032 84.1954 107.21 84.7558 105.95C85.4827 104.177 85.7245 102.243 85.4562 100.346C85.3161 98.5247 84.4756 96.0031 84.4756 94.1819Z" fill="#003450"/>
<path d="M84.896 106.652C84.896 106.652 80.2729 103.009 79.2922 106.652C79.1117 107.612 79.1992 108.604 79.5452 109.519C79.8912 110.433 80.4822 111.234 81.2535 111.835C83.2148 113.376 85.4563 112.535 87.4176 111.695L84.896 106.652Z" fill="#FFBC96"/>
<path d="M80.1333 107.492C80.343 107.256 80.603 107.071 80.894 106.95C81.185 106.828 81.4996 106.774 81.8144 106.791C82.1189 106.746 82.4298 106.773 82.7219 106.871C83.0139 106.968 83.2789 107.133 83.4955 107.351" stroke="#003450" stroke-width="0.4" stroke-linejoin="round"/>
<path d="M82.0941 106.79C81.8992 107.128 81.7851 107.506 81.7608 107.894C81.7365 108.283 81.8026 108.673 81.954 109.032" stroke="#003450" stroke-width="0.4" stroke-linejoin="round"/>
<path d="M135.33 328.837C135.33 328.837 134.069 334.861 137.151 339.624C140.233 344.387 123.702 347.049 120.76 345.648C121.619 340.748 121.901 335.764 121.601 330.798L135.33 328.837Z" fill="#F9AE8F"/>
<path d="M61.9217 364.42C61.257 368.135 61.9533 371.964 63.883 375.207C66.965 379.97 50.294 382.492 47.3521 381.091C48.2199 376.192 48.502 371.207 48.1926 366.241L61.9217 364.42Z" fill="#F9AE8F"/>
<path d="M90.2192 393C90.2511 393.589 90.1046 394.175 89.7989 394.681H46.5103C46.09 394.681 45.9499 393.84 45.9499 393C45.8992 392.943 45.8607 392.876 45.8366 392.804C45.8125 392.732 45.8034 392.655 45.8098 392.579V391.178C45.8098 389.077 45.6697 386.976 45.8098 384.874C45.9499 382.773 46.3702 379.831 46.6504 377.449L47.0707 375.068C47.2108 375.068 47.9112 373.527 48.1914 373.947C55.7564 387.536 59.679 370.865 63.4615 374.087C64.8355 375.745 66.3856 377.248 68.0846 378.57C71.5869 381.652 75.5095 382.072 80.6929 384.174C85.8763 386.275 89.7989 390.478 90.2192 392.299V393Z" fill="white"/>
<path d="M69.2054 379.411L67.2441 381.932" stroke="#003450" stroke-width="0.5" stroke-linejoin="round"/>
<path d="M71.7274 380.952L69.626 383.333" stroke="#003450" stroke-width="0.5" stroke-linejoin="round"/>
<path d="M74.5292 381.791L72.5679 384.313" stroke="#003450" stroke-width="0.5" stroke-linejoin="round"/>
<path d="M83.215 385.435C82.1202 386.093 81.1868 386.989 80.4837 388.056C79.7806 389.123 79.3257 390.333 79.1523 391.599" stroke="#003450" stroke-width="0.5" stroke-linejoin="round"/>
<path d="M90.22 392.999C90.2519 393.589 90.1054 394.175 89.7997 394.68H46.5111C46.0908 394.68 45.9507 393.84 45.9507 392.999C45.9 392.942 45.8614 392.876 45.8374 392.803C45.8133 392.731 45.8042 392.655 45.8106 392.579H90.22V392.999Z" fill="#003450"/>
<path d="M69.0664 379.83C69.0664 379.83 68.7862 372.966 71.0277 374.927C73.2692 376.888 69.0664 379.83 69.0664 379.83Z" stroke="#003450" stroke-width="0.5" stroke-linejoin="round"/>
<path d="M68.9258 379.972C68.9258 379.972 75.7903 378.851 74.1092 381.233C72.4281 383.614 68.9258 379.972 68.9258 379.972Z" stroke="#003450" stroke-width="0.5" stroke-linejoin="round"/>
<path d="M59.2593 377.169C60.748 379.617 63.0182 381.493 65.7036 382.493" stroke="#003450" stroke-width="0.5" stroke-linejoin="round"/>
<path d="M46.7905 380.251C49.4618 381.244 51.8718 382.833 53.8379 384.896C55.804 386.959 57.2746 389.443 58.138 392.159" stroke="#003450" stroke-width="0.5" stroke-linejoin="round"/>
<path d="M163.768 357.555C163.771 358.142 163.626 358.72 163.348 359.236H119.919C119.639 359.236 119.359 358.396 119.359 357.555V355.734C119.359 353.633 119.219 351.531 119.359 349.29C119.508 346.802 119.789 344.323 120.199 341.865C120.271 341.107 120.412 340.356 120.619 339.623C120.619 339.483 121.46 337.942 121.74 338.503C129.165 351.952 133.088 335.421 136.87 338.643C138.244 340.3 139.794 341.803 141.493 343.126C145.136 346.208 148.918 346.628 154.242 348.729C159.565 350.831 163.348 355.034 163.628 356.855C163.628 356.892 163.643 356.928 163.669 356.954C163.695 356.98 163.731 356.995 163.768 356.995V357.555Z" fill="white"/>
<path d="M142.615 343.966L140.653 346.488" stroke="#003450" stroke-width="0.5" stroke-linejoin="round"/>
<path d="M145.136 345.368L143.174 347.889" stroke="#003450" stroke-width="0.5" stroke-linejoin="round"/>
<path d="M147.938 346.349L145.977 348.73" stroke="#003450" stroke-width="0.5" stroke-linejoin="round"/>
<path d="M156.624 349.991C155.515 350.634 154.571 351.525 153.866 352.595C153.161 353.664 152.714 354.883 152.561 356.156" stroke="#003450" stroke-width="0.5" stroke-linejoin="round"/>
<path d="M163.768 357.556C163.771 358.143 163.626 358.721 163.347 359.237H119.919C119.639 359.237 119.358 358.397 119.358 357.556V356.996H163.768V357.556Z" fill="#003450"/>
<path d="M142.474 344.247C142.474 344.247 142.334 337.383 144.576 339.344C146.817 341.305 142.474 344.247 142.474 344.247Z" stroke="#003450" stroke-width="0.5" stroke-linejoin="round"/>
<path d="M142.475 344.526C142.475 344.526 149.199 343.405 147.658 345.787C146.117 348.169 142.475 344.526 142.475 344.526Z" stroke="#003450" stroke-width="0.5" stroke-linejoin="round"/>
<path d="M132.809 341.726C134.259 344.176 136.548 346.018 139.253 346.909" stroke="#003450" stroke-width="0.5" stroke-linejoin="round"/>
<path d="M120.2 344.808C122.91 345.733 125.357 347.298 127.332 349.371C129.308 351.445 130.754 353.964 131.547 356.715" stroke="#003450" stroke-width="0.5" stroke-linejoin="round"/>
<path d="M111.374 188.325C118.379 200.373 129.586 209.339 139.533 219.145C149.479 228.952 158.585 245.063 159.706 258.932C160.406 267.898 157.605 278.125 154.803 286.81C149.059 304.882 143.315 317.491 137.571 335.562C131.968 335.983 120.06 335.282 114.876 333.601C112.915 309.505 120.48 288.211 128.605 265.376C118.939 259.352 108.152 248.705 98.6255 242.681C88.2586 290.873 77.8918 327.017 70.8871 369.605C64.4429 372.547 52.6751 373.388 45.8105 371.286C46.3709 312.167 47.0714 248.285 67.5249 192.808C68.9258 189.306 67.8051 192.668 69.9065 189.446C82.6549 193.368 98.7656 192.668 111.374 188.325Z" fill="#004869"/>
<path d="M62.4807 231.892L61.6401 235.255" stroke="#003450" stroke-width="0.4" stroke-linejoin="round"/>
<path d="M60.1004 241.98C51.6948 281.065 49.5934 322.113 49.8736 362.039" stroke="#003450" stroke-width="0.4" stroke-linejoin="round" stroke-dasharray="4.93 4.93"/>
<path d="M50.0127 365.542V369.044" stroke="#003450" stroke-width="0.4" stroke-linejoin="round"/>
<path d="M85.177 120.518C87.8387 122.479 90.6406 125.701 94.0028 126.402C95.7453 126.79 97.5669 126.593 99.1862 125.842C100.867 125.141 101.428 123.88 102.408 122.339C107.872 124.02 114.316 125.141 117.819 129.624C120.005 132.488 121.231 135.969 121.321 139.571C121.511 143.181 121.276 146.802 120.62 150.358C118.519 163.527 120.48 183.7 117.118 196.729H116.838C102.952 200.064 88.6351 201.245 74.3898 200.231C68.0857 199.67 63.1824 199.39 62.2018 192.386C60.9639 183.05 60.776 173.605 61.6414 164.227C62.3419 154.981 64.7234 146.155 66.2645 136.909C66.9649 133.126 68.0857 129.064 70.7474 126.122C73.4092 123.18 80.2737 121.359 85.177 120.518Z" fill="#36D6A0"/>
<path d="M111.795 149.938C114.176 150.639 118.099 149.798 120.621 149.378C123.696 148.926 126.738 148.271 129.727 147.417C141.471 143.54 151.836 136.337 159.566 126.683C160.016 107.031 158.278 87.391 154.383 68.1241C149.658 69.5616 144.752 70.3164 139.813 70.3656L136.451 109.311C136.171 113.374 135.47 117.717 132.388 120.239C130.251 121.502 127.857 122.268 125.384 122.48L103.529 125.702C105.572 129.701 106.944 134.008 107.592 138.451C108.292 141.813 107.452 148.677 111.655 149.938H111.795Z" fill="#36D6A0"/>
<path d="M112.214 126.965C115.967 133.02 118.401 139.799 119.359 146.858" stroke="#003450" stroke-width="0.4" stroke-linejoin="round"/>
<path d="M136.871 118.559L142.195 123.322" stroke="#003450" stroke-width="0.4" stroke-linejoin="round"/>
<path d="M138.411 116.597H144.995" stroke="#003450" stroke-width="0.4" stroke-linejoin="round"/>
<path d="M83.6353 121.781C85.2217 124.303 87.3817 126.416 89.9394 127.945C92.5638 129.469 95.6757 129.921 98.6252 129.206C100.09 128.877 101.438 128.156 102.524 127.119C103.61 126.083 104.393 124.77 104.789 123.322" stroke="#003450" stroke-width="0.4" stroke-linejoin="round"/>
<path d="M98.0645 99.3658L100.166 102.868C100.166 103.148 100.306 103.288 100.306 103.429C100.247 103.702 100.1 103.949 99.8857 104.129H99.0451" stroke="#003450" stroke-width="0.4" stroke-linejoin="round"/>
<path d="M98.2051 106.79C98.5809 107.02 99.0081 107.153 99.4482 107.178C99.8884 107.202 100.328 107.117 100.727 106.93C101.14 106.796 101.512 106.559 101.806 106.24C102.101 105.921 102.308 105.531 102.408 105.108" stroke="#003450" stroke-width="0.4" stroke-linejoin="round"/>
<path d="M86.2969 109.172C87.6263 111.487 89.5777 113.383 91.93 114.646C94.2823 115.909 96.9414 116.488 99.6057 116.316" stroke="#003450" stroke-width="0.4" stroke-linejoin="round"/>
<path d="M102.548 236.236L105.21 238.477" stroke="#003450" stroke-width="0.4" stroke-linejoin="round"/>
<path d="M110.393 242.961L129.025 258.371" stroke="#003450" stroke-width="0.4" stroke-linejoin="round" stroke-dasharray="4.92 4.92"/>
<path d="M131.687 260.611L134.349 262.853C133.788 263.973 133.368 265.094 132.948 266.075" stroke="#003450" stroke-width="0.4" stroke-linejoin="round"/>
<path d="M130.426 272.66C124.442 289.416 120.72 306.895 119.358 324.635" stroke="#003450" stroke-width="0.4" stroke-linejoin="round" stroke-dasharray="5.06 5.06"/>
<path d="M118.939 328.136C118.939 329.257 118.799 330.378 118.799 331.639" stroke="#003450" stroke-width="0.4" stroke-linejoin="round"/>
<path d="M402.766 55.936C408.65 59.4384 411.171 66.5831 412.993 73.1674C414.814 79.7518 417.616 90.3988 419.437 99.0846C426.161 100.345 432.886 102.307 439.61 103.568C433.586 107.21 427.282 111.553 421.118 115.335C417.896 113.654 414.674 113.794 411.031 113.374C407.389 112.954 403.606 111.553 401.925 108.331C401.306 106.671 400.974 104.918 400.945 103.147L399.404 84.3749C398.703 75.1287 399.544 64.6218 402.766 55.936Z" fill="#0D5EFB"/>
<path d="M285.089 12.0874H284.109L283.688 11.8072C283.676 11.6612 283.71 11.515 283.786 11.3894C283.861 11.2637 283.974 11.1649 284.109 11.1068C285.832 10.0384 287.728 9.27975 289.712 8.86528C290.414 8.50478 291.172 8.26782 291.954 8.16482C293 8.0259 294.065 8.17107 295.036 8.5851C296.857 9.42566 294.756 9.56574 293.915 9.70584C293.075 9.84593 288.031 11.527 285.089 12.0874Z" fill="#FFBC96"/>
<g style="mix-blend-mode:overlay" opacity="0.3">
<path d="M285.089 12.0874H284.109L283.688 11.8072C283.676 11.6612 283.71 11.515 283.786 11.3894C283.861 11.2637 283.974 11.1649 284.109 11.1068C285.832 10.0384 287.728 9.27975 289.712 8.86528C290.414 8.50478 291.172 8.26782 291.954 8.16482C293 8.0259 294.065 8.17107 295.036 8.5851C296.857 9.42566 294.756 9.56574 293.915 9.70584C293.075 9.84593 288.031 11.527 285.089 12.0874Z" fill="#1D1D1B"/>
</g>
<path d="M304.282 6.06371C305.347 7.31085 306.628 8.35503 308.065 9.14575C309.277 10.1733 310.155 11.539 310.586 13.0683C310.791 13.6101 310.791 14.2077 310.586 14.7495C310.492 14.8843 310.366 14.9934 310.22 15.0668C310.073 15.1403 309.91 15.1757 309.746 15.1697C307.374 16.1646 304.875 16.8247 302.321 17.131H301.2C300.68 16.7421 300.289 16.2049 300.079 15.59C299.475 13.7325 298.298 12.1141 296.717 10.967C296.107 10.6521 295.44 10.4616 294.756 10.4066L291.393 9.70612C289.012 9.42593 286.49 9.42594 283.969 9.28584C281.447 9.14575 280.186 8.1651 282.988 7.32454L286.35 6.76417C289.432 6.34389 292.654 5.08306 295.736 5.08306C294.055 4.52269 292.234 4.52269 290.553 3.96232C288.872 3.40194 287.471 3.12176 287.891 1.72083C288.311 0.319906 288.592 1.16046 289.012 1.30055L298.398 2.56139C301.2 2.84157 302.461 3.96232 304.282 6.06371Z" fill="#FFBC96"/>
<path d="M283.547 5.92269C285.929 6.90333 288.871 8.30426 291.393 8.16417C293.914 8.02407 296.296 8.30426 296.436 7.18352C296.576 6.06278 294.054 5.92269 293.494 5.92269C290.272 5.36231 286.91 4.66186 283.547 4.24158H282.567C282.418 4.24158 282.276 4.30062 282.17 4.40571C282.065 4.5108 282.006 4.65332 282.006 4.80194C282.006 5.22222 282.567 5.50241 282.847 5.6425L283.547 5.92269Z" fill="#FFBC96"/>
<path d="M364.381 40.8055L362.7 42.4866C360.599 44.7281 358.637 47.8101 359.618 50.7521C360.599 53.694 363.4 54.9549 366.202 55.9355C368.468 56.8392 370.933 57.1292 373.347 56.7761C375.753 56.0496 377.802 54.4509 379.091 52.2931C380.663 49.5284 381.842 46.5578 382.593 43.4673C383.434 40.3852 384.274 36.8829 383.153 33.941C382.026 31.4396 379.964 29.4787 377.41 28.4773C374.748 27.4967 369.985 26.0958 368.724 29.5981C367.463 33.1004 368.444 34.0811 367.743 36.1825C367.043 38.2838 365.782 39.4046 364.381 40.8055Z" fill="#003450"/>
<path d="M394.362 30.5796C395.688 28.555 396.574 26.2735 396.96 23.8838C397.346 21.4942 397.225 19.05 396.603 16.7104C395.95 14.366 394.815 12.1834 393.272 10.302C391.728 8.42057 389.809 6.88158 387.637 5.78321C385.423 4.77104 383.025 4.22392 380.592 4.17573C378.158 4.12754 375.74 4.57928 373.488 5.50301C369.452 7.21926 366.238 10.433 364.522 14.4689C362.522 18.77 362.173 23.6563 363.541 28.198C364.016 30.4618 365.244 32.4977 367.025 33.9735C368.806 35.4492 371.035 36.2776 373.348 36.3234C380.352 37.164 390.439 36.6036 394.362 30.5796Z" fill="#003450"/>
<path d="M371.805 33.3813L374.047 50.3326L386.655 64.0616L387.916 59.1584C388.476 56.9169 390.718 54.5353 390.998 52.1538C391.278 49.7722 389.177 50.7528 388.897 50.0524C388.508 49.1413 388.18 48.2052 387.916 47.2505C387.498 45.319 387.356 43.3379 387.496 41.3666L375.307 35.0625L371.805 33.3813Z" fill="#FFBC96"/>
<path d="M394.781 29.46C394.757 30.3996 394.663 31.3361 394.501 32.2619C394.501 32.402 394.36 32.5421 394.36 32.8223C394.36 33.1024 394.22 33.3826 394.22 33.8029C393.719 36.2499 392.665 38.55 391.138 40.5274C387.636 44.59 381.612 44.5901 377.269 41.7882C372.926 38.9863 371.525 34.5034 370.965 29.8803C369.844 21.6148 373.487 14.8904 380.912 14.4701C388.336 14.0498 390.718 17.9724 390.718 17.9724C392.346 20.2219 393.578 22.733 394.36 25.3973C394.639 26.7337 394.779 28.095 394.781 29.46Z" fill="#FFBC96"/>
<path d="M387.217 42.7669C387.217 42.7669 378.111 45.1484 373.628 38.5641" stroke="#003450" stroke-width="0.4" stroke-linejoin="round"/>
<path d="M386.655 22.4548C386.515 23.2953 390.578 24.4161 390.858 23.2953C391.138 22.1746 386.935 21.4741 386.655 22.4548Z" fill="#003450"/>
<path d="M380.632 22.4548C380.912 23.2953 376.71 24.4161 376.429 23.2953C376.149 22.1746 380.352 21.4741 380.632 22.4548Z" fill="#003450"/>
<g style="mix-blend-mode:overlay" opacity="0.3">
<path d="M375.973 33.253C377.597 33.1935 378.886 32.3931 378.852 31.4652C378.818 30.5374 377.474 29.8335 375.85 29.8931C374.226 29.9526 372.938 30.753 372.972 31.6808C373.006 32.6087 374.35 33.3126 375.973 33.253Z" fill="#1D1D1B"/>
</g>
<g style="mix-blend-mode:overlay" opacity="0.3">
<path d="M394.783 29.4583C394.759 30.3979 394.665 31.3344 394.503 32.2602C394.503 32.4003 394.363 32.5404 394.363 32.8206H393.942C392.261 32.9606 391 32.1201 391 31.1394C391 30.1588 392.121 29.4583 393.802 29.3182L394.783 29.4583Z" fill="#1D1D1B"/>
</g>
<path d="M371.946 30.5796C371.946 30.5796 368.864 25.8164 366.902 28.8985C366.41 29.705 366.162 30.6365 366.187 31.5809C366.212 32.5253 366.509 33.4425 367.042 34.222C368.303 36.1833 371.385 36.1833 373.487 35.9031L371.946 30.5796Z" fill="#FFBC96"/>
<path d="M367.323 29.8798C367.898 29.631 368.539 29.5817 369.144 29.7397C369.425 29.8209 369.683 29.9637 369.901 30.1576C370.12 30.3515 370.292 30.5916 370.405 30.8605" stroke="#003450" stroke-width="0.4" stroke-linejoin="round"/>
<path d="M369.284 29.8802C369.005 30.1528 368.787 30.4805 368.642 30.8423C368.497 31.2041 368.429 31.5922 368.443 31.9816" stroke="#003450" stroke-width="0.4" stroke-linejoin="round"/>
<path d="M423.92 258.37C423.241 262.114 423.885 265.977 425.741 269.298C428.964 274.061 412.293 276.583 409.351 275.182C410.218 270.282 410.501 265.298 410.191 260.332L423.92 258.37Z" fill="#F9AE8F"/>
<path d="M452.219 287.088C452.222 287.675 452.078 288.253 451.799 288.77H408.51C408.09 288.77 407.95 287.929 407.81 287.088V285.267C407.81 283.166 407.67 281.064 407.81 278.823C407.952 276.381 408.232 273.949 408.65 271.538L409.071 269.157C409.071 269.017 409.911 267.476 410.191 268.036C417.756 281.485 421.539 264.954 425.321 268.176C426.749 269.783 428.294 271.281 429.944 272.659C433.587 275.741 437.509 276.161 442.693 278.263C447.876 280.364 451.799 284.567 452.079 286.388C452.116 286.388 452.152 286.403 452.178 286.429C452.204 286.455 452.219 286.491 452.219 286.528V287.088Z" fill="white"/>
<path d="M431.205 273.501L429.104 276.022" stroke="#003450" stroke-width="0.5" stroke-linejoin="round"/>
<path d="M433.587 275.042L431.626 277.423" stroke="#003450" stroke-width="0.5" stroke-linejoin="round"/>
<path d="M436.529 275.882L434.427 278.264" stroke="#003450" stroke-width="0.5" stroke-linejoin="round"/>
<path d="M439.331 276.863L437.37 279.245" stroke="#003450" stroke-width="0.5" stroke-linejoin="round"/>
<path d="M409.771 274.482C411.542 275.649 412.977 277.258 413.935 279.15C414.894 281.042 415.342 283.151 415.235 285.269" stroke="#003450" stroke-width="0.5" stroke-linejoin="round"/>
<path d="M445.076 279.525C443.967 280.167 443.023 281.058 442.318 282.128C441.613 283.198 441.166 284.417 441.013 285.689" stroke="#003450" stroke-width="0.5" stroke-linejoin="round"/>
<path d="M452.219 287.088C452.222 287.675 452.077 288.253 451.799 288.77H408.51C408.09 288.77 407.95 287.929 407.81 287.088V286.528H452.219V287.088Z" fill="#003450"/>
<path d="M409.069 276.163C410.473 277.21 411.593 278.591 412.327 280.182C413.061 281.772 413.386 283.521 413.272 285.269" stroke="#003450" stroke-width="0.5" stroke-linejoin="round"/>
<path d="M350.513 293.955C349.848 297.669 350.544 301.499 352.474 304.742C355.556 309.645 338.885 312.167 335.943 310.766C336.805 305.819 337.087 300.788 336.783 295.776L350.513 293.955Z" fill="#F9AE8F"/>
<path d="M378.81 322.673C378.831 323.218 378.685 323.756 378.39 324.214H335.102C334.681 324.214 334.541 323.514 334.541 322.673C334.541 321.833 334.541 322.253 334.401 322.113V320.712C334.401 318.61 334.261 316.509 334.401 314.408C334.541 312.306 334.962 309.504 335.242 306.983C335.362 306.221 335.55 305.471 335.802 304.741C335.802 304.601 336.502 303.06 336.783 303.48C344.348 317.069 348.27 300.398 352.053 303.621C353.377 305.323 354.933 306.832 356.676 308.103C360.318 311.186 364.101 311.746 369.284 313.707C374.468 315.669 378.39 320.011 378.81 321.833V322.673Z" fill="white"/>
<path d="M357.796 309.084L355.834 311.465" stroke="#003450" stroke-width="0.5" stroke-linejoin="round"/>
<path d="M360.319 310.485L358.217 313.007" stroke="#003450" stroke-width="0.5" stroke-linejoin="round"/>
<path d="M363.119 311.325L361.158 313.847" stroke="#003450" stroke-width="0.5" stroke-linejoin="round"/>
<path d="M365.923 312.307L363.962 314.828" stroke="#003450" stroke-width="0.5" stroke-linejoin="round"/>
<path d="M336.503 310.065C338.225 311.248 339.625 312.841 340.579 314.699C341.533 316.557 342.01 318.624 341.967 320.712" stroke="#003450" stroke-width="0.5" stroke-linejoin="round"/>
<path d="M371.807 314.968C370.718 315.634 369.79 316.532 369.088 317.597C368.386 318.663 367.927 319.87 367.744 321.132" stroke="#003450" stroke-width="0.5" stroke-linejoin="round"/>
<path d="M378.811 322.673C378.832 323.217 378.686 323.755 378.391 324.214H335.102C334.682 324.214 334.542 323.513 334.542 322.673C334.542 321.832 334.542 322.252 334.402 322.112H378.811V322.673Z" fill="#003450"/>
<path d="M335.804 311.606C337.193 312.69 338.292 314.103 339.001 315.717C339.71 317.33 340.008 319.095 339.866 320.852" stroke="#003450" stroke-width="0.5" stroke-linejoin="round"/>
<path d="M382.173 34.6428C382.557 35.067 383.038 35.3909 383.575 35.5862C384.112 35.7816 384.689 35.8425 385.255 35.7636C385.851 35.6417 386.406 35.3728 386.871 34.9813C387.336 34.5898 387.696 34.0881 387.917 33.5221" stroke="#003450" stroke-width="0.4" stroke-linejoin="round"/>
<path d="M383.994 26.6565L384.835 30.5791V30.9994C384.835 31.148 384.775 31.2905 384.67 31.3956C384.565 31.5007 384.423 31.5597 384.274 31.5597H383.434" stroke="#003450" stroke-width="0.4" stroke-linejoin="round"/>
<path d="M388.198 27.0771C387.918 27.2172 387.638 26.9371 387.498 26.797C387.358 26.6569 387.638 24.5555 388.618 25.2559C389.599 25.9564 389.179 27.0771 388.198 27.0771Z" fill="#003450"/>
<path d="M380.492 27.7788C380.346 27.7909 380.2 27.7568 380.075 27.6814C379.949 27.606 379.85 27.4931 379.792 27.3586C379.232 26.6581 379.932 25.1171 380.913 25.8175C381.893 26.518 381.473 27.7788 380.492 27.7788Z" fill="#003450"/>
<path d="M399.965 117.997C406.97 130.045 418.177 138.871 428.124 148.818C438.07 158.764 447.176 170.532 448.297 184.401C448.998 193.367 446.196 202.193 443.394 210.879L426.163 265.095C420.345 265.638 414.478 264.97 408.931 263.133C406.97 239.037 409.071 213.681 417.197 190.845L387.217 172.213C373.336 213.679 362.704 256.162 355.416 299.277C348.807 302.232 341.371 302.777 334.402 300.818C334.962 241.699 335.803 177.817 356.256 122.48C357.517 118.838 356.396 122.2 358.498 118.978C371.246 122.9 387.357 122.2 399.965 117.997Z" fill="#004869"/>
<path d="M364.94 123.461C345.393 179.847 336.417 239.355 338.463 298.998" stroke="#003450" stroke-width="0.4" stroke-linejoin="round"/>
<path d="M373.766 50.0526C377.812 53.2594 381.606 56.772 385.114 60.5596C387.282 57.8098 389.248 54.907 390.998 51.8738C396.601 53.5549 402.906 54.6757 406.408 59.1586C408.599 62.0832 409.868 65.5954 410.05 69.2453C410.118 72.8133 409.837 76.3793 409.21 79.8924C407.108 93.0611 403.886 105.95 400.664 118.838C387.215 122.06 370.264 124.162 356.955 120.519C355.134 111.133 355.274 100.486 353.453 90.9597C351.632 81.4334 353.593 74.2887 354.854 66.5836C355.554 62.661 356.675 58.5983 359.337 55.7964C361.998 52.9946 368.863 50.8932 373.766 50.0526Z" fill="#0D5EFB"/>
<path d="M394.362 25.3963C391.256 20.5074 386.553 16.8444 381.053 15.0295C378.279 20.0364 374.733 24.5751 370.546 28.4784C370.686 28.1982 369.846 28.0581 369.986 27.7779C368.979 26.716 368.2 25.4604 367.694 24.0877C367.188 22.7149 366.967 21.2536 367.044 19.7926C367.164 17.5846 367.952 15.465 369.303 13.7141C370.653 11.9632 372.504 10.6633 374.609 9.98615C376.691 9.33721 378.892 9.16395 381.05 9.47915C383.208 9.79436 385.267 10.59 387.077 11.8073C390.692 14.3172 393.435 17.8921 394.922 22.0341C395.196 22.6519 395.339 23.3197 395.342 23.9954C395.336 24.2997 395.239 24.5951 395.064 24.8444C394.89 25.0937 394.645 25.2858 394.362 25.3963Z" fill="#003450"/>
<path d="M363.682 13.7696C364.899 13.8026 366.09 13.4059 367.044 12.6488C368.411 11.9354 369.46 10.7358 369.986 9.28661C370.322 8.3509 370.382 7.33833 370.158 6.3696C369.934 5.40088 369.437 4.51687 368.725 3.82299C365.643 1.02114 361.72 3.12253 360.179 6.34467C358.638 9.5668 360.319 13.4894 363.682 13.7696Z" fill="#003450"/>
<path d="M369.284 51.174C356.396 51.4542 343.647 51.3141 330.899 50.6136C327.677 36.7445 319.131 22.3149 310.586 10.9674C307.223 13.0688 300.639 12.3683 296.997 13.349C301.567 30.6448 307.954 47.409 316.049 63.3621C323.054 77.2313 345.189 77.0912 360.459 74.5695C363.681 67.705 367.603 58.4588 369.284 51.174Z" fill="#0D5EFB"/>
<path d="M392.399 52.9953C392.399 52.9953 386.655 62.6617 385.254 62.6617C383.853 62.6617 372.926 51.3142 372.926 51.3142" stroke="#003450" stroke-width="0.4" stroke-linejoin="round"/>
<path d="M402.626 71.0663C405.031 82.6219 404.983 94.5535 402.486 106.089" stroke="#003450" stroke-width="0.4" stroke-linejoin="round"/>
<path d="M328.939 51.7333L325.717 54.5351L326.137 53.9748" stroke="#003450" stroke-width="0.4" stroke-linejoin="round"/>
<path d="M330.758 52.7144C329.895 54.6964 329.238 56.7619 328.797 58.8784" stroke="#003450" stroke-width="0.4" stroke-linejoin="round"/>
<path d="M388.058 169.971L392.12 156.242" stroke="#003450" stroke-width="0.4" stroke-linejoin="round"/>
<path d="M391 166.329C400.241 175.225 410.833 182.602 422.381 188.184C422.381 188.184 418.178 203.594 417.898 204.995C413.976 223.347 413.695 242.259 412.575 261.032" stroke="#003450" stroke-width="0.4" stroke-linejoin="round"/>
<path d="M373.207 206.116C370.142 207.451 367.424 209.471 365.262 212.021C363.101 214.572 361.553 217.584 360.738 220.826C359.95 224.081 359.906 227.472 360.61 230.746C361.313 234.021 362.746 237.094 364.801 239.738" stroke="#003450" stroke-width="0.4" stroke-linejoin="round"/>
<path d="M438.35 165.07C436.36 170.202 435.95 175.813 437.173 181.18C438.397 186.548 441.197 191.426 445.215 195.19" stroke="#003450" stroke-width="0.4" stroke-linejoin="round"/>
<path d="M299.378 16.9903C303.647 16.5662 307.814 15.4297 311.707 13.6281" stroke="#003450" stroke-width="0.4" stroke-linejoin="round"/>
<path d="M506.855 76.5301L461.746 129.765C461.09 130.563 460.201 131.133 459.202 131.395C458.204 131.658 457.149 131.598 456.187 131.226C455.224 130.853 454.404 130.186 453.842 129.321C453.281 128.455 453.007 127.434 453.06 126.403L453.9 109.872C333.14 186.223 166.99 237.357 21.294 244.361C15.4101 244.641 10.3668 240.579 10.0866 235.115C9.80641 229.651 9.38614 225.729 8.96586 220.966C8.82577 218.584 8.54558 216.203 8.40549 213.961C8.35851 211.349 9.29922 208.816 11.0395 206.868C12.7797 204.92 15.1912 203.701 17.7917 203.454C87.1376 194.768 182.821 182.3 250.626 166.33C318.431 150.359 383.994 127.524 442.553 92.6407L443.814 92.0804L431.065 83.955C430.225 83.4034 429.575 82.6072 429.203 81.6741C428.831 80.741 428.754 79.716 428.983 78.7378C429.212 77.7596 429.737 76.8754 430.485 76.2049C431.233 75.5345 432.169 75.11 433.167 74.9891L501.672 68.6849H502.653C503.587 68.6302 504.517 68.844 505.334 69.3011C506.15 69.7582 506.819 70.4394 507.261 71.2643C507.703 72.0893 507.9 73.0234 507.828 73.9565C507.756 74.8896 507.418 75.7826 506.855 76.5301Z" fill="white"/>
<path d="M446.335 111.554C446.37 109.816 445.882 108.108 444.934 106.651C444.654 106.37 444.374 106.09 444.094 106.23C443.814 106.37 443.814 106.651 443.814 106.931C443.932 108.201 444.119 109.463 444.374 110.713C444.491 111.595 444.537 112.485 444.514 113.375C443.714 111.448 442.628 109.654 441.292 108.051C441.012 107.771 440.451 107.351 440.031 107.631C439.899 107.81 439.816 108.021 439.791 108.243C439.766 108.464 439.801 108.688 439.891 108.892C440.474 110.734 441.323 112.48 442.413 114.075C441.233 112.483 439.698 111.188 437.93 110.293C437.51 110.013 436.809 109.873 436.529 110.293C436.483 110.489 436.484 110.692 436.533 110.887C436.582 111.082 436.676 111.263 436.809 111.414C437.875 112.852 439.096 114.167 440.451 115.336C439.432 114.625 438.293 114.103 437.089 113.795C436.787 113.681 436.455 113.674 436.149 113.776C435.843 113.878 435.581 114.083 435.408 114.356C435.268 114.776 435.828 115.336 436.249 115.616C437.303 116.455 438.485 117.117 439.751 117.578C440.622 117.777 441.527 117.779 442.399 117.585C443.271 117.392 444.089 117.006 444.794 116.457C445.424 115.822 445.892 115.045 446.16 114.192C446.428 113.339 446.488 112.435 446.335 111.554Z" fill="#FFAB87"/>
<path d="M450.538 109.592C450.678 109.312 450.818 109.032 450.538 109.032H450.258L448.297 110.293C446.677 111.432 445.453 113.048 444.794 114.916C444.683 115.08 444.633 115.279 444.654 115.476C444.64 115.587 444.659 115.699 444.709 115.799C444.758 115.899 444.837 115.981 444.934 116.036C445.214 116.176 445.495 115.896 445.775 115.616C446.737 114.606 447.627 113.529 448.437 112.394C449.045 111.395 449.749 110.456 450.538 109.592Z" fill="#FFAB87"/>
<path d="M67.665 225.168C70.5689 227.117 73.0864 229.587 75.09 232.453C76.0706 233.854 76.631 235.395 77.4715 236.796C78.3348 238.44 79.3678 239.99 80.5536 241.419C81.0356 242.179 81.5993 242.883 82.2347 243.52C82.9592 244.338 83.7563 245.088 84.6163 245.762C84.8318 246.005 85.1329 246.156 85.4568 246.182C85.8771 246.322 86.2974 246.042 86.2974 245.762C86.2974 245.482 86.2974 245.342 86.1573 245.061C86.0172 244.781 84.3361 241.559 83.3554 240.018C85.1299 242.442 87.368 244.49 89.9398 246.042C90.2822 246.229 90.6827 246.279 91.0605 246.182C91.2321 245.988 91.3311 245.741 91.3407 245.482L90.9204 244.921L86.4375 238.757C88.7132 241.125 91.1983 243.282 93.8624 245.202C94.2827 245.482 94.9831 245.622 95.2633 245.202C95.3047 245.06 95.3136 244.911 95.2893 244.765C95.2651 244.62 95.2083 244.482 95.1232 244.361C93.5191 241.83 91.5878 239.522 89.3794 237.496C89.3794 237.356 89.2393 237.216 89.2393 237.076C89.2393 237.002 89.2689 236.931 89.3214 236.878C89.3739 236.826 89.4452 236.796 89.5195 236.796H90.0799C91.8441 237.796 93.6689 238.685 95.5435 239.458C95.9638 239.598 96.5241 239.738 96.8043 239.458C97.0845 239.178 96.8043 238.617 96.384 238.337C95.9638 238.057 91.761 234.414 89.2393 232.593C86.7177 230.772 87.9785 230.912 88.9591 230.072L90.3601 229.511C90.7803 229.371 95.1232 228.531 95.1232 227.97C95.1232 227.41 93.302 227.27 92.8817 227.27L90.0799 226.989C87.4774 226.759 84.9501 225.996 82.655 224.748C80.3664 223.415 78.4417 221.538 77.0513 219.284L76.631 218.444C73.0006 219.67 69.8585 222.026 67.665 225.168Z" fill="#FFAB87"/>
<path d="M72.8483 231.473C63.7155 223.356 56.1635 213.619 50.5736 202.754C45.11 192.808 39.5063 181.04 42.168 169.412C43.5689 162.828 46.9312 156.804 50.4335 151.06C54.8779 143.407 60.0881 136.226 65.9838 129.626C70.6068 124.583 78.8723 127.384 81.1138 133.829C83.3553 140.273 81.6742 143.215 80.2732 147.698C76.9016 158.341 71.2074 168.103 63.6022 176.277C71.1672 190.286 76.0705 207.798 80.8336 222.928C78.5921 225.169 75.2299 229.372 72.8483 231.473Z" fill="#36D6A0"/>
<path d="M78.5922 138.03C79.2477 144.78 78.4626 151.592 76.2891 158.016C74.1156 164.44 70.6031 170.329 65.9839 175.294L70.4668 190.424" stroke="#003450" stroke-width="0.4" stroke-linejoin="round"/>
<path d="M71.167 228.39L79.0122 220.965" stroke="#003450" stroke-width="0.4" stroke-linejoin="round"/>
<defs>
<linearGradient id="paint0_linear_176_1638" x1="397.724" y1="417.416" x2="513.886" y2="420.44" gradientUnits="userSpaceOnUse">
<stop stop-color="#F5FFF6"/>
<stop offset="0.495563" stop-color="#CDFDCC"/>
<stop offset="1" stop-color="#F5FFF6"/>
</linearGradient>
<linearGradient id="paint1_linear_176_1638" x1="132.528" y1="446.879" x2="248.916" y2="445.668" gradientUnits="userSpaceOnUse">
<stop stop-color="#E4EAFF"/>
<stop offset="0.495563" stop-color="#B4D0F9" stop-opacity="0.9"/>
<stop offset="1" stop-color="#E4EAFF"/>
</linearGradient>
<linearGradient id="paint2_linear_176_1638" x1="1.19547e-06" y1="461.613" x2="115.953" y2="467.391" gradientUnits="userSpaceOnUse">
<stop stop-color="#F5FFF6"/>
<stop offset="0.495563" stop-color="#CDFDCC"/>
<stop offset="1" stop-color="#F5FFF6"/>
</linearGradient>
<linearGradient id="paint3_linear_176_1638" x1="265.196" y1="432.089" x2="381.588" y2="431.109" gradientUnits="userSpaceOnUse">
<stop stop-color="#E4FFFF"/>
<stop offset="0.495563" stop-color="#BDF2E9"/>
<stop offset="1" stop-color="#E4FFFF"/>
</linearGradient>
</defs>
</svg>
