<svg width="165" height="178" viewBox="0 0 165 178" fill="none" xmlns="http://www.w3.org/2000/svg">
<mask id="path-1-inside-1_176_1120" fill="white">
<path fill-rule="evenodd" clip-rule="evenodd" d="M117.907 1.101C112.456 2.23028 109.323 7.53595 111.103 12.621C112.061 15.3552 114.578 17.5545 117.549 18.2528C118.705 18.5245 120.576 18.5491 121.614 18.3063C123.352 17.8995 124.767 17.1612 125.971 16.032C127.797 14.3189 128.749 12.1601 128.749 9.73156C128.749 5.53955 125.777 1.99717 121.538 1.13697C120.449 0.915821 118.876 0.900305 117.907 1.101ZM139.233 19.2256C136.471 19.8001 134.295 21.7927 133.544 24.4354C133.243 25.4953 133.245 27.0012 133.55 28.0757C134.113 30.0564 135.525 31.7386 137.341 32.5923C138.72 33.2409 139.49 33.3952 141.043 33.3344C142.052 33.2949 142.452 33.2335 143.065 33.0245C145.292 32.2642 146.976 30.62 147.732 28.468C148.126 27.3477 148.193 25.7299 147.892 24.5812C147.249 22.1247 145.445 20.2295 143.017 19.4594C142.346 19.2466 141.969 19.1945 140.92 19.1701C140.217 19.1538 139.458 19.1787 139.233 19.2256ZM81.8533 27.2025C80.9382 27.2812 79.2286 27.5498 78.1325 27.7871C72.7291 28.9566 67.9976 31.4819 63.9953 35.3325C61.5861 37.6505 59.947 39.8331 58.5015 42.6482C58.069 43.4906 57.7107 44.1915 57.7052 44.2059C57.6998 44.2202 57.4323 44.1194 57.1106 43.9819C56.2248 43.6035 54.2097 42.972 53.1966 42.7553C46.8874 41.4063 40.6281 42.4658 35.2645 45.7905C33.332 46.9884 31.133 48.9044 29.7415 50.603C27.3986 53.4627 25.7538 56.8829 25.0574 60.3434L24.7868 61.6879L23.6278 61.8047C18.9415 62.2766 14.2219 64.0783 10.4907 66.8196C9.78135 67.3407 7.81878 68.998 7.49261 69.3513C5.6085 71.3919 4.91984 72.2524 3.90819 73.8299C-0.419614 80.5783 -1.20646 89.1303 1.81471 96.5848C2.71877 98.8156 4.25216 101.363 5.87013 103.322C6.74699 104.383 8.66475 106.234 9.79659 107.112C12.6504 109.324 16.2316 111.077 19.7178 111.968C20.9938 112.294 22.7481 112.581 24.2693 112.71C25.1208 112.783 42.5502 112.807 81.1885 112.787L136.88 112.759L138.293 112.485C146.287 110.938 152.69 105.551 155.174 98.282C155.985 95.9102 156.262 94.1957 156.262 91.5625C156.262 88.923 155.981 87.1798 155.176 84.8429C152.545 77.2057 145.436 71.5139 137.278 70.514L136.244 70.3872L136.187 68.6969C136.094 65.9863 135.561 63.6308 134.485 61.1721C133.287 58.4372 131.13 55.5573 128.881 53.6926C128.043 52.9973 126.158 51.6405 126.031 51.6405C125.996 51.6405 125.661 51.912 125.287 52.2437C123.327 53.9813 120.595 55.2957 117.668 55.9099C116.257 56.206 112.809 56.2336 111.464 55.9596C107.075 55.0659 103.582 52.893 101.067 49.4925C97.4348 44.58 97.0747 37.8569 100.164 32.6202C100.416 32.193 100.621 31.8177 100.621 31.7862C100.619 31.6729 98.2594 30.3762 97.0247 29.81C94.1135 28.4751 91.1267 27.6523 87.8373 27.2789C86.677 27.1473 83.0348 27.1007 81.8533 27.2025ZM112.777 29.8556C108.449 30.507 104.884 33.6083 103.796 37.6684C102.798 41.3969 103.923 45.2993 106.776 48.0024C110.622 51.6454 116.679 52.027 121.03 48.9004C126.453 45.0031 126.972 37.2255 122.108 32.7363C119.563 30.3868 116.182 29.3431 112.777 29.8556ZM60.988 65.192C58.565 65.4877 56.2294 66.5304 54.8909 67.9141C52.2505 70.6436 51.0543 74.9493 51.5332 80.0009C52.0799 85.768 54.8776 89.4431 59.5822 90.5741C62.1008 91.1797 65.3122 90.9789 67.5018 90.0791C69.8963 89.095 71.7864 87.1016 72.6922 84.6052C73.0169 83.7105 73.3669 82.0581 73.2787 81.8363C73.2437 81.7482 72.4246 81.6756 70.331 81.5752C68.7364 81.4987 67.3857 81.4356 67.3294 81.435C67.2732 81.4343 67.1547 81.7895 67.0663 82.2243C66.6533 84.2547 65.8611 85.5196 64.6417 86.0959C63.9595 86.4184 62.5746 86.5288 61.7784 86.3242C60.2308 85.9265 59.2188 84.6851 58.7833 82.6504C58.2253 80.0437 58.34 74.9176 59.003 72.8243C59.4852 71.3018 60.3697 70.2465 61.5253 69.8148C62.3546 69.5051 63.6196 69.5086 64.4624 69.823C65.2164 70.1043 65.9861 70.8246 66.3845 71.6215C66.7035 72.2597 67.0238 73.5025 67.1247 74.4938L67.1927 75.1628L67.8237 75.1066C68.1706 75.0758 69.5039 74.9911 70.7866 74.9186C72.0692 74.846 73.1452 74.7609 73.1777 74.7295C73.2899 74.621 72.7853 72.0602 72.4753 71.1651C71.2667 67.6755 68.7814 65.7189 64.9258 65.2219C63.7431 65.0694 62.0948 65.0569 60.988 65.192ZM85.4843 65.147C84.7818 65.2173 83.4798 65.4888 82.8761 65.691C79.0796 66.9629 76.9882 69.9216 76.3265 74.9568C76.0883 76.7686 76.1589 80.3182 76.4661 81.9792C77.1092 85.4569 78.5852 87.9016 80.9375 89.3853C81.8945 89.9888 82.9828 90.4001 84.367 90.6814C85.8253 90.9778 88.3386 90.9833 89.8343 90.6935C93.7201 89.9405 96.1193 87.7243 97.296 83.8012C98.2925 80.479 98.2894 75.5741 97.2886 72.2179C95.883 67.5044 92.2625 65.0183 86.9162 65.0957C86.3255 65.1042 85.6811 65.1273 85.4843 65.147ZM86.1062 69.6772C84.4514 70.1253 83.7275 71.2523 83.3153 74.0225C83.105 75.4359 83.1377 80.8448 83.3651 82.2383C83.7298 84.4738 84.3049 85.5127 85.5354 86.1596C85.8852 86.3434 86.1077 86.3746 87.0696 86.3746C88.0948 86.3746 88.2412 86.3509 88.7187 86.1075C90.4631 85.2186 91.032 83.22 91.0336 77.9752C91.0352 72.7285 90.4172 70.6616 88.6076 69.8611C87.9185 69.5564 86.8444 69.4774 86.1062 69.6772ZM103.946 79.2617C103.327 79.3387 102.499 79.4592 102.105 79.5296L101.389 79.6575L101.167 81.0891C101.046 81.8766 100.914 82.7727 100.874 83.0807L100.802 83.6407L101.933 83.3566C105.288 82.5142 107.473 82.9697 107.474 84.5117C107.475 85.2211 106.746 86.3392 104.868 88.5093C103.645 89.9221 101.484 92.1986 100.649 92.9524L99.957 93.5783L99.8922 95.3619C99.8565 96.3429 99.8387 97.1581 99.8526 97.1733C99.8954 97.2202 112.301 97.195 112.38 97.1478C112.421 97.1234 112.486 96.5455 112.523 95.8636C112.561 95.1817 112.62 94.3666 112.654 94.0522L112.716 93.4805L109.558 93.5208L106.401 93.5611L107.118 92.8336C110.546 89.3588 112.647 86.4655 113.139 84.5402C113.552 82.9235 113.159 81.5623 111.979 80.522C111.504 80.103 110.441 79.5658 109.674 79.357C108.821 79.125 105.49 79.0695 103.946 79.2617ZM164.799 113.704C164.694 113.868 164.788 113.891 164.935 113.737C165.007 113.661 165.022 113.599 164.966 113.599C164.911 113.599 164.836 113.646 164.799 113.704ZM164.298 114.36C164.243 114.501 164.254 114.512 164.355 114.416C164.425 114.348 164.457 114.269 164.425 114.238C164.394 114.208 164.336 114.263 164.298 114.36ZM52.243 127.975V138.896H49.1295C47.417 138.896 45.994 138.93 45.9671 138.972C45.9403 139.014 46.0052 139.248 46.1113 139.491C46.2175 139.734 47.8429 143.713 49.7233 148.333C54.3935 159.806 54.9106 161.072 54.9424 161.102C54.9576 161.117 55.2738 160.384 55.6453 159.474C56.5604 157.231 58.5901 152.254 61.5185 145.072C62.2276 143.333 63.0725 141.265 63.3961 140.477C63.7199 139.689 63.9636 139.011 63.9378 138.97C63.912 138.929 62.513 138.896 60.829 138.896H57.7671L57.741 128.001L57.7151 117.107L54.9791 117.08L52.243 117.054V127.975ZM77.0645 121.272C77.0263 121.309 76.995 127.624 76.995 135.305V149.271H73.006C70.2844 149.271 69.0171 149.304 69.0171 149.375C69.0171 149.465 70.0868 152.113 74.2056 162.216C74.6819 163.385 75.4513 165.275 75.9155 166.416C79.4492 175.106 80.5325 177.708 80.5922 177.65C80.6586 177.585 81.6275 175.225 87.1719 161.624C88.3159 158.817 89.3001 156.404 90.9518 152.356C91.6012 150.765 92.1325 149.42 92.1325 149.367C92.1325 149.307 90.6496 149.271 88.1439 149.271H84.1553L84.1293 135.264L84.1035 121.257L80.6188 121.231C78.7021 121.217 77.1027 121.235 77.0645 121.272Z"/>
<path d="M52.243 138.896V127.975V117.054L54.9791 117.08L57.7151 117.107L57.741 128.001L57.7671 138.896H60.829C62.513 138.896 63.912 138.929 63.9378 138.97C63.9636 139.011 63.7199 139.689 63.3961 140.477C63.0725 141.265 62.2276 143.333 61.5185 145.072C58.5901 152.254 56.5604 157.231 55.6453 159.474C55.2738 160.384 54.9576 161.117 54.9424 161.102C54.9106 161.072 54.3935 159.806 49.7233 148.333C47.8429 143.713 46.2175 139.734 46.1113 139.491C46.0052 139.248 45.9403 139.014 45.9671 138.972C45.994 138.93 47.417 138.896 49.1295 138.896H52.243Z"/>
</mask>
<path fill-rule="evenodd" clip-rule="evenodd" d="M117.907 1.101C112.456 2.23028 109.323 7.53595 111.103 12.621C112.061 15.3552 114.578 17.5545 117.549 18.2528C118.705 18.5245 120.576 18.5491 121.614 18.3063C123.352 17.8995 124.767 17.1612 125.971 16.032C127.797 14.3189 128.749 12.1601 128.749 9.73156C128.749 5.53955 125.777 1.99717 121.538 1.13697C120.449 0.915821 118.876 0.900305 117.907 1.101ZM139.233 19.2256C136.471 19.8001 134.295 21.7927 133.544 24.4354C133.243 25.4953 133.245 27.0012 133.55 28.0757C134.113 30.0564 135.525 31.7386 137.341 32.5923C138.72 33.2409 139.49 33.3952 141.043 33.3344C142.052 33.2949 142.452 33.2335 143.065 33.0245C145.292 32.2642 146.976 30.62 147.732 28.468C148.126 27.3477 148.193 25.7299 147.892 24.5812C147.249 22.1247 145.445 20.2295 143.017 19.4594C142.346 19.2466 141.969 19.1945 140.92 19.1701C140.217 19.1538 139.458 19.1787 139.233 19.2256ZM81.8533 27.2025C80.9382 27.2812 79.2286 27.5498 78.1325 27.7871C72.7291 28.9566 67.9976 31.4819 63.9953 35.3325C61.5861 37.6505 59.947 39.8331 58.5015 42.6482C58.069 43.4906 57.7107 44.1915 57.7052 44.2059C57.6998 44.2202 57.4323 44.1194 57.1106 43.9819C56.2248 43.6035 54.2097 42.972 53.1966 42.7553C46.8874 41.4063 40.6281 42.4658 35.2645 45.7905C33.332 46.9884 31.133 48.9044 29.7415 50.603C27.3986 53.4627 25.7538 56.8829 25.0574 60.3434L24.7868 61.6879L23.6278 61.8047C18.9415 62.2766 14.2219 64.0783 10.4907 66.8196C9.78135 67.3407 7.81878 68.998 7.49261 69.3513C5.6085 71.3919 4.91984 72.2524 3.90819 73.8299C-0.419614 80.5783 -1.20646 89.1303 1.81471 96.5848C2.71877 98.8156 4.25216 101.363 5.87013 103.322C6.74699 104.383 8.66475 106.234 9.79659 107.112C12.6504 109.324 16.2316 111.077 19.7178 111.968C20.9938 112.294 22.7481 112.581 24.2693 112.71C25.1208 112.783 42.5502 112.807 81.1885 112.787L136.88 112.759L138.293 112.485C146.287 110.938 152.69 105.551 155.174 98.282C155.985 95.9102 156.262 94.1957 156.262 91.5625C156.262 88.923 155.981 87.1798 155.176 84.8429C152.545 77.2057 145.436 71.5139 137.278 70.514L136.244 70.3872L136.187 68.6969C136.094 65.9863 135.561 63.6308 134.485 61.1721C133.287 58.4372 131.13 55.5573 128.881 53.6926C128.043 52.9973 126.158 51.6405 126.031 51.6405C125.996 51.6405 125.661 51.912 125.287 52.2437C123.327 53.9813 120.595 55.2957 117.668 55.9099C116.257 56.206 112.809 56.2336 111.464 55.9596C107.075 55.0659 103.582 52.893 101.067 49.4925C97.4348 44.58 97.0747 37.8569 100.164 32.6202C100.416 32.193 100.621 31.8177 100.621 31.7862C100.619 31.6729 98.2594 30.3762 97.0247 29.81C94.1135 28.4751 91.1267 27.6523 87.8373 27.2789C86.677 27.1473 83.0348 27.1007 81.8533 27.2025ZM112.777 29.8556C108.449 30.507 104.884 33.6083 103.796 37.6684C102.798 41.3969 103.923 45.2993 106.776 48.0024C110.622 51.6454 116.679 52.027 121.03 48.9004C126.453 45.0031 126.972 37.2255 122.108 32.7363C119.563 30.3868 116.182 29.3431 112.777 29.8556ZM60.988 65.192C58.565 65.4877 56.2294 66.5304 54.8909 67.9141C52.2505 70.6436 51.0543 74.9493 51.5332 80.0009C52.0799 85.768 54.8776 89.4431 59.5822 90.5741C62.1008 91.1797 65.3122 90.9789 67.5018 90.0791C69.8963 89.095 71.7864 87.1016 72.6922 84.6052C73.0169 83.7105 73.3669 82.0581 73.2787 81.8363C73.2437 81.7482 72.4246 81.6756 70.331 81.5752C68.7364 81.4987 67.3857 81.4356 67.3294 81.435C67.2732 81.4343 67.1547 81.7895 67.0663 82.2243C66.6533 84.2547 65.8611 85.5196 64.6417 86.0959C63.9595 86.4184 62.5746 86.5288 61.7784 86.3242C60.2308 85.9265 59.2188 84.6851 58.7833 82.6504C58.2253 80.0437 58.34 74.9176 59.003 72.8243C59.4852 71.3018 60.3697 70.2465 61.5253 69.8148C62.3546 69.5051 63.6196 69.5086 64.4624 69.823C65.2164 70.1043 65.9861 70.8246 66.3845 71.6215C66.7035 72.2597 67.0238 73.5025 67.1247 74.4938L67.1927 75.1628L67.8237 75.1066C68.1706 75.0758 69.5039 74.9911 70.7866 74.9186C72.0692 74.846 73.1452 74.7609 73.1777 74.7295C73.2899 74.621 72.7853 72.0602 72.4753 71.1651C71.2667 67.6755 68.7814 65.7189 64.9258 65.2219C63.7431 65.0694 62.0948 65.0569 60.988 65.192ZM85.4843 65.147C84.7818 65.2173 83.4798 65.4888 82.8761 65.691C79.0796 66.9629 76.9882 69.9216 76.3265 74.9568C76.0883 76.7686 76.1589 80.3182 76.4661 81.9792C77.1092 85.4569 78.5852 87.9016 80.9375 89.3853C81.8945 89.9888 82.9828 90.4001 84.367 90.6814C85.8253 90.9778 88.3386 90.9833 89.8343 90.6935C93.7201 89.9405 96.1193 87.7243 97.296 83.8012C98.2925 80.479 98.2894 75.5741 97.2886 72.2179C95.883 67.5044 92.2625 65.0183 86.9162 65.0957C86.3255 65.1042 85.6811 65.1273 85.4843 65.147ZM86.1062 69.6772C84.4514 70.1253 83.7275 71.2523 83.3153 74.0225C83.105 75.4359 83.1377 80.8448 83.3651 82.2383C83.7298 84.4738 84.3049 85.5127 85.5354 86.1596C85.8852 86.3434 86.1077 86.3746 87.0696 86.3746C88.0948 86.3746 88.2412 86.3509 88.7187 86.1075C90.4631 85.2186 91.032 83.22 91.0336 77.9752C91.0352 72.7285 90.4172 70.6616 88.6076 69.8611C87.9185 69.5564 86.8444 69.4774 86.1062 69.6772ZM103.946 79.2617C103.327 79.3387 102.499 79.4592 102.105 79.5296L101.389 79.6575L101.167 81.0891C101.046 81.8766 100.914 82.7727 100.874 83.0807L100.802 83.6407L101.933 83.3566C105.288 82.5142 107.473 82.9697 107.474 84.5117C107.475 85.2211 106.746 86.3392 104.868 88.5093C103.645 89.9221 101.484 92.1986 100.649 92.9524L99.957 93.5783L99.8922 95.3619C99.8565 96.3429 99.8387 97.1581 99.8526 97.1733C99.8954 97.2202 112.301 97.195 112.38 97.1478C112.421 97.1234 112.486 96.5455 112.523 95.8636C112.561 95.1817 112.62 94.3666 112.654 94.0522L112.716 93.4805L109.558 93.5208L106.401 93.5611L107.118 92.8336C110.546 89.3588 112.647 86.4655 113.139 84.5402C113.552 82.9235 113.159 81.5623 111.979 80.522C111.504 80.103 110.441 79.5658 109.674 79.357C108.821 79.125 105.49 79.0695 103.946 79.2617ZM164.799 113.704C164.694 113.868 164.788 113.891 164.935 113.737C165.007 113.661 165.022 113.599 164.966 113.599C164.911 113.599 164.836 113.646 164.799 113.704ZM164.298 114.36C164.243 114.501 164.254 114.512 164.355 114.416C164.425 114.348 164.457 114.269 164.425 114.238C164.394 114.208 164.336 114.263 164.298 114.36ZM52.243 127.975V138.896H49.1295C47.417 138.896 45.994 138.93 45.9671 138.972C45.9403 139.014 46.0052 139.248 46.1113 139.491C46.2175 139.734 47.8429 143.713 49.7233 148.333C54.3935 159.806 54.9106 161.072 54.9424 161.102C54.9576 161.117 55.2738 160.384 55.6453 159.474C56.5604 157.231 58.5901 152.254 61.5185 145.072C62.2276 143.333 63.0725 141.265 63.3961 140.477C63.7199 139.689 63.9636 139.011 63.9378 138.97C63.912 138.929 62.513 138.896 60.829 138.896H57.7671L57.741 128.001L57.7151 117.107L54.9791 117.08L52.243 117.054V127.975ZM77.0645 121.272C77.0263 121.309 76.995 127.624 76.995 135.305V149.271H73.006C70.2844 149.271 69.0171 149.304 69.0171 149.375C69.0171 149.465 70.0868 152.113 74.2056 162.216C74.6819 163.385 75.4513 165.275 75.9155 166.416C79.4492 175.106 80.5325 177.708 80.5922 177.65C80.6586 177.585 81.6275 175.225 87.1719 161.624C88.3159 158.817 89.3001 156.404 90.9518 152.356C91.6012 150.765 92.1325 149.42 92.1325 149.367C92.1325 149.307 90.6496 149.271 88.1439 149.271H84.1553L84.1293 135.264L84.1035 121.257L80.6188 121.231C78.7021 121.217 77.1027 121.235 77.0645 121.272Z" fill="white"/>
<path d="M52.243 138.896V127.975V117.054L54.9791 117.08L57.7151 117.107L57.741 128.001L57.7671 138.896H60.829C62.513 138.896 63.912 138.929 63.9378 138.97C63.9636 139.011 63.7199 139.689 63.3961 140.477C63.0725 141.265 62.2276 143.333 61.5185 145.072C58.5901 152.254 56.5604 157.231 55.6453 159.474C55.2738 160.384 54.9576 161.117 54.9424 161.102C54.9106 161.072 54.3935 159.806 49.7233 148.333C47.8429 143.713 46.2175 139.734 46.1113 139.491C46.0052 139.248 45.9403 139.014 45.9671 138.972C45.994 138.93 47.417 138.896 49.1295 138.896H52.243Z" fill="white"/>
<path fill-rule="evenodd" clip-rule="evenodd" d="M117.907 1.101C112.456 2.23028 109.323 7.53595 111.103 12.621C112.061 15.3552 114.578 17.5545 117.549 18.2528C118.705 18.5245 120.576 18.5491 121.614 18.3063C123.352 17.8995 124.767 17.1612 125.971 16.032C127.797 14.3189 128.749 12.1601 128.749 9.73156C128.749 5.53955 125.777 1.99717 121.538 1.13697C120.449 0.915821 118.876 0.900305 117.907 1.101ZM139.233 19.2256C136.471 19.8001 134.295 21.7927 133.544 24.4354C133.243 25.4953 133.245 27.0012 133.55 28.0757C134.113 30.0564 135.525 31.7386 137.341 32.5923C138.72 33.2409 139.49 33.3952 141.043 33.3344C142.052 33.2949 142.452 33.2335 143.065 33.0245C145.292 32.2642 146.976 30.62 147.732 28.468C148.126 27.3477 148.193 25.7299 147.892 24.5812C147.249 22.1247 145.445 20.2295 143.017 19.4594C142.346 19.2466 141.969 19.1945 140.92 19.1701C140.217 19.1538 139.458 19.1787 139.233 19.2256ZM81.8533 27.2025C80.9382 27.2812 79.2286 27.5498 78.1325 27.7871C72.7291 28.9566 67.9976 31.4819 63.9953 35.3325C61.5861 37.6505 59.947 39.8331 58.5015 42.6482C58.069 43.4906 57.7107 44.1915 57.7052 44.2059C57.6998 44.2202 57.4323 44.1194 57.1106 43.9819C56.2248 43.6035 54.2097 42.972 53.1966 42.7553C46.8874 41.4063 40.6281 42.4658 35.2645 45.7905C33.332 46.9884 31.133 48.9044 29.7415 50.603C27.3986 53.4627 25.7538 56.8829 25.0574 60.3434L24.7868 61.6879L23.6278 61.8047C18.9415 62.2766 14.2219 64.0783 10.4907 66.8196C9.78135 67.3407 7.81878 68.998 7.49261 69.3513C5.6085 71.3919 4.91984 72.2524 3.90819 73.8299C-0.419614 80.5783 -1.20646 89.1303 1.81471 96.5848C2.71877 98.8156 4.25216 101.363 5.87013 103.322C6.74699 104.383 8.66475 106.234 9.79659 107.112C12.6504 109.324 16.2316 111.077 19.7178 111.968C20.9938 112.294 22.7481 112.581 24.2693 112.71C25.1208 112.783 42.5502 112.807 81.1885 112.787L136.88 112.759L138.293 112.485C146.287 110.938 152.69 105.551 155.174 98.282C155.985 95.9102 156.262 94.1957 156.262 91.5625C156.262 88.923 155.981 87.1798 155.176 84.8429C152.545 77.2057 145.436 71.5139 137.278 70.514L136.244 70.3872L136.187 68.6969C136.094 65.9863 135.561 63.6308 134.485 61.1721C133.287 58.4372 131.13 55.5573 128.881 53.6926C128.043 52.9973 126.158 51.6405 126.031 51.6405C125.996 51.6405 125.661 51.912 125.287 52.2437C123.327 53.9813 120.595 55.2957 117.668 55.9099C116.257 56.206 112.809 56.2336 111.464 55.9596C107.075 55.0659 103.582 52.893 101.067 49.4925C97.4348 44.58 97.0747 37.8569 100.164 32.6202C100.416 32.193 100.621 31.8177 100.621 31.7862C100.619 31.6729 98.2594 30.3762 97.0247 29.81C94.1135 28.4751 91.1267 27.6523 87.8373 27.2789C86.677 27.1473 83.0348 27.1007 81.8533 27.2025ZM112.777 29.8556C108.449 30.507 104.884 33.6083 103.796 37.6684C102.798 41.3969 103.923 45.2993 106.776 48.0024C110.622 51.6454 116.679 52.027 121.03 48.9004C126.453 45.0031 126.972 37.2255 122.108 32.7363C119.563 30.3868 116.182 29.3431 112.777 29.8556ZM60.988 65.192C58.565 65.4877 56.2294 66.5304 54.8909 67.9141C52.2505 70.6436 51.0543 74.9493 51.5332 80.0009C52.0799 85.768 54.8776 89.4431 59.5822 90.5741C62.1008 91.1797 65.3122 90.9789 67.5018 90.0791C69.8963 89.095 71.7864 87.1016 72.6922 84.6052C73.0169 83.7105 73.3669 82.0581 73.2787 81.8363C73.2437 81.7482 72.4246 81.6756 70.331 81.5752C68.7364 81.4987 67.3857 81.4356 67.3294 81.435C67.2732 81.4343 67.1547 81.7895 67.0663 82.2243C66.6533 84.2547 65.8611 85.5196 64.6417 86.0959C63.9595 86.4184 62.5746 86.5288 61.7784 86.3242C60.2308 85.9265 59.2188 84.6851 58.7833 82.6504C58.2253 80.0437 58.34 74.9176 59.003 72.8243C59.4852 71.3018 60.3697 70.2465 61.5253 69.8148C62.3546 69.5051 63.6196 69.5086 64.4624 69.823C65.2164 70.1043 65.9861 70.8246 66.3845 71.6215C66.7035 72.2597 67.0238 73.5025 67.1247 74.4938L67.1927 75.1628L67.8237 75.1066C68.1706 75.0758 69.5039 74.9911 70.7866 74.9186C72.0692 74.846 73.1452 74.7609 73.1777 74.7295C73.2899 74.621 72.7853 72.0602 72.4753 71.1651C71.2667 67.6755 68.7814 65.7189 64.9258 65.2219C63.7431 65.0694 62.0948 65.0569 60.988 65.192ZM85.4843 65.147C84.7818 65.2173 83.4798 65.4888 82.8761 65.691C79.0796 66.9629 76.9882 69.9216 76.3265 74.9568C76.0883 76.7686 76.1589 80.3182 76.4661 81.9792C77.1092 85.4569 78.5852 87.9016 80.9375 89.3853C81.8945 89.9888 82.9828 90.4001 84.367 90.6814C85.8253 90.9778 88.3386 90.9833 89.8343 90.6935C93.7201 89.9405 96.1193 87.7243 97.296 83.8012C98.2925 80.479 98.2894 75.5741 97.2886 72.2179C95.883 67.5044 92.2625 65.0183 86.9162 65.0957C86.3255 65.1042 85.6811 65.1273 85.4843 65.147ZM86.1062 69.6772C84.4514 70.1253 83.7275 71.2523 83.3153 74.0225C83.105 75.4359 83.1377 80.8448 83.3651 82.2383C83.7298 84.4738 84.3049 85.5127 85.5354 86.1596C85.8852 86.3434 86.1077 86.3746 87.0696 86.3746C88.0948 86.3746 88.2412 86.3509 88.7187 86.1075C90.4631 85.2186 91.032 83.22 91.0336 77.9752C91.0352 72.7285 90.4172 70.6616 88.6076 69.8611C87.9185 69.5564 86.8444 69.4774 86.1062 69.6772ZM103.946 79.2617C103.327 79.3387 102.499 79.4592 102.105 79.5296L101.389 79.6575L101.167 81.0891C101.046 81.8766 100.914 82.7727 100.874 83.0807L100.802 83.6407L101.933 83.3566C105.288 82.5142 107.473 82.9697 107.474 84.5117C107.475 85.2211 106.746 86.3392 104.868 88.5093C103.645 89.9221 101.484 92.1986 100.649 92.9524L99.957 93.5783L99.8922 95.3619C99.8565 96.3429 99.8387 97.1581 99.8526 97.1733C99.8954 97.2202 112.301 97.195 112.38 97.1478C112.421 97.1234 112.486 96.5455 112.523 95.8636C112.561 95.1817 112.62 94.3666 112.654 94.0522L112.716 93.4805L109.558 93.5208L106.401 93.5611L107.118 92.8336C110.546 89.3588 112.647 86.4655 113.139 84.5402C113.552 82.9235 113.159 81.5623 111.979 80.522C111.504 80.103 110.441 79.5658 109.674 79.357C108.821 79.125 105.49 79.0695 103.946 79.2617ZM164.799 113.704C164.694 113.868 164.788 113.891 164.935 113.737C165.007 113.661 165.022 113.599 164.966 113.599C164.911 113.599 164.836 113.646 164.799 113.704ZM164.298 114.36C164.243 114.501 164.254 114.512 164.355 114.416C164.425 114.348 164.457 114.269 164.425 114.238C164.394 114.208 164.336 114.263 164.298 114.36ZM52.243 127.975V138.896H49.1295C47.417 138.896 45.994 138.93 45.9671 138.972C45.9403 139.014 46.0052 139.248 46.1113 139.491C46.2175 139.734 47.8429 143.713 49.7233 148.333C54.3935 159.806 54.9106 161.072 54.9424 161.102C54.9576 161.117 55.2738 160.384 55.6453 159.474C56.5604 157.231 58.5901 152.254 61.5185 145.072C62.2276 143.333 63.0725 141.265 63.3961 140.477C63.7199 139.689 63.9636 139.011 63.9378 138.97C63.912 138.929 62.513 138.896 60.829 138.896H57.7671L57.741 128.001L57.7151 117.107L54.9791 117.08L52.243 117.054V127.975ZM77.0645 121.272C77.0263 121.309 76.995 127.624 76.995 135.305V149.271H73.006C70.2844 149.271 69.0171 149.304 69.0171 149.375C69.0171 149.465 70.0868 152.113 74.2056 162.216C74.6819 163.385 75.4513 165.275 75.9155 166.416C79.4492 175.106 80.5325 177.708 80.5922 177.65C80.6586 177.585 81.6275 175.225 87.1719 161.624C88.3159 158.817 89.3001 156.404 90.9518 152.356C91.6012 150.765 92.1325 149.42 92.1325 149.367C92.1325 149.307 90.6496 149.271 88.1439 149.271H84.1553L84.1293 135.264L84.1035 121.257L80.6188 121.231C78.7021 121.217 77.1027 121.235 77.0645 121.272Z" stroke="#B4F7BD" stroke-width="3" mask="url(#path-1-inside-1_176_1120)"/>
<path d="M52.243 138.896V127.975V117.054L54.9791 117.08L57.7151 117.107L57.741 128.001L57.7671 138.896H60.829C62.513 138.896 63.912 138.929 63.9378 138.97C63.9636 139.011 63.7199 139.689 63.3961 140.477C63.0725 141.265 62.2276 143.333 61.5185 145.072C58.5901 152.254 56.5604 157.231 55.6453 159.474C55.2738 160.384 54.9576 161.117 54.9424 161.102C54.9106 161.072 54.3935 159.806 49.7233 148.333C47.8429 143.713 46.2175 139.734 46.1113 139.491C46.0052 139.248 45.9403 139.014 45.9671 138.972C45.994 138.93 47.417 138.896 49.1295 138.896H52.243Z" stroke="#B4F7BD" stroke-width="3" mask="url(#path-1-inside-1_176_1120)"/>
<path d="M103.397 140.255H104.147V139.505V128.584V118.42L106.282 118.439L106.282 118.439L108.432 118.459L108.458 128.612L109.208 128.61L108.458 128.612L108.485 139.506L108.487 140.255H109.235H112.471C113.337 140.255 114.129 140.263 114.713 140.275C114.647 140.435 114.574 140.608 114.497 140.787L114.497 140.787C114.154 141.576 113.261 143.645 112.511 145.384L113.18 145.672L112.511 145.384C109.416 152.566 107.271 157.543 106.304 159.786C106.29 159.818 106.276 159.851 106.262 159.883C106.189 159.714 106.108 159.527 106.019 159.32C105.261 157.566 103.891 154.382 101.423 148.645C99.7999 144.873 98.3502 141.512 97.8126 140.276C98.4086 140.263 99.2194 140.255 100.106 140.255H103.397ZM115.185 141.086C114.842 141.874 113.949 143.941 113.2 145.681C110.105 152.863 107.96 157.84 106.993 160.083C106.878 160.349 106.768 160.6 106.67 160.822L115.185 141.086Z" fill="white" stroke="#B4F7BD" stroke-width="1.5"/>
</svg>
