<svg width="225" height="202" viewBox="0 0 225 202" fill="none" xmlns="http://www.w3.org/2000/svg">
<mask id="path-1-inside-1_176_1132" fill="white">
<path fill-rule="evenodd" clip-rule="evenodd" d="M98.1491 7.66276C91.6572 11.877 86.4347 15.4137 86.5438 15.5218C86.653 15.6299 91.9366 18.5124 98.285 21.9271L109.828 28.1363L120.731 20.0934C127.342 15.2167 131.516 11.6931 131.333 11.1423C131.167 10.643 129.098 7.93957 126.737 5.13558L122.442 0.0371851L116.198 0.0185873L109.953 0L98.1491 7.66276ZM124.576 21.7557C118.629 26.1737 114.017 30.0361 114.327 30.3384C114.637 30.6407 119.262 33.2457 124.605 36.1275L134.319 41.3671L143.828 36.1061C149.058 33.2126 153.575 30.6221 153.867 30.3501C154.159 30.0774 152.91 26.3135 151.093 21.9857L147.788 14.1163L141.588 13.9201L135.388 13.7238L124.576 21.7557ZM79.9674 26.339L76.6789 34.0858L82.3971 39.4761C85.5421 42.4406 90.1997 46.7326 92.7474 49.0133L97.3795 53.16L99.3595 48.7874C100.448 46.3828 102.733 41.4276 104.436 37.7767L107.532 31.1386L95.9289 24.8654C89.5468 21.4148 84.0846 18.5922 83.7908 18.5922C83.4969 18.5922 81.7765 22.0786 79.9674 26.339ZM41.8526 29.3324L31.985 35.9402L34.6481 37.4503C36.1125 38.28 39.6633 40.2288 42.5378 41.7802L47.7645 44.6L59.8504 39.0334L71.9356 33.4667L70.1286 31.0222C69.1352 29.6773 67.2712 27.2604 65.9867 25.6504L63.6511 22.7239H57.6864H51.721L41.8526 29.3324ZM178.052 24.3834C172 25.0851 170.551 25.534 165.817 28.1721C162.865 29.8185 160.702 31.3878 161.012 31.6598C161.322 31.9318 166.061 34.9768 171.545 38.426L181.513 44.6971L188.708 42.5955C192.665 41.4394 196.01 40.3899 196.143 40.2625C196.421 39.9947 195.502 37.0516 192.655 29.0934L190.624 23.4125L187.77 23.4999C186.202 23.5481 181.828 23.9454 178.052 24.3834ZM103.972 47.6147C100.282 55.6232 97.1028 62.5953 96.9065 63.1083C96.6126 63.8774 99.7412 64.0399 114.817 64.0399H133.084V54.4629V44.8858L122.138 38.9693C116.117 35.715 111.077 33.0529 110.937 33.0529C110.797 33.0529 107.663 39.6056 103.972 47.6147ZM145.957 39.0795L136.517 44.3136V54.1771V64.0399H156.07H175.623L175.975 62.4906C178.786 50.1123 179.11 47.937 178.252 47.1506C176.3 45.3609 157.265 33.7449 156.363 33.7931C155.832 33.8214 151.149 36.2005 145.957 39.0795ZM62.0947 42.0391C55.7126 45.0387 50.3658 47.6182 50.2127 47.7717C50.0596 47.9253 50.6335 51.6486 51.4876 56.0453L53.0412 64.0399H72.7251H92.4089L93.9406 60.4682L95.473 56.8957L90.764 52.3764C85.457 47.2814 73.8469 36.4718 73.757 36.5413C73.7247 36.5661 68.4761 39.0403 62.0947 42.0391ZM28.6546 41.1439C27.1442 45.0779 21.1774 62.8721 21.1774 63.4436C21.1774 63.7714 27.517 64.0399 35.2646 64.0399H49.3517L48.9893 62.4906C48.7895 61.6381 48.0487 58.0601 47.3422 54.5393C46.6358 51.0185 45.9431 48.03 45.8037 47.8984C45.238 47.3668 30.2494 39.2503 29.832 39.2503C29.5841 39.2503 29.0548 40.1028 28.6546 41.1439ZM194.186 44.7729C193.242 45.0993 190.293 45.9986 187.633 46.7712L182.796 48.1759L181.277 55.5915C180.442 59.6701 179.76 63.2391 179.763 63.5235C179.767 63.8079 185.175 64.0399 191.783 64.0399C198.391 64.0399 203.814 63.8079 203.833 63.5235C203.853 63.2391 202.539 58.7529 200.915 53.5539C197.832 43.6842 197.727 43.5479 194.186 44.7729ZM0.632636 68.4539C0.141071 69.0475 -0.0916673 71.2551 0.0332834 74.1348L0.237876 78.8449H112.488H224.737L224.944 74.0412C225.113 70.112 224.933 69.0777 223.955 68.3602C222.08 66.9851 1.77092 67.0774 0.632636 68.4539ZM16.0984 105.184C18.8349 117.208 22.591 133.709 24.4454 141.852C27.0323 153.21 28.0429 156.595 28.7877 156.391C31.8957 155.539 40.3416 156.235 44.0029 157.645C48.751 159.473 54.6127 164.628 56.9339 169.016L58.5919 172.15H113.296H168.001L169.583 168.974C171.746 164.629 177.518 159.504 182.345 157.642C185.273 156.512 187.719 156.126 191.824 156.144L197.358 156.168L203.735 127.835C207.243 112.252 210.962 95.8616 212.002 91.4118L213.892 83.3208H112.507H11.1223L16.0984 105.184ZM29.4159 160.399C16.9614 164.213 10.5161 177.948 15.7963 189.425C22.5828 204.177 42.1135 206.439 51.8741 193.604C60.1881 182.671 55.4888 165.952 42.7575 161.175C38.9101 159.731 32.7656 159.373 29.4159 160.399ZM184.342 160.78C171.078 165.868 166.062 182.013 174.23 193.324C181.426 203.288 196.027 204.838 205.664 196.663C206.878 195.632 208.886 192.722 210.126 190.197C212.051 186.272 212.372 184.901 212.329 180.771C212.243 172.484 207.963 165.64 200.441 161.76C196.615 159.786 188.261 159.278 184.342 160.78ZM31.6376 166.597C24.9156 168.285 20.0549 175.133 20.6309 182.101C21.2021 189.004 26.5283 194.515 33.4219 195.334C44.916 196.699 53.2321 184.277 47.7906 173.872C44.9139 168.372 37.6311 165.092 31.6376 166.597ZM188.351 166.582C181.195 168.381 177.023 173.731 177.023 181.108C177.023 193.569 191.803 200.074 201.06 191.686C208.269 185.153 207.13 173.256 198.835 168.467C195.524 166.555 191.404 165.815 188.351 166.582ZM30.3874 171.063C27.7751 172.204 25.5363 174.976 24.5442 178.296C22.3686 185.579 29.7736 193.136 37.3956 191.412C42.8639 190.175 46.1683 185.703 45.6877 180.19C45.0238 172.572 37.3771 168.011 30.3874 171.063ZM185.941 171.634C182.655 173.877 181.038 176.393 180.648 179.87C179.934 186.224 184.875 191.59 191.44 191.59C202.797 191.59 206.335 176.35 196.198 171.093C193.254 169.566 188.611 169.811 185.941 171.634Z"/>
</mask>
<path fill-rule="evenodd" clip-rule="evenodd" d="M98.1491 7.66276C91.6572 11.877 86.4347 15.4137 86.5438 15.5218C86.653 15.6299 91.9366 18.5124 98.285 21.9271L109.828 28.1363L120.731 20.0934C127.342 15.2167 131.516 11.6931 131.333 11.1423C131.167 10.643 129.098 7.93957 126.737 5.13558L122.442 0.0371851L116.198 0.0185873L109.953 0L98.1491 7.66276ZM124.576 21.7557C118.629 26.1737 114.017 30.0361 114.327 30.3384C114.637 30.6407 119.262 33.2457 124.605 36.1275L134.319 41.3671L143.828 36.1061C149.058 33.2126 153.575 30.6221 153.867 30.3501C154.159 30.0774 152.91 26.3135 151.093 21.9857L147.788 14.1163L141.588 13.9201L135.388 13.7238L124.576 21.7557ZM79.9674 26.339L76.6789 34.0858L82.3971 39.4761C85.5421 42.4406 90.1997 46.7326 92.7474 49.0133L97.3795 53.16L99.3595 48.7874C100.448 46.3828 102.733 41.4276 104.436 37.7767L107.532 31.1386L95.9289 24.8654C89.5468 21.4148 84.0846 18.5922 83.7908 18.5922C83.4969 18.5922 81.7765 22.0786 79.9674 26.339ZM41.8526 29.3324L31.985 35.9402L34.6481 37.4503C36.1125 38.28 39.6633 40.2288 42.5378 41.7802L47.7645 44.6L59.8504 39.0334L71.9356 33.4667L70.1286 31.0222C69.1352 29.6773 67.2712 27.2604 65.9867 25.6504L63.6511 22.7239H57.6864H51.721L41.8526 29.3324ZM178.052 24.3834C172 25.0851 170.551 25.534 165.817 28.1721C162.865 29.8185 160.702 31.3878 161.012 31.6598C161.322 31.9318 166.061 34.9768 171.545 38.426L181.513 44.6971L188.708 42.5955C192.665 41.4394 196.01 40.3899 196.143 40.2625C196.421 39.9947 195.502 37.0516 192.655 29.0934L190.624 23.4125L187.77 23.4999C186.202 23.5481 181.828 23.9454 178.052 24.3834ZM103.972 47.6147C100.282 55.6232 97.1028 62.5953 96.9065 63.1083C96.6126 63.8774 99.7412 64.0399 114.817 64.0399H133.084V54.4629V44.8858L122.138 38.9693C116.117 35.715 111.077 33.0529 110.937 33.0529C110.797 33.0529 107.663 39.6056 103.972 47.6147ZM145.957 39.0795L136.517 44.3136V54.1771V64.0399H156.07H175.623L175.975 62.4906C178.786 50.1123 179.11 47.937 178.252 47.1506C176.3 45.3609 157.265 33.7449 156.363 33.7931C155.832 33.8214 151.149 36.2005 145.957 39.0795ZM62.0947 42.0391C55.7126 45.0387 50.3658 47.6182 50.2127 47.7717C50.0596 47.9253 50.6335 51.6486 51.4876 56.0453L53.0412 64.0399H72.7251H92.4089L93.9406 60.4682L95.473 56.8957L90.764 52.3764C85.457 47.2814 73.8469 36.4718 73.757 36.5413C73.7247 36.5661 68.4761 39.0403 62.0947 42.0391ZM28.6546 41.1439C27.1442 45.0779 21.1774 62.8721 21.1774 63.4436C21.1774 63.7714 27.517 64.0399 35.2646 64.0399H49.3517L48.9893 62.4906C48.7895 61.6381 48.0487 58.0601 47.3422 54.5393C46.6358 51.0185 45.9431 48.03 45.8037 47.8984C45.238 47.3668 30.2494 39.2503 29.832 39.2503C29.5841 39.2503 29.0548 40.1028 28.6546 41.1439ZM194.186 44.7729C193.242 45.0993 190.293 45.9986 187.633 46.7712L182.796 48.1759L181.277 55.5915C180.442 59.6701 179.76 63.2391 179.763 63.5235C179.767 63.8079 185.175 64.0399 191.783 64.0399C198.391 64.0399 203.814 63.8079 203.833 63.5235C203.853 63.2391 202.539 58.7529 200.915 53.5539C197.832 43.6842 197.727 43.5479 194.186 44.7729ZM0.632636 68.4539C0.141071 69.0475 -0.0916673 71.2551 0.0332834 74.1348L0.237876 78.8449H112.488H224.737L224.944 74.0412C225.113 70.112 224.933 69.0777 223.955 68.3602C222.08 66.9851 1.77092 67.0774 0.632636 68.4539ZM16.0984 105.184C18.8349 117.208 22.591 133.709 24.4454 141.852C27.0323 153.21 28.0429 156.595 28.7877 156.391C31.8957 155.539 40.3416 156.235 44.0029 157.645C48.751 159.473 54.6127 164.628 56.9339 169.016L58.5919 172.15H113.296H168.001L169.583 168.974C171.746 164.629 177.518 159.504 182.345 157.642C185.273 156.512 187.719 156.126 191.824 156.144L197.358 156.168L203.735 127.835C207.243 112.252 210.962 95.8616 212.002 91.4118L213.892 83.3208H112.507H11.1223L16.0984 105.184ZM29.4159 160.399C16.9614 164.213 10.5161 177.948 15.7963 189.425C22.5828 204.177 42.1135 206.439 51.8741 193.604C60.1881 182.671 55.4888 165.952 42.7575 161.175C38.9101 159.731 32.7656 159.373 29.4159 160.399ZM184.342 160.78C171.078 165.868 166.062 182.013 174.23 193.324C181.426 203.288 196.027 204.838 205.664 196.663C206.878 195.632 208.886 192.722 210.126 190.197C212.051 186.272 212.372 184.901 212.329 180.771C212.243 172.484 207.963 165.64 200.441 161.76C196.615 159.786 188.261 159.278 184.342 160.78ZM31.6376 166.597C24.9156 168.285 20.0549 175.133 20.6309 182.101C21.2021 189.004 26.5283 194.515 33.4219 195.334C44.916 196.699 53.2321 184.277 47.7906 173.872C44.9139 168.372 37.6311 165.092 31.6376 166.597ZM188.351 166.582C181.195 168.381 177.023 173.731 177.023 181.108C177.023 193.569 191.803 200.074 201.06 191.686C208.269 185.153 207.13 173.256 198.835 168.467C195.524 166.555 191.404 165.815 188.351 166.582ZM30.3874 171.063C27.7751 172.204 25.5363 174.976 24.5442 178.296C22.3686 185.579 29.7736 193.136 37.3956 191.412C42.8639 190.175 46.1683 185.703 45.6877 180.19C45.0238 172.572 37.3771 168.011 30.3874 171.063ZM185.941 171.634C182.655 173.877 181.038 176.393 180.648 179.87C179.934 186.224 184.875 191.59 191.44 191.59C202.797 191.59 206.335 176.35 196.198 171.093C193.254 169.566 188.611 169.811 185.941 171.634Z" fill="white" stroke="#05C5D1" stroke-width="3" mask="url(#path-1-inside-1_176_1132)"/>
</svg>
