<?xml version="1.0" encoding="UTF-8" standalone="no"?>
<svg
   width="215"
   height="176"
   viewBox="0 0 215 176"
   fill="none"
   version="1.1"
   id="svg12"
   xmlns="http://www.w3.org/2000/svg"
   xmlns:svg="http://www.w3.org/2000/svg">
  <g
     filter="url(#filter0_bd_176_1139)"
     id="g7"
     transform="translate(-232,-152)">
    <rect
       x="232"
       y="152"
       width="215"
       height="176"
       rx="24"
       fill="#ffffff"
       fill-opacity="0.8"
       shape-rendering="crispEdges"
       id="rect1" />
    <rect
       x="233"
       y="153"
       width="213"
       height="174"
       rx="23"
       stroke="url(#paint0_linear_176_1139)"
       stroke-width="2"
       shape-rendering="crispEdges"
       id="rect2"
       style="stroke:url(#paint0_linear_176_1139)" />
    <g
       filter="url(#filter1_d_176_1139)"
       id="g6">
      <rect
         x="295.5"
         y="168"
         width="88"
         height="88"
         rx="44"
         fill="#ffffff"
         shape-rendering="crispEdges"
         id="rect3" />
      <mask
         id="mask0_176_1139"
         maskUnits="userSpaceOnUse"
         x="321"
         y="190"
         width="37"
         height="44">
        <path
           fill-rule="evenodd"
           clip-rule="evenodd"
           d="m 339.5,232 c 8.837,0 16,-7.164 16,-16 0,-13 -16,-24 -16,-24 0,0 -16,11 -16,24 0,8.837 7.163,16 16,16 z"
           fill="#ffffff"
           stroke="#ffffff"
           stroke-width="4"
           stroke-linecap="round"
           stroke-linejoin="round"
           id="path3" />
      </mask>
      <g
         mask="url(#mask0_176_1139)"
         id="g5">
        <path
           d="m 315.5,188 h 48 v 48 h -48 z"
           fill="#0052b4"
           id="path4" />
        <path
           d="m 339.5,208 -4,8 h 8 l -4,8"
           stroke="#ffffff"
           stroke-width="4"
           stroke-linecap="round"
           stroke-linejoin="round"
           id="path5" />
      </g>
    </g>
    <path
       d="M 296.885,269.6 V 267 l 2.6,-2 h 2.1 v 14 h -2.3 v -11.2 z m 8.901,7.72 c -1.266,-1.387 -1.9,-3.16 -1.9,-5.32 0,-2.16 0.634,-3.933 1.9,-5.32 1.267,-1.387 2.8,-2.08 4.6,-2.08 1.8,0 3.334,0.693 4.6,2.08 1.267,1.387 1.9,3.16 1.9,5.32 0,2.16 -0.633,3.933 -1.9,5.32 -1.266,1.387 -2.8,2.08 -4.6,2.08 -1.8,0 -3.333,-0.693 -4.6,-2.08 z m 1.64,-9.16 c -0.76,0.907 -1.14,2.187 -1.14,3.84 0,1.653 0.38,2.933 1.14,3.84 0.774,0.907 1.76,1.36 2.96,1.36 1.2,0 2.18,-0.453 2.94,-1.36 0.774,-0.907 1.16,-2.187 1.16,-3.84 0,-1.653 -0.386,-2.933 -1.16,-3.84 -0.76,-0.907 -1.74,-1.36 -2.94,-1.36 -1.2,0 -2.186,0.453 -2.96,1.36 z m 13.165,9.16 c -1.267,-1.387 -1.9,-3.16 -1.9,-5.32 0,-2.16 0.633,-3.933 1.9,-5.32 1.267,-1.387 2.8,-2.08 4.6,-2.08 1.8,0 3.333,0.693 4.6,2.08 1.267,1.387 1.9,3.16 1.9,5.32 0,2.16 -0.633,3.933 -1.9,5.32 -1.267,1.387 -2.8,2.08 -4.6,2.08 -1.8,0 -3.333,-0.693 -4.6,-2.08 z m 1.64,-9.16 c -0.76,0.907 -1.14,2.187 -1.14,3.84 0,1.653 0.38,2.933 1.14,3.84 0.773,0.907 1.76,1.36 2.96,1.36 1.2,0 2.18,-0.453 2.94,-1.36 0.773,-0.907 1.16,-2.187 1.16,-3.84 0,-1.653 -0.387,-2.933 -1.16,-3.84 -0.76,-0.907 -1.74,-1.36 -2.94,-1.36 -1.2,0 -2.187,0.453 -2.96,1.36 z m 18.77,9.16 c -1.266,-1.387 -1.9,-3.16 -1.9,-5.32 0,-2.16 0.634,-3.933 1.9,-5.32 1.267,-1.387 2.8,-2.08 4.6,-2.08 1.8,0 3.334,0.693 4.6,2.08 1.267,1.387 1.9,3.16 1.9,5.32 0,2.16 -0.633,3.933 -1.9,5.32 -1.266,1.387 -2.8,2.08 -4.6,2.08 -1.8,0 -3.333,-0.693 -4.6,-2.08 z m 1.64,-9.16 c -0.76,0.907 -1.14,2.187 -1.14,3.84 0,1.653 0.38,2.933 1.14,3.84 0.774,0.907 1.76,1.36 2.96,1.36 1.2,0 2.18,-0.453 2.94,-1.36 0.774,-0.907 1.16,-2.187 1.16,-3.84 0,-1.653 -0.386,-2.933 -1.16,-3.84 -0.76,-0.907 -1.74,-1.36 -2.94,-1.36 -1.2,0 -2.186,0.453 -2.96,1.36 z m 13.165,9.16 c -1.267,-1.387 -1.9,-3.16 -1.9,-5.32 0,-2.16 0.633,-3.933 1.9,-5.32 1.267,-1.387 2.8,-2.08 4.6,-2.08 1.8,0 3.333,0.693 4.6,2.08 1.267,1.387 1.9,3.16 1.9,5.32 0,2.16 -0.633,3.933 -1.9,5.32 -1.267,1.387 -2.8,2.08 -4.6,2.08 -1.8,0 -3.333,-0.693 -4.6,-2.08 z m 1.64,-9.16 c -0.76,0.907 -1.14,2.187 -1.14,3.84 0,1.653 0.38,2.933 1.14,3.84 0.773,0.907 1.76,1.36 2.96,1.36 1.2,0 2.18,-0.453 2.94,-1.36 0.773,-0.907 1.16,-2.187 1.16,-3.84 0,-1.653 -0.387,-2.933 -1.16,-3.84 -0.76,-0.907 -1.74,-1.36 -2.94,-1.36 -1.2,0 -2.187,0.453 -2.96,1.36 z m 13.165,9.16 c -1.267,-1.387 -1.9,-3.16 -1.9,-5.32 0,-2.16 0.633,-3.933 1.9,-5.32 1.266,-1.387 2.8,-2.08 4.6,-2.08 1.8,0 3.333,0.693 4.6,2.08 1.266,1.387 1.9,3.16 1.9,5.32 0,2.16 -0.634,3.933 -1.9,5.32 -1.267,1.387 -2.8,2.08 -4.6,2.08 -1.8,0 -3.334,-0.693 -4.6,-2.08 z m 1.64,-9.16 c -0.76,0.907 -1.14,2.187 -1.14,3.84 0,1.653 0.38,2.933 1.14,3.84 0.773,0.907 1.76,1.36 2.96,1.36 1.2,0 2.18,-0.453 2.94,-1.36 0.773,-0.907 1.16,-2.187 1.16,-3.84 0,-1.653 -0.387,-2.933 -1.16,-3.84 -0.76,-0.907 -1.74,-1.36 -2.94,-1.36 -1.2,0 -2.187,0.453 -2.96,1.36 z m -99.36,39.04 v -4.1 h 1 l 2.3,-8.3 h 4.5 l 2.3,8.3 h 1 v 4.1 h -1.9 V 305 h -7.3 v 2.2 z m 3.2,-4.1 h 4.7 l -1.7,-6.4 h -1.3 z m 10.129,0.58 c -1.014,-1.027 -1.52,-2.287 -1.52,-3.78 0,-1.493 0.506,-2.747 1.52,-3.76 1.026,-1.027 2.286,-1.54 3.78,-1.54 1.493,0 2.746,0.513 3.76,1.54 1.026,1.013 1.54,2.267 1.54,3.76 0,1.493 -0.514,2.753 -1.54,3.78 -1.014,1.013 -2.267,1.52 -3.76,1.52 -1.494,0 -2.754,-0.507 -3.78,-1.52 z m 1.54,-6.24 c -0.574,0.613 -0.86,1.433 -0.86,2.46 0,1.027 0.286,1.853 0.86,2.48 0.573,0.613 1.32,0.92 2.24,0.92 0.92,0 1.666,-0.307 2.24,-0.92 0.573,-0.627 0.86,-1.453 0.86,-2.48 0,-1.027 -0.287,-1.847 -0.86,-2.46 -0.574,-0.627 -1.32,-0.94 -2.24,-0.94 -0.92,0 -1.667,0.313 -2.24,0.94 z m 9.336,7.56 v -10.2 h 3 l 2.7,6.1 h 0.4 l 2.7,-6.1 h 3 V 305 h -2.1 v -7.2 l 0.02,-0.2 h -0.1 l -2.52,5.6 h -2.4 l -2.52,-5.6 h -0.1 l 0.02,0.2 v 7.2 z m 15.12,-1.32 c -1.014,-1.027 -1.52,-2.287 -1.52,-3.78 0,-1.493 0.506,-2.747 1.52,-3.76 1.026,-1.027 2.286,-1.54 3.78,-1.54 1.493,0 2.746,0.513 3.76,1.54 1.026,1.013 1.54,2.267 1.54,3.76 0,1.493 -0.514,2.753 -1.54,3.78 -1.014,1.013 -2.267,1.52 -3.76,1.52 -1.494,0 -2.754,-0.507 -3.78,-1.52 z m 1.54,-6.24 c -0.574,0.613 -0.86,1.433 -0.86,2.46 0,1.027 0.286,1.853 0.86,2.48 0.573,0.613 1.32,0.92 2.24,0.92 0.92,0 1.666,-0.307 2.24,-0.92 0.573,-0.627 0.86,-1.453 0.86,-2.48 0,-1.027 -0.287,-1.847 -0.86,-2.46 -0.574,-0.627 -1.32,-0.94 -2.24,-0.94 -0.92,0 -1.667,0.313 -2.24,0.94 z m 7.944,7.56 3.1,-5.1 -3,-5.1 h 2.4 l 2.3,4.1 h 0.5 l 2.3,-4.1 h 2.4 l -3,5.1 3.1,5.1 h -2.4 l -2.4,-4.2 h -0.5 l -2.4,4.2 z m 12.02,-1.32 c -1.014,-1.027 -1.52,-2.287 -1.52,-3.78 0,-1.493 0.506,-2.747 1.52,-3.76 1.026,-1.027 2.286,-1.54 3.78,-1.54 1.493,0 2.746,0.513 3.76,1.54 1.026,1.013 1.54,2.267 1.54,3.76 0,1.493 -0.514,2.753 -1.54,3.78 -1.014,1.013 -2.267,1.52 -3.76,1.52 -1.494,0 -2.754,-0.507 -3.78,-1.52 z m 1.54,-6.24 c -0.574,0.613 -0.86,1.433 -0.86,2.46 0,1.027 0.286,1.853 0.86,2.48 0.573,0.613 1.32,0.92 2.24,0.92 0.92,0 1.666,-0.307 2.24,-0.92 0.573,-0.627 0.86,-1.453 0.86,-2.48 0,-1.027 -0.287,-1.847 -0.86,-2.46 -0.574,-0.627 -1.32,-0.94 -2.24,-0.94 -0.92,0 -1.667,0.313 -2.24,0.94 z m 8.536,4.26 h 2.1 c 0.054,0.267 0.18,0.533 0.38,0.8 0.427,0.533 1.1,0.8 2.02,0.8 0.72,0 1.247,-0.12 1.58,-0.36 0.347,-0.24 0.52,-0.553 0.52,-0.94 0,-0.387 -0.173,-0.7 -0.52,-0.94 -0.333,-0.24 -0.86,-0.36 -1.58,-0.36 h -1.1 v -1.8 h 1.1 c 1.267,0 1.9,-0.4 1.9,-1.2 0,-0.333 -0.166,-0.613 -0.5,-0.84 -0.333,-0.24 -0.833,-0.36 -1.5,-0.36 -0.706,0 -1.266,0.22 -1.68,0.66 -0.146,0.173 -0.253,0.387 -0.32,0.64 h -2.1 c 0.147,-0.613 0.387,-1.147 0.72,-1.6 0.774,-1.067 1.934,-1.6 3.48,-1.6 1.28,0 2.267,0.267 2.96,0.8 0.694,0.533 1.04,1.2 1.04,2 0,0.76 -0.3,1.347 -0.9,1.76 -0.24,0.187 -0.54,0.333 -0.9,0.44 v 0.08 c 0.36,0.08 0.694,0.22 1,0.42 0.667,0.453 1,1.12 1,2 0,0.893 -0.366,1.633 -1.1,2.22 -0.72,0.587 -1.753,0.88 -3.1,0.88 -1.786,0 -3.06,-0.58 -3.82,-1.74 -0.36,-0.547 -0.586,-1.133 -0.68,-1.76 z m 10.205,3.3 2,-3.7 c -0.346,-0.16 -0.666,-0.373 -0.96,-0.64 -0.626,-0.6 -0.94,-1.387 -0.94,-2.36 0,-1.027 0.36,-1.867 1.08,-2.52 0.72,-0.653 1.694,-0.98 2.92,-0.98 h 4.6 V 305 h -2.1 v -3.1 h -2.6 l -1.6,3.1 z m 2.3,-6.7 c 0,0.533 0.16,0.953 0.48,1.26 0.32,0.293 0.794,0.44 1.42,0.44 h 2.4 v -3.3 h -2.4 c -0.586,0 -1.053,0.153 -1.4,0.46 -0.333,0.293 -0.5,0.673 -0.5,1.14 z m 8.803,6.7 v -10.2 h 2.1 v 6.8 l -0.02,0.2 h 0.2 l 4.62,-7 h 2.3 V 305 h -2.1 v -6.8 l 0.02,-0.2 h -0.2 l -4.62,7 z m 1.5,-14.2 h 1.7 c 0,0.733 0.467,1.1 1.4,1.1 0.934,0 1.4,-0.367 1.4,-1.1 h 1.7 c 0,0.787 -0.266,1.42 -0.8,1.9 -0.52,0.467 -1.286,0.7 -2.3,0.7 -1.013,0 -1.786,-0.233 -2.32,-0.7 -0.52,-0.48 -0.78,-1.113 -0.78,-1.9 z m 10.962,12.9 c -0.973,-1 -1.46,-2.267 -1.46,-3.8 0,-1.533 0.487,-2.8 1.46,-3.8 0.973,-1 2.187,-1.5 3.64,-1.5 1.627,0 2.953,0.62 3.98,1.86 0.44,0.573 0.747,1.187 0.92,1.84 h -2.2 c -0.093,-0.333 -0.267,-0.633 -0.52,-0.9 -0.52,-0.6 -1.247,-0.9 -2.18,-0.9 -0.827,0 -1.52,0.313 -2.08,0.94 -0.547,0.627 -0.82,1.447 -0.82,2.46 0,1.013 0.273,1.833 0.82,2.46 0.56,0.627 1.253,0.94 2.08,0.94 0.96,0 1.713,-0.3 2.26,-0.9 0.24,-0.267 0.42,-0.567 0.54,-0.9 h 2.1 c -0.173,0.68 -0.48,1.3 -0.92,1.86 -1.013,1.227 -2.34,1.84 -3.98,1.84 -1.453,0 -2.667,-0.5 -3.64,-1.5 z m 9.134,-7 v -1.9 h 8.9 v 1.9 h -3.4 v 8.3 h -2.1 v -8.3 z m 10.201,8.3 v -10.2 h 5.1 c 0.974,0 1.734,0.233 2.28,0.7 0.547,0.467 0.82,1.067 0.82,1.8 0,0.787 -0.266,1.393 -0.8,1.82 -0.266,0.2 -0.533,0.327 -0.8,0.38 v 0.08 c 0.347,0.053 0.68,0.187 1,0.4 0.667,0.453 1,1.153 1,2.1 0,0.827 -0.313,1.52 -0.94,2.08 -0.626,0.56 -1.446,0.84 -2.46,0.84 z m 2.1,-6.2 h 2.8 c 0.8,0 1.2,-0.367 1.2,-1.1 0,-0.667 -0.4,-1 -1.2,-1 h -2.8 z m 0,4.3 h 3 c 0.44,0 0.78,-0.113 1.02,-0.34 0.254,-0.24 0.38,-0.56 0.38,-0.96 0,-0.36 -0.126,-0.647 -0.38,-0.86 -0.24,-0.227 -0.58,-0.34 -1.02,-0.34 h -3 z"
       fill="#0d5efb"
       id="path6" />
  </g>
  <defs
     id="defs12">
    <filter
       id="filter1_d_176_1139"
       x="239.5"
       y="131"
       width="200"
       height="200"
       filterUnits="userSpaceOnUse"
       color-interpolation-filters="sRGB">
      <feFlood
         flood-opacity="0"
         result="BackgroundImageFix"
         id="feFlood9" />
      <feColorMatrix
         in="SourceAlpha"
         type="matrix"
         values="0 0 0 0 0 0 0 0 0 0 0 0 0 0 0 0 0 0 127 0"
         result="hardAlpha"
         id="feColorMatrix9" />
      <feOffset
         dy="19"
         id="feOffset9" />
      <feGaussianBlur
         stdDeviation="28"
         id="feGaussianBlur9" />
      <feComposite
         in2="hardAlpha"
         operator="out"
         id="feComposite9" />
      <feColorMatrix
         type="matrix"
         values="0 0 0 0 0 0 0 0 0 0.321569 0 0 0 0 0.705882 0 0 0 0.16 0"
         id="feColorMatrix10" />
      <feBlend
         mode="normal"
         in2="BackgroundImageFix"
         result="effect1_dropShadow_176_1139"
         id="feBlend10" />
      <feBlend
         mode="normal"
         in="SourceGraphic"
         in2="effect1_dropShadow_176_1139"
         result="shape"
         id="feBlend11" />
    </filter>
    <linearGradient
       id="paint0_linear_176_1139"
       x1="339.5"
       y1="152"
       x2="339.5"
       y2="328"
       gradientUnits="userSpaceOnUse">
      <stop
         stop-color="white"
         id="stop11" />
      <stop
         offset="1"
         stop-color="white"
         stop-opacity="0"
         id="stop12" />
    </linearGradient>
  </defs>
</svg>
