<svg width="143" height="141" viewBox="0 0 143 141" fill="none" xmlns="http://www.w3.org/2000/svg">
<path fill-rule="evenodd" clip-rule="evenodd" d="M61.6167 0.560155C51.1811 2.18649 43.2888 5.04985 34.115 10.5381C24.9432 16.0256 14.9414 26.4665 9.91126 35.8048C4.10801 46.5787 1.40817 55.981 0.866584 67.3067C-0.818493 102.525 24.1422 133.511 59.2973 139.842C64.7495 140.824 74.6021 141.019 80.3563 140.259C97.1085 138.046 111.022 130.972 122.714 118.722C136.074 104.727 142.885 86.7177 142.088 67.4996C140.927 39.5081 123.856 15.3438 97.8236 4.84303C93.3591 3.04229 85.8294 1.04555 81.0262 0.388454C77.0715 -0.152114 65.5327 -0.0502514 61.6167 0.560155ZM67.3357 28.0501C67.3995 35.0365 64.0363 40.6363 53.4403 51.1872C47.1731 57.4279 44.5139 60.8133 42.0344 65.707C37.7531 74.1581 36.4275 84.133 38.4628 92.5795C39.3323 96.1883 42.4693 102.399 44.8939 105.312C48.0124 109.059 52.7556 112.432 57.282 114.123C58.4967 114.577 59.4905 114.841 59.4905 114.711C59.4905 114.58 58.4031 113.323 57.0745 111.916C52.4773 107.051 50.2766 101.043 50.7946 94.7707C51.2306 89.4935 52.6544 85.9148 56.2097 81.1624C58.1982 78.5043 62.0644 74.8306 62.8735 74.8306C63.458 74.8306 63.7421 75.8118 63.7487 77.8526C63.756 80.0122 64.2999 81.14 64.8968 80.2325C65.1059 79.9141 65.2799 79.0425 65.2834 78.2955C65.2922 76.2621 66.7295 71.4742 68.1177 68.8528C69.4491 66.3394 73.493 61.8666 74.0972 62.2394C74.3025 62.3659 74.4629 63.5578 74.4544 64.8882C74.4285 68.8412 76.4557 72.0622 83.271 78.8978C88.6568 84.3 91.1776 89.0193 91.9705 95.184C92.7819 101.492 90.8823 107.509 86.6961 111.889C85.4884 113.153 84.6194 114.187 84.7651 114.187C85.5066 114.187 89.0097 112.087 91.4587 110.174C97.3953 105.538 102.812 97.0379 104.391 89.8786C105.429 85.1717 105.497 78.255 104.548 73.8784C103.055 66.9976 99.9432 60.7049 95.0291 54.6274C92.3258 51.2841 86.7127 46.1608 86.0076 46.3931C85.7567 46.4757 85.5054 48.0985 85.391 50.3777C85.1834 54.5051 84.4856 56.3101 83.0971 56.3101C81.9992 56.3101 80.872 53.5127 80.6099 50.1366C80.3404 46.6663 79.1749 42.0662 77.6205 38.3367C75.722 33.781 71.1716 27.4254 68.3972 25.4533L67.3048 24.677L67.3357 28.0501Z" fill="url(#paint0_linear_176_1096)"/>
<defs>
<linearGradient id="paint0_linear_176_1096" x1="43.9123" y1="19.4344" x2="101.825" y2="19.4785" gradientUnits="userSpaceOnUse">
<stop stop-color="#3887DB"/>
<stop offset="1" stop-color="#1E4875"/>
</linearGradient>
</defs>
</svg>
