<svg width="141" height="141" viewBox="0 0 141 141" fill="none" xmlns="http://www.w3.org/2000/svg">
<path fill-rule="evenodd" clip-rule="evenodd" d="M65.0481 0.776654C43.5417 2.57095 24.3256 13.85 12.4122 31.6715C2.85748 45.9649 -0.989785 62.503 1.21713 79.7965C2.73826 91.7184 7.78729 103.717 15.4714 113.671C17.8093 116.7 24.3051 123.204 27.2968 125.511C36.5786 132.67 46.6321 137.204 57.7941 139.266C77.1964 142.849 96.7794 138.214 112.803 126.245C116.248 123.672 123.672 116.248 126.246 112.803C130.326 107.34 133.983 100.642 136.257 94.4645C139.665 85.2079 141.245 73.3929 140.265 64.484C138.406 47.5829 131.998 33.5872 120.813 21.9962C109.858 10.6434 95.2211 3.22474 79.7968 1.2065C75.7559 0.677943 68.6977 0.472045 65.0481 0.776654ZM67.287 37.4107C66.6308 37.811 66.3122 38.2751 66.0683 39.187C65.7402 40.4133 65.7301 40.4215 64.5373 40.4215C61.4147 40.4215 59.581 42.8874 60.7972 45.4509C61.5169 46.9674 62.3684 47.2575 66.0987 47.2575H69.4062V49.0348V50.8122H68.5954C67.4224 50.8122 67.2187 51.437 67.2187 55.0324V58.195H65.1408C61.9022 58.195 60.3827 59.2783 60.3827 61.5867C60.3827 62.5462 60.357 62.57 59.324 62.57C58.309 62.57 58.2581 62.5268 58.0987 61.5287C57.8332 59.8687 56.8874 59.1886 54.6687 59.0634C52.4793 58.9395 51.333 59.3992 50.8354 60.6001C50.606 61.1541 50.5332 63.1603 50.592 67.3054C50.6727 73.015 50.697 73.2411 51.2896 73.8331C51.7801 74.3234 52.289 74.4683 53.8238 74.555C54.9894 74.6209 56.0695 74.5288 56.5724 74.3204C57.4876 73.9414 58.1952 72.8179 58.1952 71.7438C58.1952 71.1127 58.2988 71.0465 59.289 71.0465C60.3595 71.0465 60.3827 71.067 60.3827 72.0172C60.3827 73.3098 61.0313 74.4984 62.0143 75.0067C63.1994 75.6195 77.8004 75.6195 78.9855 75.0067C79.9685 74.4984 80.6171 73.3098 80.6171 72.0172C80.6171 71.067 80.6403 71.0465 81.7108 71.0465C82.701 71.0465 82.8046 71.1127 82.8046 71.7438C82.8046 72.8179 83.5122 73.9414 84.4274 74.3204C84.9341 74.5301 86.0136 74.6206 87.2078 74.5531C88.9315 74.4558 89.2356 74.3546 89.8103 73.6866C90.4535 72.9387 90.4608 72.86 90.4608 66.8329C90.4608 60.7656 90.4576 60.7322 89.8005 60.0232C88.9709 59.1279 88.1448 58.9193 86.0353 59.0719C84.5762 59.1774 84.265 59.3035 83.5842 60.0653C83.0961 60.6116 82.8046 61.243 82.8046 61.754C82.8046 62.5238 82.7425 62.57 81.7108 62.57C80.6403 62.57 80.6171 62.5495 80.6171 61.5993C80.6171 59.2387 79.1583 58.195 75.859 58.195H73.7812V54.8317C73.7812 51.1849 73.6494 50.8122 72.3593 50.8122C71.5994 50.8122 71.5937 50.799 71.5937 49.0348V47.2575H74.8886C78.6552 47.2575 79.473 46.9884 80.17 45.5192C81.4349 42.8535 79.6573 40.4215 76.4444 40.4215C75.2733 40.4215 75.2585 40.4095 74.9315 39.187C74.447 37.3752 73.479 36.8688 70.4999 36.8688C68.6643 36.8688 67.9889 36.9828 67.287 37.4107ZM47.0742 63.3829C43.4504 64.6599 40.4636 67.9381 39.479 71.7192C39.1279 73.0678 39.0546 75.3439 39.0546 84.9126V96.4762H43.2929H47.5312V85.1928C47.5312 74.3874 47.5547 73.8657 48.0846 72.8769C48.5861 71.9412 48.6309 71.4242 48.5631 67.3644L48.4882 62.8847L47.0742 63.3829ZM92.3749 67.3376C92.3749 71.3465 92.4381 71.9863 92.9218 72.8892C93.4432 73.8624 93.4687 74.432 93.4687 85.1928V96.4762H97.7069H101.945V84.9126C101.945 72.1129 101.866 71.3665 100.225 68.6247C98.7252 66.1206 95.8169 63.857 92.9901 62.9944L92.3749 62.8065V67.3376ZM0.601074 70.4997C0.601074 72.0788 0.646191 72.7246 0.701426 71.9352C0.75666 71.1458 0.75666 69.8535 0.701426 69.0641C0.646191 68.2747 0.601074 68.9206 0.601074 70.4997ZM67.4921 79.6415C60.9203 81.473 56.9276 88.2127 58.6032 94.6461C59.2127 96.9859 60.2687 98.8587 61.8965 100.486L63.355 101.945H58.0407H52.7265V100.496C52.7265 99.6987 52.5788 98.8989 52.3983 98.7184C51.9288 98.2489 34.6569 98.2489 34.1874 98.7184C34.0069 98.8989 33.8593 99.6987 33.8593 100.496V101.945H31.5873C29.0296 101.945 28.2839 102.272 28.4329 103.327L28.5272 103.996H70.4999H112.473L112.567 103.327C112.716 102.272 111.97 101.945 109.413 101.945H107.141V100.496C107.141 99.6987 106.993 98.8989 106.812 98.7184C106.571 98.4767 104.159 98.3903 97.6618 98.3903C87.6573 98.3903 88.2733 98.2391 88.2733 100.696V101.945H83.084H77.895L79.1042 100.83C85.2773 95.1402 84.1086 85.1081 76.7717 80.8094C74.3083 79.3659 70.2937 78.8606 67.4921 79.6415ZM68.136 86.2715C64.1786 92.361 63.6645 94.292 65.2502 97.1114C67.9731 101.953 75.0518 101.102 76.6881 95.7366C76.9197 94.977 77.0159 94.0312 76.9167 93.4878C76.5385 91.4133 71.682 83.3067 70.7099 83.127C70.3665 83.0636 69.6594 83.9276 68.136 86.2715ZM68.9003 88.4804C67.0417 91.4874 66.1364 93.3465 66.138 94.152C66.1388 94.4528 66.3669 95.1911 66.6453 95.7926L67.1514 96.8864L67.4735 96.0661C67.6507 95.6149 68.2952 94.4151 68.9058 93.4001C70.3859 90.9391 70.8745 90.9265 72.3795 93.3093C72.989 94.2745 73.6628 95.4741 73.8763 95.9753L74.2649 96.8864L74.7067 95.8697C75.337 94.4186 75.2604 93.6199 74.3111 91.7515C73.5042 90.1639 70.8108 85.8122 70.635 85.8122C70.5877 85.8122 69.8073 87.0128 68.9003 88.4804ZM70.294 94.6305C69.8234 95.2203 69.1327 96.7048 69.1327 97.1267C69.1327 97.7669 69.9246 98.3903 70.7381 98.3903C72.2414 98.3903 72.5575 97.1781 71.5253 95.3704C70.8578 94.2015 70.7083 94.1115 70.294 94.6305Z" fill="url(#paint0_linear_176_1107)"/>
<defs>
<linearGradient id="paint0_linear_176_1107" x1="43.2959" y1="19.912" x2="100.63" y2="19.9556" gradientUnits="userSpaceOnUse">
<stop stop-color="#3887DB"/>
<stop offset="1" stop-color="#1E4875"/>
</linearGradient>
</defs>
</svg>
