<svg width="142" height="142" viewBox="0 0 142 142" fill="none" xmlns="http://www.w3.org/2000/svg">
<path fill-rule="evenodd" clip-rule="evenodd" d="M66.4639 0.276165C53.1219 1.14158 39.9573 5.97983 28.7945 14.12C24.6485 17.143 16.4697 25.521 13.3133 29.9778C10.088 34.5313 5.60787 43.4272 3.97606 48.5167C-4.56209 75.15 2.51424 103.111 22.6037 122.124C36.8936 135.648 56.41 142.619 75.9306 141.172C101.711 139.26 124.062 123.955 134.915 100.781C147.787 73.2961 141.875 41.2163 120.043 20.0785C107.188 7.63177 91.0098 0.771193 73.3667 0.284054C70.6549 0.209504 67.5487 0.20556 66.4639 0.276165ZM103.936 21.1111C99.3803 22.4175 91.9478 24.5475 87.4192 25.8445L79.186 28.2028L82.876 31.653L86.566 35.1028L83.4018 38.3586C79.7792 42.0853 73.4977 48.6575 69.8195 52.5688C68.4381 54.0382 67.1696 55.1919 67.0012 55.1327C66.8327 55.0736 64.3852 52.942 61.5622 50.3959L56.4289 45.7667L52.7688 49.5908C50.7556 51.694 47.5109 55.1079 45.5584 57.1771C43.6059 59.2464 40.4058 62.6264 38.4473 64.6878C36.4889 66.7495 33.2841 70.1224 31.326 72.1834C29.368 74.2444 26.0003 77.7944 23.8426 80.0723C21.685 82.3502 19.7629 84.3275 19.5716 84.4668C19.3803 84.6056 21.5103 86.9542 24.3049 89.6853L29.3862 94.6513L32.9362 91.0079C34.8887 89.0041 41.0941 82.5238 46.7256 76.6079L56.9649 65.851L62.0276 70.8908L67.0903 75.9306L70.9188 71.985C73.0243 69.8151 77.8472 64.7564 81.6363 60.7433C85.4253 56.7306 90.4426 51.4368 92.786 48.9794L97.0468 44.5111L101.478 48.6607C105.514 52.4407 105.933 52.7329 106.185 51.9452C106.63 50.5485 112.471 19.2837 112.339 18.9973C112.274 18.8533 108.492 19.8047 103.936 21.1111ZM94.1713 64.1959C94.0904 64.3584 94.0352 77.183 94.0494 92.6945L94.0751 120.897L100.09 121.006L106.106 121.115V92.5075V63.9001H100.212C96.9707 63.9001 94.2526 64.0334 94.1713 64.1959ZM72.5778 98.0302V121.115L78.3959 121.007L84.2139 120.897L84.3157 97.9209L84.4175 74.9445H78.4977H72.5778V98.0302ZM51.2778 103.739V121.095H57.1945H63.1112V103.739V86.3834H57.1945H51.2778V103.739ZM30.1691 109.163L30.1841 120.897L35.9978 121.007L41.8112 121.115V109.272V97.4278H35.9829H30.1545L30.1691 109.163Z" fill="url(#paint0_linear_176_1085)"/>
<defs>
<linearGradient id="paint0_linear_176_1085" x1="43.505" y1="19.685" x2="101.363" y2="19.7289" gradientUnits="userSpaceOnUse">
<stop stop-color="#3887DB"/>
<stop offset="1" stop-color="#1E4875"/>
</linearGradient>
</defs>
</svg>
