<svg width="156" height="182" viewBox="0 0 156 182" fill="none" xmlns="http://www.w3.org/2000/svg">
<path d="M78 182C121.078 182 156 162.083 156 137.513C156 112.944 121.078 93.0261 78 93.0261C34.9218 93.0261 0 112.944 0 137.513C0 162.083 34.9218 182 78 182Z" fill="white"/>
<path d="M110.459 165.563L52.2347 131.81C51.7225 131.514 51.2971 131.087 51.0013 130.574C50.7055 130.06 50.5498 129.477 50.5498 128.883C50.5498 128.29 50.7055 127.707 51.0013 127.193C51.2971 126.679 51.7225 126.253 52.2347 125.956L57.9783 122.32C58.9698 121.747 60.0939 121.445 61.2381 121.445C62.3822 121.445 63.5063 121.747 64.4978 122.32L122.73 156.077C123.242 156.373 123.667 156.799 123.963 157.313C124.259 157.827 124.415 158.41 124.415 159.004C124.415 159.597 124.259 160.18 123.963 160.694C123.667 161.208 123.242 161.634 122.73 161.931L116.986 165.563C115.994 166.139 114.868 166.443 113.722 166.443C112.576 166.443 111.451 166.139 110.459 165.563Z" fill="#E0E0E0"/>
<path d="M21.9291 134.791C28.9073 134.791 34.5643 131.529 34.5643 127.506C34.5643 123.483 28.9073 120.221 21.9291 120.221C14.9509 120.221 9.29395 123.483 9.29395 127.506C9.29395 131.529 14.9509 134.791 21.9291 134.791Z" fill="#E6E6E6"/>
<path d="M131.106 136.46L136.648 139.659C136.648 139.659 133.818 130.729 135.326 121.728C135.896 118.326 137.119 116.637 137.546 115.727C137.974 114.817 141.287 109.193 138.338 106.618C135.389 104.043 128.529 109.221 128.901 123.079C129.07 127.615 129.811 132.111 131.106 136.46Z" fill="white"/>
<path opacity="0.5" d="M131.106 136.46L136.648 139.659C136.648 139.659 133.818 130.729 135.326 121.728C135.896 118.326 137.119 116.637 137.546 115.727C137.974 114.817 141.287 109.193 138.338 106.618C135.389 104.043 128.529 109.221 128.901 123.079C129.07 127.615 129.811 132.111 131.106 136.46Z" fill="black"/>
<path d="M133.683 138.145C133.642 138.146 133.603 138.134 133.569 138.111C133.536 138.088 133.511 138.056 133.497 138.018C133.477 137.958 131.359 132.148 131.426 122.809C131.494 113.469 136.382 108.398 136.43 108.351C136.448 108.332 136.47 108.317 136.494 108.307C136.518 108.297 136.544 108.292 136.57 108.292C136.596 108.292 136.622 108.297 136.646 108.307C136.671 108.317 136.692 108.332 136.711 108.351C136.729 108.369 136.744 108.391 136.754 108.415C136.764 108.439 136.769 108.465 136.769 108.492C136.769 108.518 136.764 108.544 136.754 108.568C136.744 108.592 136.729 108.614 136.711 108.633C136.663 108.68 131.89 113.6 131.822 122.813C131.755 132.025 133.845 137.827 133.869 137.883C133.887 137.932 133.884 137.987 133.862 138.034C133.839 138.082 133.799 138.119 133.75 138.137C133.728 138.144 133.705 138.146 133.683 138.145Z" fill="white"/>
<path d="M133.418 137.827L140.994 142.199C141.784 142.667 142.72 142.82 143.616 142.626C144.513 142.432 145.304 141.906 145.831 141.153C146.333 140.37 146.544 139.435 146.429 138.511C146.065 134.56 144.355 133.65 146.449 131.89C148.543 130.129 149.089 130.006 148.97 128.313C148.852 126.62 147.7 125.881 147.153 125.213C146.607 124.545 145.095 123.146 146.124 121.08C147.153 119.013 148.559 117.014 146.429 116.1C145.158 115.552 143.041 116.283 141.647 117.801C140.254 119.319 139.106 120.412 137.772 120.778C136.438 121.143 133.659 121.203 133.778 123.512C133.897 125.821 134.506 126.612 133.96 127.641C132.931 129.565 128.454 130.658 133.418 137.827Z" fill="white"/>
<path d="M137.162 140.18C137.113 140.178 137.066 140.159 137.029 140.125C136.993 140.092 136.97 140.046 136.964 139.997C136.964 139.862 135.801 126.222 145.142 117.145C145.181 117.113 145.23 117.097 145.28 117.1C145.33 117.103 145.377 117.125 145.411 117.161C145.446 117.197 145.465 117.245 145.466 117.295C145.467 117.346 145.449 117.394 145.415 117.431C136.208 126.377 137.348 139.826 137.36 139.961C137.365 140.013 137.348 140.065 137.315 140.105C137.282 140.145 137.234 140.171 137.182 140.176L137.162 140.18Z" fill="white"/>
<path d="M138.663 128.44C138.613 128.44 138.565 128.421 138.528 128.387C138.491 128.354 138.469 128.307 138.465 128.257C138.382 127.2 138.085 126.171 137.593 125.233C137.101 124.295 136.424 123.467 135.603 122.801C135.581 122.785 135.563 122.766 135.549 122.744C135.535 122.722 135.526 122.697 135.521 122.671C135.517 122.646 135.518 122.619 135.524 122.593C135.529 122.568 135.54 122.544 135.555 122.522C135.57 122.501 135.589 122.483 135.611 122.469C135.632 122.455 135.657 122.445 135.682 122.441C135.707 122.436 135.733 122.437 135.759 122.443C135.784 122.449 135.808 122.46 135.829 122.475C136.704 123.171 137.425 124.043 137.947 125.034C138.469 126.026 138.78 127.115 138.861 128.233C138.865 128.286 138.848 128.339 138.814 128.38C138.78 128.421 138.731 128.447 138.679 128.452L138.663 128.44Z" fill="white"/>
<path d="M138.017 130.781C137.97 130.781 137.923 130.764 137.887 130.733C137.848 130.698 137.824 130.649 137.82 130.596C137.816 130.543 137.833 130.491 137.867 130.451C137.962 130.34 140.301 127.748 145.784 128.436C145.836 128.443 145.883 128.47 145.915 128.512C145.947 128.554 145.961 128.606 145.954 128.659C145.947 128.711 145.92 128.759 145.879 128.791C145.837 128.824 145.785 128.839 145.732 128.833C140.468 128.17 138.184 130.689 138.16 130.713C138.142 130.733 138.12 130.75 138.096 130.761C138.071 130.773 138.045 130.78 138.017 130.781Z" fill="white"/>
<path d="M108.685 161.529L57.4797 131.846C53.8657 129.751 50.9365 124.132 50.9365 119.295V9.21072C50.9365 4.37415 53.8657 2.15259 57.4797 4.24698L108.685 33.9301C112.299 36.0245 115.229 41.644 115.229 46.4806V156.565C115.229 161.398 112.299 163.623 108.685 161.529Z" fill="#455A64"/>
<path d="M114.583 30.4686L63.3738 0.785481C61.8301 -0.108709 60.4129 -0.212038 59.2927 0.336398C59.1556 0.405353 59.0233 0.483696 58.8969 0.570875L53.1572 3.92111C54.3131 3.22563 55.8252 3.27729 57.4837 4.23904L108.689 33.9222C112.303 36.0166 115.233 41.636 115.233 46.4726V156.557C115.233 159.117 114.413 160.929 113.107 161.787L118.771 158.477C120.216 157.706 121.146 155.818 121.146 153.112V43.027C121.146 38.1825 118.197 32.563 114.583 30.4686Z" fill="#37474F"/>
<path d="M115.228 46.4726V156.557C115.228 159.117 114.409 160.929 113.103 161.787L118.771 158.477C120.216 157.706 121.146 155.818 121.146 153.112V43.027L115.248 46.4646L115.228 46.4726Z" fill="#263238"/>
<path d="M121.127 51.5675L115.229 54.9853V57.6559L121.127 54.2342V51.5675Z" fill="#37474F"/>
<path d="M118.542 69.3281C118.015 69.6341 117.588 69.3082 117.588 68.6048V62.8621C117.593 62.5031 117.682 62.1504 117.848 61.8322C118.014 61.514 118.251 61.2393 118.542 61.03C119.068 60.724 119.496 61.03 119.496 61.7533V67.496C119.49 67.855 119.401 68.2077 119.236 68.5259C119.07 68.844 118.832 69.1188 118.542 69.3281Z" fill="#37474F"/>
<path d="M117.584 68.6207V62.8621C117.589 62.5031 117.678 62.1504 117.844 61.8322C118.009 61.5141 118.247 61.2393 118.538 61.03C118.624 60.969 118.725 60.9319 118.831 60.9221C118.937 60.9123 119.043 60.9304 119.139 60.9744L118.423 60.6048C118.325 60.5574 118.216 60.5369 118.108 60.5453C117.999 60.5537 117.895 60.5906 117.805 60.6525C117.514 60.8618 117.276 61.1364 117.11 61.4545C116.944 61.7726 116.854 62.1254 116.847 62.4846V68.2233C116.832 68.3682 116.854 68.5146 116.911 68.6488C116.968 68.7829 117.058 68.9004 117.172 68.9903L117.92 69.3877C117.801 69.3016 117.707 69.185 117.648 69.0502C117.589 68.9153 117.566 68.7671 117.584 68.6207Z" fill="#455A64"/>
<path d="M118.542 83.2258C118.015 83.5318 117.588 83.2258 117.588 82.5025V76.7598C117.594 76.4009 117.683 76.0483 117.848 75.7302C118.014 75.4121 118.252 75.1372 118.542 74.9277C119.068 74.6217 119.496 74.9277 119.496 75.655V81.3937C119.491 81.7528 119.402 82.1058 119.237 82.4241C119.071 82.7423 118.833 83.017 118.542 83.2258Z" fill="#37474F"/>
<path d="M117.584 82.5026V76.7599C117.589 76.4009 117.679 76.0483 117.844 75.7302C118.01 75.4121 118.247 75.1373 118.538 74.9278C118.625 74.8679 118.726 74.8313 118.831 74.8216C118.937 74.8119 119.043 74.8293 119.139 74.8721L118.423 74.4986C118.325 74.4491 118.216 74.4274 118.108 74.4358C117.999 74.4443 117.894 74.4824 117.805 74.5463C117.514 74.7549 117.275 75.0294 117.109 75.3477C116.943 75.6659 116.853 76.019 116.847 76.3784V82.133C116.832 82.278 116.854 82.4245 116.911 82.5587C116.968 82.6929 117.058 82.8103 117.172 82.9L117.92 83.2974C117.796 83.2092 117.699 83.0882 117.64 82.9479C117.58 82.8075 117.561 82.6533 117.584 82.5026Z" fill="#455A64"/>
<path d="M106.896 37.018L56.5772 7.83961C56.3672 7.71831 56.1293 7.65426 55.887 7.65381C55.6447 7.65336 55.4065 7.71652 55.1961 7.83704C54.9856 7.95755 54.8102 8.13121 54.6872 8.34081C54.5643 8.5504 54.498 8.78863 54.4951 9.03186V119.295C54.4951 122.975 57.0958 127.494 60.2704 129.334L109.354 157.801C109.587 157.936 109.851 158.006 110.12 158.006C110.388 158.006 110.652 157.935 110.885 157.8C111.117 157.665 111.31 157.471 111.445 157.238C111.579 157.004 111.65 156.739 111.65 156.47V45.2962C111.67 42.2599 109.525 38.5361 106.896 37.018Z" fill="white"/>
<path opacity="0.9" d="M106.896 37.018L56.5772 7.83961C56.3672 7.71831 56.1293 7.65426 55.887 7.65381C55.6447 7.65336 55.4065 7.71652 55.1961 7.83704C54.9856 7.95755 54.8102 8.13121 54.6872 8.34081C54.5643 8.5504 54.498 8.78863 54.4951 9.03186V119.295C54.4951 122.975 57.0958 127.494 60.2704 129.334L109.354 157.801C109.587 157.936 109.851 158.006 110.12 158.006C110.388 158.006 110.652 157.935 110.885 157.8C111.117 157.665 111.31 157.471 111.445 157.238C111.579 157.004 111.65 156.739 111.65 156.47V45.2962C111.67 42.2599 109.525 38.5361 106.896 37.018Z" fill="white"/>
<path d="M71.627 15.4581L72.4068 18.7527L89.0874 28.41L91.9691 26.868L71.627 15.4581Z" fill="#455A64"/>
<path d="M76.5312 18.6415C76.5312 19.1899 76.1353 19.4085 75.6761 19.1383C75.4296 18.974 75.225 18.7539 75.0785 18.4958C74.9321 18.2376 74.848 17.9486 74.833 17.6519C74.833 17.1075 75.2288 16.8849 75.688 17.1591C75.9344 17.3226 76.1391 17.5419 76.2856 17.7994C76.4321 18.0569 76.5162 18.3454 76.5312 18.6415Z" fill="#263238"/>
<path d="M87.769 25.6161C87.6778 25.6154 87.5881 25.5922 87.5078 25.5486L78.9893 20.7795C78.8691 20.7086 78.7812 20.5933 78.7445 20.4582C78.7077 20.3231 78.725 20.179 78.7927 20.0565C78.8604 19.9341 78.9731 19.8431 79.1067 19.8029C79.2404 19.7628 79.3843 19.7767 79.5079 19.8416L88.0303 24.6106C88.1339 24.6685 88.2154 24.7592 88.262 24.8686C88.3086 24.978 88.3177 25.0999 88.2878 25.215C88.2579 25.3302 88.1907 25.4321 88.0968 25.5047C88.0029 25.5773 87.8876 25.6165 87.769 25.6161Z" fill="#263238"/>
<path d="M65.0477 30.7865C64.5292 30.4845 64.1531 30.7468 64.1531 31.4105C64.1531 31.7424 64.2348 32.0691 64.3909 32.3617C64.5469 32.6543 64.7726 32.9036 65.0477 33.0876C65.1951 33.1774 65.3642 33.2249 65.5366 33.2249C65.709 33.2249 65.8781 33.1774 66.0254 33.0876L66.8528 34.5898C66.5617 34.751 66.2317 34.8279 65.8997 34.8117C65.5677 34.7956 65.2467 34.6871 64.9725 34.4984C64.3004 34.0856 63.74 33.5127 63.341 32.8307C62.9419 32.1486 62.7165 31.3782 62.6846 30.5878C62.6846 29.1134 63.6702 28.6007 65.0279 29.3956C65.7947 29.8913 66.4228 30.5752 66.8528 31.3826L66.0254 32.0424C65.8214 31.5411 65.483 31.1063 65.0477 30.7865Z" fill="#0D5EFB"/>
<path d="M71.6153 35.7661C71.6153 37.2525 70.6138 37.7532 69.2403 36.9584C68.549 36.5436 67.9704 35.9638 67.5561 35.2705C67.1418 34.5771 66.9044 33.7918 66.8652 32.9842C66.8652 31.4979 67.8667 30.9971 69.2403 31.7919C69.9332 32.2048 70.5131 32.7842 70.9276 33.4779C71.3422 34.1716 71.5785 34.958 71.6153 35.7661ZM68.3338 33.8704C68.3407 34.2117 68.4283 34.5464 68.5894 34.8469C68.7504 35.1475 68.9803 35.4053 69.2601 35.5992C69.7509 35.8854 70.1467 35.5992 70.1467 34.9236C70.1454 34.5901 70.0641 34.2618 69.9098 33.9664C69.7555 33.671 69.5326 33.4173 69.2601 33.2266C68.7613 32.9365 68.3338 33.1829 68.3338 33.8704Z" fill="#0D5EFB"/>
<path d="M73.21 34.1885L74.92 37.7652V35.1899L76.2144 35.9411V40.9525L75.0269 40.261L73.3248 36.716V39.2754L72.0225 38.5203V33.4969L73.21 34.1885Z" fill="#0D5EFB"/>
<path d="M80.4468 38.3812V39.6926L79.2117 38.9773V42.6812L77.7828 41.8506V38.1467L76.5557 37.4353V36.1278L80.4468 38.3812Z" fill="#0D5EFB"/>
<path d="M83.233 44.3027L81.6101 43.3608L81.3884 43.941L79.9238 43.0905L81.7486 39.1362L83.2172 39.9867L84.9747 46.0195L83.4507 45.1372L83.233 44.3027ZM82.8807 42.9117L82.4374 41.1988L81.9822 42.3911L82.8807 42.9117Z" fill="#0D5EFB"/>
<path d="M87.243 43.6509C86.7245 43.3528 86.3484 43.6112 86.3484 44.2788C86.3491 44.6106 86.4311 44.9371 86.5871 45.2295C86.7431 45.522 86.9684 45.7715 87.243 45.9559C87.3915 46.0448 87.5611 46.0918 87.7339 46.0918C87.9067 46.0918 88.0763 46.0448 88.2247 45.9559L89.052 47.4582C88.7597 47.6176 88.4294 47.6933 88.0972 47.6772C87.7649 47.6611 87.4435 47.5537 87.1678 47.3668C86.4952 46.9535 85.9345 46.3801 85.5354 45.6973C85.1363 45.0144 84.9111 44.2433 84.8799 43.4522C84.8799 41.9778 85.8695 41.4651 87.2232 42.2599C87.989 42.7581 88.6178 43.4413 89.052 44.247L88.2247 44.9028C88.0162 44.4041 87.6769 43.9715 87.243 43.6509Z" fill="#0D5EFB"/>
<path d="M92.9546 45.6341V46.9416L91.7196 46.2262V49.9421L90.2906 49.1115V45.4076L89.0635 44.6962V43.3887L92.9546 45.6341Z" fill="#0D5EFB"/>
<path d="M97.178 51.7861C97.5303 51.9888 97.7995 51.8298 97.7995 51.3331V48.4438L99.2324 49.2705V52.1597C99.2324 53.491 98.4408 53.8885 97.1741 53.1612C96.5638 52.8209 96.0508 52.3291 95.6842 51.7327C95.3175 51.1364 95.1095 50.4555 95.0801 49.7553V46.8661L96.513 47.6967V50.5859C96.5185 50.8251 96.582 51.0594 96.6978 51.2685C96.8137 51.4776 96.9785 51.6553 97.178 51.7861Z" fill="#0D5EFB"/>
<path d="M101.54 51.802C101.378 51.7105 101.275 51.7066 101.275 51.8576C101.275 52.4855 103.511 53.3916 103.511 55.2078C103.511 56.3206 102.668 56.3246 101.695 55.7602C100.839 55.2337 100.101 54.5339 99.5293 53.7056L100.06 52.7677C100.495 53.4443 101.054 54.0322 101.706 54.5004C101.916 54.6236 102.051 54.6236 102.051 54.4448C102.051 53.793 99.8103 52.9266 99.8103 51.1661C99.8103 50.1646 100.539 49.9738 101.663 50.6097C102.387 51.0495 103.024 51.6193 103.543 52.2908L103.025 53.2525C102.596 52.7049 102.097 52.217 101.54 51.802Z" fill="#0D5EFB"/>
<path d="M57.8479 55.4821C59.454 53.5016 60.2625 50.9887 60.1138 48.4392C59.9651 45.8896 58.8701 43.4886 57.0448 41.7098C55.2195 39.931 52.7965 38.9036 50.2538 38.8304C47.711 38.7571 45.2333 39.6433 43.3094 41.3141C41.3855 42.9849 40.1552 45.3189 39.8612 47.8557C39.5671 50.3925 40.2307 52.9478 41.7211 55.0175C43.2114 57.0872 45.4203 58.5209 47.9118 59.0358C50.4033 59.5508 52.9966 59.1095 55.1799 57.799L60.1358 59.961L57.8479 55.4821Z" fill="white"/>
<path d="M57.8479 55.4821C59.454 53.5016 60.2625 50.9887 60.1138 48.4392C59.9651 45.8896 58.8701 43.4886 57.0448 41.7098C55.2195 39.931 52.7965 38.9036 50.2538 38.8304C47.711 38.7571 45.2333 39.6433 43.3094 41.3141C41.3855 42.9849 40.1552 45.3189 39.8612 47.8557C39.5671 50.3925 40.2307 52.9478 41.7211 55.0175C43.2114 57.0872 45.4203 58.5209 47.9118 59.0358C50.4033 59.5508 52.9966 59.1095 55.1799 57.799L60.1358 59.961L57.8479 55.4821Z" fill="white"/>
<path d="M46.194 48.4875C46.194 48.3325 46.0832 48.2451 45.8813 48.2451C45.413 48.3067 44.9757 48.5137 44.6304 48.8373L44.0684 47.7404C44.66 47.2934 45.3748 47.0408 46.1148 47.0171C47.0649 47.0171 47.7853 47.5178 47.7853 48.265C47.7853 48.7975 47.3894 49.3102 46.8828 49.8229L46.1742 50.5263H47.8486V51.6947H44.2504V50.7369L45.8536 49.0717C46.0262 48.9184 46.1455 48.7137 46.194 48.4875Z" fill="#0D5EFB"/>
<path d="M50.7784 47.0846L49.6859 49.7155H50.1332V48.8293H51.5108V49.7155H52.0333V50.8005H51.5108V51.6946H50.1332V50.8005H48.1738V49.8149L49.3613 47.0846H50.7784Z" fill="#0D5EFB"/>
<path d="M56.284 49.4016V51.6947H54.8114V49.8269C54.8199 49.766 54.8153 49.7041 54.798 49.6452C54.7806 49.5863 54.7508 49.5319 54.7106 49.4856C54.6705 49.4392 54.6209 49.4021 54.5652 49.3766C54.5095 49.3512 54.4491 49.338 54.3879 49.338C54.0989 49.338 53.9169 49.5646 53.9169 49.9143V51.6947H52.4443V46.8224H53.9169V48.6147C54.032 48.4319 54.1926 48.2823 54.3827 48.1806C54.5729 48.0789 54.7861 48.0286 55.0015 48.0345C55.1779 48.0299 55.3534 48.0628 55.5164 48.131C55.6793 48.1992 55.8261 48.3011 55.9472 48.4301C56.0682 48.5592 56.1608 48.7124 56.2188 48.8798C56.2769 49.0472 56.2991 49.225 56.284 49.4016Z" fill="#0D5EFB"/>
<path d="M104.299 86.3297V135.709C104.3 136.267 104.154 136.816 103.877 137.3C103.599 137.784 103.2 138.186 102.718 138.466C102.236 138.745 101.69 138.893 101.134 138.893C100.578 138.893 100.031 138.746 99.5493 138.467L73.0598 123.111L68.3651 120.392C66.7485 119.454 65.4056 118.106 64.4706 116.483C63.5356 114.86 63.0413 113.019 63.0371 111.144V61.7613C63.0363 61.2028 63.182 60.654 63.4596 60.17C63.7372 59.686 64.1369 59.284 64.6184 59.0044C65.1 58.7248 65.6464 58.5775 66.2027 58.5773C66.7589 58.5771 67.3054 58.724 67.7872 59.0032L98.9793 77.0818C100.597 78.0187 101.94 79.3667 102.873 80.99C103.807 82.6134 104.299 84.455 104.299 86.3297Z" fill="white"/>
<path opacity="0.5" d="M104.299 86.3297V135.709C104.3 136.267 104.154 136.816 103.877 137.3C103.599 137.784 103.2 138.186 102.718 138.466C102.236 138.745 101.69 138.893 101.134 138.893C100.578 138.893 100.031 138.746 99.5493 138.467L73.0598 123.111L68.3651 120.392C66.7485 119.454 65.4056 118.106 64.4706 116.483C63.5356 114.86 63.0413 113.019 63.0371 111.144V61.7613C63.0363 61.2028 63.182 60.654 63.4596 60.17C63.7372 59.686 64.1369 59.284 64.6184 59.0044C65.1 58.7248 65.6464 58.5775 66.2027 58.5773C66.7589 58.5771 67.3054 58.724 67.7872 59.0032L98.9793 77.0818C100.597 78.0187 101.94 79.3667 102.873 80.99C103.807 82.6134 104.299 84.455 104.299 86.3297Z" fill="white"/>
<path d="M89.0397 115.548C89.0397 115.548 93.9996 123.806 90.4172 133.118L73.0479 123.111L89.0397 115.548Z" fill="#263238"/>
<path d="M96.9499 78.4438C97.3252 75.3831 95.1583 72.5964 92.1097 72.2195C89.0612 71.8427 86.2856 74.0183 85.9102 77.079C85.5348 80.1397 87.7018 82.9264 90.7503 83.3033C93.7988 83.6802 96.5745 81.5045 96.9499 78.4438Z" fill="black"/>
<path d="M91.459 62.0991C91.459 62.0991 93.1651 59.3172 93.6876 59.5198C94.2101 59.7225 93.3471 62.3733 93.3471 62.3733C93.3471 62.3733 95.928 62.9138 95.449 63.5655C94.9701 64.2173 91.8152 64.0623 91.8152 64.0623L91.459 62.0991Z" fill="black"/>
<path d="M92.6467 69.2685C91.4591 78.2263 83.9382 78.2263 83.9382 78.2263L68.1838 71.2636C68.1838 71.2636 66.9963 70.2184 66.6321 67.818C66.4924 66.8347 66.4924 65.8365 66.6321 64.8532C66.6321 64.8532 66.6321 64.8333 66.6321 64.8254C67.1348 61.0579 69.9413 57.0082 76.0531 55.7643C77.3924 55.4928 78.756 55.3596 80.1223 55.3669C80.7833 55.3645 81.444 55.3977 82.1015 55.4662C86.8516 55.9352 90.1806 58.1607 91.7679 61.6222C92.1249 62.4035 92.3906 63.2237 92.5596 64.0663C92.8817 65.7829 92.9112 67.542 92.6467 69.2685Z" fill="black"/>
<path d="M54.8237 86.5958C54.8237 86.5958 49.2305 86.4011 47.0771 91.8735C47.0771 91.8735 49.4522 93.4831 52.5674 91.8735C55.6827 90.264 54.8237 86.5958 54.8237 86.5958Z" fill="white"/>
<path opacity="0.5" d="M54.8237 86.5958C54.8237 86.5958 49.2305 86.4011 47.0771 91.8735C47.0771 91.8735 49.4522 93.4831 52.5674 91.8735C55.6827 90.264 54.8237 86.5958 54.8237 86.5958Z" fill="black"/>
<path d="M54.6655 89.2308C54.6655 89.2308 53.0821 82.3237 52.2469 82.2403C51.4117 82.1568 51.2494 84.3466 51.3167 85.5825L49.3375 81.3063C49.2747 81.1734 49.1855 81.0549 49.0753 80.9579C48.9651 80.861 48.8364 80.7878 48.6969 80.7427C48.5575 80.6976 48.4103 80.6817 48.2645 80.696C48.1187 80.7102 47.9773 80.7543 47.8492 80.8254C45.87 81.9183 42.3985 85.2408 49.7175 93.4554L54.6655 89.2308Z" fill="#CFA7A7"/>
<path d="M74.9326 84.4537L73.7451 84.2987C72.5483 84.1394 71.3309 84.3028 70.2178 84.7722C69.1047 85.2415 68.1362 85.9999 67.4116 86.9694L60.3459 96.412L54.8042 86.5958C54.8042 86.5958 54.1392 93.2724 47.0576 91.8735L54.6617 104.722C55.1429 105.535 55.8127 106.22 56.6141 106.718C57.4155 107.215 58.3248 107.511 59.2646 107.58C60.2044 107.65 61.1469 107.49 62.012 107.114C62.877 106.739 63.639 106.16 64.2331 105.425L70.7406 97.3937L74.9326 84.4537Z" fill="#0D5EFB"/>
<path d="M90.0135 106.491C88.4301 110.521 88.2559 111.307 89.2218 113.322C89.8944 114.81 90.4246 116.359 90.8051 117.948C90.8051 117.948 83.4663 126.207 73.0201 123.115L68.3255 120.396C67.3491 119.831 66.4697 119.112 65.7208 118.266L67.1498 107.568C67.2218 107.005 67.1649 106.432 66.9836 105.895L65.4833 101.479C64.7513 99.3227 64.6423 97.0022 65.1691 94.786C65.6959 92.5699 66.8369 90.5488 68.46 88.9566L73.503 84.0088L86.7478 85.7097L88.727 86.278C90.0227 86.6543 91.1397 87.4873 91.8727 88.624C92.6057 89.7608 92.9055 91.1249 92.717 92.4658C92.0679 97.1554 91.007 103.959 90.0135 106.491Z" fill="white"/>
<path opacity="0.7" d="M90.0135 106.491C88.4301 110.521 88.2559 111.307 89.2218 113.322C89.8944 114.81 90.4246 116.359 90.8051 117.948C90.8051 117.948 83.4663 126.207 73.0201 123.115L68.3255 120.396C67.3491 119.831 66.4697 119.112 65.7208 118.266L67.1498 107.568C67.2218 107.005 67.1649 106.432 66.9836 105.895L65.4833 101.479C64.7513 99.3227 64.6423 97.0022 65.1691 94.786C65.6959 92.5699 66.8369 90.5488 68.46 88.9566L73.503 84.0088L86.7478 85.7097L88.727 86.278C90.0227 86.6543 91.1397 87.4873 91.8727 88.624C92.6057 89.7608 92.9055 91.1249 92.717 92.4658C92.0679 97.1554 91.007 103.959 90.0135 106.491Z" fill="black"/>
<path d="M82.0258 94.4528L79.3736 92.1836C79.0928 91.9424 78.7541 91.7788 78.391 91.7091C78.028 91.6394 77.6531 91.666 77.3034 91.7862L74.0971 92.895L73.6656 91.0907C73.5983 90.81 73.475 90.5459 73.3033 90.3143C73.1315 90.0827 72.9148 89.8885 72.6662 89.7433C72.4177 89.5981 72.1424 89.5049 71.857 89.4694C71.5716 89.4339 71.2819 89.4569 71.0056 89.5368L69.6162 89.9342L71.9675 85.4116C72.7352 83.9386 73.9178 82.7251 75.3677 81.9223L76.29 81.4136L83.9099 81.811C83.9099 81.811 86.7481 83.0032 86.7481 85.6858L82.0258 94.429" fill="#0D5EFB"/>
<path d="M83.9414 85.2009L76.3018 91.1781V72.1458H83.9414V85.2009Z" fill="#CFA7A7"/>
<path d="M76.4212 83.6311L74.0977 92.9108L83.9105 85.2009L76.4212 83.6311Z" fill="#CFA7A7"/>
<path d="M76.3018 82.2521C78.0006 81.6188 79.5535 80.6454 80.8661 79.3911C82.1787 78.1368 83.2237 76.6277 83.9375 74.9555V72.1458H76.2979L76.3018 82.2521Z" fill="#703838"/>
<path d="M77.9484 58.0414C75.0508 58.0414 68.8916 59.6628 68.1791 67.2774C67.4666 74.8919 68.1553 80.7896 72.0662 81.3618C75.9771 81.9341 85.0655 79.0846 86.2847 69.2287C87.5039 59.3727 80.7707 58.0414 77.9484 58.0414Z" fill="#CFA7A7"/>
<path d="M73.389 70.5005V74.9873L70.7686 74.1806L73.389 70.5005Z" fill="#703838"/>
<path d="M76.302 72.1894C76.8048 72.1894 77.2125 71.7802 77.2125 71.2754C77.2125 70.7706 76.8048 70.3613 76.302 70.3613C75.7992 70.3613 75.3916 70.7706 75.3916 71.2754C75.3916 71.7802 75.7992 72.1894 76.302 72.1894Z" fill="#263238"/>
<path d="M71.2193 70.6396C71.2185 70.8202 71.1644 70.9965 71.0639 71.1463C70.9634 71.2961 70.821 71.4127 70.6545 71.4812C70.4881 71.5498 70.3052 71.5673 70.1288 71.5316C69.9525 71.4959 69.7906 71.4085 69.6637 71.2805C69.5368 71.1526 69.4505 70.9897 69.4156 70.8125C69.3808 70.6353 69.3991 70.4517 69.4681 70.2849C69.5371 70.1181 69.6538 69.9756 69.8035 69.8753C69.9531 69.7751 70.129 69.7216 70.3089 69.7216C70.4288 69.7216 70.5475 69.7453 70.6582 69.7915C70.7689 69.8377 70.8694 69.9054 70.954 69.9907C71.0386 70.076 71.1056 70.1772 71.1511 70.2886C71.1966 70.3999 71.2198 70.5192 71.2193 70.6396Z" fill="#263238"/>
<path d="M69.1967 68.7319L70.978 67.6708C70.978 67.6708 70.2972 66.9594 69.6163 67.3847C68.9355 67.8099 69.1967 68.7319 69.1967 68.7319Z" fill="#263238"/>
<path d="M72.1572 76.8074C73.0247 76.871 73.8881 76.6385 74.6075 76.1477C74.6075 76.1477 74.7777 77.4473 73.6931 77.6937C72.6085 77.9401 72.1572 76.8074 72.1572 76.8074Z" fill="#703838"/>
<path d="M70.6016 60.6326C70.6016 60.6326 71.6901 71.1443 85.9284 71.4741C85.9284 71.4741 90.2312 61.026 81.7286 57.6321C73.226 54.2381 70.6016 60.6326 70.6016 60.6326Z" fill="black"/>
<path d="M90.1211 69.9004L88.3715 68.883C87.7065 68.4856 86.7881 68.5413 85.7708 69.1294C83.752 70.2978 82.1133 73.1473 82.1133 75.4881C82.1133 76.6605 82.5091 77.4752 83.19 77.8726L84.9079 78.8662L85.0069 78.9218L85.0662 78.9576C85.7154 79.2755 86.5823 79.2 87.5363 78.6476C89.555 77.4553 91.1938 74.6297 91.1938 72.2889C91.1819 71.1046 90.7742 70.2859 90.1211 69.9004Z" fill="white"/>
<path d="M90.1069 75.8864C91.5344 73.4039 91.5345 70.7207 90.1069 69.8932C88.6794 69.0657 86.3649 70.4074 84.9374 72.8899C83.5098 75.3723 83.5098 78.0556 84.9373 78.883C86.3648 79.7105 88.6793 78.3689 90.1069 75.8864Z" fill="white"/>
<path opacity="0.5" d="M90.1069 75.8864C91.5344 73.4039 91.5345 70.7207 90.1069 69.8932C88.6794 69.0657 86.3649 70.4074 84.9374 72.8899C83.5098 75.3723 83.5098 78.0556 84.9373 78.883C86.3648 79.7105 88.6793 78.3689 90.1069 75.8864Z" fill="black"/>
<path d="M90.821 72.106L89.6335 71.4105C89.1823 71.1403 88.5529 71.176 87.8562 71.5774C87.1284 72.0549 86.5228 72.6976 86.0882 73.4536C85.6536 74.2096 85.4023 75.0576 85.3545 75.9291C85.3545 76.724 85.6355 77.2923 86.0908 77.5546L87.2783 78.2342C87.2993 78.2496 87.3219 78.2629 87.3456 78.2739L87.3851 78.2977C87.6635 78.4037 87.9635 78.4396 88.2589 78.4022C88.5542 78.3648 88.8359 78.2552 89.0793 78.0831C89.8066 77.606 90.4119 76.9639 90.8465 76.2087C91.281 75.4535 91.5327 74.6062 91.581 73.7354C91.5494 72.9286 91.2723 72.3683 90.821 72.106Z" fill="white"/>
<path d="M91.5494 73.7274C91.501 74.5983 91.2493 75.4455 90.8148 76.2007C90.3802 76.956 89.7749 77.598 89.0477 78.0752C87.6622 78.87 86.542 78.2262 86.542 76.6246C86.5889 75.7529 86.8404 74.9048 87.2758 74.1492C87.7113 73.3937 88.3184 72.7521 89.0477 72.2768C90.4291 71.4741 91.5494 72.1218 91.5494 73.7274Z" fill="white"/>
<path opacity="0.3" d="M91.5494 73.7274C91.501 74.5983 91.2493 75.4455 90.8148 76.2007C90.3802 76.956 89.7749 77.598 89.0477 78.0752C87.6622 78.87 86.542 78.2262 86.542 76.6246C86.5889 75.7529 86.8404 74.9048 87.2758 74.1492C87.7113 73.3937 88.3184 72.7521 89.0477 72.2768C90.4291 71.4741 91.5494 72.1218 91.5494 73.7274Z" fill="black"/>
<path d="M84.686 55.9908C83.5512 55.1108 82.1614 54.6266 80.7276 54.6117H80.3753C78.9235 54.596 77.4738 54.7292 76.0488 55.0091C76.3101 55.0091 76.5713 55.0091 76.8405 55.0091H76.0488V55.7483H76.7851C79.3225 55.835 81.727 56.9088 83.4902 58.7429C85.2534 60.5769 86.2373 63.0274 86.2337 65.5765V68.7042C86.2336 68.8278 86.2594 68.9501 86.3094 69.0631C86.3594 69.176 86.4325 69.2772 86.5239 69.36C86.6154 69.4429 86.7231 69.5054 86.8402 69.5438C86.9573 69.5821 87.0811 69.5952 87.2036 69.5824H87.2946L88.0863 69.336C88.0335 69.3527 87.9791 69.3634 87.924 69.3678C88.16 69.3357 88.376 69.2175 88.5307 69.0357C88.6855 68.8539 88.7682 68.6213 88.7632 68.3822V65.4811C88.7552 60.2312 86.495 57.4095 84.686 55.9908Z" fill="white"/>
<path d="M79.702 81.1433C79.3755 81.1433 79.0528 81.0728 78.7559 80.9366L76.2819 79.7881C76.2432 79.7742 76.2078 79.7524 76.1779 79.7241C76.1481 79.6957 76.1244 79.6615 76.1084 79.6235C76.0924 79.5855 76.0844 79.5445 76.085 79.5033C76.0856 79.462 76.0947 79.4213 76.1117 79.3838C76.1288 79.3462 76.1534 79.3127 76.184 79.2852C76.2147 79.2577 76.2507 79.2369 76.2897 79.2241C76.3288 79.2113 76.3701 79.2067 76.411 79.2108C76.4519 79.2148 76.4915 79.2274 76.5273 79.2476L79.0013 80.3961C79.3168 80.5435 79.6703 80.5882 80.0123 80.5241C80.3544 80.4599 80.668 80.2902 80.9093 80.0385L83.2843 77.5745C83.34 77.5187 83.4154 77.4873 83.4941 77.4873C83.5728 77.4873 83.6482 77.5187 83.7039 77.5745C83.7585 77.6309 83.7891 77.7064 83.7891 77.7851C83.7891 77.8638 83.7585 77.9394 83.7039 77.9957L81.3289 80.4597C81.1174 80.6777 80.8644 80.8506 80.5848 80.968C80.3053 81.0855 80.005 81.1451 79.702 81.1433Z" fill="white"/>
<path opacity="0.5" d="M79.702 81.1433C79.3755 81.1433 79.0528 81.0728 78.7559 80.9366L76.2819 79.7881C76.2432 79.7742 76.2078 79.7524 76.1779 79.7241C76.1481 79.6957 76.1244 79.6615 76.1084 79.6235C76.0924 79.5855 76.0844 79.5445 76.085 79.5033C76.0856 79.462 76.0947 79.4213 76.1117 79.3838C76.1288 79.3462 76.1534 79.3127 76.184 79.2852C76.2147 79.2577 76.2507 79.2369 76.2897 79.2241C76.3288 79.2113 76.3701 79.2067 76.411 79.2108C76.4519 79.2148 76.4915 79.2274 76.5273 79.2476L79.0013 80.3961C79.3168 80.5435 79.6703 80.5882 80.0123 80.5241C80.3544 80.4599 80.668 80.2902 80.9093 80.0385L83.2843 77.5745C83.34 77.5187 83.4154 77.4873 83.4941 77.4873C83.5728 77.4873 83.6482 77.5187 83.7039 77.5745C83.7585 77.6309 83.7891 77.7064 83.7891 77.7851C83.7891 77.8638 83.7585 77.9394 83.7039 77.9957L81.3289 80.4597C81.1174 80.6777 80.8644 80.8506 80.5848 80.968C80.3053 81.0855 80.005 81.1451 79.702 81.1433Z" fill="black"/>
<path d="M76.9318 78.9534C76.9318 79.1829 76.864 79.4073 76.737 79.5981C76.61 79.789 76.4295 79.9377 76.2183 80.0256C76.0071 80.1134 75.7747 80.1364 75.5505 80.0916C75.3263 80.0468 75.1203 79.9363 74.9587 79.774C74.797 79.6117 74.6869 79.4049 74.6423 79.1798C74.5977 78.9547 74.6206 78.7214 74.7081 78.5093C74.7956 78.2973 74.9437 78.1161 75.1338 77.9885C75.3239 77.861 75.5474 77.793 75.776 77.793C76.0825 77.793 76.3765 77.9152 76.5933 78.1329C76.81 78.3505 76.9318 78.6457 76.9318 78.9534Z" fill="white"/>
<path opacity="0.5" d="M76.9318 78.9534C76.9318 79.1829 76.864 79.4073 76.737 79.5981C76.61 79.789 76.4295 79.9377 76.2183 80.0256C76.0071 80.1134 75.7747 80.1364 75.5505 80.0916C75.3263 80.0468 75.1203 79.9363 74.9587 79.774C74.797 79.6117 74.6869 79.4049 74.6423 79.1798C74.5977 78.9547 74.6206 78.7214 74.7081 78.5093C74.7956 78.2973 74.9437 78.1161 75.1338 77.9885C75.3239 77.861 75.5474 77.793 75.776 77.793C76.0825 77.793 76.3765 77.9152 76.5933 78.1329C76.81 78.3505 76.9318 78.6457 76.9318 78.9534Z" fill="black"/>
<path d="M88.7552 65.4809V68.3821C88.7603 68.6212 88.6775 68.8538 88.5228 69.0355C88.368 69.2173 88.152 69.3355 87.916 69.3677C87.7856 69.3816 87.6538 69.3679 87.529 69.3273C87.4043 69.2867 87.2894 69.2202 87.192 69.1321C87.0945 69.044 87.0166 68.9363 86.9634 68.816C86.9101 68.6956 86.8827 68.5654 86.8829 68.4338V65.4809C86.8851 64.0717 86.6034 62.6765 86.0546 61.3794C85.5058 60.0823 84.7013 58.9101 83.6895 57.9333C82.6778 56.9565 81.4796 56.1953 80.1672 55.6954C78.8548 55.1956 77.4552 54.9675 76.0527 55.0249C77.4777 54.7449 78.9274 54.6118 80.3793 54.6275H80.7236C82.1574 54.6423 83.5472 55.1265 84.682 56.0065C86.495 57.4094 88.7552 60.2311 88.7552 65.4809Z" fill="white"/>
<path opacity="0.5" d="M88.7552 65.4809V68.3821C88.7603 68.6212 88.6775 68.8538 88.5228 69.0355C88.368 69.2173 88.152 69.3355 87.916 69.3677C87.7856 69.3816 87.6538 69.3679 87.529 69.3273C87.4043 69.2867 87.2894 69.2202 87.192 69.1321C87.0945 69.044 87.0166 68.9363 86.9634 68.816C86.9101 68.6956 86.8827 68.5654 86.8829 68.4338V65.4809C86.8851 64.0717 86.6034 62.6765 86.0546 61.3794C85.5058 60.0823 84.7013 58.9101 83.6895 57.9333C82.6778 56.9565 81.4796 56.1953 80.1672 55.6954C78.8548 55.1956 77.4552 54.9675 76.0527 55.0249C77.4777 54.7449 78.9274 54.6118 80.3793 54.6275H80.7236C82.1574 54.6423 83.5472 55.1265 84.682 56.0065C86.495 57.4094 88.7552 60.2311 88.7552 65.4809Z" fill="black"/>
<path d="M84.3062 120.154C84.3062 120.154 82.3903 125.451 89.2383 127.836C89.2383 127.836 91.4748 124.537 89.2383 121.839C87.0019 119.14 84.3062 120.154 84.3062 120.154Z" fill="white"/>
<path opacity="0.7" d="M84.3062 120.154C84.3062 120.154 82.3903 125.451 89.2383 127.836C89.2383 127.836 91.4748 124.537 89.2383 121.839C87.0019 119.14 84.3062 120.154 84.3062 120.154Z" fill="black"/>
<path d="M86.7085 120.396C86.7085 120.396 80.0189 122.856 80.0545 123.81C80.0901 124.764 82.8966 124.112 82.8966 124.112L81.8714 124.788C80.7918 125.495 79.9555 126.519 79.4766 127.721C79.3721 127.986 79.3685 128.28 79.4663 128.547C79.5641 128.815 79.7566 129.037 80.007 129.171L82.5483 130.522C82.6918 130.599 82.8491 130.646 83.0109 130.66C83.1727 130.674 83.3358 130.656 83.4904 130.606C83.645 130.556 83.7881 130.475 83.9112 130.369C84.0342 130.262 84.1347 130.132 84.2068 129.986C84.3485 129.705 84.5442 129.455 84.7827 129.25C85.0212 129.046 85.2977 128.89 85.5962 128.794C86.9777 128.333 89.5546 127.005 90.5877 123.373L86.7085 120.396Z" fill="#CFA7A7"/>
<path d="M88.7153 86.27C88.7153 86.27 85.1528 88.2571 87.0449 94.2899C88.937 100.323 92.4877 109.682 92.4877 109.682L84.3057 120.154C85.1798 120.26 86.0219 120.549 86.7769 121.004C87.532 121.459 88.183 122.068 88.6876 122.793C89.1709 123.529 89.4729 124.371 89.5686 125.248C89.6642 126.125 89.5509 127.012 89.2378 127.836L99.395 114.721C100.334 113.509 100.958 112.081 101.21 110.566C101.461 109.052 101.333 107.498 100.836 106.046L96.4817 93.2805C95.9494 91.7212 95.0649 90.3067 93.8975 89.1477C92.7301 87.9887 91.3114 87.1167 89.7524 86.5999L88.7153 86.27Z" fill="#0D5EFB"/>
<path d="M28.5794 50.6336L12.8369 41.493C12.6557 41.3669 12.4461 41.2882 12.227 41.2639C12.0079 41.2396 11.7862 41.2705 11.582 41.3539C11.539 41.3738 11.4979 41.3978 11.4593 41.4254L8.03534 43.4403H8.05908C7.62762 43.6867 7.35449 44.259 7.35449 45.0777V62.6595C7.35449 64.1458 8.25305 65.8746 9.36535 66.5184L25.1079 75.659C25.3076 75.804 25.5454 75.887 25.7917 75.8976C26.038 75.9082 26.2819 75.846 26.4933 75.7186C26.4826 75.7229 26.4731 75.7297 26.4656 75.7385L29.8658 73.7514C30.3092 73.5129 30.5902 72.9327 30.5902 72.1021V54.4925C30.5902 53.0062 29.7075 51.2774 28.5794 50.6336Z" fill="white"/>
<path d="M30.028 52.2988C29.7095 51.6187 29.2076 51.0419 28.5792 50.6336L12.8367 41.493C12.6555 41.3669 12.4459 41.2882 12.2268 41.2639C12.0077 41.2396 11.7861 41.2705 11.5819 41.3539C11.5388 41.3738 11.4978 41.3978 11.4592 41.4254L8.03516 43.4403C8.24461 43.3328 8.47946 43.2853 8.71404 43.3028C8.94862 43.3203 9.17388 43.4023 9.36517 43.5397L25.1077 52.6803C25.7574 53.1068 26.2724 53.7107 26.5921 54.421L30.028 52.2988Z" fill="white"/>
<path d="M27.119 74.1131C27.119 74.9079 26.8656 75.4603 26.4658 75.7028L29.8661 73.7157C30.3094 73.4772 30.5905 72.897 30.5905 72.0664V54.4926C30.5737 53.7276 30.3814 52.9769 30.0284 52.2988L26.5925 54.421C26.9224 55.0791 27.1022 55.8027 27.119 56.5393V74.1131Z" fill="white"/>
<path opacity="0.3" d="M30.028 52.2988C29.7095 51.6187 29.2076 51.0419 28.5792 50.6336L12.8367 41.493C12.6555 41.3669 12.4459 41.2882 12.2268 41.2639C12.0077 41.2396 11.7861 41.2705 11.5819 41.3539C11.5388 41.3738 11.4978 41.3978 11.4592 41.4254L8.03516 43.4403C8.24461 43.3328 8.47946 43.2853 8.71404 43.3028C8.94862 43.3203 9.17388 43.4023 9.36517 43.5397L25.1077 52.6803C25.7574 53.1068 26.2724 53.7107 26.5921 54.421L30.028 52.2988Z" fill="black"/>
<path opacity="0.6" d="M27.119 74.1131C27.119 74.9079 26.8656 75.4603 26.4658 75.7028L29.8661 73.7157C30.3094 73.4772 30.5905 72.897 30.5905 72.0664V54.4926C30.5737 53.7276 30.3814 52.9769 30.0284 52.2988L26.5925 54.421C26.9224 55.0791 27.1022 55.8027 27.119 56.5393V74.1131Z" fill="black"/>
<path d="M22.5034 61.5746C22.5034 63.8518 21.6048 64.6268 20.259 63.8438C19.8877 63.6316 19.5631 63.3462 19.3046 63.0047C19.0461 62.6632 18.8591 62.2727 18.7548 61.8568C18.359 62.3456 17.7454 62.3774 16.8825 61.8766C15.4654 61.054 14.3491 59.0947 14.3491 57.1911C14.3491 55.2874 15.4535 54.6317 16.8825 55.4583C17.6076 55.8874 18.1933 56.5182 18.5688 57.2745V56.5234L20.0611 57.3898V61.507C20.0388 61.7237 20.0762 61.9423 20.169 62.1392C20.2618 62.3361 20.4066 62.5037 20.5875 62.6238C21.0903 62.9179 21.399 62.4211 21.399 60.9467C21.399 58.3674 19.7523 55.6332 17.3179 54.2224C14.8835 52.8115 13.2408 53.7931 13.2408 56.4479C13.2727 57.8566 13.6593 59.2342 14.3646 60.4524C15.0699 61.6706 16.0709 62.6897 17.2744 63.4146C17.9278 63.8187 18.6698 64.0562 19.4356 64.1061L19.7879 65.4772C18.8962 65.405 18.0345 65.1202 17.2744 64.6466C14.1077 62.8066 12.0137 59.1026 12.0137 55.7484C12.0137 52.3942 14.1274 51.1781 17.3179 53.0301C20.4015 54.8145 22.5034 58.3873 22.5034 61.5746ZM18.5925 59.663C18.6002 59.1591 18.4777 58.6617 18.237 58.2195C17.9963 57.7772 17.6455 57.4051 17.2189 57.1394C16.4273 56.6744 15.8612 57.0003 15.8612 58.0813C15.851 58.586 15.9706 59.0849 16.2085 59.5298C16.4463 59.9746 16.7943 60.3503 17.2189 60.6208C18.0106 61.0699 18.5925 60.7798 18.5925 59.663Z" fill="white"/>
<g opacity="0.9">
<path d="M22.5034 61.5746C22.5034 63.8518 21.6048 64.6268 20.259 63.8438C19.8877 63.6316 19.5631 63.3462 19.3046 63.0047C19.0461 62.6632 18.8591 62.2727 18.7548 61.8568C18.359 62.3456 17.7454 62.3774 16.8825 61.8766C15.4654 61.054 14.3491 59.0947 14.3491 57.1911C14.3491 55.2874 15.4535 54.6317 16.8825 55.4583C17.6076 55.8874 18.1933 56.5182 18.5688 57.2745V56.5234L20.0611 57.3898V61.507C20.0388 61.7237 20.0762 61.9423 20.169 62.1392C20.2618 62.3361 20.4066 62.5037 20.5875 62.6238C21.0903 62.9179 21.399 62.4211 21.399 60.9467C21.399 58.3674 19.7523 55.6332 17.3179 54.2224C14.8835 52.8115 13.2408 53.7931 13.2408 56.4479C13.2727 57.8566 13.6593 59.2342 14.3646 60.4524C15.0699 61.6706 16.0709 62.6897 17.2744 63.4146C17.9278 63.8187 18.6698 64.0562 19.4356 64.1061L19.7879 65.4772C18.8962 65.405 18.0345 65.1202 17.2744 64.6466C14.1077 62.8066 12.0137 59.1026 12.0137 55.7484C12.0137 52.3942 14.1274 51.1781 17.3179 53.0301C20.4015 54.8145 22.5034 58.3873 22.5034 61.5746ZM18.5925 59.663C18.6002 59.1591 18.4777 58.6617 18.237 58.2195C17.9963 57.7772 17.6455 57.4051 17.2189 57.1394C16.4273 56.6744 15.8612 57.0003 15.8612 58.0813C15.851 58.586 15.9706 59.0849 16.2085 59.5298C16.4463 59.9746 16.7943 60.3503 17.2189 60.6208C18.0106 61.0699 18.5925 60.7798 18.5925 59.663Z" fill="#0D5EFB"/>
</g>
<path d="M28.5794 81.9423L12.8369 72.8017C12.6559 72.6749 12.4461 72.5961 12.2267 72.5724C12.0074 72.5488 11.7856 72.5812 11.582 72.6666C11.539 72.6865 11.4979 72.7105 11.4593 72.7381L8.03534 74.753H8.05908C7.62762 74.9994 7.35449 75.5717 7.35449 76.3864V93.9602C7.35449 95.4505 8.25305 97.1753 9.36535 97.8191L25.1079 106.96C25.3072 107.106 25.5451 107.189 25.7916 107.2C26.0381 107.211 26.2823 107.148 26.4933 107.019L26.4656 107.043L29.8658 105.036C30.3092 104.802 30.5902 104.241 30.5902 103.387V85.7972C30.5902 84.3109 29.7075 82.5861 28.5794 81.9423Z" fill="white"/>
<path d="M30.028 83.6075C29.7105 82.9267 29.2084 82.3496 28.5792 81.9423L12.8367 72.8017C12.6558 72.6749 12.4459 72.5961 12.2265 72.5724C12.0072 72.5488 11.7854 72.5812 11.5819 72.6666C11.5388 72.6865 11.4978 72.7105 11.4592 72.7381L8.03516 74.753C8.24413 74.6445 8.47887 74.596 8.71353 74.6128C8.94819 74.6297 9.17368 74.7112 9.36517 74.8484L25.1077 83.989C25.7585 84.4161 26.2736 85.0215 26.5921 85.7336L30.028 83.6075Z" fill="white"/>
<path d="M27.119 105.418C27.119 106.213 26.8656 106.765 26.4658 107.027L29.8661 105.02C30.3094 104.786 30.5905 104.225 30.5905 103.371V85.7972C30.5737 85.0335 30.3813 84.2841 30.0284 83.6074L26.5925 85.7296C26.9223 86.3863 27.1022 87.1086 27.119 87.8439V105.418Z" fill="white"/>
<path opacity="0.3" d="M30.028 83.6075C29.7105 82.9267 29.2084 82.3496 28.5792 81.9423L12.8367 72.8017C12.6558 72.6749 12.4459 72.5961 12.2265 72.5724C12.0072 72.5488 11.7854 72.5812 11.5819 72.6666C11.5388 72.6865 11.4978 72.7105 11.4592 72.7381L8.03516 74.753C8.24413 74.6445 8.47887 74.596 8.71353 74.6128C8.94819 74.6297 9.17368 74.7112 9.36517 74.8484L25.1077 83.989C25.7585 84.4161 26.2736 85.0215 26.5921 85.7336L30.028 83.6075Z" fill="black"/>
<path opacity="0.6" d="M27.119 105.418C27.119 106.213 26.8656 106.765 26.4658 107.027L29.8661 105.02C30.3094 104.786 30.5905 104.225 30.5905 103.371V85.7972C30.5737 85.0335 30.3813 84.2841 30.0284 83.6074L26.5925 85.7296C26.9223 86.3863 27.1022 87.1086 27.119 87.8439V105.418Z" fill="black"/>
<path d="M15.4768 89.7992L11.6807 83.6074V91.9969L15.4768 89.7992Z" fill="white"/>
<path d="M19.0039 91.5836L22.7921 98.1688V89.7913L19.0039 91.5836Z" fill="white"/>
<path d="M12.2549 83.3252L16.1539 89.6839C16.1704 89.6978 16.185 89.7138 16.1974 89.7316C16.2009 89.7473 16.2009 89.7635 16.1974 89.7793L17.3572 91.671L18.3389 91.206C18.3542 91.1893 18.3715 91.1747 18.3904 91.1623C18.4291 91.1396 18.4724 91.126 18.5171 91.1225L22.4754 89.2586L12.2549 83.3252Z" fill="white"/>
<path d="M18.4304 91.8538L17.3696 92.3545C17.3287 92.3736 17.284 92.3831 17.2389 92.3823C17.1843 92.383 17.1304 92.3694 17.0826 92.3429C17.0347 92.3164 16.9945 92.278 16.9658 92.2313L15.806 90.3396L11.998 92.5492L22.2463 98.4867L18.4304 91.8538Z" fill="white"/>
<g opacity="0.9">
<path d="M15.4768 89.7992L11.6807 83.6074V91.9969L15.4768 89.7992Z" fill="#0D5EFB"/>
<path d="M19.0039 91.5836L22.7921 98.1688V89.7913L19.0039 91.5836Z" fill="#0D5EFB"/>
<path d="M12.2549 83.3252L16.1539 89.6839C16.1704 89.6978 16.185 89.7138 16.1974 89.7316C16.2009 89.7473 16.2009 89.7635 16.1974 89.7793L17.3572 91.671L18.3389 91.206C18.3542 91.1893 18.3715 91.1747 18.3904 91.1623C18.4291 91.1396 18.4724 91.126 18.5171 91.1225L22.4754 89.2586L12.2549 83.3252Z" fill="#0D5EFB"/>
<path d="M18.4294 91.8538L17.3686 92.3545C17.3277 92.3736 17.2831 92.3831 17.238 92.3823C17.1833 92.383 17.1295 92.3694 17.0816 92.3429C17.0338 92.3164 16.9935 92.278 16.9648 92.2313L15.805 90.3396L11.9971 92.5492L22.2453 98.4867L18.4294 91.8538Z" fill="#0D5EFB"/>
</g>
<path d="M28.5794 19.341L12.8369 10.2004C12.6559 10.0736 12.4461 9.99475 12.2267 9.97113C12.0074 9.9475 11.7856 9.97988 11.582 10.0652C11.539 10.0852 11.4979 10.1091 11.4593 10.1368L8.03534 12.1517H8.05908C7.62762 12.3941 7.35449 12.9704 7.35449 13.7851V31.3589C7.35449 32.8452 8.25305 34.574 9.36535 35.2178L25.1079 44.3584C25.3072 44.5044 25.5451 44.588 25.7916 44.5986C26.0381 44.6092 26.2823 44.5464 26.4933 44.418L26.4656 44.4379L29.8658 42.4508C30.3092 42.2163 30.5902 41.656 30.5902 40.8015V23.184C30.5902 21.6977 29.7075 19.9689 28.5794 19.341Z" fill="white"/>
<path d="M30.028 20.9942C29.7106 20.3124 29.2086 19.7339 28.5792 19.3251L12.8367 10.2004C12.6558 10.0736 12.4459 9.99475 12.2265 9.97113C12.0072 9.9475 11.7854 9.97988 11.5819 10.0652C11.5388 10.0852 11.4978 10.1091 11.4592 10.1368L8.03516 12.1517C8.24413 12.0432 8.47887 11.9947 8.71353 12.0115C8.94819 12.0283 9.17368 12.1098 9.36517 12.2471L25.1077 21.3877C25.7585 21.8147 26.2736 22.4202 26.5921 23.1323L30.028 20.9942Z" fill="white"/>
<path d="M27.119 42.7886C27.119 43.5835 26.8656 44.1359 26.4658 44.3783L29.8661 42.3912C30.3094 42.1568 30.5905 41.5964 30.5905 40.7419V23.184C30.5737 22.4204 30.3813 21.6709 30.0284 20.9943L26.5925 23.1165C26.9223 23.7732 27.1022 24.4955 27.119 25.2307V42.7886Z" fill="white"/>
<path opacity="0.3" d="M30.028 20.9942C29.7106 20.3124 29.2086 19.7339 28.5792 19.3251L12.8367 10.2004C12.6558 10.0736 12.4459 9.99475 12.2265 9.97113C12.0072 9.9475 11.7854 9.97988 11.5819 10.0652C11.5388 10.0852 11.4978 10.1091 11.4592 10.1368L8.03516 12.1517C8.24413 12.0432 8.47887 11.9947 8.71353 12.0115C8.94819 12.0283 9.17368 12.1098 9.36517 12.2471L25.1077 21.3877C25.7585 21.8147 26.2736 22.4202 26.5921 23.1323L30.028 20.9942Z" fill="black"/>
<path opacity="0.6" d="M27.119 42.7886C27.119 43.5835 26.8656 44.1359 26.4658 44.3783L29.8661 42.3912C30.3094 42.1568 30.5905 41.5964 30.5905 40.7419V23.184C30.5737 22.4204 30.3813 21.6709 30.0284 20.9943L26.5925 23.1165C26.9223 23.7732 27.1022 24.4955 27.119 25.2307V42.7886Z" fill="black"/>
<path d="M21.969 35.2377C21.3634 34.2362 20.7538 33.2506 20.1482 32.2411C20.0521 32.0499 19.9178 31.8807 19.7537 31.7439C19.5896 31.6072 19.3991 31.5059 19.1942 31.4463C18.9013 31.3867 18.6084 31.3191 18.3075 31.2317C18.2004 31.1869 18.1103 31.1089 18.0502 31.0092C17.0592 29.3063 16.2713 27.4922 15.7029 25.6043C15.6908 25.5639 15.6874 25.5214 15.6928 25.4797C15.6983 25.4379 15.7125 25.3977 15.7346 25.3619C15.9206 25.1751 16.1304 25.0042 16.3204 24.8373C16.5104 24.6703 16.6094 24.2848 16.4708 23.7841C16.1779 22.723 15.8969 21.6619 15.604 20.6048C15.5473 20.3044 15.4128 20.0243 15.2141 19.7927C15.0153 19.5611 14.7593 19.3861 14.4719 19.2853C13.8335 19.1072 13.1558 19.1321 12.5322 19.3569C12.2908 19.4483 12.1641 19.6669 12.1602 20.0444C12.2631 20.7717 12.3304 21.491 12.4689 22.2302C13.4453 27.5609 15.794 32.4624 19.5148 36.9347C19.612 37.083 19.7425 37.2063 19.8958 37.2946C20.0491 37.383 20.221 37.4339 20.3976 37.4433C21.0136 37.4286 21.6054 37.1997 22.072 36.7956C22.4243 36.4776 22.3886 35.9133 21.969 35.2377Z" fill="white"/>
<path d="M21.9212 29.8208C21.8384 28.6777 21.5246 27.5635 20.9989 26.5461C20.6064 25.7513 20.107 25.0145 19.5145 24.3564C19.3601 24.1815 19.2295 24.1258 19.1504 24.257C19.0712 24.3881 19.1504 24.5749 19.3008 24.7458L19.4551 24.9247C20.5492 26.1926 21.2388 27.7613 21.4343 29.4274C21.4324 29.5489 21.4444 29.6703 21.47 29.7891C21.5197 29.9257 21.5995 30.0494 21.7035 30.1507C21.7866 30.2103 21.8816 30.1507 21.9489 30.1507C21.9252 29.9878 21.9291 29.9043 21.9212 29.8208Z" fill="white"/>
<path d="M18.3355 26.5581C18.8326 27.107 19.1346 27.8057 19.1945 28.5451C19.2205 28.6576 19.2618 28.7659 19.3172 28.8671C19.5586 29.0658 19.6774 28.9982 19.6774 28.7478C19.5928 27.7997 19.2022 26.9053 18.5651 26.2004C18.4147 26.0454 18.292 25.9977 18.2207 26.1288C18.1951 26.2037 18.1923 26.2846 18.2128 26.3611C18.2332 26.4375 18.276 26.5061 18.3355 26.5581Z" fill="white"/>
<g opacity="0.9">
<path d="M21.969 35.2377C21.3634 34.2362 20.7538 33.2506 20.1482 32.2411C20.0521 32.0499 19.9178 31.8807 19.7537 31.7439C19.5896 31.6072 19.3991 31.5059 19.1942 31.4463C18.9013 31.3867 18.6084 31.3191 18.3075 31.2317C18.2004 31.1869 18.1103 31.1089 18.0502 31.0092C17.0592 29.3063 16.2713 27.4922 15.7029 25.6043C15.6908 25.5639 15.6874 25.5214 15.6928 25.4797C15.6983 25.4379 15.7125 25.3977 15.7346 25.3619C15.9206 25.1751 16.1304 25.0042 16.3204 24.8373C16.5104 24.6703 16.6094 24.2848 16.4708 23.7841C16.1779 22.723 15.8969 21.6619 15.604 20.6048C15.5473 20.3044 15.4128 20.0243 15.2141 19.7927C15.0153 19.5611 14.7593 19.3861 14.4719 19.2853C13.8335 19.1072 13.1558 19.1321 12.5322 19.3569C12.2908 19.4483 12.1641 19.6669 12.1602 20.0444C12.2631 20.7717 12.3304 21.491 12.4689 22.2302C13.4453 27.5609 15.794 32.4624 19.5148 36.9347C19.612 37.083 19.7425 37.2063 19.8958 37.2946C20.0491 37.383 20.221 37.4339 20.3976 37.4433C21.0136 37.4286 21.6054 37.1997 22.072 36.7956C22.4243 36.4776 22.3886 35.9133 21.969 35.2377Z" fill="#0D5EFB"/>
<path d="M21.9212 29.8208C21.8384 28.6777 21.5246 27.5635 20.9989 26.5461C20.6064 25.7513 20.107 25.0145 19.5145 24.3564C19.3601 24.1815 19.2295 24.1258 19.1504 24.257C19.0712 24.3881 19.1504 24.5749 19.3008 24.7458L19.4551 24.9247C20.5492 26.1926 21.2388 27.7613 21.4343 29.4274C21.4324 29.5489 21.4444 29.6703 21.47 29.7891C21.5197 29.9257 21.5995 30.0494 21.7035 30.1507C21.7866 30.2103 21.8816 30.1507 21.9489 30.1507C21.9252 29.9878 21.9291 29.9043 21.9212 29.8208Z" fill="#0D5EFB"/>
<path d="M18.3355 26.5581C18.8326 27.107 19.1346 27.8057 19.1945 28.5451C19.2205 28.6576 19.2618 28.7659 19.3172 28.8671C19.5586 29.0658 19.6774 28.9982 19.6774 28.7478C19.5928 27.7997 19.2022 26.9053 18.5651 26.2004C18.4147 26.0454 18.292 25.9977 18.2207 26.1288C18.1951 26.2037 18.1923 26.2846 18.2128 26.3611C18.2332 26.4375 18.276 26.5061 18.3355 26.5581Z" fill="#0D5EFB"/>
</g>
<path d="M109.351 8.8014L113.06 10.9196V9.60021C113.06 9.50881 113.06 9.41343 113.06 9.32202C113.06 9.23061 113.06 9.14318 113.06 9.05575V9.00806C113.194 7.2634 114.512 6.59176 116.12 7.52569C116.847 7.97499 117.471 8.57525 117.948 9.28625C118.309 6.90175 120.236 6.05922 122.568 7.40647C125.157 8.90871 127.255 12.5729 127.255 15.5615V18.3831C127.251 18.6089 127.306 18.8316 127.415 19.029C127.524 19.2264 127.683 19.3915 127.876 19.5078L130.061 20.7915C130.533 21.0722 130.924 21.471 131.196 21.9489C131.467 22.4268 131.611 22.9674 131.613 23.5178C131.613 23.7461 131.553 23.9705 131.439 24.1682C131.325 24.3659 131.162 24.5301 130.965 24.6441C130.768 24.7581 130.544 24.818 130.317 24.8177C130.089 24.8174 129.866 24.757 129.669 24.6425L109.406 12.8829C108.869 12.5695 108.422 12.1203 108.111 11.5799C107.8 11.0396 107.635 10.427 107.633 9.8029C107.633 9.60088 107.685 9.40237 107.786 9.22725C107.886 9.05212 108.03 8.90655 108.204 8.80511C108.378 8.70367 108.576 8.64994 108.777 8.64929C108.978 8.64863 109.176 8.70109 109.351 8.8014Z" fill="white"/>
<path d="M137.626 8.24886L140.321 9.80276V8.83306C140.321 8.7655 140.321 8.69794 140.321 8.63038C140.321 8.56282 140.321 8.49923 140.321 8.43565V8.4118C140.42 7.14404 141.378 6.65521 142.546 7.3348C143.075 7.66009 143.528 8.09503 143.876 8.61051C144.141 6.88572 145.543 6.26177 147.237 7.24339C149.121 8.33629 150.645 10.991 150.645 13.1729V15.2275C150.646 15.3886 150.689 15.5465 150.77 15.6858C150.85 15.8252 150.966 15.9411 151.104 16.0223L152.687 16.9563C153.032 17.1597 153.317 17.4502 153.515 17.7988C153.713 18.1475 153.817 18.5421 153.816 18.9434C153.815 19.1077 153.772 19.2692 153.691 19.4118C153.61 19.5545 153.493 19.6734 153.352 19.7568C153.211 19.8402 153.05 19.8853 152.887 19.8877C152.723 19.89 152.562 19.8494 152.418 19.77L137.665 11.2176C137.274 10.9905 136.95 10.6643 136.724 10.2716C136.498 9.8789 136.379 9.43353 136.379 8.98011C136.379 8.83335 136.417 8.6891 136.489 8.56175C136.562 8.4344 136.667 8.32842 136.793 8.2544C136.919 8.18038 137.062 8.14091 137.209 8.13994C137.355 8.13897 137.499 8.17653 137.626 8.24886Z" fill="white"/>
</svg>
