<svg width="296" height="179" viewBox="0 0 296 179" fill="none" xmlns="http://www.w3.org/2000/svg">
<path d="M296 161.984H0V178.071H296V161.984Z" fill="white"/>
<path d="M55.8035 68.5777C74.7407 68.5777 90.0924 53.2261 90.0924 34.2889C90.0924 15.3516 74.7407 0 55.8035 0C36.8663 0 21.5146 15.3516 21.5146 34.2889C21.5146 53.2261 36.8663 68.5777 55.8035 68.5777Z" fill="#0D5EFB"/>
<path d="M55.8031 61.7433C70.9658 61.7433 83.2576 49.4515 83.2576 34.2888C83.2576 19.1261 70.9658 6.83435 55.8031 6.83435C40.6404 6.83435 28.3486 19.1261 28.3486 34.2888C28.3486 49.4515 40.6404 61.7433 55.8031 61.7433Z" fill="white"/>
<path d="M78.8766 37.502C80.5219 37.502 81.8557 36.1682 81.8557 34.5229C81.8557 32.8776 80.5219 31.5438 78.8766 31.5438C77.2313 31.5438 75.8975 32.8776 75.8975 34.5229C75.8975 36.1682 77.2313 37.502 78.8766 37.502Z" fill="#0D5EFB"/>
<path d="M55.8033 14.194C57.4486 14.194 58.7824 12.8603 58.7824 11.2149C58.7824 9.56963 57.4486 8.23584 55.8033 8.23584C54.158 8.23584 52.8242 9.56963 52.8242 11.2149C52.8242 12.8603 54.158 14.194 55.8033 14.194Z" fill="#0D5EFB"/>
<path d="M52.8242 57.8878C52.8242 57.2986 52.9989 56.7226 53.3263 56.2327C53.6536 55.7428 54.1189 55.3609 54.6633 55.1355C55.2076 54.91 55.8066 54.851 56.3845 54.9659C56.9624 55.0809 57.4932 55.3646 57.9099 55.7813C58.3265 56.1979 58.6102 56.7287 58.7252 57.3066C58.8401 57.8845 58.7811 58.4835 58.5557 59.0278C58.3302 59.5722 57.9483 60.0375 57.4584 60.3648C56.9685 60.6922 56.3925 60.8669 55.8033 60.8669C55.4121 60.8669 55.0247 60.7898 54.6633 60.6401C54.3018 60.4904 53.9734 60.271 53.6968 59.9943C53.4201 59.7177 53.2007 59.3893 53.051 59.0278C52.9013 58.6664 52.8242 58.279 52.8242 57.8878Z" fill="#0D5EFB"/>
<path d="M32.2047 37.502C33.85 37.502 35.1838 36.1682 35.1838 34.5229C35.1838 32.8776 33.85 31.5438 32.2047 31.5438C30.5594 31.5438 29.2256 32.8776 29.2256 34.5229C29.2256 36.1682 30.5594 37.502 32.2047 37.502Z" fill="#0D5EFB"/>
<path d="M55.5112 33.7627C55.6864 33.7627 55.7449 33.8795 55.7449 34.0548L52.941 52.864C52.941 52.926 52.9164 52.9854 52.8726 53.0292C52.8287 53.073 52.7693 53.0976 52.7073 53.0976C52.6404 53.084 52.5803 53.0473 52.5376 52.9939C52.4949 52.9405 52.4723 52.8739 52.4737 52.8056L55.2776 33.9963C55.2776 33.9344 55.3022 33.8749 55.346 33.8311C55.3898 33.7873 55.4492 33.7627 55.5112 33.7627Z" fill="#EB5A49"/>
<path d="M55.5116 37.7348C57.2859 37.7348 58.7243 36.2964 58.7243 34.5221C58.7243 32.7477 57.2859 31.3093 55.5116 31.3093C53.7372 31.3093 52.2988 32.7477 52.2988 34.5221C52.2988 36.2964 53.7372 37.7348 55.5116 37.7348Z" fill="#0D5EFB"/>
<path d="M55.8036 35.1651C55.5402 35.1651 55.2876 35.0605 55.1014 34.8742C54.9152 34.688 54.8105 34.4354 54.8105 34.1721V16.6479C54.8105 16.3846 54.9152 16.132 55.1014 15.9458C55.2876 15.7595 55.5402 15.6549 55.8036 15.6549C56.0624 15.6689 56.3069 15.778 56.4902 15.9613C56.6735 16.1446 56.7826 16.3891 56.7966 16.6479V34.1721C56.7826 34.4309 56.6735 34.6754 56.4902 34.8587C56.3069 35.042 56.0624 35.1511 55.8036 35.1651Z" fill="#0D5EFB"/>
<path d="M55.5693 34.8145C55.5944 34.7555 55.6313 34.7022 55.6778 34.6581C55.7244 34.6139 55.7795 34.5798 55.8398 34.5579C55.9 34.536 55.9642 34.5267 56.0282 34.5307C56.0922 34.5346 56.1547 34.5517 56.2119 34.5808L73.0934 42.233C73.1525 42.2581 73.2057 42.2951 73.2499 42.3416C73.294 42.3881 73.3281 42.4432 73.35 42.5035C73.3719 42.5638 73.3812 42.6279 73.3773 42.6919C73.3733 42.7559 73.3562 42.8185 73.3271 42.8756C73.3081 42.9398 73.2755 42.9991 73.2315 43.0496C73.1876 43.1 73.1333 43.1405 73.0724 43.1682C73.0115 43.1959 72.9453 43.2102 72.8784 43.2101C72.8115 43.21 72.7454 43.1955 72.6845 43.1677L55.803 35.5155C55.6892 35.4435 55.6038 35.3343 55.5612 35.2066C55.5186 35.0789 55.5215 34.9404 55.5693 34.8145Z" fill="#0D5EFB"/>
<path d="M168.075 168.115H127.944L130.281 151.058H165.738L168.075 168.115Z" fill="url(#paint0_linear_176_2010)"/>
<path d="M220.705 40.9479H74.846C73.491 40.9479 72.3926 42.0463 72.3926 43.4013V149.557C72.3926 150.912 73.491 152.01 74.846 152.01H220.705C222.06 152.01 223.158 150.912 223.158 149.557V43.4013C223.158 42.0463 222.06 40.9479 220.705 40.9479Z" fill="#8A8A8A"/>
<path d="M72.3926 136.338V149.306C72.3926 150.018 72.6757 150.702 73.1796 151.206C73.6835 151.71 74.367 151.993 75.0796 151.993H220.53C220.883 151.993 221.232 151.923 221.558 151.788C221.884 151.653 222.18 151.455 222.43 151.206C222.679 150.956 222.877 150.66 223.012 150.334C223.147 150.008 223.217 149.659 223.217 149.306V136.338H72.3926Z" fill="white"/>
<path d="M217.785 46.0299H77.2412V131.285H217.785V46.0299Z" fill="#0D5EFB"/>
<path d="M147.98 148.78C149.883 148.78 151.426 147.237 151.426 145.334C151.426 143.43 149.883 141.887 147.98 141.887C146.076 141.887 144.533 143.43 144.533 145.334C144.533 147.237 146.076 148.78 147.98 148.78Z" fill="#DCE0E2"/>
<path d="M171.754 171.328H122.861C122.876 170.108 123.368 168.943 124.23 168.081C125.092 167.219 126.257 166.728 127.476 166.713H167.139C168.358 166.728 169.523 167.219 170.385 168.081C171.247 168.943 171.738 170.108 171.754 171.328Z" fill="white"/>
<path d="M217.786 131.254H77.2425C77.2425 131.254 77.2426 49.2495 77.2425 48.8723C77.2425 48.495 77.2425 48.6088 77.2424 47.7598C77.2419 47.1037 77.2423 46.6339 77.2425 46.0289C77.8126 46.0289 79.6957 46.0283 80.524 46.0281C81.2359 46.0282 81.8899 46.0225 82.588 46.0284H212.441C213.449 46.0286 214.457 46.0286 215.145 46.0286C216.399 46.0292 217.299 46.0291 217.786 46.0284C217.786 46.7051 217.786 47.4549 217.786 47.8974C217.786 48.34 217.786 48.495 217.786 48.8723V131.254Z" fill="white"/>
<path d="M217.786 51.7551V49.3017C217.786 48.4342 217.786 46.96 217.786 46.0306C216.86 46.0311 214.402 46.0306 213.181 46.0306H81.8475C80.6261 46.0306 80.2238 46.0296 77.2422 46.03C77.2422 48.1394 77.2422 48.4342 77.2422 49.3017V51.7551H217.786Z" fill="#0D5EFB"/>
<path d="M203.318 48.7748C203.318 49.1621 203.164 49.5336 202.89 49.8074C202.617 50.0813 202.245 50.2351 201.858 50.2351C201.47 50.2351 201.099 50.0813 200.825 49.8074C200.551 49.5336 200.397 49.1621 200.397 48.7748C200.397 48.3875 200.551 48.016 200.825 47.7422C201.099 47.4683 201.47 47.3145 201.858 47.3145C202.245 47.3145 202.617 47.4683 202.89 47.7422C203.164 48.016 203.318 48.3875 203.318 48.7748Z" fill="white"/>
<path d="M207.407 48.7748C207.407 49.1621 207.253 49.5336 206.979 49.8074C206.705 50.0813 206.334 50.2351 205.947 50.2351C205.559 50.2351 205.188 50.0813 204.914 49.8074C204.64 49.5336 204.486 49.1621 204.486 48.7748C204.501 48.3921 204.659 48.029 204.93 47.7582C205.201 47.4874 205.564 47.3289 205.947 47.3145C206.334 47.3145 206.705 47.4683 206.979 47.7422C207.253 48.016 207.407 48.3875 207.407 48.7748Z" fill="#DDDDDD"/>
<path d="M211.467 48.7156C211.51 48.8996 211.505 49.0896 211.453 49.2719C211.401 49.4542 211.303 49.6242 211.166 49.7696C211.029 49.915 210.857 50.0322 210.661 50.1127C210.466 50.1931 210.252 50.2349 210.036 50.2349C209.819 50.2349 209.605 50.1931 209.41 50.1127C209.214 50.0322 209.042 49.915 208.905 49.7696C208.768 49.6242 208.67 49.4542 208.618 49.2719C208.566 49.0896 208.561 48.8996 208.604 48.7156C208.561 48.5315 208.566 48.3415 208.618 48.1592C208.67 47.9769 208.768 47.8069 208.905 47.6615C209.042 47.5161 209.214 47.3989 209.41 47.3185C209.605 47.238 209.819 47.1963 210.036 47.1963C210.252 47.1963 210.466 47.238 210.661 47.3185C210.857 47.3989 211.029 47.5161 211.166 47.6615C211.303 47.8069 211.401 47.9769 211.453 48.1592C211.505 48.3415 211.51 48.5315 211.467 48.7156Z" fill="#EB5A49"/>
<path d="M140.465 70.0347H133.062V77.412H140.465V70.0347Z" fill="#D3D3D3"/>
<path d="M151.214 70.0347H143.812V77.412H151.214V70.0347Z" fill="#D3D3D3"/>
<path d="M161.962 70.0347H154.56V77.412H161.962V70.0347Z" fill="#D3D3D3"/>
<path d="M172.711 70.0347H165.309V77.412H172.711V70.0347Z" fill="#D3D3D3"/>
<path d="M183.511 70.0347H176.108V77.412H183.511V70.0347Z" fill="#EB5A49"/>
<path d="M118.917 78.7935H111.515V86.1707H118.917V78.7935Z" fill="#D3D3D3"/>
<path d="M129.665 78.7935H122.263V86.1707H129.665V78.7935Z" fill="#D3D3D3"/>
<path d="M140.465 78.7935H133.062V86.1707H140.465V78.7935Z" fill="#D3D3D3"/>
<path d="M151.214 78.7935H143.812V86.1707H151.214V78.7935Z" fill="#D3D3D3"/>
<path d="M161.962 78.7935H154.56V86.1707H161.962V78.7935Z" fill="#D3D3D3"/>
<path d="M172.711 78.7935H165.309V86.1707H172.711V78.7935Z" fill="#D3D3D3"/>
<path d="M183.511 79.6174H176.108V86.9947H183.511V79.6174Z" fill="#EB5A49"/>
<path d="M118.917 88.3757H111.515V95.753H118.917V88.3757Z" fill="#D3D3D3"/>
<path d="M129.665 88.3757H122.263V95.753H129.665V88.3757Z" fill="#D3D3D3"/>
<path d="M140.465 88.3757H133.062V95.753H140.465V88.3757Z" fill="#D3D3D3"/>
<path d="M151.214 88.3757H143.812V95.753H151.214V88.3757Z" fill="#D3D3D3"/>
<path d="M161.962 88.3757H154.56V95.753H161.962V88.3757Z" fill="#D3D3D3"/>
<path d="M172.711 88.3757H165.309V95.753H172.711V88.3757Z" fill="#D3D3D3"/>
<path d="M183.511 88.3757H176.108V95.753H183.511V88.3757Z" fill="#EB5A49"/>
<path d="M118.917 97.9585H111.515V105.336H118.917V97.9585Z" fill="#D3D3D3"/>
<path d="M129.665 97.9585H122.263V105.336H129.665V97.9585Z" fill="#D3D3D3"/>
<path d="M140.465 97.9585H133.062V105.336H140.465V97.9585Z" fill="#D3D3D3"/>
<path d="M151.214 97.9585H143.812V105.336H151.214V97.9585Z" fill="#D3D3D3"/>
<path d="M161.962 97.9585H154.56V105.336H161.962V97.9585Z" fill="#D3D3D3"/>
<path d="M172.711 97.9585H165.309V105.336H172.711V97.9585Z" fill="#D3D3D3"/>
<path d="M183.511 97.9585H176.108V105.336H183.511V97.9585Z" fill="#EB5A49"/>
<path d="M118.917 107.542H111.515V114.919H118.917V107.542Z" fill="#D3D3D3"/>
<path d="M129.665 107.542H122.263V114.919H129.665V107.542Z" fill="#D3D3D3"/>
<path d="M140.465 107.542H133.062V114.919H140.465V107.542Z" fill="#D3D3D3"/>
<path d="M151.214 107.542H143.812V114.919H151.214V107.542Z" fill="#D3D3D3"/>
<path d="M136.714 107.998C135.46 107.998 134.235 107.626 133.193 106.93C132.15 106.233 131.338 105.244 130.858 104.086C130.379 102.927 130.253 101.653 130.498 100.424C130.742 99.1943 131.346 98.0649 132.232 97.1786C133.119 96.2922 134.248 95.6886 135.477 95.4441C136.707 95.1995 137.981 95.325 139.139 95.8047C140.297 96.2844 141.287 97.0968 141.984 98.139C142.68 99.1813 143.052 100.407 143.052 101.66C143.055 102.492 142.891 103.316 142.568 104.082C142.246 104.849 141.772 105.543 141.176 106.122C141.089 106.238 140.977 106.334 140.85 106.404C140.722 106.473 140.581 106.515 140.436 106.525C140.291 106.535 140.146 106.514 140.01 106.464C139.874 106.413 139.75 106.333 139.647 106.231C139.545 106.128 139.465 106.004 139.414 105.868C139.364 105.732 139.343 105.587 139.353 105.442C139.363 105.297 139.405 105.156 139.474 105.028C139.544 104.901 139.64 104.789 139.756 104.702C140.159 104.305 140.478 103.831 140.696 103.309C140.914 102.786 141.025 102.226 141.024 101.66C141.024 100.808 140.771 99.9745 140.297 99.2658C139.824 98.557 139.151 98.0046 138.363 97.6784C137.576 97.3523 136.709 97.2669 135.873 97.4332C135.037 97.5995 134.269 98.0099 133.666 98.6127C133.064 99.2154 132.653 99.9833 132.487 100.819C132.321 101.655 132.406 102.522 132.732 103.309C133.058 104.097 133.611 104.77 134.319 105.244C135.028 105.717 135.861 105.97 136.714 105.97C136.983 105.97 137.241 106.077 137.431 106.267C137.621 106.457 137.728 106.715 137.728 106.984C137.728 107.253 137.621 107.511 137.431 107.701C137.241 107.891 136.983 107.998 136.714 107.998Z" fill="#EB5A49"/>
<path d="M158.16 123.564L151.67 116.314L155.118 113.119L139.806 105.412L144.927 122.499L148.729 119.001L155.219 126.201L158.16 123.564Z" fill="#0D5EFB"/>
<path d="M267.787 95.9736H230.461L230.636 96.4409C230.169 102.224 230.227 113.615 236.945 124.772C238.662 127.675 240.721 130.362 243.078 132.774L243.195 133.066H255.053L255.17 132.774C257.529 130.349 259.607 127.664 261.362 124.772C268.079 113.615 268.079 102.224 267.612 96.4409L267.787 95.9736Z" fill="white"/>
<path d="M230.343 169.692H267.669L267.494 169.225C267.961 163.442 267.961 152.051 261.244 140.894C259.493 138.016 257.415 135.35 255.052 132.95L254.935 132.599H243.077L242.96 132.95C240.617 135.353 238.558 138.019 236.827 140.894C230.109 152.051 230.051 163.442 230.518 169.225L230.343 169.692Z" fill="white"/>
<path d="M261.946 151.175H236.302C234.091 156.94 233.213 163.13 233.732 169.283L233.615 169.692H264.633L264.516 169.283C265.036 163.13 264.157 156.94 261.946 151.175Z" fill="url(#paint1_linear_176_2010)"/>
<path d="M271.525 93.8708H226.547V98.1175H271.525V93.8708Z" fill="#8A8A8A"/>
<path d="M271.525 167.59H226.547V171.836H271.525V167.59Z" fill="#8A8A8A"/>
<path d="M250.846 136.922C251.814 136.922 252.599 136.137 252.599 135.17C252.599 134.202 251.814 133.417 250.846 133.417C249.878 133.417 249.094 134.202 249.094 135.17C249.094 136.137 249.878 136.922 250.846 136.922Z" fill="url(#paint2_linear_176_2010)"/>
<path d="M246.582 141.127C247.55 141.127 248.335 140.343 248.335 139.375C248.335 138.407 247.55 137.623 246.582 137.623C245.615 137.623 244.83 138.407 244.83 139.375C244.83 140.343 245.615 141.127 246.582 141.127Z" fill="url(#paint3_linear_176_2010)"/>
<path d="M250.846 145.392C251.814 145.392 252.599 144.607 252.599 143.64C252.599 142.672 251.814 141.887 250.846 141.887C249.878 141.887 249.094 142.672 249.094 143.64C249.094 144.607 249.878 145.392 250.846 145.392Z" fill="url(#paint4_linear_176_2010)"/>
<path d="M246.582 149.656C247.55 149.656 248.335 148.871 248.335 147.904C248.335 146.936 247.55 146.151 246.582 146.151C245.615 146.151 244.83 146.936 244.83 147.904C244.83 148.871 245.615 149.656 246.582 149.656Z" fill="url(#paint5_linear_176_2010)"/>
<path d="M237.411 119.806C237.96 121.117 238.604 122.386 239.339 123.603C240.758 125.899 242.423 128.034 244.304 129.97V130.262H253.825V129.97C255.724 128.05 257.391 125.913 258.791 123.603C259.525 122.386 260.169 121.117 260.718 119.806H237.411Z" fill="url(#paint6_linear_176_2010)"/>
<defs>
<linearGradient id="paint0_linear_176_2010" x1="127.944" y1="160.968" x2="168.077" y2="159.697" gradientUnits="userSpaceOnUse">
<stop stop-color="#E4FFFF"/>
<stop offset="0.495563" stop-color="#BDF2E9"/>
<stop offset="1" stop-color="#E4FFFF"/>
</linearGradient>
<linearGradient id="paint1_linear_176_2010" x1="233.587" y1="161.934" x2="264.679" y2="161.231" gradientUnits="userSpaceOnUse">
<stop stop-color="#E4EAFF"/>
<stop offset="0.495563" stop-color="#B4D0F9" stop-opacity="0.9"/>
<stop offset="1" stop-color="#E4EAFF"/>
</linearGradient>
<linearGradient id="paint2_linear_176_2010" x1="249.094" y1="135.454" x2="252.602" y2="135.406" gradientUnits="userSpaceOnUse">
<stop stop-color="#E4EAFF"/>
<stop offset="0.495563" stop-color="#B4D0F9" stop-opacity="0.9"/>
<stop offset="1" stop-color="#E4EAFF"/>
</linearGradient>
<linearGradient id="paint3_linear_176_2010" x1="244.83" y1="139.659" x2="248.338" y2="139.612" gradientUnits="userSpaceOnUse">
<stop stop-color="#E4EAFF"/>
<stop offset="0.495563" stop-color="#B4D0F9" stop-opacity="0.9"/>
<stop offset="1" stop-color="#E4EAFF"/>
</linearGradient>
<linearGradient id="paint4_linear_176_2010" x1="249.094" y1="143.924" x2="252.602" y2="143.876" gradientUnits="userSpaceOnUse">
<stop stop-color="#E4EAFF"/>
<stop offset="0.495563" stop-color="#B4D0F9" stop-opacity="0.9"/>
<stop offset="1" stop-color="#E4EAFF"/>
</linearGradient>
<linearGradient id="paint5_linear_176_2010" x1="244.83" y1="148.188" x2="248.338" y2="148.14" gradientUnits="userSpaceOnUse">
<stop stop-color="#E4EAFF"/>
<stop offset="0.495563" stop-color="#B4D0F9" stop-opacity="0.9"/>
<stop offset="1" stop-color="#E4EAFF"/>
</linearGradient>
<linearGradient id="paint6_linear_176_2010" x1="237.411" y1="125.881" x2="260.722" y2="125.182" gradientUnits="userSpaceOnUse">
<stop stop-color="#E4EAFF"/>
<stop offset="0.495563" stop-color="#B4D0F9" stop-opacity="0.9"/>
<stop offset="1" stop-color="#E4EAFF"/>
</linearGradient>
</defs>
</svg>
