<svg width="106" height="106" viewBox="0 0 106 106" fill="none" xmlns="http://www.w3.org/2000/svg">
<mask id="path-1-inside-1_176_781" fill="white">
<path fill-rule="evenodd" clip-rule="evenodd" d="M36.125 0.759799C35.1582 0.869252 33.3181 1.18144 32.0359 1.45331C29.6305 1.96355 24.7564 3.57183 24.3334 3.99488C23.5527 4.77558 28.3386 16.7779 30.4145 19.245C31.367 20.377 33.1238 21.1211 34.8359 21.1176C36.6484 21.1141 37.8727 20.5532 39.0913 19.169C40.2814 17.8167 40.6812 16.4735 40.5153 14.3838C40.3098 11.796 39.1587 1.10972 39.0514 0.79308C38.9424 0.471049 38.702 0.468236 36.125 0.759799ZM44.0938 0.822142C44.0938 0.870189 44.3652 3.42769 44.6968 6.50574C45.5806 14.7063 45.6462 16.3891 45.1524 18.213C43.4108 24.6471 36.2019 27.9046 30.1091 25.011C27.4674 23.7567 26.2395 22.3788 24.245 18.4298C22.7823 15.5341 19.9531 8.68191 19.9531 8.03527C19.9531 7.90378 19.8472 7.51753 19.7176 7.17675L19.482 6.55706L18.6043 7.08605C15.7752 8.79136 10.9993 13.2302 8.66867 16.3204C5.43195 20.6123 2.88992 25.9659 1.65758 31.0861C1.08852 33.4504 1.09156 33.5463 1.73047 33.5505C2.61758 33.5566 5.795 34.4306 7.70984 35.1953C11.738 36.8041 14.889 39.3464 17.2494 42.8922C19.0154 45.5451 19.7469 47.0873 20.7648 50.3048C21.6261 53.0273 21.8253 53.156 23.5173 52.0825C24.9662 51.1633 26.1502 49.3403 26.6511 47.2579C27.4977 43.7376 29.3527 41.1604 32.0328 39.7818C35.3005 38.1011 39.9549 37.765 42.5281 39.0239C46.1026 40.7728 48.2293 44.9866 47.6185 49.1102C47.483 50.025 47.2672 51.8116 47.1388 53.08C46.5472 58.9237 44.2346 64.0685 40.5165 67.811L39.0481 69.2892L39.1341 73.2225L39.2204 77.156L40.1684 77.6397C40.6899 77.9057 41.6258 78.6546 42.2485 79.304L43.3805 80.4846L45.5534 80.2094C52.7166 79.3021 60.4266 75.9893 65.5803 71.6039L66.7937 70.5714L66.8694 65.8289C66.9444 61.1402 66.9526 61.0736 67.5896 59.9901C68.4106 58.5935 69.7177 57.5043 70.9883 57.1584C71.9387 56.8996 72.3425 56.5157 71.6642 56.5157C71.4882 56.5157 70.6182 56.1522 69.7306 55.7081C67.314 54.4985 64.8683 51.9337 64.1562 49.8623L63.8755 49.0462L61.5432 51.0515C58.4975 53.6702 57.2373 54.27 55.0998 54.1169C50.4992 53.7878 47.9002 49.06 50.0991 45.0201C50.5503 44.1909 51.5809 43.1261 53.6635 41.3371C55.2746 39.9529 56.7073 38.7443 56.8473 38.6512C57.027 38.5319 57.0163 38.3599 56.8105 38.0653C54.0854 34.1639 53.6443 28.4882 55.7602 24.547C56.6811 22.8311 58.9259 20.6861 60.8516 19.6814C63.5537 18.2716 68.6949 16.9064 71.3019 16.9064C71.9352 16.9064 72.4531 16.8103 72.4531 16.6931C72.4531 16.3127 70.5434 14.0205 68.7223 12.2151C62.8234 6.36699 55.3142 2.47074 47.2857 1.09191C45.256 0.743393 44.0938 0.645189 44.0938 0.822142ZM89.3281 13.3272C87.5366 14.2338 87.5994 16.9706 89.4294 17.7351C90.0202 17.9819 91.1893 18.0782 93.5975 18.0782H96.9446L88.606 26.4168L80.2674 34.7554L77.0256 32.6278C73.718 30.4572 72.9959 30.1931 71.9288 30.7643C71.1155 31.1995 53.51 46.3912 53.2449 46.8867C52.393 48.4785 53.6288 50.4068 55.5073 50.4168C56.6471 50.4229 55.8102 51.0693 66.2084 42.1514L73.2059 36.15L76.3489 38.2535C78.0774 39.4106 79.7919 40.417 80.1587 40.4903C80.552 40.5691 81.1034 40.4765 81.5028 40.2649C81.875 40.0673 86.2398 35.8382 91.202 30.8669C96.1641 25.8956 100.304 21.8282 100.401 21.8282C100.498 21.8282 100.58 23.4368 100.583 25.4025C100.588 28.4346 100.65 29.0524 100.993 29.4766C102.034 30.7612 103.552 30.854 104.703 29.7032L105.5 28.9064V21.7382V14.5701L104.816 13.8046L104.133 13.0392L97.1405 12.9757C90.8366 12.9182 90.0678 12.9529 89.3281 13.3272ZM69.7578 21.9956C68.3129 22.1955 64.5617 23.31 63.4576 23.8675C61.6426 24.7844 60.1304 26.4539 59.6649 28.0553C59.131 29.8921 59.3012 32.1138 60.1116 33.884L60.7285 35.2317L61.6105 34.5187C62.0954 34.1266 64.0215 32.4836 65.8906 30.8676C69.5621 27.6932 70.6081 27.0419 72.3676 26.8342C73.9119 26.6519 75.1119 27.0182 77.0403 28.2607C77.9333 28.8363 78.6936 29.2235 78.7295 29.1213C78.8305 28.8346 77.4008 24.9152 76.6578 23.4421C76.111 22.3579 75.863 22.1001 75.249 21.9773C74.4613 21.8198 70.9454 21.8315 69.7578 21.9956ZM0.5 40.7601C0.5 48.1713 2.92461 56.1871 7.05289 62.4243L8.24891 64.2311L20.9565 64.2993C33.3917 64.3659 33.687 64.3781 34.7408 64.8707L35.8175 65.3739L36.5398 64.8086C38.5517 63.2341 40.9414 58.9685 41.727 55.5494C42.2656 53.2045 42.8028 47.7075 42.6095 46.5164C42.4135 45.3096 41.469 44.002 40.4403 43.5138C39.1034 42.8796 36.5148 43.1346 34.5695 44.0922C32.7873 44.9695 32.0949 45.9799 31.3932 48.7279C30.7756 51.1455 29.7202 53.0707 28.1532 54.6377C24.8084 57.9825 20.6375 58.6282 18.2028 56.178C17.1875 55.1564 16.7933 54.3461 15.972 51.5939C15.6835 50.6271 14.9663 48.8868 14.3785 47.7267C12.9486 44.9053 9.96078 41.8722 7.17969 40.4184C5.27281 39.4218 2.32531 38.4689 1.14922 38.4689H0.5V40.7601ZM71.4945 42.4886C70.4105 43.4001 69.3772 44.4768 69.1984 44.8816C69.0195 45.2861 68.8613 46.2867 68.8468 47.1046L68.8203 48.5918L70.2657 49.9516C71.2459 50.8734 72.1496 51.4753 73.0726 51.8207C74.5925 52.3893 77.7927 52.9253 78.3624 52.7067C79.0381 52.4475 80.6787 44.385 80.0916 44.2078C79.951 44.1651 79.4464 44.0657 78.9704 43.9868C78.4941 43.9078 77.1758 43.2349 76.0407 42.4917C74.9054 41.7482 73.8617 41.0704 73.7211 40.9856C73.5807 40.9007 72.5788 41.5771 71.4945 42.4886ZM89.3781 43.2752C87.977 43.8839 87.9226 44.2706 87.9167 53.6371C87.9118 61.6202 87.8919 61.9994 87.5066 61.5236C86.7148 60.5465 86.3412 60.5001 79.25 60.5001C72.1588 60.5001 71.7852 60.5465 70.9934 61.5236C70.6224 61.9818 70.5882 62.9739 70.5833 73.3818L70.5781 84.7401L69.901 83.9287L69.2237 83.1173L61.9184 83.0491L54.613 82.9809L53.8065 83.7874L53 84.5939V94.2501V103.906L53.7969 104.703L54.5937 105.5H61.516C65.4455 105.5 68.6982 105.401 69.0392 105.272C69.3699 105.146 69.834 104.725 70.0705 104.336L70.5008 103.628L70.824 104.233C71.4702 105.44 71.8707 105.5 79.25 105.5C86.6293 105.5 87.0298 105.44 87.676 104.233L87.9992 103.628L88.4295 104.336C88.666 104.725 89.1301 105.146 89.4608 105.272C89.8018 105.401 93.0545 105.5 96.984 105.5H103.906L104.703 104.703L105.5 103.906V74.4841C105.5 55.938 105.416 44.8396 105.271 44.4609C105.146 44.1302 104.698 43.649 104.275 43.3917C103.555 42.9522 103.1 42.9243 96.8281 42.9321C91.5697 42.9386 89.9844 43.0115 89.3781 43.2752ZM2.72656 68.331C1.86453 68.714 1.08266 69.5395 0.750078 70.4177C0.6125 70.7805 0.5 72.5643 0.5 74.3814C0.5 77.4707 0.5375 77.7496 1.07797 78.6717C1.92289 80.1135 2.75445 80.4215 5.80883 80.4241L8.35156 80.4264L7.37586 81.0112C5.77133 81.9731 5.42188 82.9992 5.42188 86.7501C5.42188 90.4853 5.77437 91.5309 7.35031 92.4707L8.3007 93.0375L5.51375 93.1164C2.37758 93.2053 1.87789 93.4139 0.968047 95.0144C0.505391 95.8286 0.472813 96.172 0.542188 99.5099C0.623984 103.446 0.727578 103.777 2.23086 104.9C2.86625 105.374 3.14516 105.384 17.773 105.447L32.668 105.51L33.6629 104.927C35.2198 104.015 35.4221 103.349 35.4209 99.1366C35.42 95.11 35.2224 94.4589 33.7248 93.5458L32.9609 93.0799L35.2093 93.0792C38.0155 93.078 39.2007 92.5624 40.0384 90.9782C40.5259 90.0567 40.5781 89.6465 40.5781 86.7501C40.5781 83.8537 40.5259 83.4435 40.0384 82.522C39.2007 80.9378 38.0155 80.4222 35.2093 80.421L32.9609 80.4203L33.7248 79.9544C35.2224 79.0413 35.42 78.3902 35.4209 74.3636C35.4221 70.1571 35.2187 69.4846 33.6716 68.5781L32.6853 68.0001L18.0575 68.0092C6.39102 68.0165 3.28742 68.0817 2.72656 68.331Z"/>
</mask>
<path fill-rule="evenodd" clip-rule="evenodd" d="M36.125 0.759799C35.1582 0.869252 33.3181 1.18144 32.0359 1.45331C29.6305 1.96355 24.7564 3.57183 24.3334 3.99488C23.5527 4.77558 28.3386 16.7779 30.4145 19.245C31.367 20.377 33.1238 21.1211 34.8359 21.1176C36.6484 21.1141 37.8727 20.5532 39.0913 19.169C40.2814 17.8167 40.6812 16.4735 40.5153 14.3838C40.3098 11.796 39.1587 1.10972 39.0514 0.79308C38.9424 0.471049 38.702 0.468236 36.125 0.759799ZM44.0938 0.822142C44.0938 0.870189 44.3652 3.42769 44.6968 6.50574C45.5806 14.7063 45.6462 16.3891 45.1524 18.213C43.4108 24.6471 36.2019 27.9046 30.1091 25.011C27.4674 23.7567 26.2395 22.3788 24.245 18.4298C22.7823 15.5341 19.9531 8.68191 19.9531 8.03527C19.9531 7.90378 19.8472 7.51753 19.7176 7.17675L19.482 6.55706L18.6043 7.08605C15.7752 8.79136 10.9993 13.2302 8.66867 16.3204C5.43195 20.6123 2.88992 25.9659 1.65758 31.0861C1.08852 33.4504 1.09156 33.5463 1.73047 33.5505C2.61758 33.5566 5.795 34.4306 7.70984 35.1953C11.738 36.8041 14.889 39.3464 17.2494 42.8922C19.0154 45.5451 19.7469 47.0873 20.7648 50.3048C21.6261 53.0273 21.8253 53.156 23.5173 52.0825C24.9662 51.1633 26.1502 49.3403 26.6511 47.2579C27.4977 43.7376 29.3527 41.1604 32.0328 39.7818C35.3005 38.1011 39.9549 37.765 42.5281 39.0239C46.1026 40.7728 48.2293 44.9866 47.6185 49.1102C47.483 50.025 47.2672 51.8116 47.1388 53.08C46.5472 58.9237 44.2346 64.0685 40.5165 67.811L39.0481 69.2892L39.1341 73.2225L39.2204 77.156L40.1684 77.6397C40.6899 77.9057 41.6258 78.6546 42.2485 79.304L43.3805 80.4846L45.5534 80.2094C52.7166 79.3021 60.4266 75.9893 65.5803 71.6039L66.7937 70.5714L66.8694 65.8289C66.9444 61.1402 66.9526 61.0736 67.5896 59.9901C68.4106 58.5935 69.7177 57.5043 70.9883 57.1584C71.9387 56.8996 72.3425 56.5157 71.6642 56.5157C71.4882 56.5157 70.6182 56.1522 69.7306 55.7081C67.314 54.4985 64.8683 51.9337 64.1562 49.8623L63.8755 49.0462L61.5432 51.0515C58.4975 53.6702 57.2373 54.27 55.0998 54.1169C50.4992 53.7878 47.9002 49.06 50.0991 45.0201C50.5503 44.1909 51.5809 43.1261 53.6635 41.3371C55.2746 39.9529 56.7073 38.7443 56.8473 38.6512C57.027 38.5319 57.0163 38.3599 56.8105 38.0653C54.0854 34.1639 53.6443 28.4882 55.7602 24.547C56.6811 22.8311 58.9259 20.6861 60.8516 19.6814C63.5537 18.2716 68.6949 16.9064 71.3019 16.9064C71.9352 16.9064 72.4531 16.8103 72.4531 16.6931C72.4531 16.3127 70.5434 14.0205 68.7223 12.2151C62.8234 6.36699 55.3142 2.47074 47.2857 1.09191C45.256 0.743393 44.0938 0.645189 44.0938 0.822142ZM89.3281 13.3272C87.5366 14.2338 87.5994 16.9706 89.4294 17.7351C90.0202 17.9819 91.1893 18.0782 93.5975 18.0782H96.9446L88.606 26.4168L80.2674 34.7554L77.0256 32.6278C73.718 30.4572 72.9959 30.1931 71.9288 30.7643C71.1155 31.1995 53.51 46.3912 53.2449 46.8867C52.393 48.4785 53.6288 50.4068 55.5073 50.4168C56.6471 50.4229 55.8102 51.0693 66.2084 42.1514L73.2059 36.15L76.3489 38.2535C78.0774 39.4106 79.7919 40.417 80.1587 40.4903C80.552 40.5691 81.1034 40.4765 81.5028 40.2649C81.875 40.0673 86.2398 35.8382 91.202 30.8669C96.1641 25.8956 100.304 21.8282 100.401 21.8282C100.498 21.8282 100.58 23.4368 100.583 25.4025C100.588 28.4346 100.65 29.0524 100.993 29.4766C102.034 30.7612 103.552 30.854 104.703 29.7032L105.5 28.9064V21.7382V14.5701L104.816 13.8046L104.133 13.0392L97.1405 12.9757C90.8366 12.9182 90.0678 12.9529 89.3281 13.3272ZM69.7578 21.9956C68.3129 22.1955 64.5617 23.31 63.4576 23.8675C61.6426 24.7844 60.1304 26.4539 59.6649 28.0553C59.131 29.8921 59.3012 32.1138 60.1116 33.884L60.7285 35.2317L61.6105 34.5187C62.0954 34.1266 64.0215 32.4836 65.8906 30.8676C69.5621 27.6932 70.6081 27.0419 72.3676 26.8342C73.9119 26.6519 75.1119 27.0182 77.0403 28.2607C77.9333 28.8363 78.6936 29.2235 78.7295 29.1213C78.8305 28.8346 77.4008 24.9152 76.6578 23.4421C76.111 22.3579 75.863 22.1001 75.249 21.9773C74.4613 21.8198 70.9454 21.8315 69.7578 21.9956ZM0.5 40.7601C0.5 48.1713 2.92461 56.1871 7.05289 62.4243L8.24891 64.2311L20.9565 64.2993C33.3917 64.3659 33.687 64.3781 34.7408 64.8707L35.8175 65.3739L36.5398 64.8086C38.5517 63.2341 40.9414 58.9685 41.727 55.5494C42.2656 53.2045 42.8028 47.7075 42.6095 46.5164C42.4135 45.3096 41.469 44.002 40.4403 43.5138C39.1034 42.8796 36.5148 43.1346 34.5695 44.0922C32.7873 44.9695 32.0949 45.9799 31.3932 48.7279C30.7756 51.1455 29.7202 53.0707 28.1532 54.6377C24.8084 57.9825 20.6375 58.6282 18.2028 56.178C17.1875 55.1564 16.7933 54.3461 15.972 51.5939C15.6835 50.6271 14.9663 48.8868 14.3785 47.7267C12.9486 44.9053 9.96078 41.8722 7.17969 40.4184C5.27281 39.4218 2.32531 38.4689 1.14922 38.4689H0.5V40.7601ZM71.4945 42.4886C70.4105 43.4001 69.3772 44.4768 69.1984 44.8816C69.0195 45.2861 68.8613 46.2867 68.8468 47.1046L68.8203 48.5918L70.2657 49.9516C71.2459 50.8734 72.1496 51.4753 73.0726 51.8207C74.5925 52.3893 77.7927 52.9253 78.3624 52.7067C79.0381 52.4475 80.6787 44.385 80.0916 44.2078C79.951 44.1651 79.4464 44.0657 78.9704 43.9868C78.4941 43.9078 77.1758 43.2349 76.0407 42.4917C74.9054 41.7482 73.8617 41.0704 73.7211 40.9856C73.5807 40.9007 72.5788 41.5771 71.4945 42.4886ZM89.3781 43.2752C87.977 43.8839 87.9226 44.2706 87.9167 53.6371C87.9118 61.6202 87.8919 61.9994 87.5066 61.5236C86.7148 60.5465 86.3412 60.5001 79.25 60.5001C72.1588 60.5001 71.7852 60.5465 70.9934 61.5236C70.6224 61.9818 70.5882 62.9739 70.5833 73.3818L70.5781 84.7401L69.901 83.9287L69.2237 83.1173L61.9184 83.0491L54.613 82.9809L53.8065 83.7874L53 84.5939V94.2501V103.906L53.7969 104.703L54.5937 105.5H61.516C65.4455 105.5 68.6982 105.401 69.0392 105.272C69.3699 105.146 69.834 104.725 70.0705 104.336L70.5008 103.628L70.824 104.233C71.4702 105.44 71.8707 105.5 79.25 105.5C86.6293 105.5 87.0298 105.44 87.676 104.233L87.9992 103.628L88.4295 104.336C88.666 104.725 89.1301 105.146 89.4608 105.272C89.8018 105.401 93.0545 105.5 96.984 105.5H103.906L104.703 104.703L105.5 103.906V74.4841C105.5 55.938 105.416 44.8396 105.271 44.4609C105.146 44.1302 104.698 43.649 104.275 43.3917C103.555 42.9522 103.1 42.9243 96.8281 42.9321C91.5697 42.9386 89.9844 43.0115 89.3781 43.2752ZM2.72656 68.331C1.86453 68.714 1.08266 69.5395 0.750078 70.4177C0.6125 70.7805 0.5 72.5643 0.5 74.3814C0.5 77.4707 0.5375 77.7496 1.07797 78.6717C1.92289 80.1135 2.75445 80.4215 5.80883 80.4241L8.35156 80.4264L7.37586 81.0112C5.77133 81.9731 5.42188 82.9992 5.42188 86.7501C5.42188 90.4853 5.77437 91.5309 7.35031 92.4707L8.3007 93.0375L5.51375 93.1164C2.37758 93.2053 1.87789 93.4139 0.968047 95.0144C0.505391 95.8286 0.472813 96.172 0.542188 99.5099C0.623984 103.446 0.727578 103.777 2.23086 104.9C2.86625 105.374 3.14516 105.384 17.773 105.447L32.668 105.51L33.6629 104.927C35.2198 104.015 35.4221 103.349 35.4209 99.1366C35.42 95.11 35.2224 94.4589 33.7248 93.5458L32.9609 93.0799L35.2093 93.0792C38.0155 93.078 39.2007 92.5624 40.0384 90.9782C40.5259 90.0567 40.5781 89.6465 40.5781 86.7501C40.5781 83.8537 40.5259 83.4435 40.0384 82.522C39.2007 80.9378 38.0155 80.4222 35.2093 80.421L32.9609 80.4203L33.7248 79.9544C35.2224 79.0413 35.42 78.3902 35.4209 74.3636C35.4221 70.1571 35.2187 69.4846 33.6716 68.5781L32.6853 68.0001L18.0575 68.0092C6.39102 68.0165 3.28742 68.0817 2.72656 68.331Z" fill="white" stroke="#05C5D1" stroke-width="3" mask="url(#path-1-inside-1_176_781)"/>
</svg>
