<svg width="98" height="106" viewBox="0 0 98 106" fill="none" xmlns="http://www.w3.org/2000/svg">
<path d="M28.9657 58.4375L28.7461 58.2178L28.0336 57.5053C27.7419 57.2136 27.4806 56.9153 27.3327 56.5666C27.167 56.1762 27.1771 55.8099 27.2474 55.4585L28.9657 58.4375ZM28.9657 58.4375H29.2764M28.9657 58.4375H29.2764M29.2764 58.4375H36.0913H42.1562H29.2764ZM55.8437 44.9843V33.4557C55.8437 27.7856 55.8361 24.6914 55.7805 22.9605C55.7529 22.1013 55.7127 21.5391 55.647 21.1533C55.5776 20.7452 55.4677 20.4577 55.2562 20.2077L55.2561 20.2076C54.5687 19.3954 53.3189 19.0701 52.3325 19.4801M55.8437 44.9843L52.3325 19.4801M55.8437 44.9843H61.9087H68.7236H69.0342L69.2539 45.204L69.9664 45.9165L69.9665 45.9166C70.2586 46.2088 70.5212 46.5077 70.6689 46.8581C70.8344 47.2507 70.8217 47.6183 70.7514 47.9696C70.7514 47.9697 70.7514 47.9698 70.7513 47.9698L70.0159 47.8226L55.8437 44.9843ZM52.3325 19.4801C52.3326 19.4801 52.3326 19.4801 52.3327 19.4801L52.6204 20.1727L52.3325 19.4801ZM52.3325 19.4801C52.2275 19.5238 52.1547 19.5819 52.1319 19.6003M52.3325 19.4801L52.1319 19.6003M52.1319 19.6003C52.0982 19.6274 52.0699 19.654 52.0497 19.6738M52.1319 19.6003L52.0497 19.6738M52.0497 19.6738C52.0088 19.7139 51.968 19.7589 51.9309 19.8014M52.0497 19.6738L51.9309 19.8014M51.9309 19.8014C51.8552 19.8882 51.7616 20.0036 51.6547 20.1397M51.9309 19.8014L51.6547 20.1397M51.6547 20.1397C51.4392 20.4141 51.1462 20.8032 50.7893 21.287M51.6547 20.1397L50.7893 21.287M50.7893 21.287C50.0744 22.256 49.0889 23.6242 47.9258 25.2577M50.7893 21.287L47.9258 25.2577M47.9258 25.2577C45.5989 28.5257 42.5531 32.8668 39.5219 37.2263M47.9258 25.2577L39.5219 37.2263M39.5219 37.2263C36.4906 41.5857 33.4722 45.9659 31.2 49.3121M39.5219 37.2263L31.2 49.3121M31.2 49.3121C30.0642 50.9848 29.1131 52.4018 28.4396 53.4295M31.2 49.3121L28.4396 53.4295M28.4396 53.4295C28.1033 53.9427 27.8332 54.3633 27.6432 54.672M28.4396 53.4295L27.6432 54.672M27.6432 54.672C27.5487 54.8256 27.4698 54.958 27.4114 55.0634M27.6432 54.672L27.4114 55.0634M27.4114 55.0634C27.3825 55.1156 27.3543 55.1688 27.3305 55.2188M27.4114 55.0634L27.3305 55.2188M27.3305 55.2188L27.3297 55.2206M27.3305 55.2188L27.3297 55.2206M27.3297 55.2206C27.3146 55.2525 27.2698 55.3469 27.2475 55.4582L27.3297 55.2206ZM96.5567 10.5047L96.4675 30.5261C96.3862 48.7478 96.3194 51.7912 95.9834 54.062C94.2233 65.9561 89.8166 75.876 82.5764 84.2901C75.4225 92.6041 64.6393 99.4618 51.986 103.697L52.2241 104.408L51.986 103.697L49.0057 104.694L45.4361 103.47C20.3206 94.8566 5.56095 78.0131 2.0166 54.062C1.68059 51.7912 1.61376 48.7478 1.53248 30.5261L1.44332 10.5047C1.54595 10.5161 1.65759 10.5268 1.771 10.5373C2.09909 10.5674 2.53352 10.6017 3.04199 10.6379C4.05979 10.7105 5.38616 10.7917 6.77648 10.8642C14.8249 11.2839 22.8234 10.6807 30.4049 9.07995L30.25 8.34612L30.4049 9.07994C36.1746 7.8617 44.1911 4.8246 48.1111 2.35137C48.4289 2.15086 48.7253 1.9694 48.9457 1.83909C48.9577 1.83199 48.9694 1.82507 48.9809 1.81835C49.0031 1.83069 49.0263 1.84369 49.0506 1.85735C49.2974 1.99603 49.6304 2.19024 49.9886 2.40596L49.9887 2.40598C54.8018 5.30411 61.344 7.72609 68.3109 9.21021L68.4672 8.47667L68.311 9.21022C75.374 10.7145 83.2407 11.2807 91.2235 10.8642C92.6138 10.7917 93.9402 10.7105 94.958 10.6379C95.4665 10.6017 95.9009 10.5674 96.229 10.5373C96.3424 10.5268 96.454 10.5161 96.5567 10.5047ZM48.7088 1.6738C48.7091 1.67393 48.7095 1.67409 48.71 1.6743L48.7088 1.6738ZM1.05038 10.4451L1.23132 9.71722L1.04995 10.445L1.05038 10.4451ZM46.2658 53.8318L46.2655 53.8316C46.0856 53.6902 45.8785 53.5459 45.5651 53.4408C45.277 53.3441 44.9347 53.2924 44.4901 53.2592C43.6062 53.193 42.1001 53.1875 39.3395 53.1875C37.5919 53.1875 36.1484 53.1656 35.1516 53.128C35.0543 53.1243 34.9618 53.1205 34.874 53.1165C34.8872 53.0971 34.9006 53.0775 34.9141 53.0576C35.3687 52.3899 36.0218 51.4375 36.8251 50.2703C38.4316 47.9361 40.6371 44.746 43.0537 41.2635C45.4698 37.7817 47.6854 34.6164 49.3086 32.3218C49.8687 31.5301 50.3577 30.8429 50.7596 30.2825C50.7656 30.5482 50.7713 30.8361 50.7766 31.1444C50.8084 32.9722 50.8281 35.4973 50.8281 38.2779C50.8281 43.2995 50.8285 45.8563 50.8936 47.2194C50.9257 47.8902 50.9753 48.3446 51.0758 48.6796C51.1974 49.0847 51.3872 49.2917 51.541 49.4554L51.5411 49.4555L51.5523 49.4675C51.6778 49.6013 51.8617 49.7972 52.1675 49.9367C52.456 50.0682 52.7987 50.1269 53.2244 50.1628C54.0752 50.2343 55.6044 50.2343 58.5316 50.2343H58.533C60.1613 50.2343 61.6392 50.2498 62.7077 50.2746C62.8579 50.2781 62.9995 50.2818 63.132 50.2856C62.6784 50.9547 62.0243 51.9109 61.2173 53.0849C59.5933 55.4473 57.3529 58.6876 54.888 62.2353L47.2751 73.1927L47.2281 65.2313L47.1669 54.9007L47.1648 54.5393L46.8808 54.3158L46.2658 53.8318Z" fill="white" stroke="#2A83E2" stroke-width="1.5"/>
</svg>
