<svg width="116" height="116" viewBox="0 0 116 116" fill="none" xmlns="http://www.w3.org/2000/svg">
<mask id="path-1-inside-1_176_769" fill="white">
<path fill-rule="evenodd" clip-rule="evenodd" d="M0.71423 0.791406C0.317668 1.22992 0.295871 1.68555 0.409543 7.19031C0.541027 13.5723 0.798136 15.4047 2.12048 19.3942C6.07204 31.3143 15.7431 39.9452 28.4687 42.9084C30.0034 43.2658 31.8992 43.3288 43.4101 43.4057L56.5937 43.4938V48.3759C56.5937 53.943 56.7695 53.5349 54.3671 53.5457C53.7226 53.5485 52.6414 53.6174 51.9648 53.6987L50.7343 53.8466V64.6059V75.3651L50.1589 75.9402C49.633 76.4664 49.4021 76.5156 47.4636 76.5156H45.3437V86.4402C45.3437 95.7573 45.3174 96.3885 44.915 96.7527C44.5377 97.0945 43.6988 97.1406 37.8838 97.1406H31.2812V99.9009V102.661L35.7929 109.152L40.3046 115.643L62.8431 115.649L85.3815 115.656L87.2584 110.031L89.135 104.406H84.5181C80.7186 104.406 79.8088 104.342 79.3803 104.041C78.8598 103.677 78.8593 103.668 78.8593 95.9554V88.2344L73.8788 88.2309C71.1397 88.2287 68.7823 88.1498 68.6406 88.0551C67.9349 87.5837 67.8437 86.7557 67.8437 80.8164V74.774L75.6078 66.9972L83.372 59.2202L82.2289 58.7043C76.1164 55.945 69.3577 54.107 63.7421 53.677C62.7109 53.598 61.3133 53.4761 60.6367 53.406L59.4062 53.2788V48.3864V43.4938L72.5898 43.4057C84.1006 43.3288 85.9965 43.2658 87.5312 42.9084C101.78 39.5905 111.911 29.4018 114.993 15.2927C115.373 13.5517 115.493 11.9334 115.59 7.19031C115.703 1.74016 115.679 1.22641 115.297 0.803594C114.892 0.356172 114.489 0.34375 100.357 0.34375C88.3555 0.34375 85.4024 0.407734 83.3504 0.712422C76.7061 1.69914 70.6848 4.75328 65.8419 9.59336C62.4863 12.9466 59.5236 17.5898 58.4476 21.1809C58.2896 21.7087 58.0881 22.1406 57.9999 22.1406C57.9118 22.1406 57.7067 21.6925 57.5441 21.1445C56.5112 17.6666 53.4641 12.9013 50.1566 9.59195C45.7337 5.16625 40.7497 2.43367 34.4452 0.977969C32.4451 0.516016 31.5285 0.486484 16.7387 0.405156C1.34845 0.320781 1.13564 0.325703 0.71423 0.791406ZM18.5244 12.4307C18.3219 12.6334 18.1562 13.1102 18.1562 13.4903C18.1562 14.1236 18.7316 14.6104 25.0117 19.2899C28.7823 22.0994 35.2421 26.9155 39.3671 29.9927C43.4921 33.0698 48.9238 37.1111 51.4374 38.9739C53.9511 40.8365 56.1444 42.4684 56.3113 42.6004C56.5552 42.7935 56.6012 42.4909 56.5456 41.0575L56.4765 39.2746L38.2213 25.6684C26.5388 16.9614 19.7727 12.0625 19.4293 12.0625C19.1342 12.0625 18.7271 12.2282 18.5244 12.4307ZM86.5311 19.1523C81.3027 23.0519 73.0618 29.1953 68.218 32.8047L59.4111 39.3672L59.4085 41.0777L59.4062 42.7881L60.4023 42.0906C60.95 41.7072 69.5722 35.2919 79.5624 27.8348C96.2279 15.3948 97.7323 14.2164 97.7977 13.5503C97.8812 12.7007 97.3555 12.0625 96.5722 12.0625C96.2363 12.0625 92.4971 14.7027 86.5311 19.1523ZM47.1015 54.4063C38.1418 56.3547 30.6444 59.6186 24.1864 64.3818C11.3949 73.8168 3.25486 87.3142 0.896808 103C0.623527 104.818 0.486652 107.207 0.47634 110.342C0.461808 114.681 0.491105 115.011 0.915793 115.322C1.29993 115.604 4.13728 115.656 19.1497 115.656H36.9287L36.1707 114.543C35.7538 113.931 33.9727 111.373 32.2128 108.859C30.4529 106.346 28.8906 104.059 28.7408 103.777C28.5657 103.448 28.4687 101.878 28.4687 99.3719C28.4687 95.5509 28.4795 95.4681 29.0441 94.9035L29.6192 94.3281H36.0753H42.5312V84.5366C42.5312 76.0537 42.5799 74.6753 42.8961 74.2241C43.2315 73.7451 43.4488 73.7031 45.5914 73.7031H47.9218V63.9766C47.9218 58.627 47.8426 54.2622 47.746 54.2772C47.6495 54.2922 47.3593 54.3503 47.1015 54.4063ZM78.3205 68.2654L70.6562 75.9323V80.6772V85.4219H75.6505C79.5922 85.4219 80.7406 85.492 81.0997 85.7542C81.5316 86.0699 81.5581 86.4777 81.6224 93.8402L81.6901 101.594H86.6837C91.2238 101.594 91.7124 101.633 92.0652 102.022C92.2785 102.258 92.4531 102.669 92.4531 102.935C92.4531 103.201 91.5078 106.172 90.3523 109.537L88.2514 115.656H101.468C115.907 115.656 115.22 115.721 115.573 114.317C115.81 113.372 115.477 105.484 115.089 102.858C113.198 90.0484 107.431 78.7159 98.2803 69.8273C94.6756 66.3262 91.4703 63.8847 86.8166 61.0966L85.985 60.5983L78.3205 68.2654Z"/>
</mask>
<path fill-rule="evenodd" clip-rule="evenodd" d="M0.71423 0.791406C0.317668 1.22992 0.295871 1.68555 0.409543 7.19031C0.541027 13.5723 0.798136 15.4047 2.12048 19.3942C6.07204 31.3143 15.7431 39.9452 28.4687 42.9084C30.0034 43.2658 31.8992 43.3288 43.4101 43.4057L56.5937 43.4938V48.3759C56.5937 53.943 56.7695 53.5349 54.3671 53.5457C53.7226 53.5485 52.6414 53.6174 51.9648 53.6987L50.7343 53.8466V64.6059V75.3651L50.1589 75.9402C49.633 76.4664 49.4021 76.5156 47.4636 76.5156H45.3437V86.4402C45.3437 95.7573 45.3174 96.3885 44.915 96.7527C44.5377 97.0945 43.6988 97.1406 37.8838 97.1406H31.2812V99.9009V102.661L35.7929 109.152L40.3046 115.643L62.8431 115.649L85.3815 115.656L87.2584 110.031L89.135 104.406H84.5181C80.7186 104.406 79.8088 104.342 79.3803 104.041C78.8598 103.677 78.8593 103.668 78.8593 95.9554V88.2344L73.8788 88.2309C71.1397 88.2287 68.7823 88.1498 68.6406 88.0551C67.9349 87.5837 67.8437 86.7557 67.8437 80.8164V74.774L75.6078 66.9972L83.372 59.2202L82.2289 58.7043C76.1164 55.945 69.3577 54.107 63.7421 53.677C62.7109 53.598 61.3133 53.4761 60.6367 53.406L59.4062 53.2788V48.3864V43.4938L72.5898 43.4057C84.1006 43.3288 85.9965 43.2658 87.5312 42.9084C101.78 39.5905 111.911 29.4018 114.993 15.2927C115.373 13.5517 115.493 11.9334 115.59 7.19031C115.703 1.74016 115.679 1.22641 115.297 0.803594C114.892 0.356172 114.489 0.34375 100.357 0.34375C88.3555 0.34375 85.4024 0.407734 83.3504 0.712422C76.7061 1.69914 70.6848 4.75328 65.8419 9.59336C62.4863 12.9466 59.5236 17.5898 58.4476 21.1809C58.2896 21.7087 58.0881 22.1406 57.9999 22.1406C57.9118 22.1406 57.7067 21.6925 57.5441 21.1445C56.5112 17.6666 53.4641 12.9013 50.1566 9.59195C45.7337 5.16625 40.7497 2.43367 34.4452 0.977969C32.4451 0.516016 31.5285 0.486484 16.7387 0.405156C1.34845 0.320781 1.13564 0.325703 0.71423 0.791406ZM18.5244 12.4307C18.3219 12.6334 18.1562 13.1102 18.1562 13.4903C18.1562 14.1236 18.7316 14.6104 25.0117 19.2899C28.7823 22.0994 35.2421 26.9155 39.3671 29.9927C43.4921 33.0698 48.9238 37.1111 51.4374 38.9739C53.9511 40.8365 56.1444 42.4684 56.3113 42.6004C56.5552 42.7935 56.6012 42.4909 56.5456 41.0575L56.4765 39.2746L38.2213 25.6684C26.5388 16.9614 19.7727 12.0625 19.4293 12.0625C19.1342 12.0625 18.7271 12.2282 18.5244 12.4307ZM86.5311 19.1523C81.3027 23.0519 73.0618 29.1953 68.218 32.8047L59.4111 39.3672L59.4085 41.0777L59.4062 42.7881L60.4023 42.0906C60.95 41.7072 69.5722 35.2919 79.5624 27.8348C96.2279 15.3948 97.7323 14.2164 97.7977 13.5503C97.8812 12.7007 97.3555 12.0625 96.5722 12.0625C96.2363 12.0625 92.4971 14.7027 86.5311 19.1523ZM47.1015 54.4063C38.1418 56.3547 30.6444 59.6186 24.1864 64.3818C11.3949 73.8168 3.25486 87.3142 0.896808 103C0.623527 104.818 0.486652 107.207 0.47634 110.342C0.461808 114.681 0.491105 115.011 0.915793 115.322C1.29993 115.604 4.13728 115.656 19.1497 115.656H36.9287L36.1707 114.543C35.7538 113.931 33.9727 111.373 32.2128 108.859C30.4529 106.346 28.8906 104.059 28.7408 103.777C28.5657 103.448 28.4687 101.878 28.4687 99.3719C28.4687 95.5509 28.4795 95.4681 29.0441 94.9035L29.6192 94.3281H36.0753H42.5312V84.5366C42.5312 76.0537 42.5799 74.6753 42.8961 74.2241C43.2315 73.7451 43.4488 73.7031 45.5914 73.7031H47.9218V63.9766C47.9218 58.627 47.8426 54.2622 47.746 54.2772C47.6495 54.2922 47.3593 54.3503 47.1015 54.4063ZM78.3205 68.2654L70.6562 75.9323V80.6772V85.4219H75.6505C79.5922 85.4219 80.7406 85.492 81.0997 85.7542C81.5316 86.0699 81.5581 86.4777 81.6224 93.8402L81.6901 101.594H86.6837C91.2238 101.594 91.7124 101.633 92.0652 102.022C92.2785 102.258 92.4531 102.669 92.4531 102.935C92.4531 103.201 91.5078 106.172 90.3523 109.537L88.2514 115.656H101.468C115.907 115.656 115.22 115.721 115.573 114.317C115.81 113.372 115.477 105.484 115.089 102.858C113.198 90.0484 107.431 78.7159 98.2803 69.8273C94.6756 66.3262 91.4703 63.8847 86.8166 61.0966L85.985 60.5983L78.3205 68.2654Z" fill="white" stroke="#48E56B" stroke-width="3" mask="url(#path-1-inside-1_176_769)"/>
</svg>
