<svg width="100" height="100" viewBox="0 0 100 100" fill="none" xmlns="http://www.w3.org/2000/svg">
<circle cx="50" cy="50" r="48.5" fill="white" stroke="url(#paint0_linear_176_739)" stroke-width="3"/>
<g clip-path="url(#clip0_176_739)">
<path fill-rule="evenodd" clip-rule="evenodd" d="M48.5228 20.2502C46.927 20.7859 45.7615 22.1316 45.384 23.8743C45.3266 24.1396 45.2269 24.1924 44.5247 24.3286C41.8039 24.8567 38.4348 26.2459 35.8891 27.8893L35.079 28.4122L34.3657 28.0217C32.4828 26.9911 30.3146 27.2969 28.8057 28.8058C27.2972 30.3144 26.9911 32.4829 28.021 34.3647L28.4109 35.0772L27.7796 36.0639C26.3564 38.2886 25.1905 41.0502 24.545 43.7254C24.1905 45.1947 24.1369 45.3261 23.8671 45.385C22.1103 45.7693 20.7764 46.9366 20.2453 48.5544C19.3637 51.2398 21.0139 53.9963 23.8742 54.6159C24.1396 54.6733 24.1923 54.773 24.3285 55.4752C24.8566 58.196 26.2458 61.5651 27.8892 64.1108L28.4121 64.9209L28.0216 65.6342C26.991 67.5171 27.2968 69.6853 28.8057 71.1942C30.316 72.7045 32.4826 73.0091 34.3694 71.9762L35.0867 71.5836L35.5999 71.9292C36.9144 72.8142 40.2066 74.4922 40.6284 74.4922C40.6883 74.4922 40.8439 74.2831 40.9744 74.0277L41.2113 73.5631L40.9689 73.4334C40.8355 73.362 40.5812 73.0748 40.4039 72.7951C40.142 72.3821 39.8737 72.1784 38.9762 71.7112C38.0292 71.2182 36.289 70.1828 36.289 70.1124C36.289 70.0998 36.4 69.7749 36.5355 69.3904C36.8989 68.36 36.8174 66.9712 36.3325 65.9352C35.8751 64.9577 35.0422 64.1248 34.0648 63.6675C33.0356 63.1858 31.646 63.1021 30.6054 63.459C29.7893 63.7389 29.8861 63.8012 29.1257 62.508C28.3194 61.1371 27.5361 59.4782 27.0929 58.2031C26.6826 57.0225 26.0937 54.9252 26.0937 54.6447C26.0937 54.5708 26.3442 54.3953 26.6503 54.2547C27.8048 53.7246 28.7045 52.7007 29.1327 51.4296C29.8711 49.2376 28.7713 46.7192 26.6503 45.7453C26.3441 45.6046 26.0941 45.4366 26.0947 45.3718C26.0973 45.0868 26.702 42.9211 27.0928 41.7969C27.5362 40.5216 28.3196 38.8625 29.1257 37.492C29.8861 36.1988 29.7893 36.2611 30.6054 36.541C32.1905 37.0846 34.2172 36.6092 35.4131 35.4132C36.6124 34.214 37.0883 32.177 36.5355 30.6096C36.4 30.2251 36.289 29.9002 36.289 29.8876C36.289 29.7991 38.0557 28.7807 39.1916 28.2146C41.0566 27.2851 43.5526 26.4061 45.025 26.1603L45.4993 26.0812L45.7575 26.6524C46.2812 27.8112 47.2911 28.7019 48.5703 29.1328C50.7634 29.8715 53.2848 28.7711 54.2395 26.6586C54.3799 26.3479 54.5514 26.0946 54.6204 26.0955C55.2074 26.1039 58.3667 27.0873 59.7773 27.7005C60.7321 28.1156 62.96 29.3311 63.4481 29.7031L63.7128 29.9048L63.4653 30.6068C63.2665 31.1704 63.227 31.5051 63.2647 32.3067C63.349 34.0987 64.2775 35.5094 65.897 36.3068C66.9367 36.8186 68.3293 36.9098 69.3903 36.5356C69.7748 36.4 70.0997 36.2891 70.1123 36.2891C70.1249 36.2891 70.3522 36.6328 70.6176 37.053C71.3857 38.2692 72.444 40.4615 72.9076 41.7969C73.3033 42.9369 73.9026 45.0891 73.9051 45.3795C73.9057 45.4486 73.6478 45.6219 73.3318 45.7646C72.1701 46.2897 71.1789 47.4451 70.811 48.703C70.1756 50.8757 71.2891 53.3121 73.3413 54.2396C73.652 54.38 73.9057 54.5514 73.9051 54.6205C73.9026 54.913 73.3023 57.0658 72.9062 58.2031C72.4693 59.4574 71.6587 61.1709 70.8553 62.5391C70.1169 63.7965 70.209 63.7384 69.3944 63.459C67.8094 62.9153 65.7826 63.3908 64.5867 64.5868C63.3859 65.7876 62.9113 67.8233 63.4659 69.3945C63.7019 70.0632 63.7041 70.1053 63.5074 70.2536C63.0992 70.5616 61.1253 71.6961 60.497 71.9837C60.1442 72.1452 59.8257 72.3717 59.7892 72.4872C59.7525 72.6027 59.5171 72.9012 59.266 73.1509L58.8096 73.6045L59.0361 74.0484C59.1606 74.2925 59.3115 74.4922 59.3714 74.4922C59.8033 74.4922 63.055 72.8349 64.3999 71.9292L64.9131 71.5836L65.6304 71.9762C67.4961 72.9976 69.6778 72.6979 71.1861 71.2132C72.6873 69.7354 73.0028 67.5061 71.9761 65.6305L71.5835 64.9132L71.9291 64.4C73.5735 61.9582 75.1365 58.2302 75.6714 55.4752C75.8075 54.7734 75.8605 54.6732 76.1256 54.6152C77.8701 54.2334 79.216 53.0813 79.7157 51.5416C79.8341 51.1771 79.9727 50.8289 80.0239 50.7676C80.1423 50.6261 80.1473 49.03 80.0292 49.1029C79.9808 49.1327 79.846 48.8559 79.7296 48.4877C79.2412 46.9442 77.8826 45.7725 76.1327 45.3857C75.8631 45.3261 75.8092 45.1943 75.4548 43.7254C74.8093 41.0502 73.6434 38.2886 72.2202 36.0639L71.5889 35.0772L71.9788 34.3647C73.0036 32.4925 72.695 30.3066 71.1941 28.8058C69.6855 27.2973 67.517 26.9912 65.6352 28.0211L64.9227 28.411L63.936 27.7797C61.7113 26.3565 58.9498 25.1906 56.2745 24.5451C54.8052 24.1906 54.6738 24.1369 54.6149 23.8672C53.9877 21 51.2072 19.3491 48.5228 20.2502ZM49.2961 21.9777C47.9829 22.4076 47.2539 23.375 47.2539 24.6875C47.2539 26.2986 48.3885 27.4327 49.9999 27.4327C51.6114 27.4327 52.746 26.2986 52.746 24.6875C52.746 23.5706 52.2254 22.7101 51.2447 22.2058C50.7395 21.946 49.7474 21.8299 49.2961 21.9777ZM31.3335 29.4244C30.1246 29.7495 29.3262 30.8266 29.3382 32.1158C29.3466 33.0035 29.641 33.6364 30.3132 34.2118C32.3987 35.9968 35.494 33.9552 34.7713 31.2713C34.5698 30.5231 33.7087 29.6834 32.8985 29.4451C32.1546 29.2262 32.0747 29.2251 31.3335 29.4244ZM66.9921 29.4822C64.8017 30.25 64.4695 33.2397 66.4392 34.4575C68.5813 35.7819 71.2841 33.7483 70.5799 31.3422C70.1202 29.7714 68.5254 28.9447 66.9921 29.4822ZM47.539 31.4219C38.4625 32.7547 31.8629 40.6603 32.2256 49.7656C32.3326 52.4517 32.9156 54.7632 34.0656 57.0603C34.9077 58.7424 35.8382 60.0293 37.6455 62.0117C40.9629 65.6502 41.5556 66.8409 41.5604 69.8752C41.5626 71.3007 41.6953 71.6588 42.4206 72.1962C42.748 72.4388 42.8289 72.4414 49.9999 72.4414C57.138 72.4414 57.2532 72.4378 57.572 72.1998C58.3016 71.6551 58.3676 71.4591 58.4502 69.5943C58.5846 66.5581 59.0368 65.6981 62.5304 61.8359C66.0473 57.948 67.5898 54.3977 67.7742 49.7656C67.9768 44.6814 66.0156 39.807 62.3485 36.2804C58.3656 32.4499 52.8534 30.6416 47.539 31.4219ZM48.0663 33.2514C41.9905 34.0898 37.0242 38.1159 34.9574 43.8788C34.3639 45.5337 34.1392 46.9482 34.1339 49.0625C34.1286 51.1977 34.2907 52.2898 34.881 54.0963C35.6748 56.5252 36.8291 58.3416 39.2773 61.014C42.5313 64.5659 43.28 66.0273 43.4062 69.0723L43.4707 70.625H46.2666H49.0624V66.4062V62.1875H48.5821C48.0479 62.1875 47.4327 61.9373 47.1216 61.5936C47.0092 61.4694 46.8262 61.0991 46.715 60.7707L46.513 60.1736L45.5007 59.7672L44.4886 59.3608L44.1854 59.5992C43.8107 59.894 43.2216 60.0125 42.6568 59.9066C42.3166 59.8427 41.9421 59.5464 40.8483 58.4756C40.0895 57.7328 39.38 56.9383 39.2717 56.71C39.0216 56.1828 39.0994 55.3753 39.4454 54.9071L39.6982 54.5653L39.2934 53.5573L38.8888 52.5494L38.2917 52.3474C37.0369 51.9225 36.8749 51.5479 36.8749 49.0703C36.8749 46.5641 37.0295 46.205 38.2917 45.7776L38.8888 45.5756L39.2934 44.5677L39.6982 43.5597L39.4454 43.2179C39.0994 42.7497 39.0216 41.9422 39.2717 41.415C39.38 41.1867 40.0895 40.3921 40.8483 39.6494C41.9421 38.5786 42.3166 38.2823 42.6568 38.2184C43.2216 38.1125 43.8107 38.231 44.1854 38.5258L44.4886 38.7642L45.5007 38.3578L46.513 37.9514L46.715 37.3543C47.1424 36.0921 47.5015 35.9375 50.0078 35.9375C52.4853 35.9375 52.8599 36.0994 53.2848 37.3543L53.4868 37.9514L54.4991 38.3578L55.5112 38.7642L55.8144 38.5258C56.1892 38.231 56.7783 38.1125 57.343 38.2184C57.6832 38.2823 58.0577 38.5786 59.1516 39.6494C59.9103 40.3921 60.6198 41.1867 60.7281 41.415C60.9783 41.9422 60.9005 42.7497 60.5544 43.2179L60.3016 43.5597L60.7064 44.5677L61.111 45.5756L61.7081 45.7776C62.9639 46.2028 63.1249 46.5762 63.1249 49.0625C63.1249 51.5487 62.9639 51.9222 61.7081 52.3474L61.111 52.5494L60.7064 53.5573L60.3016 54.5653L60.5544 54.9071C60.9005 55.3753 60.9783 56.1828 60.7281 56.71C60.6198 56.9383 59.9103 57.7328 59.1516 58.4756C58.0577 59.5464 57.6832 59.8427 57.343 59.9066C56.7783 60.0125 56.1892 59.894 55.8144 59.5992L55.5112 59.3608L54.4991 59.7672L53.4868 60.1736L53.2848 60.7707C53.1736 61.0991 52.9907 61.4694 52.8783 61.5936C52.5671 61.9373 51.9519 62.1875 51.4178 62.1875H50.9374V66.4062V70.625H53.7499H56.5624V69.5068C56.5624 67.5154 57.0466 65.8643 58.1148 64.2131C58.6741 63.3485 59.5022 62.3523 61.2596 60.4297C63.6701 57.7928 65.0325 55.1936 65.6655 52.0238C65.9734 50.4819 65.9435 47.5142 65.604 45.9277C64.9076 42.6725 63.5893 40.2635 61.1941 37.8683C58.7908 35.465 56.3371 34.1257 53.1347 33.4692C51.7503 33.1853 49.3063 33.0803 48.0663 33.2514ZM48.4765 38.6236V39.4345L48.0956 39.5105C46.9603 39.7374 45.573 40.3046 44.7097 40.8949L44.2828 41.1868L43.7771 40.6715C43.4991 40.3882 43.2153 40.1562 43.1468 40.1562C42.9875 40.1562 41.0937 42.0548 41.0937 42.2144C41.0937 42.2802 41.3256 42.5616 41.6089 42.8397L42.1242 43.3454L41.8323 43.7723C41.242 44.6356 40.6748 46.0229 40.448 47.1582L40.3719 47.5391H39.561H38.7499V49.0625V50.5859H39.561H40.3719L40.448 50.9668C40.6748 52.1021 41.242 53.4894 41.8323 54.3527L42.1242 54.7796L41.6089 55.2853C41.3256 55.5634 41.0937 55.8471 41.0937 55.9156C41.0937 56.0749 42.9922 57.9687 43.1518 57.9687C43.2176 57.9687 43.4991 57.7368 43.7771 57.4535L44.2828 56.9382L44.7097 57.2301C45.573 57.8204 46.9603 58.3876 48.0956 58.6145L48.4765 58.6905V59.5014V60.3125H49.9999H51.5233V59.5019V58.6913L52.1106 58.5653C52.9963 58.3754 54.4371 57.7882 55.1161 57.3404L55.7205 56.9417L56.2244 57.4552C56.5016 57.7377 56.7845 57.9687 56.853 57.9687C57.0123 57.9687 58.9062 56.0702 58.9062 55.9106C58.9062 55.8448 58.6751 55.5642 58.3926 55.287L57.8791 54.7831L58.2778 54.1787C58.7256 53.4997 59.3128 52.0589 59.5028 51.1732L59.6287 50.5859H60.4393H61.2499V49.0625V47.5391H60.4389H59.6279L59.5519 47.1582C59.325 46.0229 58.7578 44.6356 58.1675 43.7723L57.8756 43.3454L58.3909 42.8397C58.6742 42.5616 58.9062 42.2779 58.9062 42.2094C58.9062 42.0501 57.0076 40.1562 56.848 40.1562C56.7823 40.1562 56.5008 40.3882 56.2227 40.6715L55.717 41.1868L55.2901 40.8949C54.4268 40.3046 53.0395 39.7374 51.9042 39.5105L51.5233 39.4345V38.6236V37.8125H49.9999H48.4765V38.6236ZM48.3593 41.7447C45.6898 42.3181 43.4279 44.5341 42.731 47.2589C41.5412 51.9111 45.1737 56.5584 49.9999 56.5584C54.0841 56.5584 57.4958 53.1467 57.4958 49.0625C57.4958 44.3061 53.0421 40.739 48.3593 41.7447ZM48.8407 43.5643C46.6472 43.9951 44.7871 45.9948 44.4585 48.2755C43.9287 51.9533 47.2229 55.2084 50.8495 54.5905C53.3246 54.1686 55.1907 52.283 55.5414 49.8495C56.0905 46.0372 52.6555 42.8151 48.8407 43.5643ZM23.9836 47.2902C22.6704 47.7201 21.9414 48.6875 21.9414 50C21.9414 51.6111 23.076 52.7452 24.6874 52.7452C26.2989 52.7452 27.4335 51.6111 27.4335 50C27.4335 48.8831 26.9129 48.0226 25.9322 47.5183C25.427 47.2585 24.4349 47.1424 23.9836 47.2902ZM74.6086 47.2902C73.2954 47.7201 72.5664 48.6875 72.5664 50C72.5664 51.6111 73.701 52.7452 75.3124 52.7452C76.9239 52.7452 78.0585 51.6111 78.0585 50C78.0585 48.8831 77.5379 48.0226 76.5572 47.5183C76.052 47.2585 75.0599 47.1424 74.6086 47.2902ZM20.0393 50C20.0393 50.4834 20.06 50.6812 20.0852 50.4394C20.1105 50.1978 20.1105 49.8023 20.0852 49.5605C20.06 49.3189 20.0393 49.5166 20.0393 50ZM31.1488 65.2714C29.5955 65.8579 28.8669 67.7069 29.6157 69.1621C30.5001 70.8809 32.7235 71.2078 34.0701 69.817C35.7397 68.0925 34.641 65.2575 32.2629 65.154C31.8669 65.1368 31.3656 65.1896 31.1488 65.2714ZM66.6602 65.4222C64.9454 66.2768 64.5901 68.4334 65.9352 69.8226C67.6898 71.6349 70.7088 70.3936 70.6737 67.8741C70.6448 65.8071 68.5079 64.5016 66.6602 65.4222ZM42.7876 74.6627C42.6062 74.844 42.4999 75.0842 42.4999 75.3125C42.4999 75.5408 42.6062 75.781 42.7876 75.9623L43.0752 76.25H49.9999H56.9246L57.2122 75.9623C57.3936 75.781 57.4999 75.5408 57.4999 75.3125C57.4999 75.0842 57.3936 74.844 57.2122 74.6627L56.9246 74.375H49.9999H43.0752L42.7876 74.6627ZM44.1939 78.4127C44.0125 78.594 43.9062 78.8342 43.9062 79.0625C43.9062 79.2908 44.0125 79.531 44.1939 79.7123L44.4814 80H49.9999H55.5184L55.806 79.7123C55.9874 79.531 56.0937 79.2908 56.0937 79.0625C56.0937 78.8342 55.9874 78.594 55.806 78.4127L55.5184 78.125H49.9999H44.4814L44.1939 78.4127Z" fill="url(#paint1_linear_176_739)"/>
</g>
<defs>
<linearGradient id="paint0_linear_176_739" x1="30.5071" y1="13.7879" x2="71.4742" y2="13.819" gradientUnits="userSpaceOnUse">
<stop stop-color="#3887DB"/>
<stop offset="1" stop-color="#1E4875"/>
</linearGradient>
<linearGradient id="paint1_linear_176_739" x1="38.3447" y1="28.2759" x2="62.9691" y2="28.2946" gradientUnits="userSpaceOnUse">
<stop stop-color="#3887DB"/>
<stop offset="1" stop-color="#1E4875"/>
</linearGradient>
<clipPath id="clip0_176_739">
<rect width="60" height="60" fill="white" transform="translate(20 20)"/>
</clipPath>
</defs>
</svg>
