<svg width="100" height="100" viewBox="0 0 100 100" fill="none" xmlns="http://www.w3.org/2000/svg">
<circle cx="50" cy="50" r="48.5" fill="white" stroke="url(#paint0_linear_176_731)" stroke-width="3"/>
<g clip-path="url(#clip0_176_731)">
<path fill-rule="evenodd" clip-rule="evenodd" d="M47.4084 20.1134C46.5083 20.2279 46.0913 20.4184 45.559 20.9584C44.9965 21.529 44.8702 21.8392 44.6542 23.1823C44.5469 23.8491 44.4007 24.4512 44.3292 24.5204C44.2577 24.5896 43.6746 24.7904 43.0333 24.9667C40.8572 25.5648 38.1819 26.7079 36.5788 27.7246L36.024 28.0764L34.8038 27.2351C33.6289 26.4251 33.5544 26.3922 32.7924 26.3492C31.5343 26.278 31.177 26.5033 28.84 28.8401C26.6213 31.0589 26.3281 31.4978 26.3281 32.6002C26.3281 33.4157 26.4774 33.7601 27.3667 34.9957L28.0803 35.9875L27.785 36.4606C26.7084 38.1853 25.0228 42.2583 24.7417 43.8142C24.6984 44.0536 24.6025 44.2961 24.5287 44.3529C24.4549 44.4097 23.849 44.5447 23.1822 44.6528C21.7493 44.8851 21.4693 45.0131 20.8443 45.7232C20.1532 46.5085 20.0593 47.0201 20.0593 50.0001C20.0593 52.98 20.1532 53.4917 20.8443 54.2769C21.4693 54.987 21.7493 55.1151 23.1822 55.3473C23.849 55.4554 24.4549 55.5904 24.5287 55.6472C24.6025 55.704 24.6984 55.9465 24.7417 56.1859C25.0211 57.7326 26.7075 61.8196 27.7769 63.5417L28.0719 64.0167L27.2618 65.1647C26.4109 66.3702 26.2656 66.771 26.3527 67.6726C26.4466 68.6447 26.752 69.0727 28.8397 71.158C31.0599 73.3757 31.5031 73.6719 32.6001 73.6719C33.419 73.6719 33.7647 73.5228 34.9964 72.6376L35.9887 71.9243L36.5784 72.2749C38.5486 73.4465 40.8722 74.4394 43.0333 75.0334C43.6746 75.2097 44.2577 75.4105 44.3292 75.4797C44.4007 75.5489 44.5469 76.151 44.6542 76.8178C44.8847 78.2501 45.0127 78.5303 45.7231 79.1557C46.5084 79.8469 47.0201 79.9408 50 79.9408C52.98 79.9408 53.4916 79.8469 54.2769 79.1557C54.9736 78.5424 55.1076 78.2618 55.3352 76.9397C55.5921 75.4481 55.6371 75.3578 56.1724 75.261C57.7413 74.9772 61.8084 73.2959 63.5374 72.2163L64.0084 71.9222L65.1604 72.7354C65.7942 73.1827 66.4949 73.5827 66.7175 73.6245C67.3163 73.7369 68.1961 73.6221 68.6831 73.3682C69.577 72.9021 72.9041 69.5755 73.3681 68.684C73.6221 68.1959 73.7368 67.3163 73.6244 66.7176C73.5827 66.4949 73.1839 65.7961 72.7383 65.1647L71.9281 64.0167L72.2231 63.5417C73.297 61.8123 74.9786 57.7329 75.2609 56.1724C75.3577 55.6371 75.4481 55.5921 76.9397 55.3353C78.2606 55.1079 78.5425 54.9735 79.1526 54.2803C79.6449 53.7211 79.8828 53.0564 79.8828 52.2402C79.8828 51.9825 79.9356 51.7391 80 51.6993C80.0697 51.6561 80.1172 50.9145 80.1172 49.869C80.1172 48.727 80.0762 48.1365 80 48.1836C79.9291 48.2275 79.8828 48.0654 79.8828 47.7737C79.8828 46.9439 79.6475 46.282 79.1526 45.7198C78.5287 45.0109 78.2312 44.8753 76.7551 44.6268C75.9686 44.4944 75.4697 44.3537 75.4141 44.249C75.3654 44.1572 75.1909 43.5921 75.0262 42.9934C74.455 40.9161 73.2829 38.1949 72.2131 36.4627L71.9222 35.9917L72.7324 34.8437C73.5858 33.6347 73.7642 33.1147 73.6411 32.1967C73.5249 31.3309 73.171 30.852 71.1596 28.8388C68.9341 26.6115 68.512 26.3282 67.4202 26.3282C66.5836 26.3282 66.2455 26.4735 65.0043 27.3667L64.0126 28.0804L63.5395 27.7851C61.8109 26.706 57.742 25.0229 56.1785 24.7403C55.935 24.6963 55.6916 24.5741 55.6374 24.4689C55.5834 24.3635 55.4733 23.8292 55.3926 23.2813C55.2115 22.0486 54.9628 21.454 54.4003 20.9076C53.6839 20.2119 53.1893 20.1032 50.5274 20.0562C49.2383 20.0333 47.8347 20.0591 47.4084 20.1134ZM47.9681 22.09C46.8936 22.1946 46.8056 22.3169 46.5451 24.0652C46.2296 26.183 46.162 26.2895 44.9609 26.559C42.3415 27.147 39.8811 28.1195 37.6947 29.4312C36.8894 29.9144 36.1071 30.3103 35.9563 30.3111C35.7992 30.312 35.0779 29.8865 34.2699 29.3165C33.4633 28.7475 32.7395 28.3204 32.5816 28.3204C31.9618 28.3204 28.3203 31.9681 28.3203 32.5889C28.3203 32.751 28.7361 33.4466 29.3164 34.2554C29.9082 35.0803 30.3125 35.7586 30.3125 35.9268C30.3125 36.0825 29.9772 36.7682 29.5675 37.4507C29.1577 38.1331 28.6898 38.9551 28.5275 39.2774C27.9088 40.5066 27.1313 42.6472 26.7411 44.1962C26.518 45.0822 26.2749 45.88 26.201 45.9692C26.0272 46.1786 25.5108 46.3123 23.9314 46.5569C22.187 46.827 22.1659 46.8504 22.054 48.6415C21.9614 50.1227 22.0686 52.5087 22.2426 52.8392C22.4134 53.1635 22.68 53.2515 24.2817 53.5118C25.9244 53.7789 26.2844 53.9342 26.3997 54.4254C27.2361 57.989 28.0342 60.0421 29.5488 62.5273C29.9688 63.2165 30.3125 63.9099 30.3125 64.0682C30.3125 64.242 29.9176 64.9094 29.3164 65.7515C28.7551 66.5378 28.3203 67.2652 28.3203 67.4181C28.3203 68.035 31.9675 71.6797 32.5849 71.6797C32.7386 71.6797 33.1999 71.4437 33.6099 71.1553C35.3563 69.9268 35.7434 69.6876 35.985 69.6876C36.1252 69.6876 36.6597 69.9553 37.1728 70.2825C39.2186 71.5875 42.1199 72.8016 44.4336 73.321C45.0781 73.4657 45.7221 73.6563 45.8646 73.7448C46.1632 73.9302 46.271 74.2934 46.5559 76.0719C46.8328 77.8012 46.8725 77.8386 48.5461 77.9528C49.2485 78.0006 50.4562 78.0051 51.2299 77.9626C53.0444 77.863 53.1649 77.7856 53.3632 76.5903C53.4423 76.1131 53.5665 75.3667 53.6391 74.9316C53.7118 74.4965 53.8588 74.0325 53.9658 73.9007C54.1031 73.7313 54.5729 73.5619 55.5664 73.3234C58.1295 72.7082 60.7356 71.6167 62.8272 70.2825C63.3403 69.9553 63.8704 69.6876 64.0054 69.6876C64.2772 69.6876 64.8334 70.0222 66.2135 71.0166C66.7197 71.3813 67.2589 71.6797 67.4116 71.6797C68.0407 71.6797 71.6797 68.0422 71.6797 67.4135C71.6797 67.2629 71.3288 66.6451 70.9 66.0406C69.8675 64.5851 69.6884 64.2836 69.688 63.9992C69.6877 63.8677 69.9553 63.3403 70.2825 62.8273C71.6061 60.7521 72.7902 57.922 73.3203 55.5665C73.4653 54.9219 73.6563 54.278 73.7448 54.1355C73.9302 53.8369 74.2933 53.7291 76.0719 53.4442C77.8011 53.1673 77.8386 53.1276 77.9527 51.454C78.0509 50.0129 77.9417 47.502 77.7665 47.1748C77.5848 46.8351 77.3333 46.7508 75.7183 46.4883C74.8858 46.3529 74.0888 46.1663 73.9473 46.0735C73.6559 45.8827 73.6592 45.8913 73.3108 44.3751C72.7753 42.0441 71.587 39.218 70.2825 37.1728C69.9553 36.6598 69.6877 36.1324 69.688 36.001C69.6884 35.7165 69.8675 35.415 70.9 33.9595C71.3288 33.355 71.6797 32.7381 71.6797 32.5886C71.6797 32.2604 70.888 31.3009 69.5531 30.0115C68.1593 28.665 67.7241 28.3204 67.4178 28.3204C67.2664 28.3204 66.5427 28.7567 65.7651 29.3165C64.8691 29.9616 64.2739 30.3123 64.0756 30.3119C63.9074 30.3115 63.2949 30.0179 62.7149 29.6596C60.5272 28.3082 58.289 27.3655 55.7897 26.7426C53.9631 26.2874 53.8108 26.183 53.6834 25.2977C53.6397 24.9944 53.5182 24.2506 53.4133 23.6449C53.1475 22.1097 53.1696 22.1226 50.7031 22.0606C49.6397 22.0337 48.4088 22.047 47.9681 22.09ZM47.8634 28.0991C40.3561 28.8233 33.5265 33.5611 30.255 40.3144C27.6999 45.589 27.3122 51.4426 29.1517 56.9691C32.975 68.4558 45.4313 74.6892 56.9198 70.8651C68.1146 67.1385 74.3907 55.2744 71.1406 43.9826C70.0866 40.321 68.2279 37.165 65.5337 34.4629C60.8916 29.8069 54.3992 27.4688 47.8634 28.0991ZM48.3903 30.0866C41.4841 30.6175 35.28 34.8047 32.1377 41.0557C28.9156 47.4656 29.4041 55.1297 33.4174 61.1329C39.0342 69.5345 50.0791 72.3838 59.1145 67.7622C67.9084 63.2639 72.0747 52.9995 68.926 43.5899C66.7029 36.9462 60.941 31.8491 54.0514 30.4315C53.0977 30.2352 50.1027 29.9226 49.707 29.978C49.6426 29.987 49.0501 30.0359 48.3903 30.0866ZM46.543 32.0291C45.4366 32.296 44.7317 32.8426 44.2992 33.7696C44.0365 34.3326 44.0257 34.4669 44.0246 37.201C44.0236 39.8061 44.0061 40.0522 43.8184 40.1149C42.2557 40.6365 41.1808 41.5267 40.5343 42.8347L40.0977 43.7181L40.0652 51.7402C40.0365 58.8403 40.0545 59.8375 40.2221 60.4183C40.6586 61.9314 41.8571 63.186 43.3756 63.7194L43.9649 63.9264L44.0295 64.9027C44.1049 66.0399 44.3587 66.6213 45.0543 67.2498C45.8404 67.96 46.0302 67.9883 50 67.9883C53.9699 67.9883 54.1596 67.96 54.9457 67.2498C55.6413 66.6213 55.8951 66.0399 55.9705 64.9027L56.0352 63.9264L56.6411 63.7135C57.8947 63.2731 58.9242 62.3183 59.5346 61.0301L59.9024 60.254V51.9922V43.7305L59.5291 42.9427C59.0135 41.8541 58.2412 41.0629 57.2177 40.5744C56.7607 40.3563 56.2944 40.1483 56.1816 40.1121C55.9938 40.052 55.9765 39.8072 55.9754 37.201C55.9743 34.4526 55.9649 34.3356 55.6968 33.7696C55.3692 33.0778 54.8103 32.5153 54.1602 32.2232C53.7468 32.0373 53.2825 32.0101 50.2344 31.9926C48.333 31.9815 46.6719 31.9981 46.543 32.0291ZM46.2586 34.3713C46.0289 34.6633 46.0156 34.8263 46.0156 37.3596V40.0391H47.4805H48.9453V39.0401C48.9453 38.0936 48.9306 38.0356 48.6642 37.9342C48.3027 37.7969 48.0078 37.3736 48.0078 36.9922C48.0078 36.2712 48.6364 35.9388 50 35.9388C51.3636 35.9388 51.9922 36.2712 51.9922 36.9922C51.9922 37.3736 51.6974 37.7969 51.3358 37.9342C51.0695 38.0356 51.0547 38.0936 51.0547 39.0401V40.0391H52.5195H53.9844V37.3596C53.9844 34.8263 53.9711 34.6633 53.7415 34.3713L53.4986 34.0626H50H46.5014L46.2586 34.3713ZM43.6977 42.3334C43.0243 42.6689 42.5715 43.1426 42.25 43.8477C42.0502 44.2861 42.0364 44.8138 42.0364 51.9922C42.0364 59.4638 42.0427 59.6821 42.2751 60.1954C42.5956 60.9035 43.0263 61.341 43.7305 61.6739L44.3164 61.9508H50H55.6836L56.2695 61.6739C56.9737 61.341 57.4044 60.9035 57.7249 60.1954C57.9572 59.6822 57.9637 59.461 57.9662 51.9859L57.9688 44.3039L57.6666 43.6977C57.3311 43.0244 56.8575 42.5715 56.1524 42.2501C55.7196 42.0529 55.2472 42.0362 49.9937 42.0339L44.3039 42.0313L43.6977 42.3334ZM49.7798 45.5001C47.6592 46.5839 45.8414 48.3659 44.8904 50.2929C44.2869 51.5158 44.0278 52.606 44.0268 53.9258C44.0257 55.6574 44.5754 56.9976 45.7815 58.2032C47.0427 59.4639 48.2743 59.9631 50.1125 59.9585C53.3541 59.9506 55.9766 57.2527 55.9766 53.9258C55.9766 53.0209 55.7302 51.9025 55.4088 51.3483C54.9413 50.5423 53.8353 50.3713 53.2608 51.0163C52.47 51.9038 52.3554 51.9922 51.9958 51.9922C51.7637 51.9922 51.5249 51.8871 51.3424 51.7045C50.7771 51.1394 51.0232 49.5211 51.9514 47.7005C52.4108 46.7992 52.4852 46.5622 52.4251 46.1918C52.3405 45.67 52.0718 45.3387 51.5565 45.1206C51.013 44.8906 50.943 44.9056 49.7798 45.5001ZM48.9934 48.3387C48.2573 48.8727 47.382 49.9072 46.9315 50.776C46.2696 52.0518 46.0833 52.7402 46.0784 53.9279C46.0746 54.8905 46.1086 55.0545 46.46 55.7687C46.88 56.6222 47.4672 57.2051 48.3434 57.6381C48.7933 57.8604 49.0782 57.9069 50 57.9083C50.9813 57.91 51.1916 57.8718 51.7745 57.5856C52.5522 57.2036 53.3215 56.4135 53.6632 55.6457C53.8133 55.3083 53.9273 54.7528 53.9601 54.2004L54.0132 53.303L53.325 53.6542C52.7179 53.9639 52.547 53.9992 51.875 53.9538C50.6469 53.8709 49.6699 53.1992 49.2045 52.118C48.9512 51.5294 48.9904 49.924 49.2834 48.8884C49.4109 48.4382 49.5008 48.0556 49.4833 48.038C49.4658 48.0205 49.2453 48.1559 48.9934 48.3387ZM20.0471 50.0001C20.0471 50.9991 20.0652 51.4077 20.0871 50.9083C20.1091 50.4088 20.1091 49.5913 20.0871 49.0919C20.0652 48.5924 20.0471 49.001 20.0471 50.0001ZM46.0156 64.6913C46.0156 65.1499 46.0814 65.4035 46.2586 65.6288L46.5014 65.9376H49.9552H53.4091L53.6967 65.6499C53.9329 65.4137 53.9844 65.2462 53.9844 64.7124V64.0626H50H46.0156V64.6913Z" fill="url(#paint1_linear_176_731)"/>
</g>
<defs>
<linearGradient id="paint0_linear_176_731" x1="30.5071" y1="13.7879" x2="71.4742" y2="13.819" gradientUnits="userSpaceOnUse">
<stop stop-color="#3887DB"/>
<stop offset="1" stop-color="#1E4875"/>
</linearGradient>
<linearGradient id="paint1_linear_176_731" x1="38.3728" y1="28.3058" x2="62.9817" y2="28.3245" gradientUnits="userSpaceOnUse">
<stop stop-color="#3887DB"/>
<stop offset="1" stop-color="#1E4875"/>
</linearGradient>
<clipPath id="clip0_176_731">
<rect width="60" height="60" fill="white" transform="translate(20 20)"/>
</clipPath>
</defs>
</svg>
