<svg width="100" height="100" viewBox="0 0 100 100" fill="none" xmlns="http://www.w3.org/2000/svg">
<circle cx="50" cy="50" r="48.5" fill="white" stroke="url(#paint0_linear_176_711)" stroke-width="3"/>
<path d="M50 38.6536C52.7045 38.6536 54.9039 36.4543 54.9039 33.7498C54.9039 31.0453 52.7045 28.8459 50 28.8459C47.2956 28.8459 45.0962 31.0453 45.0962 33.7498C45.0962 36.4543 47.2956 38.6536 50 38.6536ZM50 30.4806C51.803 30.4806 53.2693 31.9468 53.2693 33.7498C53.2693 35.5528 51.803 37.019 50 37.019C48.1971 37.019 46.7308 35.5528 46.7308 33.7498C46.7308 31.9468 48.1971 30.4806 50 30.4806Z" fill="url(#paint1_linear_176_711)"/>
<path d="M71.0703 41.9229C69.0099 35.2929 63.8053 29.9134 57.2529 27.6257L57.8545 26.1145L55.3903 26.6074C53.8153 26.9212 52.1734 26.2951 51.2089 25.0095L50.0001 23.397L48.7913 25.0095C47.8269 26.2951 46.1858 26.9212 44.61 26.6074L42.1458 26.1145L42.7474 27.6249C36.1762 29.9076 31.0852 35.1262 28.9741 41.7717C26.7191 42.8097 25.0477 44.9657 24.7249 47.4986C24.3596 50.3657 25.6387 53.1094 28.0628 54.659C28.487 54.9303 28.7501 55.4518 28.7501 56.0214V57.4517C28.7501 59.1215 30.0137 60.4872 31.632 60.6817C33.2388 63.0895 35.336 65.1916 37.7405 66.8034V72.1633H27.9328V73.7979H72.0675V72.1633H60.6251V67.7956C64.017 65.928 66.8481 63.2129 68.8587 59.9037H73.7021V58.269H72.0675V56.6344H75.3367V41.9229H71.0703ZM73.7021 48.4613H70.4328V43.5575H73.7021V48.4613ZM65.529 54.9998V50.096H68.7982V54.9998H65.529ZM60.6251 50.096H63.8944V54.9998H60.6251V50.096ZM60.6251 48.4613V43.5575H63.8944V48.4613H60.6251ZM65.529 48.4613V43.5575H68.7982V48.4613H65.529ZM44.6149 28.2657C46.6459 28.5517 48.7178 27.732 50.0001 26.1178C51.2825 27.732 53.3552 28.5525 55.3862 28.2657C55.047 30.3269 55.8398 32.4209 57.4924 33.7416C55.8414 35.0158 55.0078 37.0722 55.2742 39.1105C53.2375 38.885 51.2449 39.7399 49.9993 41.3802C48.8862 39.9801 47.1804 39.1776 45.4191 39.1776C45.1511 39.1776 44.8822 39.1955 44.6141 39.2339C44.9541 37.1686 44.158 35.0706 42.4981 33.7498C44.158 32.429 44.9541 30.331 44.6149 28.2657ZM28.9438 53.2818C27.0567 52.0763 26.062 49.9399 26.3473 47.7053C26.6734 45.1414 28.7779 43.0688 31.3492 42.7778C31.5764 42.7525 31.802 42.7402 32.0259 42.7402C33.4358 42.7402 34.7672 43.2445 35.8288 44.1934C37.0442 45.2779 37.7405 46.8341 37.7405 48.4613C37.7405 50.4147 36.7565 52.2136 35.1088 53.2728C34.2449 53.8278 33.7169 54.771 33.6638 55.8171H32.8367V50.7629C33.7856 50.4245 34.4713 49.5255 34.4713 48.4613C34.4713 47.1095 33.3712 46.0094 32.0194 46.0094C30.6676 46.0094 29.5675 47.1095 29.5675 48.4613C29.5675 49.5255 30.2532 50.4245 31.2021 50.7629V55.8171H30.3725C30.312 54.762 29.7914 53.8237 28.9438 53.2818ZM31.2021 48.4613C31.2021 48.011 31.569 47.644 32.0194 47.644C32.4697 47.644 32.8367 48.011 32.8367 48.4613C32.8367 48.9117 32.4697 49.2787 32.0194 49.2787C31.569 49.2787 31.2021 48.9117 31.2021 48.4613ZM30.3848 57.4517H33.654C33.654 58.3532 32.9209 59.0863 32.0194 59.0863C31.1179 59.0863 30.3848 58.3532 30.3848 57.4517ZM54.0867 59.0863V62.8296L50.8175 62.1758V72.1633H47.5482V60.5412L45.9136 60.8681V59.0863H54.0867ZM45.9136 62.5354V72.1633H39.3751V63.8431L45.9136 62.5354ZM52.4521 72.1633V64.17L58.9905 65.4777V72.1633H52.4521ZM60.6251 65.9117V64.1373L55.7213 63.1565V57.4517H54.0867V55.8171H52.4521V57.4517H50.8175V54.1825H49.1828V57.4517H47.5482V55.8171H45.9136V57.4517H44.279V61.195L37.7405 62.5027V64.7985C36.0928 63.5578 34.6217 62.0671 33.4153 60.3957C34.5187 59.8701 35.2886 58.7529 35.2886 57.4517V55.9871C35.2886 55.4403 35.5583 54.9271 35.9931 54.6476C38.1108 53.2867 39.3751 50.9738 39.3751 48.4613C39.3751 46.369 38.4794 44.3691 36.9183 42.9748C35.3581 41.5804 33.2576 40.9151 31.1653 41.1538C31.0762 41.1636 30.9896 41.1824 30.9013 41.1955C33.0124 35.6313 37.4308 31.2775 43.0449 29.2497C43.0293 30.6686 42.3011 32.022 41.013 32.7944L39.4217 33.7498L41.0138 34.7052C42.7899 35.771 43.5213 37.9401 42.7506 39.8649L42.1458 41.3851L44.61 40.8923C46.1858 40.5792 47.8269 41.2045 48.7913 42.4901L50.0001 44.1026L51.285 42.3904C52.2249 41.1366 53.7688 40.5138 55.3175 40.7656L57.6142 41.1399L57.1238 39.8224C56.4193 37.9279 57.1655 35.7988 58.8974 34.7592L60.5794 33.7498L58.9873 32.7944C57.7 32.022 56.9726 30.6694 56.9563 29.2513C62.7518 31.3575 67.3794 36.0857 69.3581 41.9229H58.9905V56.6344H62.2598V58.269H60.6251V59.9037H66.9315C65.2846 62.3384 63.1351 64.3817 60.6251 65.9117ZM70.4328 58.269H63.8944V56.6344H70.4328V58.269ZM70.4328 54.9998V50.096H73.7021V54.9998H70.4328Z" fill="url(#paint2_linear_176_711)"/>
<path d="M73.7021 72.1633H75.3368V73.7979H73.7021V72.1633Z" fill="url(#paint3_linear_176_711)"/>
<path d="M24.6636 72.1633H26.2982V73.7979H24.6636V72.1633Z" fill="url(#paint4_linear_176_711)"/>
<path d="M54.0867 68.894H57.3559V70.5287H54.0867V68.894Z" fill="url(#paint5_linear_176_711)"/>
<path d="M41.0098 65.6248H44.279V67.2594H41.0098V65.6248Z" fill="url(#paint6_linear_176_711)"/>
<path d="M41.0098 68.894H44.279V70.5287H41.0098V68.894Z" fill="url(#paint7_linear_176_711)"/>
<path d="M44.2791 46.0095H55.7214V47.6441H44.2791V46.0095Z" fill="url(#paint8_linear_176_711)"/>
<path d="M54.0867 49.2786H55.7213V50.9132H54.0867V49.2786Z" fill="url(#paint9_linear_176_711)"/>
<path d="M47.5483 49.2786H49.183V50.9132H47.5483V49.2786Z" fill="url(#paint10_linear_176_711)"/>
<path d="M44.2791 49.2786H45.9137V50.9132H44.2791V49.2786Z" fill="url(#paint11_linear_176_711)"/>
<path d="M50.8174 49.2786H52.452V50.9132H50.8174V49.2786Z" fill="url(#paint12_linear_176_711)"/>
<defs>
<linearGradient id="paint0_linear_176_711" x1="30.5071" y1="13.7879" x2="71.4742" y2="13.819" gradientUnits="userSpaceOnUse">
<stop stop-color="#3887DB"/>
<stop offset="1" stop-color="#1E4875"/>
</linearGradient>
<linearGradient id="paint1_linear_176_711" x1="48.0882" y1="30.1982" x2="52.1062" y2="30.2013" gradientUnits="userSpaceOnUse">
<stop stop-color="#3887DB"/>
<stop offset="1" stop-color="#1E4875"/>
</linearGradient>
<linearGradient id="paint2_linear_176_711" x1="40.1223" y1="30.3462" x2="60.8817" y2="30.362" gradientUnits="userSpaceOnUse">
<stop stop-color="#3887DB"/>
<stop offset="1" stop-color="#1E4875"/>
</linearGradient>
<linearGradient id="paint3_linear_176_711" x1="74.2008" y1="72.3887" x2="74.8705" y2="72.3892" gradientUnits="userSpaceOnUse">
<stop stop-color="#3887DB"/>
<stop offset="1" stop-color="#1E4875"/>
</linearGradient>
<linearGradient id="paint4_linear_176_711" x1="25.1622" y1="72.3887" x2="25.8319" y2="72.3892" gradientUnits="userSpaceOnUse">
<stop stop-color="#3887DB"/>
<stop offset="1" stop-color="#1E4875"/>
</linearGradient>
<linearGradient id="paint5_linear_176_711" x1="55.084" y1="69.1194" x2="56.4233" y2="69.1215" gradientUnits="userSpaceOnUse">
<stop stop-color="#3887DB"/>
<stop offset="1" stop-color="#1E4875"/>
</linearGradient>
<linearGradient id="paint6_linear_176_711" x1="42.0071" y1="65.8501" x2="43.3464" y2="65.8522" gradientUnits="userSpaceOnUse">
<stop stop-color="#3887DB"/>
<stop offset="1" stop-color="#1E4875"/>
</linearGradient>
<linearGradient id="paint7_linear_176_711" x1="42.0071" y1="69.1194" x2="43.3464" y2="69.1215" gradientUnits="userSpaceOnUse">
<stop stop-color="#3887DB"/>
<stop offset="1" stop-color="#1E4875"/>
</linearGradient>
<linearGradient id="paint8_linear_176_711" x1="47.7698" y1="46.2349" x2="52.4572" y2="46.2598" gradientUnits="userSpaceOnUse">
<stop stop-color="#3887DB"/>
<stop offset="1" stop-color="#1E4875"/>
</linearGradient>
<linearGradient id="paint9_linear_176_711" x1="54.5853" y1="49.5039" x2="55.255" y2="49.5045" gradientUnits="userSpaceOnUse">
<stop stop-color="#3887DB"/>
<stop offset="1" stop-color="#1E4875"/>
</linearGradient>
<linearGradient id="paint10_linear_176_711" x1="48.047" y1="49.5039" x2="48.7167" y2="49.5045" gradientUnits="userSpaceOnUse">
<stop stop-color="#3887DB"/>
<stop offset="1" stop-color="#1E4875"/>
</linearGradient>
<linearGradient id="paint11_linear_176_711" x1="44.7777" y1="49.5039" x2="45.4474" y2="49.5045" gradientUnits="userSpaceOnUse">
<stop stop-color="#3887DB"/>
<stop offset="1" stop-color="#1E4875"/>
</linearGradient>
<linearGradient id="paint12_linear_176_711" x1="51.3161" y1="49.5039" x2="51.9857" y2="49.5045" gradientUnits="userSpaceOnUse">
<stop stop-color="#3887DB"/>
<stop offset="1" stop-color="#1E4875"/>
</linearGradient>
</defs>
</svg>
